<svg width="44" height="48" >
<g transform="translate(-180 -60) scale(1.0 1.0) scale(1.0 1.0)" >
<path stroke-width="0.3" fill="black" stroke="none" stroke-dasharray="none" d="M205.49196185302733 84.97264M196.46316185302734 80.73184C196.49052185302733 80.70448,196.57260185302732 80.70448,196.68204185302733 80.70448C196.76412185302735 80.70448,196.81884185302732 80.70448,196.87356185302733 80.70448C196.98300185302733 80.73184,197.06508185302732 80.75919999999999,197.33868185302734 80.95072C199.36332185302734 82.29136,202.15404185302734 83.46784,204.97212185302735 84.15183999999999L205.54668185302734 84.26128C205.95708185302735 84.37071999999999,206.14860185302734 84.61695999999999,206.14860185302734 85C206.14860185302734 85.38304,205.95708185302735 85.60191999999999,205.54668185302734 85.71136L204.97212185302735 85.82079999999999C202.15404185302734 86.5048,199.36332185302734 87.68128,197.33868185302734 89.02192C196.92828185302733 89.29552,196.87356185302733 89.29552,196.68204185302733 89.29552C196.24428185302733 89.29552,195.97068185302734 88.93984,195.97068185302734 88.5568C195.97068185302734 88.44736,195.99804185302733 88.31056,196.08012185302732 88.17376C196.16220185302734 88.03696,196.24428185302733 88.00959999999999,196.51788185302735 87.81808C198.13212185302734 86.75104,199.96524185302732 85.87552,202.01724185302734 85.19152C202.34556185302733 85.08208,202.59180185302733 85,202.59180185302733 84.97264C202.59180185302733 84.97264,202.34556185302733 84.91792,202.01724185302734 84.80848C199.96524185302732 84.12448,198.13212185302734 83.24896,196.51788185302735 82.18192C196.24428185302733 81.9904,196.16220185302734 81.93568,196.08012185302732 81.79888C195.99804185302733 81.68944,195.97068185302734 81.58,195.97068185302734 81.41584C195.97068185302734 81.11488,196.16220185302734 80.81392,196.46316185302734 80.73184"></path>
</g>
</svg>