<?xml version="1.0" encoding="UTF-8" standalone="no"?>
<svg
   xmlns:dc="http://purl.org/dc/elements/1.1/"
   xmlns:cc="http://creativecommons.org/ns#"
   xmlns:rdf="http://www.w3.org/1999/02/22-rdf-syntax-ns#"
   xmlns:svg="http://www.w3.org/2000/svg"
   xmlns="http://www.w3.org/2000/svg"
   xmlns:sodipodi="http://sodipodi.sourceforge.net/DTD/sodipodi-0.dtd"
   xmlns:inkscape="http://www.inkscape.org/namespaces/inkscape"
   width="44"
   height="48"
   version="1.1"
   id="svg10"
   sodipodi:docname="articulation.svg"
   inkscape:version="0.92.4 (5da689c313, 2019-01-14)">
  <metadata
     id="metadata16">
    <rdf:RDF>
      <cc:Work
         rdf:about="">
        <dc:format>image/svg+xml</dc:format>
        <dc:type
           rdf:resource="http://purl.org/dc/dcmitype/StillImage" />
      </cc:Work>
    </rdf:RDF>
  </metadata>
  <defs
     id="defs14" />
  <sodipodi:namedview
     pagecolor="#ffffff"
     bordercolor="#666666"
     borderopacity="1"
     objecttolerance="10"
     gridtolerance="10"
     guidetolerance="10"
     inkscape:pageopacity="0"
     inkscape:pageshadow="2"
     inkscape:window-width="1920"
     inkscape:window-height="1017"
     id="namedview12"
     showgrid="false"
     inkscape:zoom="4.9166667"
     inkscape:cx="-11.050847"
     inkscape:cy="24"
     inkscape:window-x="-8"
     inkscape:window-y="-8"
     inkscape:window-maximized="1"
     inkscape:current-layer="svg10" />
  <g
     transform="matrix(1.8393044,0,0,1.3077704,-355.4621,-85.652009)"
     id="g4">
    <path
       d="m 205.49196,84.97264 m -9.0288,-4.2408 c 0.0274,-0.02736 0.10944,-0.02736 0.21888,-0.02736 0.0821,0 0.1368,0 0.19152,0 0.10944,0.02736 0.19152,0.05472 0.46512,0.24624 2.02464,1.34064 4.81536,2.51712 7.63344,3.20112 l 0.57456,0.10944 c 0.4104,0.10944 0.60192,0.35568 0.60192,0.73872 0,0.38304 -0.19152,0.60192 -0.60192,0.71136 l -0.57456,0.10944 c -2.81808,0.684 -5.6088,1.86048 -7.63344,3.20112 -0.4104,0.2736 -0.46512,0.2736 -0.65664,0.2736 -0.43776,0 -0.71136,-0.35568 -0.71136,-0.73872 0,-0.10944 0.0274,-0.24624 0.10944,-0.38304 0.0821,-0.1368 0.16416,-0.16416 0.43776,-0.35568 1.61424,-1.06704 3.44736,-1.94256 5.49936,-2.62656 0.32832,-0.10944 0.57456,-0.19152 0.57456,-0.21888 0,0 -0.24624,-0.05472 -0.57456,-0.16416 -2.052,-0.684 -3.88512,-1.55952 -5.49936,-2.62656 -0.2736,-0.19152 -0.35568,-0.24624 -0.43776,-0.38304 -0.0821,-0.10944 -0.10944,-0.21888 -0.10944,-0.38304 0,-0.30096 0.19152,-0.60192 0.49248,-0.684"
       id="path2"
       inkscape:connector-curvature="0"
       style="fill:#000000;stroke:none;stroke-width:0.30000001;stroke-dasharray:none" />
  </g>
  <g
     transform="matrix(1.7005915,0,0,1.3534508,-673.09405,-70.491861)"
     id="g8">
    <path
       d="m 415.40525,69.00816 m -0.24624,-5.8824 c 0.0821,-0.05472 0.1368,-0.05472 0.24624,-0.05472 0.21888,0 0.38304,0.10944 0.51984,0.32832 0.0274,0.08208 0.0274,0.10944 0.0274,1.72368 v 1.58688 h 0.0821 c 1.58688,0.2736 2.90016,1.47744 3.31056,3.03696 0.0821,0.35568 0.10944,0.73872 0.10944,1.06704 0,1.86048 -1.2312,3.58416 -3.06432,4.02192 C 416.06189,74.94528 415.73357,75 415.40525,75 c -1.86048,0 -3.52944,-1.25856 -3.9672,-3.1464 -0.0821,-0.35568 -0.10944,-0.684 -0.10944,-0.98496 0,-2.02464 1.39536,-3.88512 3.42,-4.15872 h 0.0821 v -1.58688 c 0.0274,-1.61424 0.0274,-1.6416 0.0547,-1.72368 0.0547,-0.10944 0.16416,-0.21888 0.2736,-0.2736 m -0.32832,6.2928 c 0,-1.42272 0,-1.53216 -0.0547,-1.53216 0,0 0,0 0,0 -0.32832,0.02736 -1.06704,0.4104 -1.45008,0.8208 -0.60192,0.60192 -0.87552,1.34064 -0.87552,2.07936 0,1.55952 1.17648,3.03696 2.92752,3.03696 1.75104,0 2.95488,-1.47744 2.95488,-3.03696 0,-0.73872 -0.30096,-1.47744 -0.90288,-2.07936 -0.35568,-0.4104 -1.14912,-0.8208 -1.47744,-0.8208 0,0 0,0.71136 0,1.53216 0,1.55952 0,1.55952 -0.0274,1.61424 -0.1368,0.24624 -0.35568,0.35568 -0.51984,0.35568 -0.21888,0 -0.43776,-0.10944 -0.51984,-0.35568 -0.0274,-0.05472 -0.0274,-0.05472 -0.0547,-1.61424"
       id="path6"
       inkscape:connector-curvature="0"
       style="fill:#000000;stroke:none;stroke-width:0.30000001;stroke-dasharray:none" />
  </g>
</svg>
