<?xml version="1.0" encoding="UTF-8" standalone="no"?>
<svg
   xmlns:dc="http://purl.org/dc/elements/1.1/"
   xmlns:cc="http://creativecommons.org/ns#"
   xmlns:rdf="http://www.w3.org/1999/02/22-rdf-syntax-ns#"
   xmlns:svg="http://www.w3.org/2000/svg"
   xmlns="http://www.w3.org/2000/svg"
   xmlns:sodipodi="http://sodipodi.sourceforge.net/DTD/sodipodi-0.dtd"
   xmlns:inkscape="http://www.inkscape.org/namespaces/inkscape"
   width="31.929153"
   height="42.746567"
   version="1.1"
   id="svg6"
   sodipodi:docname="chords.svg"
   inkscape:version="0.92.4 (5da689c313, 2019-01-14)">
  <metadata
     id="metadata12">
    <rdf:RDF>
      <cc:Work
         rdf:about="">
        <dc:format>image/svg+xml</dc:format>
        <dc:type
           rdf:resource="http://purl.org/dc/dcmitype/StillImage" />
        <dc:title></dc:title>
      </cc:Work>
    </rdf:RDF>
  </metadata>
  <defs
     id="defs10" />
  <sodipodi:namedview
     pagecolor="#ffffff"
     bordercolor="#666666"
     borderopacity="1"
     objecttolerance="10"
     gridtolerance="10"
     guidetolerance="10"
     inkscape:pageopacity="0"
     inkscape:pageshadow="2"
     inkscape:window-width="1920"
     inkscape:window-height="1017"
     id="namedview8"
     showgrid="false"
     inkscape:zoom="10.354677"
     inkscape:cx="24.798457"
     inkscape:cy="5.5744667"
     inkscape:window-x="1912"
     inkscape:window-y="-8"
     inkscape:window-maximized="1"
     inkscape:current-layer="svg6"
     fit-margin-top="5"
     fit-margin-left="5"
     fit-margin-right="5"
     fit-margin-bottom="5" />
  <g
     class="vf-stavenote"
     id="vf-auto8166"
     transform="translate(-499.16356,-78.980777)">
    <g
       class="vf-note"
       pointer-events="bounding-box"
       id="g13">
      <g
         class="vf-notehead"
         pointer-events="bounding-box"
         id="g7">
        <path
           d="m 506.00009,100 m 7.69392,-5.16672 c 0.30888,-0.05616 0.61776,-0.05616 0.92664,-0.05616 4.43664,0 8.1432,1.9656 8.67672,4.60512 0.0281,0.25272 0.0842,0.47736 0.0842,0.64584 0,2.89224 -3.81888,5.22288 -8.73288,5.22288 -4.914,0 -8.64864,-2.3868 -8.64864,-5.22288 0,-0.33696 0.0281,-0.67392 0.1404,-1.03896 0.67392,-2.21832 3.81888,-3.9312 7.55352,-4.15584 m 0.4212,0.64584 c -0.1404,-0.02808 -0.33696,-0.02808 -0.47736,-0.02808 -1.76904,0 -2.83608,1.51632 -2.83608,3.39768 0,1.01088 0.30888,2.106 0.95472,3.20112 1.06704,1.6848 2.61144,2.5272 3.9312,2.5272 1.1232,0 2.106,-0.58968 2.55528,-1.8252 0.19656,-0.50544 0.2808,-1.01088 0.2808,-1.5444 0,-2.5272 -1.93752,-5.3352 -4.40856,-5.72832"
           id="path5"
           inkscape:connector-curvature="0"
           style="fill:#000000;stroke:none;stroke-width:0.30000001;stroke-dasharray:none" />
      </g>
      <g
         class="vf-notehead"
         pointer-events="bounding-box"
         id="g11">
        <path
           d="m 506.00009,90 m 7.69392,-5.16672 c 0.30888,-0.05616 0.61776,-0.05616 0.92664,-0.05616 4.43664,0 8.1432,1.9656 8.67672,4.60512 0.0281,0.25272 0.0842,0.47736 0.0842,0.64584 0,2.89224 -3.81888,5.22288 -8.73288,5.22288 -4.914,0 -8.64864,-2.3868 -8.64864,-5.22288 0,-0.33696 0.0281,-0.67392 0.1404,-1.03896 0.67392,-2.21832 3.81888,-3.9312 7.55352,-4.15584 m 0.4212,0.64584 c -0.1404,-0.02808 -0.33696,-0.02808 -0.47736,-0.02808 -1.76904,0 -2.83608,1.51632 -2.83608,3.39768 0,1.01088 0.30888,2.106 0.95472,3.20112 1.06704,1.6848 2.61144,2.5272 3.9312,2.5272 1.1232,0 2.106,-0.58968 2.55528,-1.8252 0.19656,-0.50544 0.2808,-1.01088 0.2808,-1.5444 0,-2.5272 -1.93752,-5.3352 -4.40856,-5.72832"
           id="path9"
           inkscape:connector-curvature="0"
           style="fill:#000000;stroke:none;stroke-width:0.30000001;stroke-dasharray:none" />
      </g>
    </g>
    <g
       class="vf-modifiers"
       id="g15" />
    <path
       d="m 505.71451,110.832 m 7.69392,-5.16672 c 0.30888,-0.0562 0.61776,-0.0562 0.92664,-0.0562 4.43664,0 8.1432,1.9656 8.67672,4.60512 0.0281,0.25272 0.0842,0.47736 0.0842,0.64584 0,2.89224 -3.81888,5.22288 -8.73288,5.22288 -4.914,0 -8.64864,-2.3868 -8.64864,-5.22288 0,-0.33696 0.0281,-0.67392 0.1404,-1.03896 0.67392,-2.21832 3.81888,-3.9312 7.55352,-4.15584 m 0.4212,0.64584 c -0.1404,-0.0281 -0.33696,-0.0281 -0.47736,-0.0281 -1.76904,0 -2.83608,1.51632 -2.83608,3.39768 0,1.01088 0.30888,2.106 0.95472,3.20112 1.06704,1.6848 2.61144,2.5272 3.9312,2.5272 1.1232,0 2.106,-0.58968 2.55528,-1.8252 0.19656,-0.50544 0.2808,-1.01088 0.2808,-1.5444 0,-2.5272 -1.93752,-5.3352 -4.40856,-5.72832"
       id="path9-9"
       inkscape:connector-curvature="0"
       style="fill:#000000;stroke:none;stroke-width:0.30000001;stroke-dasharray:none" />
  </g>
  <path
     style="color:#000000;font-style:normal;font-variant:normal;font-weight:normal;font-stretch:normal;font-size:medium;line-height:normal;font-family:sans-serif;font-variant-ligatures:normal;font-variant-position:normal;font-variant-caps:normal;font-variant-numeric:normal;font-variant-alternates:normal;font-feature-settings:normal;text-indent:0;text-align:start;text-decoration:none;text-decoration-line:none;text-decoration-style:solid;text-decoration-color:#000000;letter-spacing:normal;word-spacing:normal;text-transform:none;writing-mode:lr-tb;direction:ltr;text-orientation:mixed;dominant-baseline:auto;baseline-shift:baseline;text-anchor:start;white-space:normal;shape-padding:0;clip-rule:nonzero;display:inline;overflow:visible;visibility:visible;opacity:1;isolation:auto;mix-blend-mode:normal;color-interpolation:sRGB;color-interpolation-filters:linearRGB;solid-color:#000000;solid-opacity:1;vector-effect:none;fill:#000000;fill-opacity:1;fill-rule:nonzero;stroke:none;stroke-width:1px;stroke-linecap:butt;stroke-linejoin:miter;stroke-miterlimit:4;stroke-dasharray:none;stroke-dashoffset:0;stroke-opacity:1;color-rendering:auto;image-rendering:auto;shape-rendering:auto;text-rendering:auto;enable-background:accumulate"
     d="m 26.925154,5 -20.7636692,0.09766 0.004,1 L 26.929154,6 Z"
     id="path824"
     inkscape:connector-curvature="0" />
  <path
     style="color:#000000;font-style:normal;font-variant:normal;font-weight:normal;font-stretch:normal;font-size:medium;line-height:normal;font-family:sans-serif;font-variant-ligatures:normal;font-variant-position:normal;font-variant-caps:normal;font-variant-numeric:normal;font-variant-alternates:normal;font-feature-settings:normal;text-indent:0;text-align:start;text-decoration:none;text-decoration-line:none;text-decoration-style:solid;text-decoration-color:#000000;letter-spacing:normal;word-spacing:normal;text-transform:none;writing-mode:lr-tb;direction:ltr;text-orientation:mixed;dominant-baseline:auto;baseline-shift:baseline;text-anchor:start;white-space:normal;shape-padding:0;clip-rule:nonzero;display:inline;overflow:visible;visibility:visible;opacity:1;isolation:auto;mix-blend-mode:normal;color-interpolation:sRGB;color-interpolation-filters:linearRGB;solid-color:#000000;solid-opacity:1;vector-effect:none;fill:#000000;fill-opacity:1;fill-rule:nonzero;stroke:none;stroke-width:1px;stroke-linecap:butt;stroke-linejoin:miter;stroke-miterlimit:4;stroke-dasharray:none;stroke-dashoffset:0;stroke-opacity:1;color-rendering:auto;image-rendering:auto;shape-rendering:auto;text-rendering:auto;enable-background:accumulate"
     d="m 26.007184,15.382812 -20.7636692,0.0957 0.006,1 20.7617192,-0.0957 z"
     id="path824-3"
     inkscape:connector-curvature="0" />
  <path
     style="color:#000000;font-style:normal;font-variant:normal;font-weight:normal;font-stretch:normal;font-size:medium;line-height:normal;font-family:sans-serif;font-variant-ligatures:normal;font-variant-position:normal;font-variant-caps:normal;font-variant-numeric:normal;font-variant-alternates:normal;font-feature-settings:normal;text-indent:0;text-align:start;text-decoration:none;text-decoration-line:none;text-decoration-style:solid;text-decoration-color:#000000;letter-spacing:normal;word-spacing:normal;text-transform:none;writing-mode:lr-tb;direction:ltr;text-orientation:mixed;dominant-baseline:auto;baseline-shift:baseline;text-anchor:start;white-space:normal;shape-padding:0;clip-rule:nonzero;display:inline;overflow:visible;visibility:visible;opacity:1;isolation:auto;mix-blend-mode:normal;color-interpolation:sRGB;color-interpolation-filters:linearRGB;solid-color:#000000;solid-opacity:1;vector-effect:none;fill:#000000;fill-opacity:1;fill-rule:nonzero;stroke:none;stroke-width:1px;stroke-linecap:butt;stroke-linejoin:miter;stroke-miterlimit:4;stroke-dasharray:none;stroke-dashoffset:0;stroke-opacity:1;color-rendering:auto;image-rendering:auto;shape-rendering:auto;text-rendering:auto;enable-background:accumulate"
     d="m 26.007184,25.8125 -20.7636692,0.0957 0.006,1 20.7617192,-0.0957 z"
     id="path824-3-6"
     inkscape:connector-curvature="0" />
  <path
     style="color:#000000;font-style:normal;font-variant:normal;font-weight:normal;font-stretch:normal;font-size:medium;line-height:normal;font-family:sans-serif;font-variant-ligatures:normal;font-variant-position:normal;font-variant-caps:normal;font-variant-numeric:normal;font-variant-alternates:normal;font-feature-settings:normal;text-indent:0;text-align:start;text-decoration:none;text-decoration-line:none;text-decoration-style:solid;text-decoration-color:#000000;letter-spacing:normal;word-spacing:normal;text-transform:none;writing-mode:lr-tb;direction:ltr;text-orientation:mixed;dominant-baseline:auto;baseline-shift:baseline;text-anchor:start;white-space:normal;shape-padding:0;clip-rule:nonzero;display:inline;overflow:visible;visibility:visible;opacity:1;isolation:auto;mix-blend-mode:normal;color-interpolation:sRGB;color-interpolation-filters:linearRGB;solid-color:#000000;solid-opacity:1;vector-effect:none;fill:#000000;fill-opacity:1;fill-rule:nonzero;stroke:none;stroke-width:1px;stroke-linecap:butt;stroke-linejoin:miter;stroke-miterlimit:4;stroke-dasharray:none;stroke-dashoffset:0;stroke-opacity:1;color-rendering:auto;image-rendering:auto;shape-rendering:auto;text-rendering:auto;enable-background:accumulate"
     d="M 25.763669,36.650867 5,36.746567 l 0.006,1 20.761719,-0.0957 z"
     id="path824-3-6-8"
     inkscape:connector-curvature="0" />
</svg>
