<?xml version="1.0" encoding="UTF-8" standalone="no"?>
<svg
   xmlns:dc="http://purl.org/dc/elements/1.1/"
   xmlns:cc="http://creativecommons.org/ns#"
   xmlns:rdf="http://www.w3.org/1999/02/22-rdf-syntax-ns#"
   xmlns:svg="http://www.w3.org/2000/svg"
   xmlns="http://www.w3.org/2000/svg"
   xmlns:sodipodi="http://sodipodi.sourceforge.net/DTD/sodipodi-0.dtd"
   xmlns:inkscape="http://www.inkscape.org/namespaces/inkscape"
   width="56.301907"
   height="50.203434"
   version="1.1"
   id="svg6"
   sodipodi:docname="coda.svg"
   inkscape:version="0.92.4 (5da689c313, 2019-01-14)">
  <metadata
     id="metadata12">
    <rdf:RDF>
      <cc:Work
         rdf:about="">
        <dc:format>image/svg+xml</dc:format>
        <dc:type
           rdf:resource="http://purl.org/dc/dcmitype/StillImage" />
        <dc:title></dc:title>
      </cc:Work>
    </rdf:RDF>
  </metadata>
  <defs
     id="defs10" />
  <sodipodi:namedview
     pagecolor="#ffffff"
     bordercolor="#666666"
     borderopacity="1"
     objecttolerance="10"
     gridtolerance="10"
     guidetolerance="10"
     inkscape:pageopacity="0"
     inkscape:pageshadow="2"
     inkscape:window-width="1920"
     inkscape:window-height="1017"
     id="namedview8"
     showgrid="false"
     inkscape:zoom="16.891244"
     inkscape:cx="18.530554"
     inkscape:cy="25.101721"
     inkscape:window-x="-8"
     inkscape:window-y="-8"
     inkscape:window-maximized="1"
     inkscape:current-layer="svg6"
     fit-margin-left="2"
     fit-margin-right="2"
     fit-margin-top="0"
     fit-margin-bottom="0" />
  <g
     transform="matrix(3.0782775,0,0,2.3494548,-2372.8634,-1102.6687)"
     id="g4">
    <path
       d="m 780,480 m -0.24624,-10.61568 c 0.0274,-0.0547 0.10944,-0.0547 0.19152,-0.0547 0.0821,0 0.16416,0 0.19152,0.0547 0.1368,0.0274 0.30096,0.1368 0.38304,0.2736 0.10944,0.19152 0.10944,0.19152 0.10944,1.2312 0,0.93024 0.0274,0.9576 0.0274,0.9576 0.2736,0 1.12176,0.35568 1.55952,0.60192 1.75104,0.98496 2.98224,2.70864 3.61152,5.0616 0.10944,0.4104 0.30096,1.5048 0.30096,1.83312 0,0 0.30096,0 0.90288,0 0.9576,0 0.9576,0 1.14912,0.1368 0.19152,0.10944 0.30096,0.35568 0.30096,0.5472 0,0.2736 -0.10944,0.49248 -0.30096,0.60192 -0.19152,0.10944 -0.19152,0.10944 -1.14912,0.10944 -0.60192,0 -0.90288,0.0547 -0.90288,0.0547 0,0.30096 -0.19152,1.39536 -0.30096,1.80576 -0.62928,2.35296 -1.86048,4.07664 -3.61152,5.0616 -0.43776,0.2736 -1.28592,0.57456 -1.55952,0.57456 0,0 -0.0274,0.0547 -0.0274,0.93024 v 0.1368 c 0,0.93024 0,0.93024 -0.16416,1.12176 -0.10944,0.19152 -0.32832,0.2736 -0.49248,0.2736 -0.21888,0 -0.43776,-0.0821 -0.5472,-0.2736 -0.16416,-0.19152 -0.16416,-0.19152 -0.16416,-1.12176 v -0.1368 c 0,-0.87552 0,-0.93024 -0.0274,-0.93024 -0.2736,0 -1.12176,-0.30096 -1.55952,-0.57456 -1.75104,-0.98496 -2.98224,-2.70864 -3.61152,-5.0616 -0.10944,-0.4104 -0.30096,-1.5048 -0.30096,-1.80576 0,0 -0.2736,-0.0547 -0.84816,-0.0547 -0.9576,0 -0.9576,0 -1.12176,-0.10944 -0.19152,-0.10944 -0.30096,-0.32832 -0.30096,-0.57456 0,-0.2736 0.19152,-0.57456 0.46512,-0.684 0.0821,0 0.2736,-0.0274 0.9576,-0.0274 0.5472,0 0.84816,0 0.84816,0 0,-0.32832 0.19152,-1.42272 0.30096,-1.83312 0.62928,-2.35296 1.86048,-4.07664 3.61152,-5.0616 0.43776,-0.24624 1.28592,-0.60192 1.55952,-0.60192 0.0274,0 0.0274,-0.0274 0.0274,-0.9576 0,-0.79344 0,-0.98496 0,-1.03968 0.0821,-0.19152 0.2736,-0.38304 0.49248,-0.46512 m -0.49248,6.89472 c 0,-1.66896 -0.0274,-3.03696 -0.0274,-3.03696 -0.0821,0 -0.684,0.57456 -0.90288,0.84816 -0.93024,1.20384 -1.6416,3.22848 -1.69632,5.00688 l -0.0547,0.24624 h 1.34064 1.34064 V 476.279 m 1.53216,-2.90016 c -0.0547,-0.0821 -0.1368,-0.1368 -0.1368,-0.1368 0,0 -0.0274,1.368 -0.0274,3.03696 v 3.06432 h 1.34064 1.34064 l -0.0547,-0.24624 c -0.10944,-2.27088 -1.14912,-4.73328 -2.4624,-5.71824 m -1.53216,10.45152 v -3.09168 h -1.3406 -1.34064 l 0.0547,0.24624 c 0.0547,1.80576 0.76608,3.8304 1.69632,5.03424 0.21888,0.2736 0.8208,0.84816 0.90288,0.84816 0,0 0.0274,-1.368 0.0274,-3.03696 m 3.99456,-2.84544 0.0547,-0.24624 h -1.34064 -1.34064 v 3.09168 c 0,1.66896 0.0274,3.03696 0.0274,3.03696 0.0821,0 0.684,-0.57456 0.90288,-0.84816 0.93024,-1.20384 1.6416,-3.22848 1.69632,-5.03424"
       id="path824"
       inkscape:connector-curvature="0"
       style="fill:#000000;stroke:none;stroke-width:0.30000001;stroke-dasharray:none" />
  </g>
</svg>
