<?xml version="1.0" encoding="UTF-8" standalone="no"?>
<svg
   xmlns:dc="http://purl.org/dc/elements/1.1/"
   xmlns:cc="http://creativecommons.org/ns#"
   xmlns:rdf="http://www.w3.org/1999/02/22-rdf-syntax-ns#"
   xmlns:svg="http://www.w3.org/2000/svg"
   xmlns="http://www.w3.org/2000/svg"
   xmlns:sodipodi="http://sodipodi.sourceforge.net/DTD/sodipodi-0.dtd"
   xmlns:inkscape="http://www.inkscape.org/namespaces/inkscape"
   width="80.986374"
   height="60.761494"
   version="1.1"
   id="svg12"
   sodipodi:docname="doit-long.svg"
   inkscape:version="0.92.4 (5da689c313, 2019-01-14)"
   viewBox="8 9 63.632152 45.847308">
  <metadata
     id="metadata18">
    <rdf:RDF>
      <cc:Work
         rdf:about="">
        <dc:format>image/svg+xml</dc:format>
        <dc:type
           rdf:resource="http://purl.org/dc/dcmitype/StillImage" />
        <dc:title></dc:title>
      </cc:Work>
    </rdf:RDF>
  </metadata>
  <defs
     id="defs16" />
  <sodipodi:namedview
     pagecolor="#ffffff"
     bordercolor="#666666"
     borderopacity="1"
     objecttolerance="10"
     gridtolerance="10"
     guidetolerance="10"
     inkscape:pageopacity="0"
     inkscape:pageshadow="2"
     inkscape:window-width="1920"
     inkscape:window-height="1017"
     id="namedview14"
     showgrid="false"
     inkscape:zoom="4.2824927"
     inkscape:cx="97.0883"
     inkscape:cy="16.625479"
     inkscape:window-x="1912"
     inkscape:window-y="-8"
     inkscape:window-maximized="1"
     inkscape:current-layer="svg12"
     viewbox-height="83"
     viewbox-width="55"
     viewbox-x="8"
     fit-margin-top="5"
     fit-margin-left="5"
     fit-margin-right="5"
     fit-margin-bottom="5" />
  <g
     id="g8"
     pointer-events="bounding-box"
     class="vf-notehead"
     transform="matrix(1.6939239,0,0,1.3859433,-1185.676,-114.77955)">
    <path
       style="fill:#000000;stroke:none;stroke-width:0.30000001;stroke-dasharray:none"
       inkscape:connector-curvature="0"
       id="path6"
       d="m 707.00024,115 m 7.35696,-5.22288 c 0.11232,0 0.2808,0 0.30888,0 0,0 0.0281,0 0.0281,0 0,0 0.16848,0 0.30888,0 2.5272,0.1404 4.01544,1.79712 4.01544,3.87504 0,1.01088 -0.33696,2.16216 -1.17936,3.25728 -1.60056,2.16216 -4.212,3.34152 -6.48648,3.34152 -1.76904,0 -3.28536,-0.702 -4.01544,-2.13408 -0.22464,-0.5616 -0.33696,-1.09512 -0.33696,-1.6848 0,-3.06072 3.42576,-6.4584 7.35696,-6.65496" />
  </g>
  <rect
     y="12.031817"
     x="27.276501"
     height="29.710876"
     width="4.7259946"
     id="rect819"
     style="opacity:1;fill:#000000;fill-opacity:1;fill-rule:nonzero;stroke:#000000;stroke-width:0.06877393;stroke-miterlimit:4;stroke-dasharray:none;stroke-opacity:1" />
  <g
     id="g11"
     transform="matrix(1.0208568,0,0,-1.0858174,-223.21485,67.64915)">
    <path
       d="m 253.01839,15.822516 m 0.90288,0 c 0.19152,0 0.43776,0.2736 0.43776,0.46512 0.0821,0.49248 0.19152,0.87552 0.60192,1.25856 0.84816,0.87552 2.27088,-0.10944 3.85776,1.42272 0.49248,0.51984 0.73872,1.2312 0.73872,1.94256 0,0.21888 -0.0274,0.43776 -0.0821,0.65664 0.0821,0.4104 0.19152,0.71136 0.5472,1.06704 0.87552,0.87552 2.29824,-0.10944 3.85776,1.42272 0.51984,0.51984 0.76608,1.2312 0.76608,1.94256 0,0.21888 -0.0547,0.4104 -0.0821,0.65664 0.0821,0.38304 0.19152,0.71136 0.5472,1.06704 0.87552,0.87552 2.29824,-0.10944 3.85776,1.42272 0.51984,0.49248 0.76608,1.20384 0.76608,1.9152 0,0.24624 -0.0547,0.43776 -0.0821,0.684 0.0821,0.38304 0.19152,0.71136 0.5472,1.06704 0.87552,0.84816 2.27088,-0.08208 3.85776,1.39536 0.51984,0.51984 0.73872,1.2312 0.73872,1.94256 0,0.24624 -0.0274,0.43776 -0.0821,0.684 0.0821,0.38304 0.21888,0.684 0.57456,1.03968 0.84816,0.87552 2.27088,-0.05472 3.85776,1.42272 0.49248,0.51984 0.73872,1.2312 0.73872,1.94256 0,0.21888 -0.0274,0.43776 -0.0821,0.65664 0.0821,0.4104 0.19152,0.71136 0.5472,1.06704 0.87552,0.87552 2.29824,-0.08208 3.85776,1.45008 0.57456,0.57456 0.76608,1.2312 0.76608,1.94256 0,1.25856 -0.62928,2.48976 -0.8208,2.84544 -0.0821,0.08208 -0.0821,0.10944 -0.0821,0.1368 -0.0547,0.05472 -0.1368,0.05472 -0.16416,0.05472 -0.19152,0 -0.32832,-0.4104 -0.32832,-0.5472 v -0.16416 c 0,-0.38304 0,-0.79344 -0.21888,-1.01232 -0.0547,-0.08208 -0.1368,-0.16416 -0.24624,-0.21888 -1.14912,-0.76608 -2.8728,-0.43776 -3.85776,-1.42272 -0.62928,-0.62928 -0.8208,-1.31328 -0.8208,-1.96992 0,-0.21888 0.0274,-0.46512 0.0821,-0.684 0,-0.32832 -0.0547,-0.60192 -0.24624,-0.84816 l -0.24624,-0.1368 c -1.12176,-0.79344 -2.8728,-0.43776 -3.85776,-1.42272 -0.62928,-0.62928 -0.8208,-1.34064 -0.8208,-1.96992 0,-0.24624 0.0274,-0.49248 0.0821,-0.71136 0,-0.32832 -0.0547,-0.60192 -0.24624,-0.8208 l -0.21888,-0.21888 c -1.14912,-0.73872 -2.8728,-0.38304 -3.85776,-1.368 -0.65664,-0.62928 -0.84816,-1.34064 -0.84816,-1.96992 0,-0.24624 0.0547,-0.46512 0.0821,-0.71136 0,-0.30096 -0.0274,-0.62928 -0.21888,-0.8208 l -0.24624,-0.19152 c -1.14912,-0.76608 -2.8728,-0.4104 -3.85776,-1.39536 -0.62928,-0.62928 -0.8208,-1.34064 -0.8208,-1.96992 0,-0.21888 0.0274,-0.46512 0.0547,-0.71136 0,-0.30096 -0.0274,-0.62928 -0.21888,-0.8208 l -0.24624,-0.19152 c -1.14912,-0.76608 -2.8728,-0.4104 -3.85776,-1.39536 -0.62928,-0.62928 -0.8208,-1.34064 -0.8208,-1.96992 0,-0.21888 0.0274,-0.46512 0.0821,-0.684 0,-0.32832 -0.0547,-0.65664 -0.24624,-0.84816 -0.0821,-0.02736 -0.16416,-0.10944 -0.24624,-0.19152 -1.12176,-0.73872 -2.8728,-0.38304 -3.85776,-1.368 -0.62928,-0.62928 -0.8208,-1.31328 -0.8208,-1.96992 0,-0.43776 0.38304,-2.84544 0.90288,-2.84544"
       id="path9"
       inkscape:connector-curvature="0"
       style="fill:#000000;stroke:none;stroke-width:0.30000001;stroke-dasharray:none" />
  </g>
</svg>
