<svg width="44" height="48" >
<g transform="translate(-222 -45) scale(1.1 1.1) scale(1.0 1.0)" >
<path stroke-width="0.3" fill="black" stroke="none" stroke-dasharray="none" d="M221.0737218530273 65M220.2255618530273 51.67568C220.49916185302732 51.64832,220.80012185302732 51.64832,221.04636185302732 51.64832C226.9834818530273 51.64832,231.9356418530273 55.971199999999996,232.94796185302732 62.154560000000004C233.0574018530273 62.83856,233.13948185302732 63.71408,233.13948185302732 64.26128C233.13948185302732 64.4528,233.08476185302732 64.5896,233.08476185302732 64.67168C232.9753218530273 64.89056,232.7564418530273 65,232.5375618530273 65C232.3734018530273 65,232.2366018530273 64.97264,232.1271618530273 64.8632C232.0177218530273 64.69904,231.96300185302732 64.64432,231.96300185302732 64.1792C231.7441218530273 59.17232,226.9014018530273 55.39664,221.0737218530273 55.39664C220.5265218530273 55.39664,220.00668185302732 55.45136,219.4594818530273 55.47872C214.20636185302732 56.13536,210.32124185302732 59.77424,210.12972185302732 64.1792C210.12972185302732 64.64432,210.1023618530273 64.69904,209.9929218530273 64.8632C209.88348185302732 64.97264,209.7193218530273 65,209.58252185302732 65C209.3636418530273 65,209.14476185302732 64.89056,209.0079618530273 64.67168C209.0079618530273 64.5896,208.9806018530273 64.4528,208.9806018530273 64.26128C208.9806018530273 63.71408,209.0626818530273 62.83856,209.1721218530273 62.154560000000004C210.1023618530273 56.354240000000004,214.64412185302731 52.03136,220.2255618530273 51.67568M220.7180418530273 61.41584C220.8274818530273 61.36112,220.93692185302731 61.36112,221.04636185302732 61.36112C221.5935618530273 61.36112,222.1407618530273 61.63472,222.46908185302732 62.1272C222.66060185302732 62.400800000000004,222.7426818530273 62.72912,222.7426818530273 63.0848C222.7426818530273 63.41312,222.66060185302732 63.7688,222.46908185302732 64.06976C222.1407618530273 64.56224,221.5935618530273 64.83584,221.04636185302732 64.83584C220.6086018530273 64.83584,220.1434818530273 64.64432,219.81516185302732 64.26128C219.51420185302732 63.96032,219.37740185302732 63.52256,219.37740185302732 63.11216C219.37740185302732 62.31872,219.8698818530273 61.60736,220.7180418530273 61.41584"></path>
</g></svg>