<?xml version="1.0" encoding="UTF-8" standalone="no"?>
<svg
   xmlns:dc="http://purl.org/dc/elements/1.1/"
   xmlns:cc="http://creativecommons.org/ns#"
   xmlns:rdf="http://www.w3.org/1999/02/22-rdf-syntax-ns#"
   xmlns:svg="http://www.w3.org/2000/svg"
   xmlns="http://www.w3.org/2000/svg"
   xmlns:sodipodi="http://sodipodi.sourceforge.net/DTD/sodipodi-0.dtd"
   xmlns:inkscape="http://www.inkscape.org/namespaces/inkscape"
   width="35.203388"
   height="123.27119"
   version="1.1"
   id="svg6"
   sodipodi:docname="flat.svg"
   inkscape:version="0.92.4 (5da689c313, 2019-01-14)">
  <metadata
     id="metadata12">
    <rdf:RDF>
      <cc:Work
         rdf:about="">
        <dc:format>image/svg+xml</dc:format>
        <dc:type
           rdf:resource="http://purl.org/dc/dcmitype/StillImage" />
        <dc:title></dc:title>
      </cc:Work>
    </rdf:RDF>
  </metadata>
  <defs
     id="defs10" />
  <sodipodi:namedview
     pagecolor="#ffffff"
     bordercolor="#666666"
     borderopacity="1"
     objecttolerance="10"
     gridtolerance="10"
     guidetolerance="10"
     inkscape:pageopacity="0"
     inkscape:pageshadow="2"
     inkscape:window-width="1920"
     inkscape:window-height="1017"
     id="namedview8"
     showgrid="false"
     inkscape:zoom="4.9166667"
     inkscape:cx="-86.627117"
     inkscape:cy="68.97734"
     inkscape:window-x="-8"
     inkscape:window-y="-8"
     inkscape:window-maximized="1"
     inkscape:current-layer="svg6"
     fit-margin-top="0"
     fit-margin-left="0"
     fit-margin-right="0"
     fit-margin-bottom="0"
     viewbox-width="9" />
  <g
    id="g4"
    transform="matrix(0.21079874,0,0,-0.23391117,-34.992591,79.295887)">
    <path stroke-width="0.3" fill="black" stroke="none" stroke-dasharray="none" d="M660 282.5M662.8224 286.1288C667.60032 286.1288,668.568 282.23792,668.568 281.2904C668.568 279.79856,667.37856 278.8712,665.68512 278.8712C661.37088 278.8712,660 282.21776,660 283.7096C660 285.26192,661.2096 286.1288,662.8224 286.1288M660.84672 283.77008C660.84672 282.35888,665.06016 280.06064,666.41088 280.06064C666.97536 280.06064,667.27776 280.32272,667.49952 280.66544C667.58016 280.84688,667.6608 281.02832,667.6608 281.22992C667.6608 282.47984,663.56832 285.02,662.17728 285.02C661.57248 285.02,661.2096 284.69744000000003,661.008 284.35472C660.92736 284.19344,660.84672 283.97168,660.84672 283.77008"></path>
  </g>
</svg>
