<svg width="74" height="68" >
<g transform="translate(-1200 -280) scale(2.0 2.0) scale(1.0 1.0)" >
<path stroke-width="0.3" fill="black" stroke="none" stroke-dasharray="none" d="M604.5 160M617.0856 144.29536C617.11296 144.29536,617.14032 144.29536,617.19504 144.29536C617.3592 144.29536,617.66016 144.29536,617.85168 144.29536C617.93376 144.29536,618.12528 144.29536,618.18 144.32272C619.35648 144.4048,620.58768 145.28032,620.75184 146.23792C620.80656 146.37472,620.83392 146.48416,620.83392 146.64832C620.83392 147.71536,619.93104 148.59088,618.94608 148.59088C618.69984 148.59088,618.4536 148.53616,618.23472 148.42672C617.55072 148.12576,617.2224 147.46912,617.2224 146.83984C617.2224 146.34736,617.41392 145.88224,617.85168 145.55392C617.9064 145.4992,617.9064 145.4992,617.9064 145.4992C617.9064 145.4992,617.9064 145.4992,617.9064 145.4992C617.85168 145.4992,617.496 145.69072,617.30448 145.85488C615.96384 146.7304,614.81472 148.5088,614.04864 150.6976C614.02128 150.86176,613.99392 150.9712,613.99392 150.9712C613.99392 151.02592,614.43168 151.02592,614.97888 151.02592C616.07328 151.02592,616.10064 151.02592,616.21008 151.08064C616.48368 151.2448,616.59312 151.46368,616.59312 151.73728C616.59312 151.95616,616.48368 152.2024,616.2648 152.31184C616.10064 152.42128,616.15536 152.44864,615.0336 152.44864L614.81472 152.44864L613.58352 152.44864L613.5288 152.64016C612.79008 156.55264,611.34 160.24624,609.37008 163.20112C608.02944 165.30784,606.38784 166.48432,604.52736 166.81264C604.33584 166.86736,604.14432 166.86736,603.9528 166.86736C602.7216 166.86736,601.764 166.21072,601.38096 165.11632C601.29888 164.84271999999999,601.27152 164.54176,601.27152 164.26816C601.27152 163.17376,602.01024 162.29824,603.10464 162.29824C603.24144 162.29824,603.43296 162.35296,603.65184 162.38032C604.5 162.5992,604.93776 163.39264,604.93776 164.15872C604.93776 164.73328,604.71888 165.30784,604.17168 165.6088C604.11696 165.63616,604.06224 165.69088,604.06224 165.69088C604.06224 165.69088,604.11696 165.69088,604.11696 165.69088C604.11696 165.69088,604.17168 165.69088,604.25376 165.63616C605.12928 165.38992,605.97744 164.54176,606.52464 163.39264C607.18128 162.16144,607.92 159.39808,609.20592 153.87136C609.37008 153.10528,609.50688 152.50336,609.5616 152.44864C609.5616 152.44864,609.5616 152.44864,609.5616 152.44864C609.5616 152.44864,609.45216 152.44864,608.35776 152.44864C607.12656 152.44864,607.12656 152.44864,606.98976 152.3392C606.77088 152.2024,606.60672 151.95616,606.60672 151.73728C606.60672 151.46368,606.77088 151.2448,606.98976 151.08064C607.0992 151.02592,607.12656 151.02592,608.54928 151.02592L609.91728 150.9712L610.02672 150.67024C611.31264 147.05872,614.10336 144.51424,617.0856 144.29536"></path>
<path stroke-width="0.3" fill="black" stroke="none" stroke-dasharray="none" d="M616.5 160M629.0856 144.29536C629.11296 144.29536,629.14032 144.29536,629.19504 144.29536C629.3592 144.29536,629.66016 144.29536,629.85168 144.29536C629.93376 144.29536,630.12528 144.29536,630.18 144.32272C631.35648 144.4048,632.58768 145.28032,632.75184 146.23792C632.80656 146.37472,632.83392 146.48416,632.83392 146.64832C632.83392 147.71536,631.93104 148.59088,630.94608 148.59088C630.69984 148.59088,630.4536 148.53616,630.23472 148.42672C629.55072 148.12576,629.2224 147.46912,629.2224 146.83984C629.2224 146.34736,629.41392 145.88224,629.85168 145.55392C629.9064 145.4992,629.9064 145.4992,629.9064 145.4992C629.9064 145.4992,629.9064 145.4992,629.9064 145.4992C629.85168 145.4992,629.496 145.69072,629.30448 145.85488C627.96384 146.7304,626.81472 148.5088,626.04864 150.6976C626.02128 150.86176,625.99392 150.9712,625.99392 150.9712C625.99392 151.02592,626.43168 151.02592,626.97888 151.02592C628.07328 151.02592,628.10064 151.02592,628.21008 151.08064C628.48368 151.2448,628.59312 151.46368,628.59312 151.73728C628.59312 151.95616,628.48368 152.2024,628.2648 152.31184C628.10064 152.42128,628.15536 152.44864,627.0336 152.44864L626.81472 152.44864L625.58352 152.44864L625.5288 152.64016C624.79008 156.55264,623.34 160.24624,621.37008 163.20112C620.02944 165.30784,618.38784 166.48432,616.52736 166.81264C616.33584 166.86736,616.14432 166.86736,615.9528 166.86736C614.7216 166.86736,613.764 166.21072,613.38096 165.11632C613.29888 164.84271999999999,613.27152 164.54176,613.27152 164.26816C613.27152 163.17376,614.01024 162.29824,615.10464 162.29824C615.24144 162.29824,615.43296 162.35296,615.65184 162.38032C616.5 162.5992,616.93776 163.39264,616.93776 164.15872C616.93776 164.73328,616.71888 165.30784,616.17168 165.6088C616.11696 165.63616,616.06224 165.69088,616.06224 165.69088C616.06224 165.69088,616.11696 165.69088,616.11696 165.69088C616.11696 165.69088,616.17168 165.69088,616.25376 165.63616C617.12928 165.38992,617.97744 164.54176,618.52464 163.39264C619.18128 162.16144,619.92 159.39808,621.20592 153.87136C621.37008 153.10528,621.50688 152.50336,621.5616 152.44864C621.5616 152.44864,621.5616 152.44864,621.5616 152.44864C621.5616 152.44864,621.45216 152.44864,620.35776 152.44864C619.12656 152.44864,619.12656 152.44864,618.98976 152.3392C618.77088 152.2024,618.60672 151.95616,618.60672 151.73728C618.60672 151.46368,618.77088 151.2448,618.98976 151.08064C619.0992 151.02592,619.12656 151.02592,620.54928 151.02592L621.91728 150.9712L622.02672 150.67024C623.31264 147.05872,626.10336 144.51424,629.0856 144.29536"></path>
</g>
</svg>