<?xml version="1.0" encoding="UTF-8" standalone="no"?>
<svg
   xmlns:dc="http://purl.org/dc/elements/1.1/"
   xmlns:cc="http://creativecommons.org/ns#"
   xmlns:rdf="http://www.w3.org/1999/02/22-rdf-syntax-ns#"
   xmlns:svg="http://www.w3.org/2000/svg"
   xmlns="http://www.w3.org/2000/svg"
   xmlns:sodipodi="http://sodipodi.sourceforge.net/DTD/sodipodi-0.dtd"
   xmlns:inkscape="http://www.inkscape.org/namespaces/inkscape"
   width="13.35164"
   height="18.440639"
   version="1.1"
   id="svg6"
   sodipodi:docname="glyph8.svg"
   inkscape:version="0.92.4 (5da689c313, 2019-01-14)">
  <metadata
     id="metadata12">
    <rdf:RDF>
      <cc:Work
         rdf:about="">
        <dc:format>image/svg+xml</dc:format>
        <dc:type
           rdf:resource="http://purl.org/dc/dcmitype/StillImage" />
        <dc:title></dc:title>
      </cc:Work>
    </rdf:RDF>
  </metadata>
  <defs
     id="defs10" />
  <sodipodi:namedview
     pagecolor="#ffffff"
     bordercolor="#666666"
     borderopacity="1"
     objecttolerance="10"
     gridtolerance="10"
     guidetolerance="10"
     inkscape:pageopacity="0"
     inkscape:pageshadow="2"
     inkscape:window-width="1920"
     inkscape:window-height="1017"
     id="namedview8"
     showgrid="false"
     inkscape:zoom="6.879142"
     inkscape:cx="86.907361"
     inkscape:cy="-40.10734"
     inkscape:window-x="1912"
     inkscape:window-y="-8"
     inkscape:window-maximized="1"
     inkscape:current-layer="svg6"
     fit-margin-top="0"
     fit-margin-left="0"
     fit-margin-right="0"
     fit-margin-bottom="0"
     viewbox-width="9" />
  <g
     id="g4"
     transform="translate(-180,-101.58662)">
    <path
       d="m 180,120 m 5.93712,-17.72928 c 0.21888,0 0.49248,-0.0274 0.76608,-0.0274 2.68128,0 5.0616,1.47744 5.69088,3.63888 0.0547,0.35568 0.1368,0.684 0.1368,1.03968 0,1.03968 -0.46512,2.1888 -1.25856,2.95488 0,0.0274 -0.0274,0.0274 -0.0274,0.0274 0,0.0547 0.0274,0.0547 0.10944,0.10944 1.28592,0.93024 1.99728,2.29824 1.99728,3.66624 0,0.62928 -0.1368,1.2312 -0.43776,1.80576 -1.03968,2.16144 -3.66624,3.33792 -6.26544,3.33792 -1.7784,0 -3.58416,-0.51984 -4.9248,-1.66896 C 180.5472,116.1696 180,114.91104 180,113.62512 c 0,-1.368 0.65664,-2.68128 1.99728,-3.61152 l 0.10944,-0.10944 -0.1368,-0.1368 c -0.8208,-0.87552 -1.17648,-1.83312 -1.17648,-2.79072 0,-2.21616 2.02464,-4.35024 5.14368,-4.70592 m 1.12176,1.17648 c -0.1368,0 -0.30096,-0.0274 -0.43776,-0.0274 -1.20384,0 -2.3256,0.71136 -2.3256,1.47744 0,0.10944 0.0547,0.21888 0.0821,0.30096 0.43776,1.03968 2.24352,2.43504 4.35024,3.50208 l 0.49248,0.2736 0.0274,-0.0821 c 0.38304,-0.60192 0.57456,-1.25856 0.57456,-1.9152 0,-1.66896 -1.12176,-3.25584 -2.76336,-3.52944 m -3.2832,7.63344 c -0.10944,-0.0547 -0.21888,-0.10944 -0.21888,-0.10944 0,0 0,0 0,0 -0.0821,0 -0.49248,0.46512 -0.62928,0.684 -0.43776,0.65664 -0.62928,1.34064 -0.62928,2.02464 0,2.052 1.83312,3.9672 4.35024,3.9672 0.0547,0 0.0821,-0.0274 0.16416,-0.0274 1.47744,-0.0274 2.68128,-0.90288 2.68128,-1.88784 0,-0.16416 -0.0547,-0.30096 -0.0821,-0.43776 -0.51984,-1.5048 -2.38032,-2.98224 -5.14368,-4.02192 -0.1368,-0.0821 -0.32832,-0.1368 -0.49248,-0.19152 m 2.8728,8.94672 h 0.0547 -0.0821 0.0274 m 0,-18.44064 h 0.0547 -0.0821 0.0274"
       id="path5"
       inkscape:connector-curvature="0"
       style="fill:#000000;stroke:none;stroke-width:0.30000001;stroke-dasharray:none" />
  </g>
</svg>
