<?xml version="1.0" encoding="UTF-8" standalone="no"?>
<svg
   xmlns:dc="http://purl.org/dc/elements/1.1/"
   xmlns:cc="http://creativecommons.org/ns#"
   xmlns:rdf="http://www.w3.org/1999/02/22-rdf-syntax-ns#"
   xmlns:svg="http://www.w3.org/2000/svg"
   xmlns="http://www.w3.org/2000/svg"
   xmlns:sodipodi="http://sodipodi.sourceforge.net/DTD/sodipodi-0.dtd"
   xmlns:inkscape="http://www.inkscape.org/namespaces/inkscape"
   width="27.977385"
   height="33.553104"
   version="1.1"
   id="svg6"
   sodipodi:docname="glyph3.svg"
   inkscape:version="0.92.4 (5da689c313, 2019-01-14)">
  <metadata
     id="metadata12">
    <rdf:RDF>
      <cc:Work
         rdf:about="">
        <dc:format>image/svg+xml</dc:format>
        <dc:type
           rdf:resource="http://purl.org/dc/dcmitype/StillImage" />
        <dc:title></dc:title>
      </cc:Work>
    </rdf:RDF>
  </metadata>
  <defs
     id="defs10" />
  <sodipodi:namedview
     pagecolor="#ffffff"
     bordercolor="#666666"
     borderopacity="1"
     objecttolerance="10"
     gridtolerance="10"
     guidetolerance="10"
     inkscape:pageopacity="0"
     inkscape:pageshadow="2"
     inkscape:window-width="1920"
     inkscape:window-height="1017"
     id="namedview8"
     showgrid="false"
     inkscape:zoom="19.572791"
     inkscape:cx="22.265494"
     inkscape:cy="6.890375"
     inkscape:window-x="1912"
     inkscape:window-y="-8"
     inkscape:window-maximized="1"
     inkscape:current-layer="svg6"
     fit-margin-top="5"
     fit-margin-left="5"
     fit-margin-right="5"
     fit-margin-bottom="5" />
  <g
     transform="matrix(1.6025995,0,0,1.2772389,-668.04788,-48.116177)"
     id="g4">
    <path
       d="m 420,60 m 4.76064,-17.72928 c 0.0547,0 0.24624,0 0.46512,0 0.35568,0 0.79344,0 0.93024,0 2.51712,0.2736 4.48704,1.6416 4.84272,3.42 0.0547,0.16416 0.0547,0.35568 0.0547,0.5472 0,0.21888 0,0.4104 -0.0547,0.51984 -0.35568,1.28592 -1.86048,2.4624 -3.77568,3.03696 -0.1368,0.05472 -0.19152,0.05472 -0.19152,0.08208 0,0 0,0 0,0 0.0274,0 0.10944,0.02736 0.19152,0.02736 2.5992,0.9576 3.9672,2.79072 3.9672,4.56912 0,1.368 -0.76608,2.68128 -2.48976,3.5568 -1.01232,0.5472 -2.13408,0.79344 -3.22848,0.79344 -1.80576,0 -3.58416,-0.684 -4.84272,-1.9152 C 420.16416,56.47056 420,55.92336 420,55.37616 c 0,-1.12176 0.79344,-2.1888 2.10672,-2.1888 v 0 c 1.31328,0 2.052,1.01232 2.052,2.052 0,0.79344 -0.4104,1.58688 -1.34064,1.96992 0,0 0,0 0,0 0,0.02736 0.79344,0.19152 1.20384,0.21888 0.0547,0 0.10944,0 0.16416,0 1.80576,0 3.06432,-1.28592 3.06432,-3.06432 0,-0.19152 0,-0.35568 -0.0274,-0.5472 -0.30096,-1.99728 -1.6416,-3.47472 -3.20112,-3.52944 -0.38304,-0.02736 -0.57456,-0.19152 -0.57456,-0.43776 0,-0.32832 0.16416,-0.46512 0.57456,-0.46512 1.34064,-0.08208 2.48976,-0.98496 2.92752,-2.35296 0.10944,-0.2736 0.1368,-0.5472 0.1368,-0.76608 0,-1.14912 -0.84816,-2.1888 -2.10672,-2.4624 -0.19152,-0.08208 -0.43776,-0.08208 -0.71136,-0.08208 -0.38304,0 -0.73872,0.02736 -1.12176,0.08208 l -0.10944,0.02736 0.10944,0.08208 c 0.71136,0.38304 1.01232,1.06704 1.01232,1.75104 0,0.90288 -0.60192,1.80576 -1.6416,2.052 -0.1368,0.02736 -0.30096,0.02736 -0.43776,0.02736 -1.20384,0 -2.10672,-1.0944 -2.10672,-2.24352 0,-0.49248 0.16416,-0.98496 0.57456,-1.39536 0.9576,-1.03968 2.40768,-1.6416 4.21344,-1.83312 m 0.8208,17.75664 h 0.0274 -0.0821 0.0547 m 0,-18.44064 h 0.0274 -0.0821 0.0547"
       id="path5"
       inkscape:connector-curvature="0"
       style="fill:#000000;stroke:none;stroke-width:0.30000001;stroke-dasharray:none" />
  </g>
</svg>
