<?xml version="1.0" encoding="UTF-8" standalone="no"?>
<svg
   xmlns:dc="http://purl.org/dc/elements/1.1/"
   xmlns:cc="http://creativecommons.org/ns#"
   xmlns:rdf="http://www.w3.org/1999/02/22-rdf-syntax-ns#"
   xmlns:svg="http://www.w3.org/2000/svg"
   xmlns="http://www.w3.org/2000/svg"
   xmlns:sodipodi="http://sodipodi.sourceforge.net/DTD/sodipodi-0.dtd"
   xmlns:inkscape="http://www.inkscape.org/namespaces/inkscape"
   width="39.056538"
   height="53.325451"
   version="1.1"
   id="svg6"
   sodipodi:docname="glyph1.svg"
   inkscape:version="0.92.4 (5da689c313, 2019-01-14)">
  <metadata
     id="metadata12">
    <rdf:RDF>
      <cc:Work
         rdf:about="">
        <dc:format>image/svg+xml</dc:format>
        <dc:type
           rdf:resource="http://purl.org/dc/dcmitype/StillImage" />
        <dc:title></dc:title>
      </cc:Work>
    </rdf:RDF>
  </metadata>
  <defs
     id="defs10" />
  <sodipodi:namedview
     pagecolor="#ffffff"
     bordercolor="#666666"
     borderopacity="1"
     objecttolerance="10"
     gridtolerance="10"
     guidetolerance="10"
     inkscape:pageopacity="0"
     inkscape:pageshadow="2"
     inkscape:window-width="1920"
     inkscape:window-height="1017"
     id="namedview8"
     showgrid="false"
     inkscape:zoom="4.9166667"
     inkscape:cx="36.580756"
     inkscape:cy="-22.672089"
     inkscape:window-x="1912"
     inkscape:window-y="-8"
     inkscape:window-maximized="1"
     inkscape:current-layer="svg6"
     fit-margin-top="5"
     fit-margin-left="5"
     fit-margin-right="5"
     fit-margin-bottom="5" />
  <g
     transform="matrix(3.0782775,0,0,2.3494548,-549.00579,-92.706119)"
     id="g4">
    <path
       d="m 180,60 m 3.44736,-17.42832 0.0821,-0.02736 h 1.88784 1.86048 l 0.0821,0.08208 c 0.0821,0.02736 0.10944,0.08208 0.1368,0.10944 l 0.0821,0.10944 v 6.34752 c 0,4.5144 0,6.40224 0.0547,6.53904 0.0547,0.90288 0.43776,1.368 1.368,1.86048 0.32832,0.19152 0.4104,0.24624 0.4104,0.51984 0,0.19152 -0.0274,0.2736 -0.19152,0.38304 l -0.10944,0.02736 h -3.72096 -3.72096 l -0.0821,-0.02736 c -0.1368,-0.10944 -0.21888,-0.19152 -0.21888,-0.38304 0,-0.2736 0.0821,-0.32832 0.4104,-0.51984 0.19152,-0.08208 0.24624,-0.1368 0.4104,-0.24624 0.62928,-0.43776 0.87552,-0.87552 1.01232,-1.61424 0,-0.1368 0,-1.80576 0,-5.17104 v -5.00688 l -0.46512,0.684 -1.69632,2.65392 c -0.38304,0.60192 -0.4104,0.62928 -0.65664,0.62928 -0.24624,0 -0.4104,-0.19152 -0.4104,-0.4104 0,-0.1368 0.0547,-0.30096 0.1368,-0.46512 0.0274,-0.02736 0.16416,-0.30096 0.32832,-0.60192 l 1.53216,-2.79072 0.76608,-1.55952 c 0.51984,-0.9576 0.51984,-0.9576 0.57456,-0.98496 0.0274,-0.05472 0.10944,-0.08208 0.1368,-0.1368 m 1.2312,17.45568 h 0.0274 -0.0547 0.0274 m 0,-18.44064 h 0.0274 -0.0547 0.0274"
       id="path5"
       inkscape:connector-curvature="0"
       style="fill:#000000;stroke:none;stroke-width:0.30000001;stroke-dasharray:none" />
  </g>
</svg>
