<?xml version="1.0" encoding="UTF-8" standalone="no"?>
<svg
   xmlns:dc="http://purl.org/dc/elements/1.1/"
   xmlns:cc="http://creativecommons.org/ns#"
   xmlns:rdf="http://www.w3.org/1999/02/22-rdf-syntax-ns#"
   xmlns:svg="http://www.w3.org/2000/svg"
   xmlns="http://www.w3.org/2000/svg"
   xmlns:sodipodi="http://sodipodi.sourceforge.net/DTD/sodipodi-0.dtd"
   xmlns:inkscape="http://www.inkscape.org/namespaces/inkscape"
   width="112.23042"
   height="98.73204"
   version="1.1"
   id="svg17"
   sodipodi:docname="logo_small.svg"
   inkscape:version="0.92.4 (5da689c313, 2019-01-14)"
   viewBox="20 0 137.48246 125.91658"
   inkscape:export-filename="C:\Users\anewman\Documents\GitHub\cloned\src\styles\images\logo_small.png"
   inkscape:export-xdpi="96"
   inkscape:export-ydpi="96">
  <metadata
     id="metadata23">
    <rdf:RDF>
      <cc:Work
         rdf:about="">
        <dc:format>image/svg+xml</dc:format>
        <dc:type
           rdf:resource="http://purl.org/dc/dcmitype/StillImage" />
        <dc:title></dc:title>
      </cc:Work>
    </rdf:RDF>
  </metadata>
  <defs
     id="defs21" />
  <sodipodi:namedview
     pagecolor="#ffffff"
     bordercolor="#666666"
     borderopacity="1"
     objecttolerance="10"
     gridtolerance="10"
     guidetolerance="10"
     inkscape:pageopacity="0"
     inkscape:pageshadow="2"
     inkscape:window-width="1920"
     inkscape:window-height="1017"
     id="namedview19"
     showgrid="false"
     inkscape:zoom="0.97931034"
     inkscape:cx="121.46209"
     inkscape:cy="-102.90548"
     inkscape:window-x="-8"
     inkscape:window-y="-8"
     inkscape:window-maximized="1"
     inkscape:current-layer="svg17"
     scale-x="1.2"
     viewbox-width="490"
     viewbox-x="20"
     viewbox-height="520"
     fit-margin-top="0"
     fit-margin-left="0"
     fit-margin-right="0"
     fit-margin-bottom="0"
     inkscape:pagecheckerboard="false" />
  <!-- Created with Method Draw - http://github.com/duopixel/Method-Draw/ -->
  <g
     id="g5"
     transform="matrix(0.2459305,0,0,0.31322533,16.290622,0.31322533)">
    <title
       id="title2">background</title>
    <rect
       x="-1"
       y="-1"
       width="582"
       height="402"
       id="canvas_background"
       style="fill:#ffffff" />
  </g>
  <g
     id="g15"
     transform="translate(-18.116874,-43.277528)">
    <title
       id="title7">Layer 1</title>
    <path
       style="color:#000000;font-style:normal;font-variant:normal;font-weight:normal;font-stretch:normal;font-size:medium;line-height:normal;font-family:sans-serif;font-variant-ligatures:normal;font-variant-position:normal;font-variant-caps:normal;font-variant-numeric:normal;font-variant-alternates:normal;font-feature-settings:normal;text-indent:0;text-align:start;text-decoration:none;text-decoration-line:none;text-decoration-style:solid;text-decoration-color:#000000;letter-spacing:normal;word-spacing:normal;text-transform:none;writing-mode:lr-tb;direction:ltr;text-orientation:mixed;dominant-baseline:auto;baseline-shift:baseline;text-anchor:start;white-space:normal;shape-padding:0;clip-rule:nonzero;display:inline;overflow:visible;visibility:visible;opacity:1;isolation:auto;mix-blend-mode:normal;color-interpolation:sRGB;color-interpolation-filters:linearRGB;solid-color:#000000;solid-opacity:1;vector-effect:none;fill:#000000;fill-opacity:1;fill-rule:nonzero;stroke:none;stroke-width:2.47762775;stroke-linecap:butt;stroke-linejoin:miter;stroke-miterlimit:4;stroke-dasharray:none;stroke-dashoffset:0;stroke-opacity:1;color-rendering:auto;image-rendering:auto;shape-rendering:auto;text-rendering:auto;enable-background:accumulate"
       d="m 104.92939,57.371301 c -2.82666,-0.0766 -6.093437,0.827785 -9.712456,2.409653 -5.790422,2.530989 -12.519811,6.8924 -19.771515,12.363549 -7.472728,5.637906 -11.782438,14.394184 -14.122708,23.527273 -2.340271,9.133094 -2.753348,18.665294 -2.512686,26.157744 0.248748,7.74423 2.732697,16.55844 5.111331,23.50664 1.189317,3.4741 2.357419,6.47208 3.222079,8.59581 0.432331,1.06186 0.788875,1.90521 1.032896,2.47721 0.122011,0.286 0.216645,0.50505 0.275438,0.64308 0.0294,0.069 0.0506,0.12075 0.05592,0.13387 0.0026,0.006 0.0048,0.0153 -0.01571,-0.0438 -0.01023,-0.0295 -0.0267,0.018 -0.07718,-0.31529 -0.02524,-0.16663 0.741462,-1.6703 0.741284,-1.67023 -1.8e-4,7e-5 0.934137,0.21622 1.001931,0.29651 l -1.40215,2.16944 c 4.74e-4,6.4e-4 0.432785,0.31673 0.529619,0.33843 0.09683,0.0217 0.147991,0.0199 0.188557,0.0194 0.08113,-7.7e-4 0.115502,-0.009 0.1465,-0.0144 0.06199,-0.0112 0.0953,-0.0213 0.132634,-0.0319 0.07468,-0.0212 0.150506,-0.0462 0.245863,-0.0788 0.190714,-0.0653 0.450082,-0.15906 0.776404,-0.28088 0.652644,-0.24364 1.569695,-0.59661 2.666117,-1.02404 2.192849,-0.85487 5.100219,-2.00792 8.000666,-3.16971 2.900447,-1.16179 5.792971,-2.33224 7.956301,-3.22225 1.081663,-0.44501 1.980388,-0.81928 2.611127,-1.08973 0.260322,-0.11161 0.44456,-0.19379 0.611877,-0.26961 0.137343,0.0753 0.278678,0.15214 0.482934,0.26211 0.532093,0.28645 1.281513,0.68573 2.177174,1.16041 1.791336,0.94936 4.165825,2.19963 6.532893,3.4412 2.36706,1.24157 4.72622,2.47431 6.48806,3.38865 0.88092,0.45718 1.61235,0.83507 2.12263,1.09536 0.25515,0.13014 0.45421,0.23005 0.59432,0.29901 0.0701,0.0344 0.12286,0.0603 0.17331,0.0832 0.0252,0.0115 0.0428,0.0205 0.0984,0.0407 0.0278,0.0101 0.0218,0.0309 0.21213,0.0482 0.0241,0.002 0.14719,-0.10235 0.24354,-0.1639 0.0955,0.0106 0.24274,0.0542 0.27822,0.0319 0.16235,-0.10183 0.20796,-0.16933 0.2491,-0.21707 0.0823,-0.0955 0.1021,-0.1334 0.12478,-0.1689 0.0453,-0.071 0.0674,-0.1124 0.0943,-0.16139 0.0537,-0.098 0.11157,-0.20978 0.18533,-0.35532 0.14752,-0.29107 0.35142,-0.70494 0.60865,-1.23297 0.51445,-1.05608 1.23956,-2.56479 2.1083,-4.38329 1.73748,-3.63703 4.0482,-8.50908 6.37761,-13.42513 2.3294,-4.91605 4.67718,-9.87631 6.48621,-13.68598 0.90452,-1.90484 1.67477,-3.52232 2.23957,-4.70108 0.56479,-1.17875 1.00398,-2.05866 0.97558,-2.00742 -0.087,0.15695 -0.0401,0.0648 0.0185,-0.009 0.0587,-0.0735 0.15157,-0.18534 0.2699,-0.32279 0.23665,-0.27488 0.57649,-0.6565 0.9987,-1.12288 0.84439,-0.93273 2.02064,-2.20673 3.41479,-3.70643 2.78831,-2.99941 6.44915,-6.90348 10.10389,-10.82905 3.65472,-3.925577 7.30297,-7.871699 10.07569,-10.966672 1.38638,-1.547492 2.55255,-2.880561 3.4014,-3.904744 0.42443,-0.512089 0.76843,-0.944707 1.0329,-1.308043 0.13223,-0.181669 0.24399,-0.343897 0.34568,-0.512333 0.10169,-0.168438 0.20154,-0.27165 0.31103,-0.716265 0.28151,-1.143169 0.98438,-4.646863 1.29123,-8.675878 0.30686,-4.029015 0.31375,-8.558972 -1.47009,-11.577222 -0.38206,-0.646446 -0.93233,-0.966848 -1.46407,-1.10286 -0.53175,-0.136013 -1.08664,-0.120183 -1.69515,-0.0244 -1.21704,0.191573 -2.65644,0.726071 -4.2975,1.484452 -3.28212,1.516761 -7.34338,3.952778 -11.42239,6.522703 -4.079,2.569928 -8.17003,5.273404 -11.44411,7.302775 -1.63704,1.014686 -3.07196,1.860978 -4.17826,2.430297 -1.1063,0.569322 -2.01662,0.782549 -1.98861,0.78508 -0.20098,-0.01813 -1.20064,-0.893702 -2.27977,-2.712424 -1.07913,-1.818727 -2.31714,-4.354551 -3.6528,-7.02628 -2.67131,-5.343458 -5.63318,-11.301406 -9.32239,-13.520833 -1.36006,-0.818204 -2.89774,-1.21767 -4.59373,-1.26363 z m -0.0629,2.923237 c 1.48173,0.03005 2.75573,0.350912 3.79145,0.973995 2.69949,1.624007 5.77139,7.196364 8.42399,12.502422 1.32631,2.65303 2.57279,5.221767 3.75632,7.216448 1.18353,1.994685 2.22471,3.641376 3.79837,3.783382 0.91533,0.0826 1.69832,-0.354753 2.88702,-0.966486 1.18873,-0.611738 2.65053,-1.476975 4.30767,-2.504114 3.31427,-2.054277 7.40137,-4.755632 11.45613,-7.310283 4.05476,-2.554654 8.0829,-4.962965 11.21165,-6.408853 1.56438,-0.722943 2.9108,-1.199347 3.85568,-1.348079 0.47245,-0.07437 0.84242,-0.06104 1.05416,-0.0069 0.21173,0.05416 0.22354,0.116597 0.19641,0.07069 1.05559,1.786043 1.2991,5.74367 1.01441,9.481596 -0.27743,3.642618 -0.95229,7.015745 -1.16461,7.910196 -0.0395,0.06248 -0.0939,0.145384 -0.18209,0.266487 -0.20725,0.284741 -0.52748,0.690374 -0.9326,1.179179 -0.81026,0.977606 -1.96406,2.296907 -3.33947,3.832173 -2.75083,3.070535 -6.3934,7.011466 -10.04427,10.932902 -3.65087,3.921427 -7.31041,7.824337 -10.10481,10.830297 -1.39721,1.50298 -2.57791,2.78127 -3.43698,3.73022 -0.42954,0.47446 -0.77794,0.86603 -1.03891,1.16916 -0.13048,0.15157 -0.23865,0.28029 -0.32997,0.39473 -0.0913,0.11444 -0.14366,0.15772 -0.27498,0.39472 -0.20586,0.37153 -0.4913,0.98289 -1.05924,2.16819 -0.56793,1.18531 -1.33847,2.80471 -2.24371,4.71109 -1.81049,3.81276 -4.15811,8.77262 -6.48714,13.68786 -2.32902,4.91524 -4.63975,9.78564 -6.37391,13.41574 -0.86709,1.81504 -1.59033,3.32115 -2.09768,4.36265 -0.1458,0.2993 -0.2295,0.46518 -0.33737,0.6831 -0.50264,-0.2564 -1.22952,-0.63125 -2.10692,-1.08659 -1.75786,-0.91229 -4.11628,-2.14425 -6.48159,-3.38491 -2.36531,-1.24064 -4.737974,-2.4901 -6.525496,-3.43744 -0.893762,-0.47367 -1.64171,-0.87198 -2.167004,-1.15478 -0.26265,-0.1414 -0.469821,-0.25464 -0.608642,-0.33154 -0.06942,-0.0384 -0.122537,-0.068 -0.150662,-0.0845 -0.014,-0.008 -0.02278,-0.0139 -0.01571,-0.009 0.0036,0.002 0.01007,0.006 0.03143,0.0213 0.02135,0.0153 0.01578,-0.0315 0.199185,0.18579 l -1.402149,2.16944 c 4.78e-4,6.4e-4 -0.28582,-1.62352 -0.28607,-1.6227 -2.35e-4,7.8e-4 0.228954,-0.47744 0.293005,-0.55174 0.128093,-0.1486 0.162368,-0.1554 0.191329,-0.17579 0.05792,-0.0408 0.05864,-0.0373 0.05457,-0.035 -0.0082,0.005 -0.06242,0.0315 -0.136336,0.0657 -0.14777,0.0684 -0.387001,0.17401 -0.694604,0.3059 -0.615205,0.26379 -1.509609,0.63706 -2.587094,1.08034 -2.154958,0.88658 -5.0448,2.05571 -7.941508,3.216 -2.896708,1.16029 -5.801282,2.31179 -7.985877,3.16345 -1.092299,0.42583 -2.005345,0.77662 -2.643012,1.01466 -0.09847,0.0368 -0.141044,0.0507 -0.225988,0.082 -0.238666,-0.56004 -0.566474,-1.33565 -0.974204,-2.33709 -0.847126,-2.08066 -1.99345,-5.02173 -3.15553,-8.41628 -2.324161,-6.78907 -4.690892,-15.43046 -4.915382,-22.4194 -0.232575,-7.2407 0.182513,-16.44525 2.39715,-25.088042 2.214637,-8.642802 6.186578,-16.701549 13.147583,-21.953375 7.182029,-5.418582 13.82159,-9.704898 19.388851,-12.138346 3.479548,-1.520904 6.525665,-2.280194 8.995215,-2.230118 z m 6.53937,95.608562 c 0.33977,0.0384 0.87058,0.19123 0.87022,0.19079 l -1.40215,2.16945 c -0.0917,-0.10864 -0.18889,-1.87442 -0.18902,-1.87418 -8e-5,1.8e-4 0.43783,-0.3053 0.72095,-0.48606 z"
       id="svg_3"
       inkscape:connector-curvature="0" />
    <path
       style="color:#000000;font-style:normal;font-variant:normal;font-weight:normal;font-stretch:normal;font-size:medium;line-height:normal;font-family:sans-serif;font-variant-ligatures:normal;font-variant-position:normal;font-variant-caps:normal;font-variant-numeric:normal;font-variant-alternates:normal;font-feature-settings:normal;text-indent:0;text-align:start;text-decoration:none;text-decoration-line:none;text-decoration-style:solid;text-decoration-color:#000000;letter-spacing:normal;word-spacing:normal;text-transform:none;writing-mode:lr-tb;direction:ltr;text-orientation:mixed;dominant-baseline:auto;baseline-shift:baseline;text-anchor:start;white-space:normal;shape-padding:0;clip-rule:nonzero;display:inline;overflow:visible;visibility:visible;opacity:1;isolation:auto;mix-blend-mode:normal;color-interpolation:sRGB;color-interpolation-filters:linearRGB;solid-color:#000000;solid-opacity:1;vector-effect:none;fill:#000000;fill-opacity:1;fill-rule:nonzero;stroke:none;stroke-width:0.41293794;stroke-linecap:butt;stroke-linejoin:miter;stroke-miterlimit:4;stroke-dasharray:none;stroke-dashoffset:0;stroke-opacity:1;color-rendering:auto;image-rendering:auto;shape-rendering:auto;text-rendering:auto;enable-background:accumulate"
       d="m 155.00518,89.819046 c -2.06726,-0.164601 -4.27668,0.976557 -5.99033,2.128782 -0.85682,0.576112 -1.58956,1.156909 -2.11432,1.583914 -0.26237,0.213498 -0.47313,0.388897 -0.61835,0.503577 -0.0726,0.05737 -0.12961,0.09985 -0.16267,0.121352 -0.0166,0.01076 -0.0283,0.01621 -0.0236,0.01442 0.002,-7.79e-4 0.008,-0.0047 0.0282,-0.0055 0.0198,-7.8e-4 0.0649,-0.0023 0.11416,0.05628 l -0.23385,0.36157 c -0.0526,-0.06236 -0.0431,-0.0833 -0.0438,-0.08695 -7.1e-4,-0.0039 0.001,0.007 0.004,0.02377 0.004,0.03391 0.006,0.09465 0.009,0.1714 0.004,0.153504 0.005,0.374782 7.2e-4,0.636192 -0.007,0.52283 -0.0292,1.209796 -0.0587,1.887938 -0.0294,0.678142 -0.0666,1.348264 -0.10306,1.835387 -0.0183,0.243569 -0.0366,0.442632 -0.0527,0.566759 -0.008,0.06204 -0.0169,0.108024 -0.0185,0.114478 -7.1e-4,0.0031 -0.006,-0.0016 0.0208,-0.04381 0.0133,-0.02097 0.0404,-0.06002 0.0957,-0.07444 0.0553,-0.01442 0.11833,0.02136 0.14465,0.05254 l -0.23385,0.361565 c 0.0625,0.074 0.10449,0.0614 0.12663,0.0607 0.0126,-3.2e-4 0.0179,-0.002 0.0254,-0.005 10e-4,-3.2e-4 0.002,0.002 0.004,0.002 0.002,-6.4e-4 0.001,-0.002 0.004,-0.003 0.004,-7.8e-4 0.009,-7.8e-4 0.0116,-0.002 0.0218,-0.007 0.0375,-0.0141 0.0554,-0.0232 0.0359,-0.018 0.0778,-0.0423 0.13033,-0.07506 0.10515,-0.06547 0.25018,-0.163099 0.43119,-0.289011 0.362,-0.251808 0.86558,-0.617462 1.45391,-1.061568 1.17664,-0.888226 2.69137,-2.08831 4.0789,-3.304831 1.38751,-1.216522 2.6442,-2.440153 3.32513,-3.419309 0.34046,-0.489571 0.56892,-0.91207 0.52453,-1.362466 -0.0222,-0.225196 -0.13958,-0.423213 -0.30085,-0.536104 -0.16127,-0.112888 -0.36689,-0.169006 -0.63268,-0.19017 z m -0.0213,0.479181 c 0.23702,0.01886 0.40083,0.07526 0.49079,0.138248 0.09,0.06298 0.10561,0.104109 0.11231,0.172029 0.0134,0.135834 -0.11586,0.515534 -0.43165,0.969617 -0.63156,0.908157 -1.88155,2.137968 -3.25951,3.346118 -1.37796,1.208135 -2.88752,2.40394 -4.05856,3.287934 -0.58553,0.441993 -1.08664,0.805979 -1.44328,1.054069 -0.1116,0.07763 -0.18005,0.121656 -0.26111,0.175157 0.0106,-0.110432 0.0213,-0.199881 0.0319,-0.341553 0.0374,-0.498753 0.0743,-1.172343 0.10399,-1.855411 0.0297,-0.683069 0.0521,-1.374843 0.0596,-1.907954 0.004,-0.266563 0.004,-0.492564 -7.2e-4,-0.663099 -0.001,-0.04669 -0.004,-0.08011 -0.006,-0.11885 0.0421,-0.02978 0.0833,-0.05908 0.14002,-0.103846 0.15195,-0.119988 0.36175,-0.294506 0.62252,-0.506702 0.52155,-0.424386 1.24548,-0.998363 2.08936,-1.565777 1.68775,-1.134812 3.85576,-2.235666 5.81102,-2.07998 z"
       id="svg_4"
       inkscape:connector-curvature="0" />
    <path
       style="color:#000000;font-style:normal;font-variant:normal;font-weight:normal;font-stretch:normal;font-size:medium;line-height:normal;font-family:sans-serif;font-variant-ligatures:normal;font-variant-position:normal;font-variant-caps:normal;font-variant-numeric:normal;font-variant-alternates:normal;font-feature-settings:normal;text-indent:0;text-align:start;text-decoration:none;text-decoration-line:none;text-decoration-style:solid;text-decoration-color:#000000;letter-spacing:normal;word-spacing:normal;text-transform:none;writing-mode:lr-tb;direction:ltr;text-orientation:mixed;dominant-baseline:auto;baseline-shift:baseline;text-anchor:start;white-space:normal;shape-padding:0;clip-rule:nonzero;display:inline;overflow:visible;visibility:visible;opacity:1;isolation:auto;mix-blend-mode:normal;color-interpolation:sRGB;color-interpolation-filters:linearRGB;solid-color:#000000;solid-opacity:1;vector-effect:none;fill:#000000;fill-opacity:1;fill-rule:nonzero;stroke:none;stroke-width:0.41293794;stroke-linecap:butt;stroke-linejoin:miter;stroke-miterlimit:4;stroke-dasharray:none;stroke-dashoffset:0;stroke-opacity:1;color-rendering:auto;image-rendering:auto;shape-rendering:auto;text-rendering:auto;enable-background:accumulate"
       d="m 158.42552,61.633235 c -1.21798,0 -2.18872,1.486329 -2.18872,3.282933 0,1.796604 0.97074,3.282934 2.18872,3.282934 1.21798,0 2.18872,-1.48633 2.18872,-3.282934 0,-1.796604 -0.97074,-3.282933 -2.18872,-3.282933 z m 0,0.480429 c 1.0036,0 1.8338,1.238213 1.8338,2.802504 0,1.564291 -0.8302,2.802504 -1.8338,2.802504 -1.00359,0 -1.83379,-1.238213 -1.83379,-2.802504 0,-1.564291 0.8302,-2.802504 1.83379,-2.802504 z"
       id="svg_5"
       inkscape:connector-curvature="0" />
    <path
       style="color:#000000;font-style:normal;font-variant:normal;font-weight:normal;font-stretch:normal;font-size:medium;line-height:normal;font-family:sans-serif;font-variant-ligatures:normal;font-variant-position:normal;font-variant-caps:normal;font-variant-numeric:normal;font-variant-alternates:normal;font-feature-settings:normal;text-indent:0;text-align:start;text-decoration:none;text-decoration-line:none;text-decoration-style:solid;text-decoration-color:#000000;letter-spacing:normal;word-spacing:normal;text-transform:none;writing-mode:lr-tb;direction:ltr;text-orientation:mixed;dominant-baseline:auto;baseline-shift:baseline;text-anchor:start;white-space:normal;shape-padding:0;clip-rule:nonzero;display:inline;overflow:visible;visibility:visible;opacity:0.5;isolation:auto;mix-blend-mode:normal;color-interpolation:sRGB;color-interpolation-filters:linearRGB;solid-color:#000000;solid-opacity:1;vector-effect:none;fill:#000000;fill-opacity:1;fill-rule:nonzero;stroke:none;stroke-width:1.37645984;stroke-linecap:butt;stroke-linejoin:miter;stroke-miterlimit:4;stroke-dasharray:none;stroke-dashoffset:0;stroke-opacity:1;color-rendering:auto;image-rendering:auto;shape-rendering:auto;text-rendering:auto;enable-background:accumulate"
       d="m 111.1434,76.133065 c -2.94281,0.519572 -5.50142,3.208545 -7.35135,5.712606 -1.84993,2.504062 -3.00488,4.891873 -3.00488,4.891873 l 0.98992,0.877033 c 0,0 1.09294,-2.256339 2.85144,-4.636642 1.75851,-2.380304 4.16888,-4.815911 6.6683,-5.257198 z"
       id="svg_6"
       inkscape:connector-curvature="0" />
    <path
       style="color:#000000;font-style:normal;font-variant:normal;font-weight:normal;font-stretch:normal;font-size:medium;line-height:normal;font-family:sans-serif;font-variant-ligatures:normal;font-variant-position:normal;font-variant-caps:normal;font-variant-numeric:normal;font-variant-alternates:normal;font-feature-settings:normal;text-indent:0;text-align:start;text-decoration:none;text-decoration-line:none;text-decoration-style:solid;text-decoration-color:#000000;letter-spacing:normal;word-spacing:normal;text-transform:none;writing-mode:lr-tb;direction:ltr;text-orientation:mixed;dominant-baseline:auto;baseline-shift:baseline;text-anchor:start;white-space:normal;shape-padding:0;clip-rule:nonzero;display:inline;overflow:visible;visibility:visible;opacity:0.5;isolation:auto;mix-blend-mode:normal;color-interpolation:sRGB;color-interpolation-filters:linearRGB;solid-color:#000000;solid-opacity:1;vector-effect:none;fill:#000000;fill-opacity:1;fill-rule:nonzero;stroke:none;stroke-width:2.75291967;stroke-linecap:butt;stroke-linejoin:miter;stroke-miterlimit:4;stroke-dasharray:none;stroke-dashoffset:0;stroke-opacity:1;color-rendering:auto;image-rendering:auto;shape-rendering:auto;text-rendering:auto;enable-background:accumulate"
       d="m 91.889026,75.79026 -2.036217,1.632711 c 0,0 4.553062,10.404955 9.22304,21.287144 2.335001,5.441105 4.699421,11.001635 6.535201,15.432545 0.91789,2.21545 1.70395,4.14945 2.28485,5.63566 0.5809,1.48621 0.97898,2.65489 1.01856,2.81564 0.70954,2.88125 -0.51782,7.71336 -5.24395,12.28285 -2.18383,2.11144 -4.323069,2.15857 -6.096636,1.69276 -0.886776,-0.23289 -1.663729,-0.60535 -2.256187,-0.92895 -0.296239,-0.1618 -0.544206,-0.31007 -0.756076,-0.43163 -0.105931,-0.0608 -0.201278,-0.11513 -0.309638,-0.16765 -0.01593,-0.008 -0.06457,-0.0117 -0.0795,-0.0207 -0.08676,-0.0519 -0.142456,-0.12198 -0.462143,-0.12198 0.235939,0 0.338492,0.0295 0.3956,0.0613 -0.02785,-0.0253 -0.03707,-0.0325 -0.07348,-0.0669 -0.181495,-0.17144 -0.459365,-0.44685 -0.807835,-0.80322 -0.69694,-0.71275 -1.68352,-1.75411 -2.863922,-3.03334 -2.360797,-2.55845 -5.500611,-6.07054 -8.709592,-9.85631 -3.208984,-3.78576 -6.489182,-7.84897 -9.122756,-11.49276 -2.633575,-3.6438 -4.626179,-7.00513 -5.178343,-8.74908 l -2.174857,1.26113 c 0.867547,2.74005 2.956613,5.98464 5.661746,9.72745 2.705132,3.7428 6.020677,7.84689 9.25955,11.66792 3.238875,3.82103 6.399029,7.35523 8.785389,9.94138 1.19318,1.29308 2.19198,2.34859 2.916602,3.08964 0.362311,0.37053 0.654487,0.66094 0.879927,0.87391 0.112717,0.10648 0.205999,0.19245 0.302239,0.27212 0.04807,0.0398 0.0948,0.0775 0.168218,0.12635 0.05271,0.0351 0.125122,0.10011 0.311024,0.14201 0.02443,0.012 0.08976,0.0467 0.178388,0.0976 0.182809,0.10489 0.457986,0.26939 0.793972,0.4529 0.67197,0.36702 1.595714,0.8153 2.690611,1.10286 2.189801,0.57513 5.137869,0.46211 7.923029,-2.23074 5.21184,-5.03909 7.29714,-11.09671 6.11373,-15.90234 -0.19704,-0.8001 -0.57536,-1.77333 -1.17201,-3.29982 -0.59664,-1.52648 -1.38927,-3.47596 -2.31258,-5.70447 -1.84659,-4.45704 -4.21453,-10.02644 -6.55276,-15.475082 C 96.445781,86.203892 91.889026,75.790244 91.889026,75.790244 Z"
       id="svg_9"
       inkscape:connector-curvature="0" />
    <path
       style="fill:#000000;fill-opacity:1;stroke:none;stroke-width:0.56221598"
       d="m 146.5696,96.07072 c 0,-1.233802 0.50721,-1.883432 2.41477,-3.092806 1.32812,-0.842021 2.51556,-1.394509 2.63875,-1.227762 0.1232,0.166755 -0.96345,1.55852 -2.41477,3.092815 -2.52836,2.672918 -2.63875,2.724283 -2.63875,1.227753 z"
       id="path827"
       inkscape:connector-curvature="0" />
    <path
       style="fill:#000000;fill-opacity:1;stroke:none;stroke-width:0.56221598"
       d="m 147.05283,95.653545 c 0,-0.708978 1.8987,-2.676528 2.58287,-2.676528 0.59154,0 -0.60269,1.882076 -1.69746,2.675148 -0.57659,0.417698 -0.88541,0.418181 -0.88541,0.0016 z"
       id="path829"
       inkscape:connector-curvature="0" />
    <path
       style="fill:#a0a0a0;stroke:none;stroke-width:0.56221598"
       d=""
       id="path831"
       inkscape:connector-curvature="0" />
    <path
       style="fill:#000000;fill-opacity:1;stroke:none;stroke-width:0.56221598"
       d=""
       id="path835"
       inkscape:connector-curvature="0" />
    <path
       style="fill:#a0a0a0;stroke:none;stroke-width:0.56221598"
       d=""
       id="path839"
       inkscape:connector-curvature="0" />
    <path
       style="fill:#000000;fill-opacity:1;stroke:none;stroke-width:0.56221598"
       d=""
       id="path841"
       inkscape:connector-curvature="0" />
    <path
       style="fill:#000000;fill-opacity:0;stroke:none;stroke-width:0.56221598"
       d=""
       id="path843"
       inkscape:connector-curvature="0" />
    <path
       style="fill:#000000;fill-opacity:1;stroke:none;stroke-width:0.28110799"
       d="m 158.84679,63.122618 c 0.17441,-0.09448 0.38281,-0.08286 0.4631,0.02581 0.0802,0.108677 -0.0624,0.185976 -0.31712,0.171775 -0.28147,-0.01569 -0.33873,-0.09319 -0.14598,-0.197594 z"
       id="path849"
       inkscape:connector-curvature="0" />
    <path
       style="fill:#000000;fill-opacity:1;stroke:none;stroke-width:0.28110799"
       d="m 157.44238,62.855453 c 0.32498,-0.530031 1.57985,-0.672273 1.79396,-0.203346 0.12334,0.270136 -0.93498,0.693926 -1.73294,0.693926 -0.29421,0 -0.30561,-0.09165 -0.0611,-0.49058 z"
       id="path851"
       inkscape:connector-curvature="0" />
    <path
       style="fill:#a0a0a0;stroke:none;stroke-width:0.28110799"
       d=""
       id="path853"
       inkscape:connector-curvature="0" />
    <path
       style="fill:#a0a0a0;stroke:none;stroke-width:0.28110799"
       d=""
       id="path855"
       inkscape:connector-curvature="0" />
    <path
       style="fill:#000000;fill-opacity:1;stroke:none;stroke-width:0.28110799"
       d="m 157.55395,67.138431 c -0.42826,-0.42388 -0.37507,-0.477346 0.68983,-0.693507 1.30924,-0.265753 1.7141,0.0065 1.02458,0.688956 -0.59312,0.58705 -1.12447,0.58846 -1.71441,0.0045 z"
       id="path857"
       inkscape:connector-curvature="0" />
  </g>
</svg>
