<svg width="20px" height="15px" id="mezzo">
  <g transform="translate(-780 -585) scale(1.0 1.0)" >
<path stroke-width="0.3" fill="black" stroke="none" stroke-dasharray="none" d="M780 600M785.00688 589.71264C785.0616 589.71264,785.11632 589.71264,785.17104 589.71264C785.38992 589.71264,785.69088 589.71264,785.80032 589.76736C786.40224 589.90416,786.92208 590.2872,787.2504 590.77968C787.33248 590.94384,787.46928 591.2448,787.49664 591.32688C787.49664 591.32688,787.49664 591.35424,787.49664 591.35424C787.55136 591.35424,787.55136 591.27216,787.6608 591.16272C787.87968 590.77968,788.18064 590.47872,788.50896 590.20512C788.6184 590.1504,788.70048 590.0136,788.72784 589.98624C788.91936 589.79472,789.3024 589.71264,789.74016 589.71264C789.95904 589.71264,790.23264 589.76736,790.45152 589.84944C790.944 589.98624,791.40912 590.36928,791.71008 590.77968C791.79216 590.94384,791.92896 591.2448,791.92896 591.32688C791.92896 591.32688,791.92896 591.35424,791.98368 591.35424C791.98368 591.35424,792.01104 591.27216,792.09312 591.16272C792.3393599999999 590.77968,792.64032 590.47872,792.996 590.20512C793.05072 590.1504,793.16016 590.0136,793.21488 589.98624C793.35168 589.79472,793.76208 589.71264,794.17248 589.71264C794.44608 589.71264,794.66496 589.71264,794.88384 589.79472C795.84144 590.1504,796.52544 591.08064,796.52544 592.2024C796.52544 592.53072,796.44336 592.94112,796.33392 593.18736C796.30656 593.24208,794.88384 598.0848,794.85648 598.27632C794.85648 598.33104,794.80176 598.4952,794.80176 598.52256C794.7744 598.60464,794.7744 598.71408,794.7744 598.79616C794.7744 599.09712,794.9112 599.37072,795.10272 599.37072C795.10272 599.37072,795.10272 599.37072,795.10272 599.37072C796.03296 599.20656,797.15472 598.03008,797.70192 596.55264C797.81136 596.27904,797.86608 596.22432,798.00288 596.22432C798.0576 596.22432,798.0576 596.22432,798.0576 596.22432C798.22176 596.25168,798.30384 596.27904,798.30384 596.47056C798.30384 596.66208,798.1944 597.01776,797.89344 597.59232C797.26416 598.82352,796.47072 599.75376,795.37632 600.32832L795.02064 600.51984C794.7744 600.65664,794.5008 600.73872,794.25456 600.73872C793.4064 600.73872,792.53088 600.10944,792.22992 599.1792C792.1752 598.96032,792.12048 598.68672,792.12048 598.41312C792.12048 598.03008,792.20256 597.70176,792.312 597.45552C792.39408 597.34608,793.78944 592.55808,793.78944 592.39392C793.84416 592.25712,793.84416 592.14768,793.87152 592.12032C793.87152 592.01088,793.92624 591.9288,793.92624 591.84672C793.92624 591.5184,793.73472 591.2448,793.43376 591.08064C793.4064 591.05328,793.35168 591.05328,793.32432 591.05328C793.24224 591.05328,793.21488 591.08064,793.10544 591.13536C792.64032 591.35424,792.12048 592.12032,792.06576 592.6128C792.06576 592.7496,791.92896 593.05056,791.9016 593.18736C791.87424 593.21472,791.46384 594.6648,790.88928 596.52528C790.36944 598.33104,789.90432 599.8632,789.90432 599.89056C789.82224 600.02736,789.90432 600.02736,788.97408 600.02736C788.83728 600.02736,788.72784 600.02736,788.59104 600.02736C788.4816 600.02736,788.37216 600.02736,788.26272 600.02736C787.27776 600.02736,787.35984 600.02736,787.27776 599.89056C787.2504 599.8632,787.2504 599.8632,787.2504 599.83584C787.2504 599.64432,787.44192 599.06976,788.29008 596.06016C788.892 594.09024,789.38448 592.44864,789.38448 592.39392C789.38448 592.31184,789.41184 592.2024,789.41184 592.12032C789.4392 592.03824,789.4392 591.9288,789.4392 591.84672C789.4392 591.5184,789.3024 591.2448,789.0288 591.08064C788.97408 591.05328,788.892 591.05328,788.83728 591.05328C788.80992 591.05328,788.78256 591.08064,788.67312 591.13536C788.208 591.35424,787.68816 592.12032,787.63344 592.6128C787.63344 592.7496,787.49664 593.05056,787.46928 593.18736C787.44192 593.21472,786.9768 594.6648,786.45696 596.52528C785.90976 598.33104,785.472 599.8632,785.472 599.89056C785.38992 600.02736,785.41728 600.02736,784.48704 600.02736C784.40496 600.02736,784.26816 600.02736,784.13136 600.02736C784.02192 600.02736,783.88512 600.02736,783.8304 600.02736C782.84544 600.02736,782.90016 600.02736,782.81808 599.89056C782.81808 599.8632,782.81808 599.8632,782.81808 599.83584C782.81808 599.64432,782.95488 599.06976,783.85776 596.06016C784.40496 594.09024,784.89744 592.44864,784.95216 592.39392C784.95216 592.31184,784.95216 592.2024,784.97952 592.12032C784.97952 592.03824,785.00688 591.9288,785.00688 591.84672C785.00688 591.5184,784.87008 591.2448,784.59648 591.13536C784.54176 591.08064,784.45968 591.05328,784.3776 591.05328C784.26816 591.05328,784.13136 591.13536,783.85776 591.2448C783.06432 591.6552,782.3256 592.55808,781.88784 593.7072000000001C781.7784 594.06288,781.69632 594.1176,781.55952 594.1176C781.55952 594.1176,781.5048 594.1176,781.5048 594.1176C781.34064 594.1176,781.25856 594.06288,781.25856 593.87136C781.25856 593.67984,781.368 593.37888,781.61424 592.8864C782.21616 591.62784,783.06432 590.67024,784.13136 590.06832C784.2408 590.0136,784.3776 589.95888,784.40496 589.90416C784.54176 589.84944,784.76064 589.76736,785.00688 589.71264"></path>
</g>
</svg>