<svg width="84" height="58" >
<g transform="translate(-1600 -290) scale(2.0 2.0) scale(1.0 1.0)" >
<path stroke-width="0.3" fill="black" stroke="none" stroke-dasharray="none" d="M805.4999694824219 160M810.5068494824219 149.71264C810.5615694824219 149.71264,810.6162894824218 149.71264,810.6710094824218 149.71264C810.8898894824218 149.71264,811.1908494824219 149.71264,811.3002894824219 149.76736C811.9022094824219 149.90416,812.4220494824219 150.2872,812.7503694824219 150.77968C812.8324494824219 150.94384,812.9692494824219 151.2448,812.9966094824218 151.32688C812.9966094824218 151.32688,812.9966094824218 151.35424,812.9966094824218 151.35424C813.0513294824219 151.35424,813.0513294824219 151.27215999999999,813.1607694824219 151.16272C813.3796494824219 150.77968,813.6806094824219 150.47872,814.0089294824219 150.20512C814.1183694824218 150.1504,814.2004494824218 150.0136,814.2278094824219 149.98624C814.4193294824219 149.79472,814.8023694824219 149.71264,815.2401294824218 149.71264C815.4590094824218 149.71264,815.7326094824218 149.76736,815.9514894824218 149.84944C816.4439694824218 149.98624,816.9090894824219 150.36928,817.2100494824218 150.77968C817.2921294824218 150.94384,817.4289294824218 151.2448,817.4289294824218 151.32688C817.4289294824218 151.32688,817.4289294824218 151.35424,817.4836494824219 151.35424C817.4836494824219 151.35424,817.5110094824219 151.27215999999999,817.5930894824219 151.16272C817.8393294824218 150.77968,818.1402894824218 150.47872,818.4959694824219 150.20512C818.5506894824218 150.1504,818.6601294824219 150.0136,818.7148494824219 149.98624C818.8516494824219 149.79472,819.2620494824218 149.71264,819.6724494824218 149.71264C819.9460494824219 149.71264,820.1649294824218 149.71264,820.3838094824218 149.79472C821.3414094824219 150.1504,822.0254094824219 151.08064,822.0254094824219 152.2024C822.0254094824219 152.53072,821.9433294824219 152.94112,821.8338894824219 153.18736C821.8065294824219 153.24208,820.3838094824218 158.0848,820.3564494824219 158.27632C820.3564494824219 158.33104,820.3017294824218 158.4952,820.3017294824218 158.52256C820.2743694824219 158.60464,820.2743694824219 158.71408,820.2743694824219 158.79616C820.2743694824219 159.09712,820.4111694824219 159.37072,820.6026894824219 159.37072C820.6026894824219 159.37072,820.6026894824219 159.37072,820.6026894824219 159.37072C821.5329294824219 159.20656,822.6546894824219 158.03008,823.2018894824218 156.55264C823.3113294824219 156.27904,823.3660494824219 156.22432,823.5028494824219 156.22432C823.5575694824219 156.22432,823.5575694824219 156.22432,823.5575694824219 156.22432C823.7217294824219 156.25168,823.8038094824219 156.27904,823.8038094824219 156.47056C823.8038094824219 156.66208,823.6943694824218 157.01776,823.3934094824219 157.59232C822.7641294824218 158.82352,821.9706894824219 159.75376,820.8762894824218 160.32832L820.5206094824218 160.51984C820.2743694824219 160.65664,820.0007694824219 160.73872,819.7545294824218 160.73872C818.9063694824218 160.73872,818.0308494824219 160.10944,817.7298894824219 159.1792C817.6751694824219 158.96032,817.6204494824219 158.68672,817.6204494824219 158.41312C817.6204494824219 158.03008,817.7025294824218 157.70176,817.8119694824219 157.45552C817.8940494824219 157.34608,819.2894094824219 152.55808,819.2894094824219 152.39392C819.3441294824219 152.25712,819.3441294824219 152.14768,819.3714894824219 152.12032C819.3714894824219 152.01088,819.4262094824219 151.9288,819.4262094824219 151.84672C819.4262094824219 151.51839999999999,819.2346894824219 151.2448,818.9337294824219 151.08064C818.9063694824218 151.05328,818.8516494824219 151.05328,818.8242894824218 151.05328C818.7422094824219 151.05328,818.7148494824219 151.08064,818.6054094824219 151.13536C818.1402894824218 151.35424,817.6204494824219 152.12032,817.5657294824218 152.6128C817.5657294824218 152.7496,817.4289294824218 153.05056,817.4015694824219 153.18736C817.3742094824219 153.21472,816.9638094824219 154.6648,816.3892494824219 156.52528C815.8694094824219 158.33104,815.4042894824219 159.8632,815.4042894824219 159.89056C815.3222094824218 160.02736,815.4042894824219 160.02736,814.4740494824218 160.02736C814.3372494824218 160.02736,814.2278094824219 160.02736,814.0910094824219 160.02736C813.9815694824218 160.02736,813.8721294824219 160.02736,813.7626894824218 160.02736C812.7777294824218 160.02736,812.8598094824218 160.02736,812.7777294824218 159.89056C812.7503694824219 159.8632,812.7503694824219 159.8632,812.7503694824219 159.83584C812.7503694824219 159.64432,812.9418894824219 159.06976,813.7900494824219 156.06016C814.3919694824219 154.09024,814.8844494824219 152.44864,814.8844494824219 152.39392C814.8844494824219 152.31184,814.9118094824219 152.2024,814.9118094824219 152.12032C814.9391694824219 152.03824,814.9391694824219 151.9288,814.9391694824219 151.84672C814.9391694824219 151.51839999999999,814.8023694824219 151.2448,814.5287694824219 151.08064C814.4740494824218 151.05328,814.3919694824219 151.05328,814.3372494824218 151.05328C814.3098894824219 151.05328,814.2825294824219 151.08064,814.1730894824219 151.13536C813.7079694824218 151.35424,813.1881294824219 152.12032,813.1334094824218 152.6128C813.1334094824218 152.7496,812.9966094824218 153.05056,812.9692494824219 153.18736C812.9418894824219 153.21472,812.4767694824219 154.6648,811.9569294824219 156.52528C811.4097294824219 158.33104,810.9719694824219 159.8632,810.9719694824219 159.89056C810.8898894824218 160.02736,810.9172494824219 160.02736,809.9870094824219 160.02736C809.9049294824218 160.02736,809.7681294824218 160.02736,809.6313294824218 160.02736C809.5218894824219 160.02736,809.3850894824219 160.02736,809.3303694824219 160.02736C808.3454094824219 160.02736,808.4001294824219 160.02736,808.3180494824219 159.89056C808.3180494824219 159.8632,808.3180494824219 159.8632,808.3180494824219 159.83584C808.3180494824219 159.64432,808.4548494824219 159.06976,809.3577294824219 156.06016C809.9049294824218 154.09024,810.3974094824218 152.44864,810.4521294824219 152.39392C810.4521294824219 152.31184,810.4521294824219 152.2024,810.4794894824219 152.12032C810.4794894824219 152.03824,810.5068494824219 151.9288,810.5068494824219 151.84672C810.5068494824219 151.51839999999999,810.3700494824219 151.2448,810.0964494824219 151.13536C810.0417294824218 151.08064,809.9596494824219 151.05328,809.8775694824219 151.05328C809.7681294824218 151.05328,809.6313294824218 151.13536,809.3577294824219 151.2448C808.5642894824218 151.6552,807.8255694824219 152.55808,807.3878094824219 153.7072C807.2783694824219 154.06288,807.1962894824219 154.1176,807.0594894824219 154.1176C807.0594894824219 154.1176,807.0047694824219 154.1176,807.0047694824219 154.1176C806.8406094824219 154.1176,806.7585294824219 154.06288,806.7585294824219 153.87136C806.7585294824219 153.67984,806.8679694824219 153.37888,807.1142094824219 152.8864C807.7161294824218 151.62784,808.5642894824218 150.67024,809.6313294824218 150.06832C809.7407694824219 150.0136,809.8775694824219 149.95888,809.9049294824218 149.90416C810.0417294824218 149.84944,810.2606094824218 149.76736,810.5068494824219 149.71264"></path>
<path stroke-width="0.3" fill="black" stroke="none" stroke-dasharray="none" d="M822.4999694824219 160M827.5615694824219 149.52112C827.6162894824218 149.52112,827.7257294824219 149.49376,827.8625294824219 149.49376C828.7927694824218 149.49376,829.5862094824219 150.0136,830.0786894824219 150.86176C830.1881294824219 151.13536,830.3796494824219 151.62784,830.3796494824219 151.76463999999999C830.3796494824219 151.84672,830.3796494824219 151.87408,830.3796494824219 151.87408C830.4070094824219 151.87408,830.4617294824219 151.81936,830.5438094824219 151.73728C831.3372494824218 150.75232,832.5410894824219 149.95888,833.2798094824219 149.8768C833.3892494824219 149.8768,833.4713294824219 149.84944,833.5534094824219 149.84944C834.8940494824219 149.84944,836.1252494824219 151.02592,836.4535694824219 152.55808C836.5356494824218 152.83168,836.5356494824218 153.13264,836.5356494824218 153.51568C836.5356494824218 154.06288,836.4809294824219 154.74688,836.3714894824219 155.29408C835.8242894824218 158.38576,833.7722894824219 160.71136,831.4193294824219 160.93024C831.3098894824219 160.98496,831.2004494824218 160.98496,831.0910094824219 160.98496C830.6532494824219 160.98496,830.2428494824219 160.84816,829.9966094824218 160.65664L829.7503694824219 160.43776C829.2305294824218 160.02736,828.8474894824219 159.4528,828.6286094824219 158.79616C828.6286094824219 158.71408,828.6012494824218 158.65936,828.6012494824218 158.65936C828.6012494824218 158.65936,828.6012494824218 158.65936,828.6012494824218 158.65936C828.5465294824219 158.68672,826.5766094824219 165.30784,826.5766094824219 165.38992C826.5766094824219 165.38992,826.5766094824219 165.41728,826.5766094824219 165.41728C826.5766094824219 165.52672,826.7407694824219 165.6088,827.1511694824219 165.7456C827.2606094824218 165.7456,827.2879694824219 165.80032,827.6162894824218 165.8824C827.9993294824219 165.99184,828.0814094824219 166.07392,828.0814094824219 166.32016C828.0814094824219 166.5664,828.0266894824218 166.62112,827.8898894824218 166.7032L827.8078094824219 166.78528L824.5793294824218 166.78528L821.3508494824218 166.78528L821.2414094824219 166.7032C821.1046094824219 166.62112,821.0498894824219 166.5664,821.0498894824219 166.32016C821.0498894824219 166.07392,821.1593294824219 165.93712,821.5423694824219 165.8824C821.9254094824219 165.80032,821.9527694824219 165.80032,822.1442894824219 165.7456C822.2263694824219 165.71824,822.2810894824219 165.69088,822.3358094824218 165.69088C822.3358094824218 165.69088,822.4452494824219 165.63616,822.4999694824219 165.63616C822.8556494824219 165.49936,823.0745294824219 165.3352,823.1839694824218 165.14368C823.2660494824219 165.00688,826.9596494824219 152.44864,826.9596494824219 152.3392C826.9596494824219 152.25712,826.9870094824219 152.14768,827.0417294824218 152.03824C827.0690894824219 151.9288,827.0690894824219 151.81936,827.0690894824219 151.73728C827.0690894824219 151.3816,826.9049294824218 151.13536,826.7407694824219 151.13536C826.7407694824219 151.13536,826.7407694824219 151.13536,826.7407694824219 151.13536C825.9199694824218 151.19008,824.8255694824219 152.3392,824.2783694824219 153.7072C824.1689294824218 154.06288,824.0868494824218 154.1176,823.9500494824218 154.1176C823.9500494824218 154.1176,823.8953294824219 154.1176,823.8953294824219 154.1176C823.7585294824219 154.1176,823.6490894824219 154.06288,823.6490894824219 153.87136C823.6490894824219 153.67984,823.7858894824219 153.32416,824.0594894824219 152.80432C824.6066894824219 151.6552,825.3454094824219 150.77968,826.3303694824219 150.1504C826.4398094824219 150.0136,826.5766094824219 149.90416,826.6586894824219 149.8768C826.7954894824219 149.71264,827.2058894824219 149.57584,827.5615694824219 149.52112M832.7326094824218 151.62784C832.6505294824219 151.57312,832.5684494824219 151.57312,832.5137294824219 151.57312C832.0212494824219 151.57312,831.2825294824219 151.95616,830.7079694824218 152.53072C830.3796494824219 152.83168,830.3522894824218 152.91376,830.2702094824218 153.05056C830.2428494824219 153.18736,830.1881294824219 153.2968,830.1607694824219 153.37888C830.1334094824218 153.4336,829.8871694824219 154.17232,829.5314894824219 155.37616L828.9569294824219 157.31872L828.9569294824219 157.45552C829.0116494824218 157.89328,829.1484494824218 158.33104,829.3673294824218 158.68672C829.5588494824219 158.98768,829.9418894824219 159.26128,830.1334094824218 159.26128C830.1334094824218 159.26128,830.1607694824219 159.26128,830.1881294824219 159.26128C830.1881294824219 159.26128,830.3522894824218 159.1792,830.4617294824219 159.15184C831.6382094824219 158.57728,832.8420494824219 157.01776,833.3345294824219 155.3488C833.4986894824219 154.61008,833.6081294824219 153.87136,833.6081294824219 153.24208C833.6081294824219 152.91376,833.5807694824218 152.6128,833.4713294824219 152.42128C833.3618894824219 152.0656,832.9788494824219 151.70992,832.7326094824218 151.62784"></path>
</g>
</svg>