<?xml version="1.0" encoding="UTF-8"?>
<svg width="64" height="64" viewBox="0 0 64 64">
<path stroke-width="0.3" fill="black" stroke="none" stroke-dasharray="none" d="M7 32M7 54.1832C7 55.867999999999995,7.9828 57.272,9.6676 57.272C10.2292 57.272,10.6504 57.1316,11.0716 56.7104L36.062799999999996 35.3696L61.6156 56.7104C62.0368 57.1316,62.5984 57.272,63.0196 57.272C64.564 57.272,65.68719999999999 55.587199999999996,65.68719999999999 54.464C65.68719999999999 53.4812,65.26599999999999 52.6388,64.564 52.077200000000005L40.5556 32L64.564 11.782399999999999C65.26599999999999 11.3612,65.68719999999999 10.3784,65.68719999999999 9.536000000000001C65.68719999999999 7.991600000000002,64.2832 6.7280000000000015,63.0196 6.7280000000000015C62.5984 6.7280000000000015,62.0368 6.868400000000001,61.6156 7.1492L36.062799999999996 28.3496L11.0716 7.1492C10.6504 6.868400000000001,10.088799999999999 6.7280000000000015,9.386800000000001 6.7280000000000015C7.9828 6.7280000000000015,7 8.132000000000001,7 9.395600000000002C7 10.0976,7.4212 11.2208,7.9828 11.782399999999999L32.1316 32L7.9828 52.077200000000005C7.1404 52.6388,7 53.4812,7 54.1832"></path>
</svg>
