<svg width="40px" height="50px" id="piano">
  <g transform="translate(-1315 -2010) scale(2.0 2.0)" >
<path stroke-width="0.3" fill="black" stroke="none" stroke-dasharray="none" d="M660 1020M665.0616 1009.52112C665.11632 1009.52112,665.22576 1009.49376,665.36256 1009.49376C666.2927999999999 1009.49376,667.08624 1010.0136,667.57872 1010.86176C667.68816 1011.13536,667.87968 1011.62784,667.87968 1011.76464C667.87968 1011.84672,667.87968 1011.87408,667.87968 1011.87408C667.90704 1011.87408,667.96176 1011.81936,668.04384 1011.73728C668.83728 1010.75232,670.04112 1009.95888,670.77984 1009.8768C670.88928 1009.8768,670.97136 1009.84944,671.05344 1009.84944C672.39408 1009.84944,673.62528 1011.02592,673.9536 1012.55808C674.03568 1012.83168,674.03568 1013.13264,674.03568 1013.51568C674.03568 1014.06288,673.98096 1014.74688,673.87152 1015.29408C673.32432 1018.38576,671.27232 1020.71136,668.91936 1020.93024C668.80992 1020.98496,668.70048 1020.98496,668.59104 1020.98496C668.15328 1020.98496,667.74288 1020.84816,667.49664 1020.65664L667.2504 1020.43776C666.73056 1020.02736,666.34752 1019.4528,666.12864 1018.79616C666.12864 1018.71408,666.10128 1018.65936,666.10128 1018.65936C666.10128 1018.65936,666.10128 1018.65936,666.10128 1018.65936C666.04656 1018.68672,664.07664 1025.30784,664.07664 1025.38992C664.07664 1025.38992,664.07664 1025.41728,664.07664 1025.41728C664.07664 1025.52672,664.2408 1025.6088,664.6512 1025.7456C664.76064 1025.7456,664.788 1025.80032,665.11632 1025.8824C665.49936 1025.99184,665.58144 1026.07392,665.58144 1026.32016C665.58144 1026.5664,665.52672 1026.62112,665.38992 1026.7032L665.30784 1026.78528L662.07936 1026.78528L658.85088 1026.78528L658.74144 1026.7032C658.60464 1026.62112,658.54992 1026.5664,658.54992 1026.32016C658.54992 1026.07392,658.65936 1025.93712,659.0424 1025.8824C659.42544 1025.80032,659.4528 1025.80032,659.64432 1025.7456C659.7264 1025.71824,659.78112 1025.69088,659.83584 1025.69088C659.83584 1025.69088,659.94528 1025.63616,660 1025.63616C660.35568 1025.49936,660.57456 1025.3352,660.684 1025.14368C660.76608 1025.00688,664.45968 1012.44864,664.45968 1012.3392C664.45968 1012.25712,664.48704 1012.14768,664.54176 1012.03824C664.56912 1011.9288,664.56912 1011.81936,664.56912 1011.73728C664.56912 1011.3816,664.40496 1011.13536,664.2408 1011.13536C664.2408 1011.13536,664.2408 1011.13536,664.2408 1011.13536C663.42 1011.19008,662.3256 1012.3392,661.7784 1013.7072000000001C661.66896 1014.06288,661.58688 1014.1176,661.45008 1014.1176C661.45008 1014.1176,661.39536 1014.1176,661.39536 1014.1176C661.25856 1014.1176,661.14912 1014.06288,661.14912 1013.87136C661.14912 1013.67984,661.28592 1013.32416,661.55952 1012.80432C662.10672 1011.6552,662.84544 1010.77968,663.8304 1010.1504C663.93984 1010.0136,664.07664 1009.90416,664.15872 1009.8768C664.29552 1009.71264,664.70592 1009.57584,665.0616 1009.52112M670.23264 1011.62784C670.15056 1011.57312,670.06848 1011.57312,670.01376 1011.57312C669.52128 1011.57312,668.78256 1011.95616,668.208 1012.53072C667.87968 1012.83168,667.85232 1012.91376,667.77024 1013.05056C667.74288 1013.18736,667.68816 1013.2968,667.6608 1013.37888C667.63344 1013.4336,667.3872 1014.17232,667.03152 1015.37616L666.45696 1017.31872L666.45696 1017.45552C666.51168 1017.89328,666.64848 1018.33104,666.86736 1018.68672C667.05888 1018.98768,667.44192 1019.26128,667.63344 1019.26128C667.63344 1019.26128,667.6608 1019.26128,667.68816 1019.26128C667.68816 1019.26128,667.85232 1019.1792,667.96176 1019.15184C669.13824 1018.57728,670.34208 1017.01776,670.83456 1015.3488C670.99872 1014.61008,671.10816 1013.87136,671.10816 1013.24208C671.10816 1012.91376,671.0808 1012.6128,670.97136 1012.42128C670.86192 1012.0656,670.47888 1011.70992,670.23264 1011.62784"></path>
</g>
</svg>