<?xml version="1.0" encoding="UTF-8" standalone="no"?>
<svg
   xmlns:dc="http://purl.org/dc/elements/1.1/"
   xmlns:cc="http://creativecommons.org/ns#"
   xmlns:rdf="http://www.w3.org/1999/02/22-rdf-syntax-ns#"
   xmlns:svg="http://www.w3.org/2000/svg"
   xmlns="http://www.w3.org/2000/svg"
   xmlns:sodipodi="http://sodipodi.sourceforge.net/DTD/sodipodi-0.dtd"
   xmlns:inkscape="http://www.inkscape.org/namespaces/inkscape"
   width="25.931471"
   height="66.896309"
   version="1.1"
   id="svg6"
   sodipodi:docname="rest.svg"
   inkscape:version="0.92.4 (5da689c313, 2019-01-14)">
  <metadata
     id="metadata12">
    <rdf:RDF>
      <cc:Work
         rdf:about="">
        <dc:format>image/svg+xml</dc:format>
        <dc:type
           rdf:resource="http://purl.org/dc/dcmitype/StillImage" />
        <dc:title></dc:title>
      </cc:Work>
    </rdf:RDF>
  </metadata>
  <defs
     id="defs10" />
  <sodipodi:namedview
     pagecolor="#ffffff"
     bordercolor="#666666"
     borderopacity="1"
     objecttolerance="10"
     gridtolerance="10"
     guidetolerance="10"
     inkscape:pageopacity="0"
     inkscape:pageshadow="2"
     inkscape:window-width="1920"
     inkscape:window-height="1017"
     id="namedview8"
     showgrid="false"
     inkscape:zoom="12.676335"
     inkscape:cx="51.683543"
     inkscape:cy="38.418043"
     inkscape:window-x="-8"
     inkscape:window-y="-8"
     inkscape:window-maximized="1"
     inkscape:current-layer="svg6"
     fit-margin-top="0"
     fit-margin-left="0"
     fit-margin-right="0"
     fit-margin-bottom="0" />
  <g
     transform="matrix(3.0782775,0,0,2.3494548,-773.71612,-201.5633)"
     id="g4">
    <path
       d="m 251.3471,100 m 1.37592,-14.1804 c 0.0281,0 0.0562,-0.02808 0.11232,-0.02808 0.1404,0 0.25272,0.08424 0.47736,0.2808 0.0842,0.11232 0.22464,0.22464 0.30888,0.30888 l 0.4212,0.33696 0.4212,0.39312 0.30888,0.2808 0.33696,0.30888 1.34784,1.17936 2.04984,1.85328 c 1.03896,0.89856 1.03896,0.89856 1.03896,1.09512 v 0.02808 0.16848 l -0.25272,0.39312 c -1.37592,2.04984 -2.07792,4.40856 -2.07792,6.57072 0,2.2464 0.73008,4.3524 2.21832,5.78448 0.19656,0.25272 0.30888,0.30888 0.30888,0.39312 0.0281,0.0842 0.0281,0.11232 0.0281,0.19656 0,0.22464 -0.16848,0.4212 -0.4212,0.4212 -0.0562,0 -0.11232,0 -0.1404,0 -0.2808,-0.11232 -0.58968,-0.1404 -0.92664,-0.1404 -0.67392,0 -1.404,0.19656 -1.99368,0.58968 -1.1232,0.75816 -1.74096,1.9656 -1.74096,3.31344 0,1.23552 0.5616,2.61144 1.62864,3.67848 0.2808,0.2808 0.36504,0.44928 0.36504,0.58968 0,0.11232 -0.0562,0.19656 -0.11232,0.2808 -0.1404,0.0842 -0.19656,0.16848 -0.2808,0.16848 -0.1404,0 -0.30888,-0.1404 -0.53352,-0.2808 -2.44296,-1.9656 -3.9312,-4.09968 -4.26816,-6.00912 0,-0.16848 0,-0.39312 0,-0.67392 0,-0.22464 0,-0.50544 0.0281,-0.61776 0.4212,-1.71288 2.02176,-2.75184 4.12776,-2.75184 0.53352,0 1.15128,0.0562 1.71288,0.22464 0.0842,0 0.16848,0.0281 0.16848,0.0281 0,0 0,0 0,0 v 0 c 0,-0.0281 -0.16848,-0.19656 -0.39312,-0.36504 l -1.23552,-1.09512 -1.71288,-1.57248 c -2.106,-1.8252 -2.21832,-1.9656 -2.21832,-2.106 0,-0.05616 0,-0.05616 0,-0.08424 0,0 0,-0.02808 0,-0.02808 0,-0.16848 0,-0.16848 0.22464,-0.50544 1.57248,-2.106 2.3868,-4.57704 2.3868,-6.79536 0,-1.93752 -0.61776,-3.73464 -1.79712,-4.94208 -0.16848,-0.16848 -0.22464,-0.36504 -0.22464,-0.47736 0,-0.19656 0.11232,-0.30888 0.30888,-0.39312"
       id="path5"
       inkscape:connector-curvature="0"
       style="fill:#000000;stroke:none;stroke-width:0.30000001;stroke-dasharray:none" />
  </g>
</svg>
