<?xml version="1.0" encoding="UTF-8" standalone="no"?>
<svg
   xmlns:dc="http://purl.org/dc/elements/1.1/"
   xmlns:cc="http://creativecommons.org/ns#"
   xmlns:rdf="http://www.w3.org/1999/02/22-rdf-syntax-ns#"
   xmlns:svg="http://www.w3.org/2000/svg"
   xmlns="http://www.w3.org/2000/svg"
   xmlns:sodipodi="http://sodipodi.sourceforge.net/DTD/sodipodi-0.dtd"
   xmlns:inkscape="http://www.inkscape.org/namespaces/inkscape"
   width="72.12722"
   height="76.565315"
   version="1.1"
   id="svg12"
   sodipodi:docname="scoop.svg"
   inkscape:version="0.92.4 (5da689c313, 2019-01-14)"
   viewBox="8 9 56.671388 57.772009">
  <metadata
     id="metadata18">
    <rdf:RDF>
      <cc:Work
         rdf:about="">
        <dc:format>image/svg+xml</dc:format>
        <dc:type
           rdf:resource="http://purl.org/dc/dcmitype/StillImage" />
        <dc:title></dc:title>
      </cc:Work>
    </rdf:RDF>
  </metadata>
  <defs
     id="defs16" />
  <sodipodi:namedview
     pagecolor="#ffffff"
     bordercolor="#666666"
     borderopacity="1"
     objecttolerance="10"
     gridtolerance="10"
     guidetolerance="10"
     inkscape:pageopacity="0"
     inkscape:pageshadow="2"
     inkscape:window-width="1920"
     inkscape:window-height="1017"
     id="namedview14"
     showgrid="false"
     inkscape:zoom="3.6304914"
     inkscape:cx="57.801585"
     inkscape:cy="42.295262"
     inkscape:window-x="1912"
     inkscape:window-y="-8"
     inkscape:window-maximized="1"
     inkscape:current-layer="svg12"
     viewbox-height="83"
     viewbox-width="55"
     viewbox-x="8"
     fit-margin-top="5"
     fit-margin-left="5"
     fit-margin-right="5"
     fit-margin-bottom="5" />
  <g
     id="g8"
     pointer-events="bounding-box"
     class="vf-notehead"
     transform="matrix(1.6939239,0,0,1.3859433,-1157.2198,-117.60665)">
    <path
       style="fill:#000000;stroke:none;stroke-width:0.30000001;stroke-dasharray:none"
       inkscape:connector-curvature="0"
       id="path6"
       d="m 707.00024,115 m 7.35696,-5.22288 c 0.11232,0 0.2808,0 0.30888,0 0,0 0.0281,0 0.0281,0 0,0 0.16848,0 0.30888,0 2.5272,0.1404 4.01544,1.79712 4.01544,3.87504 0,1.01088 -0.33696,2.16216 -1.17936,3.25728 -1.60056,2.16216 -4.212,3.34152 -6.48648,3.34152 -1.76904,0 -3.28536,-0.702 -4.01544,-2.13408 -0.22464,-0.5616 -0.33696,-1.09512 -0.33696,-1.6848 0,-3.06072 3.42576,-6.4584 7.35696,-6.65496" />
  </g>
  <rect
     y="11.589844"
     x="55.916302"
     height="29.710876"
     width="4.7259946"
     id="rect819"
     style="opacity:1;fill:#000000;fill-opacity:1;fill-rule:nonzero;stroke:#000000;stroke-width:0.06877393;stroke-miterlimit:4;stroke-dasharray:none;stroke-opacity:1" />
  <g
     id="g11"
     transform="matrix(2.1138152,0,0,1.3809391,-1916.8561,-867.41585)">
    <path
       d="m 912.4783,659 m 0,15.37632 c 4.67856,-1.58688 8.39952,-4.104 10.75248,-8.37216 1.03968,-1.83312 1.53216,-3.85776 1.53216,-5.93712 0,-0.35568 0,-0.684 -0.0274,-1.03968 -0.0547,-0.4104 0,-1.12176 -0.4104,-1.12176 -0.62928,0 -0.57456,0.71136 -0.684,1.17648 -0.1368,0.5472 -0.16416,1.17648 -0.32832,1.72368 -1.368,4.84272 -5.11632,7.41456 -9.60336,9.05616 -0.87552,0.32832 -1.20384,0.71136 -1.2312,1.47744 -0.0274,0.93024 0,1.88784 0,3.03696"
       id="path9"
       inkscape:connector-curvature="0"
       style="fill:#000000;stroke:none;stroke-width:0.30000001;stroke-dasharray:none" />
  </g>
</svg>
