<?xml version="1.0" encoding="UTF-8" standalone="no"?>
<svg
   xmlns:dc="http://purl.org/dc/elements/1.1/"
   xmlns:cc="http://creativecommons.org/ns#"
   xmlns:rdf="http://www.w3.org/1999/02/22-rdf-syntax-ns#"
   xmlns:svg="http://www.w3.org/2000/svg"
   xmlns="http://www.w3.org/2000/svg"
   xmlns:sodipodi="http://sodipodi.sourceforge.net/DTD/sodipodi-0.dtd"
   xmlns:inkscape="http://www.inkscape.org/namespaces/inkscape"
   width="25.513121"
   height="39.439362"
   version="1.1"
   id="svg6"
   sodipodi:docname="sharp125.svg"
   inkscape:version="0.92.4 (5da689c313, 2019-01-14)">
  <metadata
     id="metadata12">
    <rdf:RDF>
      <cc:Work
         rdf:about="">
        <dc:format>image/svg+xml</dc:format>
        <dc:type
           rdf:resource="http://purl.org/dc/dcmitype/StillImage" />
        <dc:title></dc:title>
      </cc:Work>
    </rdf:RDF>
  </metadata>
  <defs
     id="defs10" />
  <sodipodi:namedview
     pagecolor="#ffffff"
     bordercolor="#666666"
     borderopacity="1"
     objecttolerance="10"
     gridtolerance="10"
     guidetolerance="10"
     inkscape:pageopacity="0"
     inkscape:pageshadow="2"
     inkscape:window-width="1920"
     inkscape:window-height="1017"
     id="namedview8"
     showgrid="false"
     inkscape:zoom="28.804974"
     inkscape:cx="12.75656"
     inkscape:cy="19.71968"
     inkscape:window-x="1912"
     inkscape:window-y="-8"
     inkscape:window-maximized="1"
     inkscape:current-layer="svg6"
     fit-margin-top="5"
     fit-margin-left="5"
     fit-margin-right="5"
     fit-margin-bottom="5"
     viewbox-width="9" />
  <g
     id="g7"
     transform="translate(-764.90416,-1060.2803)">
    <path
       d="m 780,1080 m -3.99456,-14.6923 c 0.0821,-0.027 0.1368,-0.027 0.21888,-0.027 0.24624,0 0.46512,0.1368 0.5472,0.3557 0.0274,0.082 0.0274,0.1094 0.0274,3.6936 0,3.3379 0,3.5842 0.0547,3.5842 0,0 0,0 0,0 0.30096,-0.1095 1.45008,-0.3557 1.53216,-0.3557 0.24624,0 0.46512,0.1368 0.5472,0.3557 0.0274,0.055 0.0547,0.7113 0.0547,1.368 0,0.6566 -0.0274,1.2859 -0.0547,1.368 -0.10944,0.2736 -0.1368,0.2736 -1.25856,0.5745 l -0.87552,0.1915 v 3.0096 c 0,2.7634 0,2.9823 0.0547,2.9823 0,0 0,0 0,0 0.30096,-0.1095 1.45008,-0.3557 1.53216,-0.3557 0.19152,0 0.30096,0.055 0.4104,0.1642 0.16416,0.1641 0.16416,0.1094 0.16416,1.1764 0,0 0,0.3831 0,0.3831 0,0 0,0.383 0,0.383 0,1.0671 0,1.0397 -0.16416,1.1765 -0.10944,0.1368 -0.10944,0.1368 -1.12176,0.383 l -0.87552,0.2189 v 3.6115 c 0,3.6116 0,3.6389 -0.0274,3.7484 -0.0821,0.2188 -0.30096,0.3556 -0.5472,0.3556 -0.1368,0 -0.30096,-0.055 -0.4104,-0.1641 -0.1368,-0.1642 -0.16416,0.082 -0.16416,-2.1341 0,-0.4651 0,-0.985 0,-1.6416 0,-1.9426 0,-3.5021 0,-3.5021 0,0 -0.57456,0.1368 -1.25856,0.301 -0.684,0.1641 -1.2312,0.3009 -1.2312,0.3009 -0.0274,0 -0.0274,1.6964 -0.0274,3.7484 0,3.6936 0,3.7209 -0.0274,3.803 -0.0821,0.2462 -0.32832,0.3557 -0.5472,0.3557 -0.1368,0 -0.30096,-0.055 -0.4104,-0.1642 -0.1368,-0.1368 -0.16416,0.1095 -0.16416,-2.1888 0,-0.4377 0,-1.0123 0,-1.6689 0,-3.338 0,-3.5842 -0.0274,-3.5842 0,0 0,0 0,0 -0.32832,0.1094 -1.39536,0.3283 -1.47744,0.3283 -0.24624,0 -0.46512,-0.1368 -0.5472,-0.3557 -0.0274,-0.055 -0.0274,-0.7113 -0.0274,-1.368 0,-0.6566 0,-1.2859 0.0274,-1.368 0.10944,-0.2736 0.16416,-0.3009 1.2312,-0.5472 l 0.8208,-0.2188 v -2.9823 c 0,-2.7907 0,-2.9822 -0.0274,-2.9822 0,0 0,0 0,0 -0.32832,0.082 -1.39536,0.3283 -1.47744,0.3283 -0.24624,0 -0.46512,-0.1368 -0.5472,-0.3557 -0.0274,-0.082 -0.0274,-0.7113 -0.0274,-1.368 0,-0.6566 0,-1.3133 0.0274,-1.368 0.10944,-0.2736 0.16416,-0.3009 1.2312,-0.5745 l 0.8208,-0.1916 v -3.6388 c 0,-3.6116 0,-3.6389 0.0274,-3.7484 0.10944,-0.2188 0.32832,-0.3556 0.5472,-0.3556 0.16416,0 0.30096,0.055 0.4104,0.1641 0.16416,0.1642 0.16416,-0.082 0.16416,2.1615 0,0.4377 0,0.9849 0,1.6416 0,1.9152 0,3.502 0,3.502 0.0274,0 0.57456,-0.1368 1.25856,-0.3283 0.684,-0.1641 1.25856,-0.3009 1.25856,-0.3009 0,0 0,-1.669 0,-3.721 0,-3.721 0,-3.7483 0.0547,-3.8304 0.0274,-0.1368 0.16416,-0.2736 0.30096,-0.3283 m -0.35568,14.3913 c 0,-2.3803 0,-2.9822 0,-2.9822 v 0 c -0.0274,0 -0.21888,0.027 -0.43776,0.1094 -0.24624,0.055 -0.79344,0.1916 -1.25856,0.301 l -0.8208,0.1915 v 3.0096 c 0,1.6416 0,2.9823 0,2.9823 0.0274,0 0.57456,-0.1368 1.25856,-0.301 0.684,-0.1642 1.25856,-0.301 1.25856,-0.301 0,0 0,-1.368 0,-3.0096 m 6.78528,-13.8441 c 0.0821,-0.027 0.1368,-0.055 0.21888,-0.055 0.24624,0 0.46512,0.1641 0.5472,0.383 0.0547,0.082 0.0547,0.1094 0.0547,3.5294 v 3.4748 l 0.71136,-0.2463 c 0.65664,-0.2189 0.73872,-0.2462 0.84816,-0.2462 0,0 0.0274,0 0.0274,0 0.24624,0 0.4104,0.1094 0.51984,0.3283 l 0.0274,0.082 v 1.2859 c 0,0.2736 0,0.4925 0,0.6566 0,0.7661 0,0.7661 -0.10944,0.8756 -0.0821,0.1368 -0.16416,0.1641 -1.12176,0.4924 l -0.90288,0.301 v 3.0096 c 0,1.9699 0,3.0096 0,3.0096 0.0274,0 0.32832,-0.1094 0.71136,-0.2462 0.38304,-0.1368 0.71136,-0.2463 0.76608,-0.2463 0.0274,-0.027 0.0547,-0.027 0.0821,-0.027 0.24624,0 0.46512,0.1641 0.5472,0.3556 0.0274,0.082 0.0547,0.8482 0.0547,1.5596 0,0.5745 -0.0274,1.1217 -0.0274,1.1764 -0.10944,0.2463 -0.1368,0.2736 -1.20384,0.6567 l -0.93024,0.3283 v 3.7483 l -0.0274,3.7483 -0.0274,0.082 c -0.10944,0.1915 -0.32832,0.3283 -0.5472,0.3283 -0.1368,0 -0.2736,-0.055 -0.4104,-0.1915 -0.1368,-0.1368 -0.16416,0.1095 -0.16416,-2.1341 0,-0.4377 0,-0.9849 0,-1.6416 0,-1.9425 0,-3.5294 0,-3.5294 0,0 -0.30096,0.1094 -0.65664,0.2462 -0.49248,0.1642 -0.73872,0.2463 -0.90288,0.2463 -0.16416,0 -0.24624,-0.055 -0.35568,-0.1642 C 780,1086.8674 780,1086.9221 780,1085.855 c 0,-0.1094 0,-0.2462 0,-0.383 0,-0.1094 0,-0.2189 0,-0.3283 0,-1.1218 0,-1.0671 0.16416,-1.2312 0.10944,-0.1095 0.10944,-0.1095 1.0944,-0.4651 l 0.8208,-0.301 v -3.0096 c 0,-1.669 0,-3.037 0,-3.037 0,0 -0.32832,0.1095 -0.684,0.2189 -0.46512,0.1642 -0.71136,0.2463 -0.90288,0.2463 -0.1368,0 -0.21888,-0.055 -0.32832,-0.1642 C 780,1077.2366 780,1077.2914 780,1076.197 c 0,-0.1095 0,-0.2463 0,-0.3831 0,-0.2736 0,-0.5198 0,-0.7113 0,-0.985 0.0821,-0.8756 1.20384,-1.2586 l 0.87552,-0.301 v -3.6388 c 0,-3.6116 0,-3.6389 0.0547,-3.721 0.0547,-0.1368 0.19152,-0.2736 0.30096,-0.3283"
       id="path5"
       inkscape:connector-curvature="0"
       style="fill:#000000;stroke:none;stroke-width:0.30000001;stroke-dasharray:none" />
  </g>
</svg>
