<?xml version="1.0" encoding="UTF-8" standalone="no"?>
<svg
   xmlns:dc="http://purl.org/dc/elements/1.1/"
   xmlns:cc="http://creativecommons.org/ns#"
   xmlns:rdf="http://www.w3.org/1999/02/22-rdf-syntax-ns#"
   xmlns:svg="http://www.w3.org/2000/svg"
   xmlns="http://www.w3.org/2000/svg"
   xmlns:sodipodi="http://sodipodi.sourceforge.net/DTD/sodipodi-0.dtd"
   xmlns:inkscape="http://www.inkscape.org/namespaces/inkscape"
   width="46.056969"
   height="51.203106"
   version="1.1"
   id="svg6"
   sodipodi:docname="textBasic.svg"
   inkscape:version="0.92.4 (5da689c313, 2019-01-14)">
  <metadata
     id="metadata12">
    <rdf:RDF>
      <cc:Work
         rdf:about="">
        <dc:format>image/svg+xml</dc:format>
        <dc:type
           rdf:resource="http://purl.org/dc/dcmitype/StillImage" />
        <dc:title></dc:title>
      </cc:Work>
    </rdf:RDF>
  </metadata>
  <defs
     id="defs10" />
  <sodipodi:namedview
     pagecolor="#ffffff"
     bordercolor="#666666"
     borderopacity="1"
     objecttolerance="10"
     gridtolerance="10"
     guidetolerance="10"
     inkscape:pageopacity="0"
     inkscape:pageshadow="2"
     inkscape:window-width="1920"
     inkscape:window-height="1017"
     id="namedview8"
     showgrid="true"
     inkscape:zoom="14.552946"
     inkscape:cx="8.8973325"
     inkscape:cy="25.601552"
     inkscape:window-x="1912"
     inkscape:window-y="-8"
     inkscape:window-maximized="1"
     inkscape:current-layer="svg6"
     fit-margin-top="5"
     fit-margin-left="5"
     fit-margin-right="5"
     fit-margin-bottom="5">
    <inkscape:grid
       type="xygrid"
       id="grid823"
       snapvisiblegridlinesonly="false"
       originx="2.9769337"
       originy="0.46078327" />
  </sodipodi:namedview>
  <g
     aria-label="T"
     transform="matrix(1.0164965,0,0,0.98377122,2.9769337,2.7423219)"
     style="fill:#000000;fill-opacity:1;stroke:none;stroke-opacity:1"
     id="text818">
    <path
       style="color:#000000;font-style:normal;font-variant:normal;font-weight:normal;font-stretch:normal;font-size:medium;line-height:1.25;font-family:'Times New Roman';-inkscape-font-specification:'Times New Roman, ';font-variant-ligatures:normal;font-variant-position:normal;font-variant-caps:normal;font-variant-numeric:normal;font-variant-alternates:normal;font-feature-settings:normal;text-indent:0;text-align:start;text-decoration:none;text-decoration-line:none;text-decoration-style:solid;text-decoration-color:#000000;letter-spacing:0px;word-spacing:0px;text-transform:none;writing-mode:lr-tb;direction:ltr;text-orientation:mixed;dominant-baseline:auto;baseline-shift:baseline;text-anchor:start;white-space:normal;shape-padding:0;clip-rule:nonzero;display:inline;overflow:visible;visibility:visible;opacity:1;isolation:auto;mix-blend-mode:normal;color-interpolation:sRGB;color-interpolation-filters:linearRGB;solid-color:#000000;solid-opacity:1;vector-effect:none;fill:#000000;fill-opacity:1;fill-rule:nonzero;stroke:none;stroke-width:1.52390623;stroke-linecap:butt;stroke-linejoin:miter;stroke-miterlimit:4;stroke-dasharray:none;stroke-dashoffset:0;stroke-opacity:1;color-rendering:auto;image-rendering:auto;shape-rendering:auto;text-rendering:auto;enable-background:accumulate"
       d="M 2.5429688,2.2949219 C 2.358724,5.9576823 2.1744792,9.6204426 1.9902344,13.283203 c 0.8795573,0 1.7591145,0 2.6386718,0 C 4.68743,10.735995 5.5138741,7.725686 8.1386719,6.7226562 10.707191,6.1166081 13.373799,6.4267022 15.990234,6.3496094 c -0.0201,10.4100526 0.04067,20.8215386 -0.03122,31.2306756 0.145974,1.869158 -0.724897,4.080878 -2.942342,3.952849 -0.913013,0.03859 -1.827567,0.0115 -2.741277,0.0196 0,0.875 0,1.75 0,2.625 6.212239,0 12.424479,0 18.636718,0 0,-0.875 0,-1.75 0,-2.625 -1.75111,-0.08761 -3.909369,0.404596 -5.162275,-1.137944 -0.833321,-2.399664 -0.421458,-4.999827 -0.521318,-7.49709 0,-8.85603 0,-17.71206 0,-26.5680906 2.485426,0.084855 5.011527,-0.2263613 7.459021,0.2978514 2.334496,0.5428117 3.765495,2.8274757 3.960998,5.1127392 0.06835,0.90808 0.03694,1.885338 1.200273,1.523011 0.513153,-0.162988 1.787003,0.399608 1.593375,-0.437534 -0.166275,-3.5169181 -0.332549,-7.0338366 -0.498824,-10.5507551 -11.466797,0 -22.933593,0 -34.4003902,0 z m 1.4492187,1.5234375 c 10.4993485,0 20.9986975,0 31.4980465,0 0.105469,2.2389322 0.210938,4.4778644 0.316407,6.7167966 C 35.591438,7.547804 32.87981,5.248769 29.995169,4.9485267 27.240563,4.7095056 24.466671,4.8719492 21.703125,4.8242188 c 0.01871,10.9764282 -0.03782,21.9539762 0.02897,32.9296902 0.0619,1.736159 0.289023,3.953917 2.153506,4.696503 1.021525,0.38236 -0.940755,0.13264 -1.39755,0.203919 -2.581943,0 -5.163885,0 -7.745828,0 1.7303,-0.505448 2.708026,-2.235406 2.700067,-3.964485 0.150048,-5.790101 0.03571,-11.586803 0.07146,-17.379738 0,-5.495297 0,-10.990593 0,-16.4858892 C 14.488881,4.8913403 11.441036,4.6428925 8.4374433,5.0697272 6.1207805,5.494761 4.3457429,7.4930766 3.6972656,9.6894531 3.7955729,7.7324219 3.8938802,5.7753906 3.9921875,3.8183594 Z"
       id="path820"
       inkscape:connector-curvature="0" />
  </g>
  <path
     style="fill:#000000;fill-opacity:1;stroke:none;stroke-width:0.04858857"
     d="m 18.574702,44.484762 c 0.753694,-0.37994 1.306906,-0.943132 1.693647,-1.724203 0.356199,-0.719388 0.413474,-1.025184 0.464573,-2.4804 0.05769,-1.642783 0.07314,-7.323055 0.05819,-21.391117 l -0.01215,-11.4304605 -3.048932,2.81e-5 c -5.054036,4.66e-5 -6.388055,0.1272731 -7.619486,0.7266767 -1.395213,0.679125 -2.5356432,1.9403757 -3.209108,3.5490887 l -0.111875,0.267238 0.00156,-0.267238 c 8.6e-4,-0.14698 0.060064,-1.371412 0.1315648,-2.7209593 L 7.052687,6.559693 l 15.997786,-0.01222 15.997785,-0.01222 3.41e-4,0.2065744 c 1.99e-4,0.1136159 0.05459,1.2888847 0.120886,2.6117085 0.06629,1.3228241 0.11902,2.5253911 0.117173,2.6723711 l -0.0034,0.267237 -0.10977,-0.34012 C 38.437881,9.6736316 36.164927,7.9068236 33.582049,7.6066638 32.693181,7.5033673 31.02619,7.4587261 28.055099,7.4586548 l -3.048932,-7.33e-5 0.0042,14.4186575 c 0.0023,7.930262 0.02179,15.457238 0.04335,16.726614 0.04376,2.576894 0.08139,2.96652 0.370756,3.838497 0.336269,1.013327 0.810299,1.589151 1.640932,1.993311 l 0.49171,0.239249 -4.682276,0.0013 -4.682276,0.0013 0.382187,-0.192662 z"
     id="path815"
     inkscape:connector-curvature="0" />
  <rect
     style="opacity:1;fill:#000000;fill-opacity:1;fill-rule:nonzero;stroke:#000000;stroke-width:0.1;stroke-miterlimit:4;stroke-dasharray:none;stroke-opacity:1"
     id="rect838"
     width="33"
     height="2"
     x="5.9769335"
     y="5.742322" />
  <rect
     style="opacity:1;fill:#000000;fill-opacity:1;fill-rule:nonzero;stroke:#000000;stroke-width:0.1;stroke-miterlimit:4;stroke-dasharray:none;stroke-opacity:1"
     id="rect840"
     width="6"
     height="36"
     x="19.976933"
     y="7.742322" />
  <rect
     style="opacity:1;fill:#000000;fill-opacity:1;fill-rule:nonzero;stroke:#000000;stroke-width:0.1;stroke-miterlimit:4;stroke-dasharray:none;stroke-opacity:1"
     id="rect842"
     width="10"
     height="1"
     x="17.976933"
     y="43.742321" />
</svg>
