<svg width="84" height="148" >
<g transform="translate(-20 -130) scale(2.0 2.0) scale(1.0 1.0)" >
<path stroke-width="0.3" fill="black" stroke="none" stroke-dasharray="none" d="M15 110M29.0544 66.8288C29.112000000000002 66.80000000000001,29.1696 66.80000000000001,29.256 66.80000000000001C29.601599999999998 66.80000000000001,30.0048 67.088,30.5808 67.80799999999999C32.9136 70.4864,34.5552 75.152,34.5552 78.9536C34.5552 79.2416,34.4976 79.47200000000001,34.4976 79.76C34.2384 84.2816,32.3952 87.99680000000001,28.7376 91.5104L27.7584 92.4608L27.412799999999997 92.8352L27.412799999999997 92.9504L27.6144 93.8144L27.9312 95.3696L28.247999999999998 96.8096C28.68 98.768,28.852800000000002 99.776,28.852800000000002 99.776C28.852800000000002 99.776,28.852800000000002 99.776,28.852800000000002 99.776C28.852800000000002 99.776,28.968 99.776,29.112000000000002 99.74719999999999C29.256 99.74719999999999,29.7168 99.6896,30.206400000000002 99.6896C30.552 99.6896,30.897599999999997 99.74719999999999,31.0704 99.74719999999999C35.1312 100.2656,38.270399999999995 103.1744,39.1632 107.264C39.336 107.9264,39.3936 108.6464,39.3936 109.3664C39.3936 113.2544,37.0608 116.9696,33.172799999999995 118.7264C32.9424 118.8704,32.855999999999995 118.89920000000001,32.855999999999995 118.89920000000001L32.855999999999995 118.928C32.855999999999995 118.928,33.028800000000004 119.5904,33.172799999999995 120.3392L33.6048 122.528L34.007999999999996 124.2848C34.2384 125.408,34.3536 126.2144,34.3536 126.9344C34.3536 127.568,34.2672 128.144,34.1232 128.8064C33.144 132.8096,29.6592 135.2,26.0304 135.2C24.244799999999998 135.2,22.401600000000002 134.624,20.788800000000002 133.328C19.3488 132.1184,18.7152 131.024,18.7152 129.584C18.7152 127.0496,20.759999999999998 125.264,22.891199999999998 125.264C23.64 125.264,24.3888 125.4944,25.108800000000002 125.9264C26.3184 126.7616,26.8656 128.0288,26.8656 129.2672C26.8656 131.168,25.540799999999997 133.04,23.2656 133.184L23.0352 133.184L23.208 133.29919999999998C24.1584 133.7024,25.108800000000002 133.904,26.0304 133.904C28.3632 133.904,30.552 132.7232,31.8768 130.6784C32.6256 129.5264,33.028800000000004 128.1728,33.028800000000004 126.8192C33.028800000000004 126.3008,32.9424 125.7824,32.827200000000005 125.2064C32.827200000000005 125.1488,32.7408 124.688,32.6256 124.256C31.992 121.1456,31.6176 119.3312,31.6176 119.3312C31.6176 119.3312,31.6176 119.3312,31.6176 119.3312C31.56 119.3312,31.4448 119.3312,31.3584 119.3888C31.0704 119.4464,30.465600000000002 119.5904,30.206400000000002 119.6192C29.5728 119.7056,28.968 119.7344,28.392 119.7344C22.7472 119.7344,17.5056 115.9328,15.6912 110.3168C15.2304 108.8192,14.9712 107.3216,14.9712 105.824C14.9712 102.8288,15.9216 99.8912,17.7648 97.2704C19.7808 94.4192,21.7968 91.9712,24.273600000000002 89.4368L25.1376 88.544L24.936 87.4784L24.5616 85.7216L24.072 83.4752C23.927999999999997 82.64,23.755200000000002 81.8336,23.726399999999998 81.6608C23.5824 80.71039999999999,23.496000000000002 79.78880000000001,23.496000000000002 78.83840000000001C23.496000000000002 75.2096,24.6768 71.7248,26.894399999999997 68.9312C27.5568 68.0672,28.7376 66.9152,29.0544 66.8288M30.8112 72.5312C30.7536 72.5312,30.6672 72.5312,30.5808 72.5312C29.4 72.5312,27.8736 73.62559999999999,26.8368 75.2384C25.7712 76.8224,25.224 78.9248,25.224 81.0848C25.224 81.6608,25.2528 82.2656,25.339199999999998 82.8704C25.4256 83.3024,25.4544 83.5904,25.6848 84.6272L26.088 86.4416C26.2032 86.9888,26.2896 87.4208,26.2896 87.4784L26.2896 87.4784C26.3184 87.4784,27.211199999999998 86.4992,27.499200000000002 86.1536C30.379199999999997 82.89920000000001,32.1072 79.47200000000001,32.4816 76.44800000000001C32.510400000000004 76.16,32.510400000000004 75.9296,32.510400000000004 75.64160000000001C32.510400000000004 74.7488,32.3952 73.8848,32.1936 73.424C31.9632 72.9632,31.4448 72.58879999999999,30.8112 72.5312M26.4624 94.7936C26.4048 94.3904,26.3184 94.0736,26.3184 94.016C26.3184 94.016,26.3184 94.016,26.2896 94.016C26.232 94.016,24.9936 95.456,24.1296 96.464C22.660800000000002 98.2496,21.1056 100.3808,20.472 101.4176C19.2624 103.4624,18.6576 105.7376,18.6576 107.984C18.6576 109.4528,18.9456 110.864,19.464 112.2176C21.019199999999998 116.2208,24.5904 118.7264,28.4784 118.7264C28.9392 118.7264,29.4576 118.6976,29.9472 118.6112C30.5808 118.496,31.3584 118.2656,31.3584 118.1792L31.3584 118.1792C31.3584 118.1792,31.3008 117.8912,31.2144 117.5744L30.379199999999997 113.456L29.7168 110.3744L29.284799999999997 108.2432L28.823999999999998 106.1696C28.593600000000002 104.9312,28.507199999999997 104.6144,28.507199999999997 104.6144C28.507199999999997 104.6144,28.507199999999997 104.5856,28.4784 104.5856C28.3056 104.5856,27.384 105.0464,26.980800000000002 105.3344C25.4832 106.3712,24.7056 108.0128,24.7056 109.6256C24.7056 111.152,25.4544 112.6784,26.894399999999997 113.5712C27.211199999999998 113.7728,27.3264 113.9456,27.3264 114.1472C27.3264 114.176,27.3264 114.2624,27.3264 114.2912C27.2688 114.6368,27.0672 114.7808,26.7792 114.7808C26.664 114.7808,26.52 114.752,26.3472 114.6656C23.6976 113.5136,21.912 110.7776,21.912 107.7824L21.912 107.7824C21.912 104.3264,24.072 101.3312,27.384 100.1504L27.5568 100.0928L27.2688 98.6528L26.4624 94.7936M30.7824 104.4128C30.552 104.384,30.3216 104.384,30.1488 104.384C30.0912 104.384,30.0048 104.384,29.9472 104.384L29.8032 104.384L29.9184 104.9024L30.5232 107.7248L30.897599999999997 109.568L31.3008 111.3824L32.1072 115.3856L32.424 116.912C32.5392 117.3152,32.5968 117.6608,32.6256 117.6608C32.6256 117.6608,32.6256 117.6608,32.6256 117.6608C32.654399999999995 117.6608,33.144 117.3728,33.4608 117.1424C34.9296 116.1056,36.024 114.4928,36.4272 112.8224C36.571200000000005 112.2752,36.6288 111.6992,36.6288 111.152C36.6288 107.8112,34.152 104.7872,30.7824 104.4128"></path>
</g>
</svg>
