<?xml version="1.0" encoding="UTF-8" standalone="no"?>
<!-- Created with Inkscape (http://www.inkscape.org/) -->

<svg
   xmlns:dc="http://purl.org/dc/elements/1.1/"
   xmlns:cc="http://creativecommons.org/ns#"
   xmlns:rdf="http://www.w3.org/1999/02/22-rdf-syntax-ns#"
   xmlns:svg="http://www.w3.org/2000/svg"
   xmlns="http://www.w3.org/2000/svg"
   xmlns:sodipodi="http://sodipodi.sourceforge.net/DTD/sodipodi-0.dtd"
   xmlns:inkscape="http://www.inkscape.org/namespaces/inkscape"
   width="27.442205"
   height="26.381483"
   viewBox="0 0 7.2607497 6.9801008"
   version="1.1"
   id="svg8"
   inkscape:version="0.92.4 (5da689c313, 2019-01-14)"
   sodipodi:docname="V3.svg">
  <defs
     id="defs2" />
  <sodipodi:namedview
     id="base"
     pagecolor="#ffffff"
     bordercolor="#666666"
     borderopacity="1.0"
     inkscape:pageopacity="0.0"
     inkscape:pageshadow="2"
     inkscape:zoom="9.8420483"
     inkscape:cx="76.885443"
     inkscape:cy="21.130805"
     inkscape:document-units="mm"
     inkscape:current-layer="layer1"
     showgrid="true"
     fit-margin-top="5"
     fit-margin-left="5"
     fit-margin-right="5"
     fit-margin-bottom="5"
     units="px"
     inkscape:window-width="1920"
     inkscape:window-height="1017"
     inkscape:window-x="1912"
     inkscape:window-y="-8"
     inkscape:window-maximized="1">
    <inkscape:grid
       type="xygrid"
       id="grid834" />
  </sodipodi:namedview>
  <metadata
     id="metadata5">
    <rdf:RDF>
      <cc:Work
         rdf:about="">
        <dc:format>image/svg+xml</dc:format>
        <dc:type
           rdf:resource="http://purl.org/dc/dcmitype/StillImage" />
        <dc:title></dc:title>
      </cc:Work>
    </rdf:RDF>
  </metadata>
  <g
     inkscape:label="Layer 1"
     inkscape:groupmode="layer"
     id="layer1"
     transform="translate(-70.153128,-89.116869)">
    <g
       aria-label="V"
       style="font-style:normal;font-variant:normal;font-weight:normal;font-stretch:normal;font-size:6.3499999px;line-height:1.25;font-family:'Times New Roman';-inkscape-font-specification:'Times New Roman, Normal';font-variant-ligatures:normal;font-variant-caps:normal;font-variant-numeric:normal;font-feature-settings:normal;text-align:start;letter-spacing:0px;word-spacing:0px;writing-mode:lr-tb;text-anchor:start;fill:#000000;fill-opacity:1;stroke:none;stroke-width:0.26458332"
       id="text821">
      <path
         d="m 75.928487,90.439786 v 0.114722 q -0.223243,0.04031 -0.337964,0.142626 -0.164331,0.151929 -0.291455,0.465088 l -1.466577,3.578076 h -0.114722 l -1.575098,-3.624584 q -0.120923,-0.279053 -0.170532,-0.341065 -0.07752,-0.09612 -0.192236,-0.148828 -0.111621,-0.05581 -0.303858,-0.07131 v -0.114722 h 1.717725 v 0.114722 q -0.291455,0.02791 -0.378272,0.09922 -0.08682,0.07131 -0.08682,0.182935 0,0.155029 0.142627,0.483691 l 1.069702,2.464966 0.992187,-2.43396 q 0.145728,-0.359668 0.145728,-0.499194 0,-0.08992 -0.08992,-0.170532 -0.08992,-0.08372 -0.303857,-0.117823 -0.0155,-0.0031 -0.05271,-0.0093 v -0.114722 z"
         style="font-style:normal;font-variant:normal;font-weight:normal;font-stretch:normal;font-size:6.3499999px;font-family:'Times New Roman';-inkscape-font-specification:'Times New Roman, Normal';font-variant-ligatures:normal;font-variant-caps:normal;font-variant-numeric:normal;font-feature-settings:normal;text-align:start;writing-mode:lr-tb;text-anchor:start;stroke-width:0.26458332"
         id="path823"
         inkscape:connector-curvature="0" />
    </g>
    <g
       aria-label="3"
       transform="scale(0.99181328,1.0082543)"
       style="font-style:normal;font-weight:normal;font-size:3.31452751px;line-height:1.25;font-family:sans-serif;letter-spacing:0px;word-spacing:0px;fill:#000000;fill-opacity:1;stroke:none;stroke-width:0.08286319"
       id="text838">
      <path
         d="m 77.217405,92.758461 q 0.07768,0.06959 0.127855,0.174789 0.05017,0.105198 0.05017,0.271895 0,0.165079 -0.05988,0.302645 -0.05988,0.137566 -0.168316,0.239526 -0.121382,0.11329 -0.286461,0.168316 -0.16346,0.05341 -0.359289,0.05341 -0.200685,0 -0.394895,-0.04855 -0.194211,-0.04693 -0.318829,-0.103579 v -0.33825 h 0.02428 q 0.137566,0.09063 0.323684,0.150514 0.186119,0.05988 0.35929,0.05988 0.10196,0 0.216868,-0.03399 0.114908,-0.03399 0.186119,-0.100342 0.07445,-0.07121 0.110053,-0.156987 0.03722,-0.08578 0.03722,-0.216868 0,-0.129474 -0.04208,-0.213632 -0.04046,-0.08578 -0.113289,-0.134329 -0.07283,-0.05017 -0.176408,-0.06797 -0.103579,-0.01942 -0.223342,-0.01942 h -0.145658 v -0.268658 h 0.113289 q 0.246,0 0.391658,-0.10196 0.147277,-0.103579 0.147277,-0.301027 0,-0.08739 -0.03722,-0.152131 -0.03722,-0.06636 -0.103579,-0.108435 -0.06959,-0.04208 -0.148895,-0.05826 -0.0793,-0.01618 -0.179645,-0.01618 -0.15375,0 -0.326921,0.05503 -0.173171,0.05503 -0.326921,0.155369 h -0.01618 V 91.611 q 0.114908,-0.05665 0.305881,-0.103579 0.192593,-0.04855 0.372237,-0.04855 0.176408,0 0.310737,0.03237 0.134329,0.03237 0.242764,0.103579 0.116526,0.07768 0.176408,0.187736 0.05988,0.110053 0.05988,0.257329 0,0.200685 -0.142421,0.351198 -0.140803,0.148895 -0.333395,0.187737 v 0.02266 q 0.07768,0.01295 0.178027,0.05503 0.100342,0.04046 0.169934,0.101961 z"
         style="stroke-width:0.08286319"
         id="path840" />
    </g>
  </g>
</svg>
