<?xml version="1.0" encoding="UTF-8" standalone="no"?>
<svg
   xmlns:dc="http://purl.org/dc/elements/1.1/"
   xmlns:cc="http://creativecommons.org/ns#"
   xmlns:rdf="http://www.w3.org/1999/02/22-rdf-syntax-ns#"
   xmlns:svg="http://www.w3.org/2000/svg"
   xmlns="http://www.w3.org/2000/svg"
   xmlns:sodipodi="http://sodipodi.sourceforge.net/DTD/sodipodi-0.dtd"
   xmlns:inkscape="http://www.inkscape.org/namespaces/inkscape"
   width="12.01826"
   height="28.856174"
   version="1.1"
   id="svg6"
   sodipodi:docname="accent_above.svg"
   inkscape:version="0.92.4 (5da689c313, 2019-01-14)">
  <metadata
     id="metadata12">
    <rdf:RDF>
      <cc:Work
         rdf:about="">
        <dc:format>image/svg+xml</dc:format>
        <dc:type
           rdf:resource="http://purl.org/dc/dcmitype/StillImage" />
        <dc:title></dc:title>
      </cc:Work>
    </rdf:RDF>
  </metadata>
  <defs
     id="defs10" />
  <sodipodi:namedview
     pagecolor="#ffffff"
     bordercolor="#666666"
     borderopacity="1"
     objecttolerance="10"
     gridtolerance="10"
     guidetolerance="10"
     inkscape:pageopacity="0"
     inkscape:pageshadow="2"
     inkscape:window-width="1920"
     inkscape:window-height="1017"
     id="namedview8"
     showgrid="false"
     inkscape:zoom="12.509382"
     inkscape:cx="36.945898"
     inkscape:cy="-5.8590637"
     inkscape:window-x="-8"
     inkscape:window-y="-8"
     inkscape:window-maximized="1"
     inkscape:current-layer="svg6"
     fit-margin-top="0"
     fit-margin-left="0"
     fit-margin-right="0"
     fit-margin-bottom="0" />
  <g
     class="vf-notehead"
     pointer-events="bounding-box"
     id="g9"
     transform="matrix(1,0,0,-1,-557.42603,98.633295)" />
  <g
     id="g834"
     transform="matrix(-1,0,0,1,12.01826,9.105006)">
    <g
       id="g842"
       transform="matrix(-1,0,0,1,12.01826,0)">
      <path
         style="fill:#000000;stroke:none;stroke-width:0.30000001;stroke-dasharray:none"
         d="M 7.3574219 9.1054688 C 4.0779237 9.2694437 1.1579222 11.661154 0.27734375 14.226562 L 0.17382812 14.226562 L 0.17382812 14.542969 C 0.061920778 14.949191 0 15.357152 0 15.759766 C 5.0123157e-17 16.159099 0.070807072 16.534218 0.17382812 16.908203 L 0.17382812 28.855469 L 3.1738281 28.855469 L 3.1738281 19.460938 C 3.5496424 19.536524 3.942044 19.578125 4.3515625 19.578125 C 6.6260425 19.578125 9.2392838 18.400441 10.839844 16.238281 C 11.682244 15.143161 12.017578 13.991349 12.017578 12.980469 C 12.017578 10.902549 10.529153 9.2458687 8.0019531 9.1054688 L 7.6933594 9.1054688 L 7.6660156 9.1054688 L 7.3574219 9.1054688 z "
         transform="translate(0,-9.105006)"
         id="path5" />
    </g>
  </g>
  <path
     style="color:#000000;font-style:normal;font-variant:normal;font-weight:normal;font-stretch:normal;font-size:medium;line-height:normal;font-family:sans-serif;font-variant-ligatures:normal;font-variant-position:normal;font-variant-caps:normal;font-variant-numeric:normal;font-variant-alternates:normal;font-feature-settings:normal;text-indent:0;text-align:start;text-decoration:none;text-decoration-line:none;text-decoration-style:solid;text-decoration-color:#000000;letter-spacing:normal;word-spacing:normal;text-transform:none;writing-mode:lr-tb;direction:ltr;text-orientation:mixed;dominant-baseline:auto;baseline-shift:baseline;text-anchor:start;white-space:normal;shape-padding:0;clip-rule:nonzero;display:inline;overflow:visible;visibility:visible;opacity:1;isolation:auto;mix-blend-mode:normal;color-interpolation:sRGB;color-interpolation-filters:linearRGB;solid-color:#000000;solid-opacity:1;vector-effect:none;fill:#000000;fill-opacity:1;fill-rule:nonzero;stroke:none;stroke-width:1.5;stroke-linecap:butt;stroke-linejoin:miter;stroke-miterlimit:4;stroke-dasharray:none;stroke-dashoffset:0;stroke-opacity:1;color-rendering:auto;image-rendering:auto;shape-rendering:auto;text-rendering:auto;enable-background:accumulate"
     d="M 0.8653531,0 0.4141812,1.431641 C 4.6981456,2.784472 6.7445,3.438092 7.9825406,3.835938 L 0.5313688,7.72461 1.2266812,9.054688 11.560666,3.660157 l -1.3125,-0.65625 c 0,0 -0.08217,-0.03661 -0.111328,-0.04687 -0.02916,-0.01027 -0.07335,-0.02575 -0.154297,-0.05273 C 9.820641,2.850337 9.514805,2.750834 8.923947,2.560557 7.7422304,2.179995 5.4226339,1.439142 0.8653531,0 Z"
     id="path836"
     inkscape:connector-curvature="0" />
</svg>
