<svg width="84" height="108" >
<g transform="translate(-20 -140) scale(2.0 2.0) scale(1.0 1.0)" >
<path stroke-width="0.3" fill="black" stroke="none" stroke-dasharray="none" d="M15 90M23.8416 79.9488C24.072 79.8912,24.3024 79.8912,24.5616 79.8912C25.5696 79.8912,26.7504 80.0064,27.7584 80.208C32.4816 81.1872,35.736000000000004 84.384,36.3408 88.6464C36.398399999999995 89.1072,36.4272 89.5392,36.4272 90C36.4272 92.592,35.5344 95.9328,34.007999999999996 98.7264C30.379199999999997 105.2928,23.755200000000002 110.01599999999999,15.8064 111.744C15.6624 111.744,15.5472 111.7728,15.4032 111.7728C15.1152 111.7728,14.9712 111.6,14.9712 111.3408C14.9712 111.05279999999999,15.0288 110.9664,15.604800000000001 110.736C24.7056 107.30879999999999,30.7824 99.9072,31.3296 91.6128C31.3584 91.1808,31.3584 90.6912,31.3584 90.3168C31.3584 86.2848,30.119999999999997 83.28960000000001,27.729599999999998 81.792C26.6928 81.1296,25.5696 80.8128,24.36 80.8128C21.6816 80.8128,18.9456 82.3392,17.6784 84.9024C17.6208 85.104,17.4192 85.536,17.4192 85.5648C17.4192 85.5648,17.4192 85.5648,17.4192 85.5648C17.4192 85.5648,17.448 85.536,17.534399999999998 85.5072C18.168 85.104,18.8592 84.9024,19.5792 84.9024C20.5872 84.9024,21.6528 85.3344,22.401600000000002 86.1408C23.0928 86.8896,23.4672 87.8976,23.4672 88.8192C23.4672 90.6912,22.0848 92.592,19.9248 92.7936C19.7808 92.7936,19.6368 92.8224,19.4928 92.8224C17.1024 92.8224,15.1728 90.6336,15.1728 87.8688C15.1728 87.8112,15.1728 87.7248,15.1728 87.696C15.288 83.5776,19.0608 80.208,23.8416 79.9488M39.1632 83.80799999999999C39.2208 83.7792,39.2496 83.7792,39.336 83.7792C39.5376 83.7792,39.768 83.80799999999999,39.825599999999994 83.8656C40.5456 84.0672,40.8912 84.7008,40.8912 85.3056C40.8912 85.824,40.632 86.3424,40.1136 86.6304C39.912 86.7744,39.6528 86.8032,39.3936 86.8032C38.9904 86.8032,38.5584 86.6304,38.270399999999995 86.256C38.04 85.968,37.9248 85.6512,37.9248 85.3344C37.9248 84.6144,38.3856 83.8944,39.1632 83.80799999999999M39.1632 93.2256C39.2208 93.2256,39.2496 93.2256,39.336 93.2256C39.5376 93.2256,39.768 93.2544,39.825599999999994 93.312C40.5456 93.5136,40.8912 94.1472,40.8912 94.752C40.8912 95.2704,40.632 95.7888,40.1136 96.048C39.912 96.19200000000001,39.6528 96.2496,39.3936 96.2496C38.9904 96.2496,38.5584 96.048,38.270399999999995 95.7024C38.04 95.4144,37.9248 95.0976,37.9248 94.752C37.9248 94.032,38.3856 93.3408,39.1632 93.2256"></path>
</g>
</svg>