<?xml version="1.0" encoding="UTF-8" standalone="no"?>
<svg
   xmlns:dc="http://purl.org/dc/elements/1.1/"
   xmlns:cc="http://creativecommons.org/ns#"
   xmlns:rdf="http://www.w3.org/1999/02/22-rdf-syntax-ns#"
   xmlns:svg="http://www.w3.org/2000/svg"
   xmlns="http://www.w3.org/2000/svg"
   xmlns:sodipodi="http://sodipodi.sourceforge.net/DTD/sodipodi-0.dtd"
   xmlns:inkscape="http://www.inkscape.org/namespaces/inkscape"
   width="17.379267"
   height="29.186165"
   version="1.1"
   id="svg6"
   sodipodi:docname="courtesy.svg"
   inkscape:version="0.92.4 (5da689c313, 2019-01-14)">
  <metadata
     id="metadata12">
    <rdf:RDF>
      <cc:Work
         rdf:about="">
        <dc:format>image/svg+xml</dc:format>
        <dc:type
           rdf:resource="http://purl.org/dc/dcmitype/StillImage" />
        <dc:title></dc:title>
      </cc:Work>
    </rdf:RDF>
  </metadata>
  <defs
     id="defs10" />
  <sodipodi:namedview
     pagecolor="#ffffff"
     bordercolor="#666666"
     borderopacity="1"
     objecttolerance="10"
     gridtolerance="10"
     guidetolerance="10"
     inkscape:pageopacity="0"
     inkscape:pageshadow="2"
     inkscape:window-width="1920"
     inkscape:window-height="1017"
     id="namedview8"
     showgrid="false"
     inkscape:zoom="14.827209"
     inkscape:cx="7.0681933"
     inkscape:cy="19.07592"
     inkscape:window-x="1912"
     inkscape:window-y="-8"
     inkscape:window-maximized="1"
     inkscape:current-layer="g11"
     fit-margin-top="0"
     fit-margin-left="0"
     fit-margin-right="0"
     fit-margin-bottom="0" />
  <g
     class="vf-modifiers"
     id="g11"
     transform="matrix(1.2294018,0,0,1.4433962,-433.32476,-125.94914)">
    <path
       d="m 363.07865,96.308676 m 0.68544,-7.43904 c 0.0202,-0.02016 0.0806,-0.02016 0.12096,-0.02016 0.18144,0 0.2016,0.06048 0.38304,0.34272 1.27008,1.99584 1.93536,3.9312 2.1168,6.31008 0,0.14112 0,0.48384 0,0.8064 0,0.32256 0,0.68544 0,0.8064 -0.18144,2.37888 -0.84672,4.314244 -2.1168,6.310084 -0.12096,0.26208 -0.24192,0.36288 -0.38304,0.36288 -0.0403,0 -0.0806,-0.0202 -0.12096,-0.0202 -0.12096,-0.0605 -0.18144,-0.14112 -0.18144,-0.24192 0,-0.12096 0.0403,-0.22176 0.12096,-0.42336 0.82656,-2.07648 1.22976,-4.435204 1.22976,-6.793924 0,-2.33856 -0.4032,-4.69728 -1.22976,-6.7536 -0.0806,-0.2016 -0.12096,-0.34272 -0.12096,-0.42336 0,-0.14112 0.0605,-0.2016 0.18144,-0.26208"
       id="path5"
       inkscape:connector-curvature="0"
       style="fill:#000000;stroke:none;stroke-width:0.30000001;stroke-dasharray:none" />
    <path
       d="m 357.73393,100 m -0.16128,-12.72096 c 0.0403,-0.02016 0.0806,-0.02016 0.14112,-0.02016 0.18144,0 0.34272,0.08064 0.4032,0.24192 0.0202,0.08064 0.0202,0.08064 0.0202,4.77792 v 4.7376 l 0.0202,-0.06048 c 0.76608,-0.64512 1.57248,-0.96768 2.33856,-0.96768 0.3024,0 0.6048,0.04032 0.9072,0.16128 0.9072,0.3024 1.39104,1.14912 1.39104,2.15712 0,0.52416 -0.16128,1.1088 -0.46368,1.69344 -0.44352,0.8064 -1.008,1.45152 -2.58048,2.86272 l -1.55232,1.47168 c -0.28224,0.28224 -0.34272,0.28224 -0.46368,0.28224 -0.18144,0 -0.34272,-0.1008 -0.4032,-0.26208 l -0.0202,-0.0806 v -8.32608 -8.3664 l 0.0202,-0.08064 c 0.0605,-0.08064 0.14112,-0.2016 0.24192,-0.22176 m 2.37888,10.08 c -0.0806,-0.04032 -0.2016,-0.04032 -0.28224,-0.04032 -0.0605,0 -0.1008,0 -0.14112,0 -0.52416,0.08064 -0.98784,0.4032 -1.3104,0.92736 l -0.0806,0.14112 v 2.35872 2.39904 l 0.0605,-0.0806 c 1.47168,-1.6128 2.43936,-3.46752 2.43936,-4.69728 V 98.3268 c 0,-0.6048 -0.2016,-0.86688 -0.68544,-0.96768"
       id="path7"
       inkscape:connector-curvature="0"
       style="fill:#000000;stroke:none;stroke-width:0.30000001;stroke-dasharray:none" />
    <path
       d="m 356.19858,96.495579 m -0.98784,-7.43904 c 0.0605,0 0.1008,-0.02016 0.14112,-0.02016 0.12096,0 0.26208,0.08064 0.3024,0.2016 0,0.02016 0.0403,0.04032 0.0403,0.1008 0,0.08064 -0.0605,0.16128 -0.14112,0.4032 -0.68544,1.75392 -1.1088,3.54816 -1.2096,5.70528 -0.0202,0.18144 -0.0202,0.64512 -0.0202,1.06848 0,0.44352 0,0.88704 0.0202,1.06848 0.14112,2.17728 0.52416,3.971521 1.2096,5.705281 0.1008,0.24192 0.14112,0.3024 0.14112,0.36288 0,0.2016 -0.14112,0.32256 -0.34272,0.32256 -0.16128,0 -0.18144,-0.0403 -0.38304,-0.36288 -1.16928,-1.83456 -1.85472,-3.790081 -2.05632,-5.846401 -0.0605,-0.52416 -0.0605,-0.64512 -0.0605,-1.24992 0,-0.62496 0,-0.74592 0.0605,-1.27008 0.2016,-2.03616 0.88704,-3.99168 2.05632,-5.8464 0.14112,-0.26208 0.2016,-0.28224 0.24192,-0.34272"
       id="path9"
       inkscape:connector-curvature="0"
       style="fill:#000000;stroke:none;stroke-width:0.30000001;stroke-dasharray:none" />
  </g>
</svg>
