<?xml version="1.0" encoding="UTF-8" standalone="no"?>
<svg
   xmlns:dc="http://purl.org/dc/elements/1.1/"
   xmlns:cc="http://creativecommons.org/ns#"
   xmlns:rdf="http://www.w3.org/1999/02/22-rdf-syntax-ns#"
   xmlns:svg="http://www.w3.org/2000/svg"
   xmlns="http://www.w3.org/2000/svg"
   xmlns:sodipodi="http://sodipodi.sourceforge.net/DTD/sodipodi-0.dtd"
   xmlns:inkscape="http://www.inkscape.org/namespaces/inkscape"
   width="21.68272"
   height="33.556961"
   version="1.1"
   id="svg6"
   sodipodi:docname="flat25ar.svg"
   inkscape:version="0.92.4 (5da689c313, 2019-01-14)">
  <metadata
     id="metadata12">
    <rdf:RDF>
      <cc:Work
         rdf:about="">
        <dc:format>image/svg+xml</dc:format>
        <dc:type
           rdf:resource="http://purl.org/dc/dcmitype/StillImage" />
        <dc:title></dc:title>
      </cc:Work>
    </rdf:RDF>
  </metadata>
  <defs
     id="defs10" />
  <sodipodi:namedview
     pagecolor="#ffffff"
     bordercolor="#666666"
     borderopacity="1"
     objecttolerance="10"
     gridtolerance="10"
     guidetolerance="10"
     inkscape:pageopacity="0"
     inkscape:pageshadow="2"
     inkscape:window-width="1920"
     inkscape:window-height="1017"
     id="namedview8"
     showgrid="false"
     inkscape:zoom="35.997854"
     inkscape:cx="10.84136"
     inkscape:cy="16.77848"
     inkscape:window-x="1912"
     inkscape:window-y="-8"
     inkscape:window-maximized="1"
     inkscape:current-layer="svg6"
     fit-margin-top="5"
     fit-margin-left="5"
     fit-margin-right="5"
     fit-margin-bottom="5"
     viewbox-width="9" />
  <g
     id="g7"
     transform="translate(-510.9904,-52.70848)">
    <path
       d="m 520.80576,75 m -0.21888,-17.26416 c 0.0547,-0.02736 0.10944,-0.02736 0.19152,-0.02736 0.24624,0 0.46512,0.10944 0.5472,0.32832 0.0274,0.10944 0.0274,0.16416 0.0274,3.20112 0,1.66896 0,3.06432 0,3.06432 0,0 0.79344,-0.4104 1.75104,-0.90288 l 1.72368,-0.87552 h 0.1368 c 0.0274,0 0.0274,0 0.0274,0 0.35568,0 0.60192,0.2736 0.60192,0.57456 0,0.05472 -0.0274,0.1368 -0.0821,0.21888 -0.0547,0.19152 0,0.16416 -2.1888,1.28592 l -1.96992,1.03968 v 2.65392 2.65392 l 0.0274,-0.08208 c 1.03968,-0.87552 2.13408,-1.31328 3.17376,-1.31328 0.4104,0 0.8208,0.05472 1.2312,0.21888 1.2312,0.4104 1.88784,1.55952 1.88784,2.92752 0,0.71136 -0.21888,1.5048 -0.62928,2.29824 -0.60192,1.0944 -1.368,1.96992 -3.50208,3.88512 l -2.10672,1.99728 c -0.38304,0.38304 -0.46512,0.38304 -0.62928,0.38304 -0.24624,0 -0.46512,-0.1368 -0.5472,-0.35568 -0.0274,-0.10944 -0.0274,-0.10944 -0.0274,-7.3872 0,-4.02192 0,-7.33248 0,-7.33248 0,0 -0.79344,0.38304 -1.75104,0.87552 l -1.72368,0.93024 h -0.1368 c -0.0547,0 -0.0547,0 -0.0547,0 -0.32832,0 -0.57456,-0.2736 -0.57456,-0.57456 0,-0.08208 0.0274,-0.16416 0.0547,-0.21888 0.0821,-0.24624 0,-0.19152 2.21616,-1.31328 l 1.96992,-1.01232 v -3.39264 c 0,-3.33792 0,-3.33792 0.0274,-3.44736 0.0821,-0.10944 0.19152,-0.2736 0.32832,-0.30096 m 3.22848,13.68 c -0.10944,-0.05472 -0.2736,-0.05472 -0.38304,-0.05472 -0.0821,0 -0.1368,0 -0.19152,0 -0.71136,0.10944 -1.34064,0.5472 -1.7784,1.25856 l -0.10944,0.19152 v 3.20112 3.25584 l 0.0821,-0.10944 c 1.99728,-2.1888 3.31056,-4.70592 3.31056,-6.37488 v -0.05472 c 0,-0.8208 -0.2736,-1.17648 -0.93024,-1.31328"
       id="path5"
       inkscape:connector-curvature="0"
       style="fill:#000000;stroke:none;stroke-width:0.30000001;stroke-dasharray:none" />
  </g>
</svg>
