<?xml version="1.0" encoding="UTF-8" standalone="no"?>
<svg
   xmlns:dc="http://purl.org/dc/elements/1.1/"
   xmlns:cc="http://creativecommons.org/ns#"
   xmlns:rdf="http://www.w3.org/1999/02/22-rdf-syntax-ns#"
   xmlns:svg="http://www.w3.org/2000/svg"
   xmlns="http://www.w3.org/2000/svg"
   xmlns:sodipodi="http://sodipodi.sourceforge.net/DTD/sodipodi-0.dtd"
   xmlns:inkscape="http://www.inkscape.org/namespaces/inkscape"
   width="35.203388"
   height="123.27119"
   version="1.1"
   id="svg6"
   sodipodi:docname="flat.svg"
   inkscape:version="0.92.4 (5da689c313, 2019-01-14)">
  <metadata
     id="metadata12">
    <rdf:RDF>
      <cc:Work
         rdf:about="">
        <dc:format>image/svg+xml</dc:format>
        <dc:type
           rdf:resource="http://purl.org/dc/dcmitype/StillImage" />
        <dc:title></dc:title>
      </cc:Work>
    </rdf:RDF>
  </metadata>
  <defs
     id="defs10" />
  <sodipodi:namedview
     pagecolor="#ffffff"
     bordercolor="#666666"
     borderopacity="1"
     objecttolerance="10"
     gridtolerance="10"
     guidetolerance="10"
     inkscape:pageopacity="0"
     inkscape:pageshadow="2"
     inkscape:window-width="1920"
     inkscape:window-height="1017"
     id="namedview8"
     showgrid="false"
     inkscape:zoom="4.9166667"
     inkscape:cx="-86.627117"
     inkscape:cy="68.97734"
     inkscape:window-x="-8"
     inkscape:window-y="-8"
     inkscape:window-maximized="1"
     inkscape:current-layer="svg6"
     fit-margin-top="0"
     fit-margin-left="0"
     fit-margin-right="0"
     fit-margin-bottom="0"
     viewbox-width="9" />
  <g
     id="g4"
     transform="matrix(0.21079874,0,0,-0.23391117,-34.992591,79.295887)">
    <path
       style="fill:#000000;stroke:none;stroke-width:0.30000001;stroke-dasharray:none"
       d="m 174,339 h 5 q 4,0 7,-1.5 3,-1.5 5,-5.5 V 43 l 1,2 q 18,14 36,21.5 18,7.5 35,7.5 7,0 14,-1 7,-1 14,-4 20,-7 31,-25 11,-18 11,-41 0,-11 -3.5,-24.5 Q 326,-35 319,-48 309,-66 292.5,-84.5 276,-103 240,-135 l -47,-45 q -6,-6 -8.5,-7 -2.5,-1 -5.5,-1 -4,0 -7.5,2 -3.5,2 -4.5,6 l -1,2 v 508 l 1,2 q 1,2 3,4 2,2 4,3 z M 247,32 q -2,1 -4.5,1.5 Q 240,34 238,34 h -4 Q 222,32 211.5,24.5 201,17 194,5 l -3,-4 v -145 l 2,3 q 34,37 54,76 20,39 20,67 v 1 q 0,14 -4.5,20.5 Q 258,30 247,32 Z"
       id="path5"
       inkscape:connector-curvature="0" />
  </g>
</svg>
