<svg width="32px" height="32px" id="forte">
  <g transform="translate(-530 -1000) scale(1.0 1.0)" >
<path stroke-width="0.3" fill="black" stroke="none" stroke-dasharray="none" d="M540 1020M552.5856 1004.29536C552.61296 1004.29536,552.64032 1004.29536,552.69504 1004.29536C552.8592 1004.29536,553.16016 1004.29536,553.35168 1004.29536C553.43376 1004.29536,553.62528 1004.29536,553.68 1004.32272C554.85648 1004.4048,556.08768 1005.28032,556.25184 1006.23792C556.30656 1006.37472,556.33392 1006.48416,556.33392 1006.64832C556.33392 1007.71536,555.43104 1008.59088,554.44608 1008.59088C554.19984 1008.59088,553.9536 1008.53616,553.73472 1008.42672C553.05072 1008.12576,552.7224 1007.46912,552.7224 1006.83984C552.7224 1006.34736,552.91392 1005.88224,553.35168 1005.55392C553.4064 1005.4992,553.4064 1005.4992,553.4064 1005.4992C553.4064 1005.4992,553.4064 1005.4992,553.4064 1005.4992C553.35168 1005.4992,552.996 1005.69072,552.80448 1005.85488C551.46384 1006.7304,550.31472 1008.5088,549.54864 1010.6976C549.52128 1010.86176,549.49392 1010.9712,549.49392 1010.9712C549.49392 1011.02592,549.93168 1011.02592,550.47888 1011.02592C551.57328 1011.02592,551.60064 1011.02592,551.71008 1011.08064C551.98368 1011.2448,552.09312 1011.46368,552.09312 1011.73728C552.09312 1011.95616,551.98368 1012.2024,551.7648 1012.31184C551.60064 1012.42128,551.65536 1012.44864,550.5336 1012.44864L550.31472 1012.44864L549.08352 1012.44864L549.0288 1012.64016C548.29008 1016.55264,546.84 1020.24624,544.87008 1023.20112C543.52944 1025.30784,541.88784 1026.48432,540.02736 1026.81264C539.83584 1026.86736,539.64432 1026.86736,539.4528 1026.86736C538.2216 1026.86736,537.264 1026.21072,536.88096 1025.11632C536.79888 1024.84272,536.77152 1024.54176,536.77152 1024.26816C536.77152 1023.17376,537.51024 1022.29824,538.60464 1022.29824C538.74144 1022.29824,538.93296 1022.35296,539.15184 1022.38032C540 1022.5992,540.43776 1023.39264,540.43776 1024.15872C540.43776 1024.73328,540.21888 1025.30784,539.67168 1025.6088C539.61696 1025.63616,539.56224 1025.69088,539.56224 1025.69088C539.56224 1025.69088,539.61696 1025.69088,539.61696 1025.69088C539.61696 1025.69088,539.67168 1025.69088,539.75376 1025.63616C540.62928 1025.38992,541.47744 1024.54176,542.02464 1023.39264C542.68128 1022.16144,543.42 1019.39808,544.70592 1013.87136C544.87008 1013.10528,545.00688 1012.50336,545.0616 1012.44864C545.0616 1012.44864,545.0616 1012.44864,545.0616 1012.44864C545.0616 1012.44864,544.95216 1012.44864,543.85776 1012.44864C542.62656 1012.44864,542.62656 1012.44864,542.48976 1012.3392C542.27088 1012.2024,542.10672 1011.95616,542.10672 1011.73728C542.10672 1011.46368,542.27088 1011.2448,542.48976 1011.08064C542.5992 1011.02592,542.62656 1011.02592,544.04928 1011.02592L545.41728 1010.9712L545.52672 1010.67024C546.81264 1007.05872,549.60336 1004.51424,552.5856 1004.29536"></path>
</g>
</svg>