<?xml version="1.0" encoding="UTF-8" standalone="no"?>
<svg
   xmlns:dc="http://purl.org/dc/elements/1.1/"
   xmlns:cc="http://creativecommons.org/ns#"
   xmlns:rdf="http://www.w3.org/1999/02/22-rdf-syntax-ns#"
   xmlns:svg="http://www.w3.org/2000/svg"
   xmlns="http://www.w3.org/2000/svg"
   xmlns:sodipodi="http://sodipodi.sourceforge.net/DTD/sodipodi-0.dtd"
   xmlns:inkscape="http://www.inkscape.org/namespaces/inkscape"
   width="28.987549"
   height="35.750031"
   version="1.1"
   id="svg6"
   sodipodi:docname="glyph2.svg"
   inkscape:version="0.92.4 (5da689c313, 2019-01-14)">
  <metadata
     id="metadata12">
    <rdf:RDF>
      <cc:Work
         rdf:about="">
        <dc:format>image/svg+xml</dc:format>
        <dc:type
           rdf:resource="http://purl.org/dc/dcmitype/StillImage" />
        <dc:title></dc:title>
      </cc:Work>
    </rdf:RDF>
  </metadata>
  <defs
     id="defs10" />
  <sodipodi:namedview
     pagecolor="#ffffff"
     bordercolor="#666666"
     borderopacity="1"
     objecttolerance="10"
     gridtolerance="10"
     guidetolerance="10"
     inkscape:pageopacity="0"
     inkscape:pageshadow="2"
     inkscape:window-width="1920"
     inkscape:window-height="1017"
     id="namedview8"
     showgrid="false"
     inkscape:zoom="19.572791"
     inkscape:cx="24.328853"
     inkscape:cy="9.0873101"
     inkscape:window-x="1912"
     inkscape:window-y="-8"
     inkscape:window-maximized="1"
     inkscape:current-layer="svg6"
     fit-margin-top="5"
     fit-margin-left="5"
     fit-margin-right="5"
     fit-margin-bottom="5" />
  <g
     transform="matrix(1.5119618,0,0,1.3963741,-448.5472,-53.070619)"
     id="g4">
    <path
       d="m 300,60 m 5.38992,-17.72928 c 0.10944,0 0.30096,0 0.51984,0 0.43776,0 1.01232,0 1.14912,0.05472 2.052,0.24624 3.6936,1.28592 4.40496,2.736 0.24624,0.49248 0.35568,1.01232 0.35568,1.55952 0,1.34064 -0.73872,2.8728 -2.07936,4.02192 -0.93024,0.79344 -1.86048,1.28592 -3.31056,1.75104 -1.88784,0.60192 -3.50208,1.66896 -4.54176,2.95488 0,0 0,0.02736 0,0.02736 0,0 0,0 0,0 0,0 0.0821,-0.02736 0.1368,-0.10944 1.03968,-0.84816 2.43504,-1.34064 3.6936,-1.34064 1.03968,0 1.7784,0.19152 2.76336,0.73872 0.60192,0.30096 1.14912,0.43776 1.66896,0.43776 0.21888,0 0.43776,0 0.684,-0.05472 0.35568,-0.08208 0.73872,-0.35568 0.87552,-0.57456 0.0821,-0.19152 0.21888,-0.2736 0.38304,-0.2736 0.21888,0 0.43776,0.16416 0.43776,0.4104 0,0.19152 -0.24624,0.87552 -0.46512,1.34064 -0.87552,1.75104 -2.40768,2.84544 -3.88512,2.84544 -0.10944,0 -0.19152,0 -0.30096,-0.02736 -0.38304,0 -0.5472,-0.10944 -1.03968,-0.43776 -1.03968,-0.684 -2.35296,-1.03968 -3.50208,-1.03968 -0.49248,0 -0.93024,0.05472 -1.34064,0.21888 -0.5472,0.19152 -1.06704,0.51984 -1.2312,0.76608 -0.0821,0.19152 -0.21888,0.24624 -0.38304,0.24624 -0.1368,0 -0.2736,-0.05472 -0.35568,-0.21888 l -0.0547,-0.08208 v -0.38304 c 0,-0.32832 0.0274,-0.43776 0.0274,-0.5472 0.0274,-0.08208 0.0547,-0.24624 0.0547,-0.38304 0.49248,-2.29824 2.16144,-4.35024 4.43232,-5.36256 1.86048,-0.87552 3.09168,-2.43504 3.31056,-4.40496 0.0547,-0.16416 0.0547,-0.30096 0.0547,-0.46512 0,-1.75104 -1.31328,-2.95488 -3.17376,-2.95488 -0.1368,0 -0.30096,0 -0.43776,0 -0.2736,0.02736 -0.35568,0.02736 -0.35568,0.08208 0,0 0,0.02736 0.0821,0.08208 0.62928,0.35568 0.93024,1.03968 0.93024,1.69632 0,0.84816 -0.43776,1.6416 -1.28592,1.96992 -0.2736,0.08208 -0.5472,0.10944 -0.76608,0.10944 -1.14912,0 -2.10672,-0.98496 -2.10672,-2.16144 0,-0.21888 0,-0.43776 0.0547,-0.684 0.4104,-1.25856 2.35296,-2.29824 4.59648,-2.54448 m 0.84816,17.75664 h 0.0547 -0.0821 0.0274 m 0,-18.44064 h 0.0547 -0.0821 0.0274"
       id="path5"
       inkscape:connector-curvature="0"
       style="fill:#000000;stroke:none;stroke-width:0.30000001;stroke-dasharray:none" />
  </g>
</svg>
