<?xml version="1.0" encoding="UTF-8" standalone="no"?>
<svg
   xmlns:dc="http://purl.org/dc/elements/1.1/"
   xmlns:cc="http://creativecommons.org/ns#"
   xmlns:rdf="http://www.w3.org/1999/02/22-rdf-syntax-ns#"
   xmlns:svg="http://www.w3.org/2000/svg"
   xmlns="http://www.w3.org/2000/svg"
   xmlns:sodipodi="http://sodipodi.sourceforge.net/DTD/sodipodi-0.dtd"
   xmlns:inkscape="http://www.inkscape.org/namespaces/inkscape"
   width="62.013191"
   height="49.844208"
   version="1.1"
   id="svg6"
   sodipodi:docname="grow2.svg"
   inkscape:version="0.92.4 (5da689c313, 2019-01-14)">
  <metadata
     id="metadata12">
    <rdf:RDF>
      <cc:Work
         rdf:about="">
        <dc:format>image/svg+xml</dc:format>
        <dc:type
           rdf:resource="http://purl.org/dc/dcmitype/StillImage" />
        <dc:title></dc:title>
      </cc:Work>
    </rdf:RDF>
  </metadata>
  <defs
     id="defs10" />
  <sodipodi:namedview
     pagecolor="#ffffff"
     bordercolor="#666666"
     borderopacity="1"
     objecttolerance="1"
     gridtolerance="1"
     guidetolerance="10"
     inkscape:pageopacity="0"
     inkscape:pageshadow="2"
     inkscape:window-width="1920"
     inkscape:window-height="1017"
     id="namedview8"
     showgrid="true"
     inkscape:zoom="8"
     inkscape:cx="67.021286"
     inkscape:cy="9.8913236"
     inkscape:window-x="1912"
     inkscape:window-y="-8"
     inkscape:window-maximized="1"
     inkscape:current-layer="svg6"
     fit-margin-top="0"
     fit-margin-left="0"
     fit-margin-right="0"
     fit-margin-bottom="0"
     viewbox-width="9">
    <inkscape:grid
       type="xygrid"
       id="grid820"
       originx="-61.577271"
       originy="-72.990052" />
  </sodipodi:namedview>
  <path
     d="M 0.7472321,49.497191 M 15.3647,41.391822 c 0.223038,0 0.557601,0 0.613973,0 0,0 0.06128,0 0.06128,0 0,0 0.335783,0 0.613972,0 5.021103,0.217955 7.978101,2.788941 7.978101,6.013659 0,1.568788 -0.669121,3.355445 -2.34327,5.054958 -3.180162,3.355445 -8.368788,5.185694 -12.8878032,5.185694 -3.514968,0 -6.5277261,-1.089456 -7.9782238,-3.311873 -0.4473039,-0.871538 -0.6691195,-1.699513 -0.6691195,-2.614632 0,-4.749916 6.8065256,-10.022772 14.6174695,-10.327806"
     id="path6"
     inkscape:connector-curvature="0"
     style="fill:#000000;stroke:none;stroke-width:0.52679127;stroke-dasharray:none" />
  <path
     d="M 62.729601,20.184054 46.422729,31.058531 V 24.533846 H 29.028724 V 15.83426 H 46.422729 V 9.3095707 Z"
     id="path14"
     inkscape:connector-curvature="0"
     style="fill:#000000;stroke:none;stroke-width:0.00832281;stroke-dasharray:none" />
  <rect
     style="opacity:1;fill:#000000;fill-opacity:1;fill-rule:nonzero;stroke:#000000;stroke-width:0.1;stroke-miterlimit:4;stroke-dasharray:none;stroke-opacity:1"
     id="rect819"
     width="6.0149021"
     height="49.355156"
     x="18.422729"
     y="-2.3109465" />
  <g
     id="g4-20-7"
     transform="matrix(-2.7380666,0,0,-2.8005527,1869.1581,847.53817)">
    <path
       d="m 659.91114,289.613 c 4.77792,0 6.94754,-4.39124 6.94754,-5.33876 0,-1.49184 -1.77221,-3.37641 -3.46565,-3.37641 -4.31424,0 -7.17843,4.21675 -7.17843,5.70859 0,1.55232 1.81057,3.00658 3.42337,3.00658 m -1.50219,-2.98961 c 0,-1.4112 4.21344,-3.70944 5.56416,-3.70944 0.56448,0 0.86688,0.26208 1.08864,0.6048 0.0806,0.18144 0.16128,0.36288 0.16128,0.56448 0,1.24992 -4.09248,3.79008 -5.48352,3.79008 -0.6048,0 -0.96768,-0.32256 -1.16928,-0.66528 -0.0806,-0.16128 -0.16128,-0.38304 -0.16128,-0.58464"
       id="path5-3-8"
       inkscape:connector-curvature="0"
       style="fill:#000000;stroke:none;stroke-width:0.30000001;stroke-dasharray:none"
       sodipodi:nodetypes="csssccscsscc" />
  </g>
  <rect
     style="opacity:1;fill:#000000;fill-opacity:1;fill-rule:nonzero;stroke:#000000;stroke-width:0.09139597;stroke-miterlimit:4;stroke-dasharray:none;stroke-opacity:1"
     id="rect819-8"
     width="5.0235062"
     height="49.363758"
     x="67.043427"
     y="-2.295042" />
  <g
     id="g4-20-7-4"
     transform="matrix(-2.7380666,0,0,-2.8005527,1937.8839,855.17548)">
    <path
       d="m 659.91114,289.613 c 4.77792,0 6.94754,-4.39124 6.94754,-5.33876 0,-1.49184 -1.77221,-3.37641 -3.46565,-3.37641 -4.31424,0 -7.17843,4.21675 -7.17843,5.70859 0,1.55232 1.81057,3.00658 3.42337,3.00658 m -1.50219,-2.98961 c 0,-1.4112 4.21344,-3.70944 5.56416,-3.70944 0.56448,0 0.86688,0.26208 1.08864,0.6048 0.0806,0.18144 0.16128,0.36288 0.16128,0.56448 0,1.24992 -4.09248,3.79008 -5.48352,3.79008 -0.6048,0 -0.96768,-0.32256 -1.16928,-0.66528 -0.0806,-0.16128 -0.16128,-0.38304 -0.16128,-0.58464"
       id="path5-3-8-5"
       inkscape:connector-curvature="0"
       style="fill:#000000;stroke:none;stroke-width:0.30000001;stroke-dasharray:none"
       sodipodi:nodetypes="csssccscsscc" />
  </g>
</svg>
