<?xml version="1.0" encoding="UTF-8" standalone="no"?>
<!-- Created with Inkscape (http://www.inkscape.org/) -->

<svg
   xmlns:dc="http://purl.org/dc/elements/1.1/"
   xmlns:cc="http://creativecommons.org/ns#"
   xmlns:rdf="http://www.w3.org/1999/02/22-rdf-syntax-ns#"
   xmlns:svg="http://www.w3.org/2000/svg"
   xmlns="http://www.w3.org/2000/svg"
   xmlns:sodipodi="http://sodipodi.sourceforge.net/DTD/sodipodi-0.dtd"
   xmlns:inkscape="http://www.inkscape.org/namespaces/inkscape"
   width="500mm"
   height="500mm"
   viewBox="0 0 500 500"
   version="1.1"
   id="svg1390"
   inkscape:version="0.92.4 (5da689c313, 2019-01-14)"
   sodipodi:docname="logo_ink.svg">
  <defs
     id="defs1384" />
  <sodipodi:namedview
     id="base"
     pagecolor="#ffffff"
     bordercolor="#666666"
     borderopacity="1.0"
     inkscape:pageopacity="0.0"
     inkscape:pageshadow="2"
     inkscape:zoom="1"
     inkscape:cx="678.6283"
     inkscape:cy="1479.467"
     inkscape:document-units="mm"
     inkscape:current-layer="layer1"
     showgrid="false"
     inkscape:window-width="1920"
     inkscape:window-height="1017"
     inkscape:window-x="-8"
     inkscape:window-y="-8"
     inkscape:window-maximized="1" />
  <metadata
     id="metadata1387">
    <rdf:RDF>
      <cc:Work
         rdf:about="">
        <dc:format>image/svg+xml</dc:format>
        <dc:type
           rdf:resource="http://purl.org/dc/dcmitype/StillImage" />
        <dc:title></dc:title>
      </cc:Work>
    </rdf:RDF>
  </metadata>
  <g
     inkscape:label="Layer 1"
     inkscape:groupmode="layer"
     id="layer1"
     transform="translate(0,203)">
    <path
       style="fill:none;stroke:#000000;stroke-width:1.32291663;stroke-linecap:butt;stroke-linejoin:miter;stroke-miterlimit:4;stroke-dasharray:none;stroke-opacity:1"
       d="m 68.527083,-119.98333 c 6.085416,-15.08125 15.610416,-21.16667 21.695833,-25.92917 6.085416,-4.7625 21.151714,-14.01403 30.162504,-11.64166 9.88311,2.60204 25.39999,11.90625 28.31041,18.25624 2.64583,6.08542 14.81666,9.52501 23.01875,7.67292 6.87917,-0.52916 23.28334,-13.75833 26.19375,-15.34583 2.91042,-1.5875 26.9875,-17.4625 30.95625,-18.78542 3.96875,-1.32291 15.08125,0.52917 16.13958,2.64584 1.05834,2.11666 0.79375,10.31875 0.79375,10.31875 0,0 -2.40838,0.25412 -4.23333,5.02708 -3.43958,8.99583 -7.77842,8.15794 -12.7,14.81667 -4.73101,6.40089 -32.01458,31.22083 -32.01458,31.22083 0,0 -12.7,8.731248 -16.40417,14.552081 -3.70416,5.820834 -19.05,33.072917 -19.31458,36.777083 -0.26459,3.704167 -6.35,38.89375 -6.35,42.333333 0,3.4395833 -59.266668,-10.31875 -59.266668,-10.31875 L 45.772916,-6.7416664 c 0,0 3.066918,-21.6171536 3.704166,-26.1937496 2.910417,-20.902083 6.614584,-37.835417 6.614584,-40.745833 0,-2.910417 8.73125,-37.835421 9.260417,-39.158331 0.529166,-1.32292 3.175,-7.14375 3.175,-7.14375 z"
       id="path1940"
       inkscape:connector-curvature="0"
       sodipodi:nodetypes="cssccccccsscccsccsscc" />
    <path
       style="fill:#000000;fill-opacity:1;fill-rule:nonzero;stroke-width:1.32291663;stroke-miterlimit:4;stroke-dasharray:none"
       id="path1942"
       d="m 128.56829,-134.17654 c -1.08052,-7.9e-4 -2.17262,0.0693 -3.22612,0.31857 -0.89558,0.14509 -1.75789,0.36629 -2.59132,0.72046 -0.58078,0.18869 -1.17037,0.34314 -1.73204,0.59041 -0.10681,0.0582 -0.21247,0.11846 -0.32042,0.17446 -1.91255,0.99196 4.253,-2.54621 2.4604,-1.41637 -0.10809,0.0681 -0.21282,0.14169 -0.32317,0.20608 -1.22075,0.71225 -2.44657,1.41577 -3.66986,2.12366 5.75765,-3.50599 2.74897,-1.62046 1.50428,-0.67574 -0.49539,0.35842 -0.99436,0.70786 -1.47885,1.08092 -0.42907,0.26448 -0.75636,0.59915 -1.03559,1.01428 -0.29299,0.38075 -0.5252,0.78595 -0.66038,1.24693 -0.0662,0.478 -0.17746,0.94603 -0.27331,1.41855 -0.10325,0.65448 -0.11046,1.31909 -0.11874,1.98013 -0.004,0.60591 -5.3e-4,1.21184 10e-4,1.81775 0.0177,0.53911 0.22479,1.04116 0.35599,1.55801 0.19164,0.46282 0.28553,0.95366 0.46027,1.42164 0.1943,0.57507 0.4556,1.12533 0.76532,1.64729 0,0 -3.39606,1.96209 -3.39606,1.96209 v 0 c -0.31042,-0.54386 -0.59104,-1.10682 -0.79345,-1.69968 -0.19767,-0.47942 -0.29123,-0.98615 -0.48873,-1.46652 -0.12893,-0.54943 -0.35183,-1.07433 -0.39872,-1.64125 2.7e-4,-0.60948 8e-4,-1.21897 0.008,-1.82842 0.009,-0.67554 0.008,-1.35324 0.0786,-2.02582 0.0627,-0.48891 0.23569,-0.94988 0.25926,-1.44468 0.10133,-0.51047 0.28177,-0.96562 0.59427,-1.38609 0.31413,-0.39645 0.50769,-0.8932 0.99966,-1.11726 0.48476,-0.38412 0.97131,-0.7548 1.48744,-1.09576 1.67094,-1.20029 3.1521,-2.43572 5.16718,-3.22262 -1.00282,0.58255 -2.00307,1.16952 -3.00845,1.74763 -0.20775,0.11946 0.39605,-0.27064 0.60305,-0.3914 1.41283,-0.82427 2.79026,-1.74594 4.29431,-2.40515 0.57555,-0.21017 1.16599,-0.37449 1.73786,-0.59417 0.84184,-0.31536 1.72781,-0.46151 2.6052,-0.6443 1.09033,-0.1938 2.19985,-0.25698 3.30614,-0.27888 0,0 -3.17291,2.30525 -3.17291,2.30525 z"
       inkscape:connector-curvature="0" />
    <ellipse
       style="fill:#000000;fill-opacity:1;fill-rule:nonzero;stroke-width:1.32291663;stroke-miterlimit:4;stroke-dasharray:none"
       id="path1952"
       cx="238.65416"
       cy="-164.8302"
       rx="5.5562501"
       ry="4.8947916" />
    <path
       style="fill:none;stroke:#000000;stroke-width:2.53365159;stroke-linecap:butt;stroke-linejoin:miter;stroke-miterlimit:4;stroke-dasharray:none;stroke-opacity:1"
       d="m 68.59717,-91.588554 c 11.675229,25.028544 3.603712,10.222845 8.523674,18.413961 4.322956,7.197176 15.071367,23.356106 17.95167,25.832462 2.880303,2.476356 15.389506,15.144254 20.574056,14.593953 5.18455,-0.550301 17.04735,-7.556276 17.62341,-16.911399 0.57607,-9.355122 -9.68246,-25.472772 -11.69867,-30.425485 -2.01622,-4.952712 -11.80925,-20.361148 -14.40152,-26.414468 -2.59227,-6.05332 -5.47258,-13.48238 -5.47258,-15.95873 0,-2.47636 -0.28803,-2.47636 -0.28803,-2.47636"
       id="path1954"
       inkscape:connector-curvature="0"
       sodipodi:nodetypes="csssccssc" />
    <path
       style="fill:none;stroke:#000000;stroke-width:0.26458332px;stroke-linecap:butt;stroke-linejoin:miter;stroke-opacity:1"
       d="m 233.89166,-140.35625 -8.99583,0.26459 c 0,0 -9.81724,2.27841 -8.99583,9.26041 1.05833,8.99584 1.05833,8.99584 1.05833,8.99584 l 8.20208,-7.40834 z"
       id="path1956"
       inkscape:connector-curvature="0"
       sodipodi:nodetypes="ccsccc" />
    <path
       style="fill:#000000;fill-opacity:1;stroke:none;stroke-width:0.26458332"
       d="m 217.02126,-123.58617 c -0.5358,-3.54839 -0.96722,-8.40646 -0.81086,-9.13089 0.51417,-2.38228 2.32223,-4.31752 5.50206,-5.88908 1.82321,-0.90108 2.34472,-1.02997 5.00749,-1.2376 1.63478,-0.12747 3.76591,-0.19772 4.73584,-0.15611 l 2.43587,-0.3564 -2.96718,6.28306 c 0,0 -3.40019,4.38265 -4.40935,5.16345 -7.90637,6.11732 -8.70308,7.37409 -8.94236,7.37409 -0.0754,0 -0.46911,-1.50481 -0.55151,-2.05052 z"
       id="path1958"
       inkscape:connector-curvature="0"
       sodipodi:nodetypes="cssssccssc" />
  </g>
</svg>
