<?xml version="1.0" encoding="UTF-8" standalone="no"?>
<svg
   xmlns:dc="http://purl.org/dc/elements/1.1/"
   xmlns:cc="http://creativecommons.org/ns#"
   xmlns:rdf="http://www.w3.org/1999/02/22-rdf-syntax-ns#"
   xmlns:svg="http://www.w3.org/2000/svg"
   xmlns="http://www.w3.org/2000/svg"
   xmlns:sodipodi="http://sodipodi.sourceforge.net/DTD/sodipodi-0.dtd"
   xmlns:inkscape="http://www.inkscape.org/namespaces/inkscape"
   width="64"
   height="64"
   version="1.1"
   id="svg17"
   sodipodi:docname="logo_small.svg"
   inkscape:version="0.92.4 (5da689c313, 2019-01-14)"
   inkscape:export-filename="C:\Users\anewman\Documents\GitHub\cloned\src\styles\images\logo_small.png"
   inkscape:export-xdpi="96"
   inkscape:export-ydpi="96">
  <metadata
     id="metadata23">
    <rdf:RDF>
      <cc:Work
         rdf:about="">
        <dc:format>image/svg+xml</dc:format>
        <dc:type
           rdf:resource="http://purl.org/dc/dcmitype/StillImage" />
        <dc:title></dc:title>
      </cc:Work>
    </rdf:RDF>
  </metadata>
  <defs
     id="defs21" />
  <sodipodi:namedview
     pagecolor="#ffffff"
     bordercolor="#666666"
     borderopacity="1"
     objecttolerance="10"
     gridtolerance="10"
     guidetolerance="10"
     inkscape:pageopacity="0"
     inkscape:pageshadow="2"
     inkscape:window-width="1920"
     inkscape:window-height="1017"
     id="namedview19"
     showgrid="false"
     inkscape:zoom="2.1094527"
     inkscape:cx="212.9658"
     inkscape:cy="162.07547"
     inkscape:window-x="-8"
     inkscape:window-y="-8"
     inkscape:window-maximized="1"
     inkscape:current-layer="svg17" />
  <!-- Created with Method Draw - http://github.com/duopixel/Method-Draw/ -->
  <g
     id="g5"
     transform="matrix(0.17813898,0,0,0.17334906,-0.82186102,-4.5129743)">
    <title
       id="title2">background</title>
    <rect
       id="canvas_background"
       height="402"
       width="582"
       y="-1"
       x="-1"
       style="fill:#ffffff" />
  </g>
  <g
     transform="matrix(0.15663349,0,0,0.20407661,11.221161,-10.99803)"
     id="g831">
    <path
       id="svg_3"
       d="m 61.5,258.4375 c -2,-46 7,-117 68,-151 61,-34 113,-54 140,-42 27,12 51,72 66,73 15,1 139,-71 151,-56 12,15 2,53 0,59 -2,6 -123,99 -126,103 -3,4 -80,125 -80.5,124.5625 0.5,0.4375 -79.5,-30.5625 -80,-31 0.5,0.4375 -97.5,29.4375 -98,29 0.5,0.4375 -38.5,-62.5625 -40.5,-108.5625 z"
       fill-opacity="null"
       stroke-opacity="null"
       style="fill:#ffffff;stroke:#000000;stroke-width:16.77962793;stroke-miterlimit:4;stroke-dasharray:none"
       inkscape:connector-curvature="0" />
    <path
       id="svg_4"
       d="m 462.94896,155.98667 c -22.11231,-1.34436 -48.12679,18.821 -48.77715,18.23284 0.65036,0.58816 -0.65036,23.44222 -1.30072,22.85406 0.65036,0.58816 72.19019,-39.74254 50.07787,-41.0869 z"
       stroke-opacity="null"
       inkscape:connector-curvature="0"
       style="fill:#000000;stroke:#000000;stroke-width:1.98354077" />
    <ellipse
       ry="12.056028"
       rx="13.944211"
       id="svg_5"
       cy="83.825684"
       cx="474.22363"
       stroke-opacity="null"
       style="fill:#000000;stroke:#000000;stroke-width:2.16430807" />
    <path
       id="svg_6"
       d="m 284.85031,117.4066 c -9.75713,1.16731 -18.807,6.55124 -26.04417,12.43404 -10.12659,8.23149 -16.7041,17.43974 -16.7041,17.43974"
       fill-opacity="null"
       stroke-opacity="null"
       style="opacity:1;fill:#000000;stroke:#000000;stroke-width:5.59320931;stroke-miterlimit:4;stroke-dasharray:none"
       inkscape:connector-curvature="0"
       sodipodi:nodetypes="csc" />
    <path
       id="svg_8"
       d="M -65.5,36.4375"
       fill-opacity="null"
       stroke-opacity="null"
       inkscape:connector-curvature="0"
       style="opacity:0.5;fill:#ffffff;stroke:#000000;stroke-width:1.5" />
    <path
       id="svg_9"
       d="m 89.5,194.4375 c 12,28 114,109 116,109 2,0 24,14 45,-1 21,-15 28,-32 24,-44 -4,-12 -81,-142 -81,-142"
       fill-opacity="null"
       stroke-opacity="null"
       style="opacity:1;fill:#ffffff;stroke:#000000;stroke-width:22.37283724;stroke-miterlimit:4;stroke-dasharray:none"
       inkscape:connector-curvature="0" />
  </g>
</svg>
