<svg width="580" height="400" xmlns="http://www.w3.org/2000/svg">
 <!-- Created with Method Draw - http://github.com/duopixel/Method-Draw/ -->

 <g>
  <title>background</title>
  <rect x="-1" y="-1" width="582" height="402" id="canvas_background" fill="#fff"/>
 </g>
 <g>
  <title>Layer 1</title>
  <path fill="#fff" stroke="#000" stroke-width="9" stroke-opacity="null" fill-opacity="null" d="m63.5,258.4375c-2,-46 7,-117 68,-151c61,-34 113,-54 140,-42c27,12 51,72 66,73c15,1 139,-71 151,-56c12,15 2,53 0,59c-2,6 -123,99 -126,103c-3,4 -80,125 -80.5,124.5625c0.5,0.4375 -79.5,-30.5625 -80,-31c0.5,0.4375 -97.5,29.4375 -98,29c0.5,0.4375 -38.5,-62.5625 -40.5,-108.5625z" id="svg_3"/>
  <path fill="#000000" stroke="#000" stroke-width="1.5" stroke-opacity="null" d="m465.5,159.4375c-17,-1 -37,14 -37.5,13.5625c0.5,0.4375 -0.5,17.4375 -1,17c0.5,0.4375 55.5,-29.5625 38.5,-30.5625z" id="svg_4"/>
  <ellipse fill="#000000" stroke="#000" stroke-width="1.5" stroke-opacity="null" cx="480" cy="80.9375" id="svg_5" rx="8.5" ry="9.5"/>
  <path fill="#000000" stroke="#000" stroke-width="5" stroke-opacity="null" fill-opacity="null" opacity="0.5" d="m280.5,118.4375c-23,3 -42,32 -42,32" id="svg_6"/>
  <path fill="#fff" stroke="#000" stroke-width="1.5" stroke-opacity="null" fill-opacity="null" opacity="0.5" d="m-65.5,36.4375" id="svg_8"/>
  <path fill="#fff" stroke="#000" stroke-width="10" stroke-opacity="null" fill-opacity="null" opacity="0.5" d="m90.5,195.4375c12,28 114,109 116,109c2,0 24,14 45,-1c21,-15 28,-32 24,-44c-4,-12 -81,-142 -81,-142" id="svg_9"/>
 </g>
</svg>