<?xml version="1.0" encoding="UTF-8" standalone="no"?>
<svg
   xmlns:dc="http://purl.org/dc/elements/1.1/"
   xmlns:cc="http://creativecommons.org/ns#"
   xmlns:rdf="http://www.w3.org/1999/02/22-rdf-syntax-ns#"
   xmlns:svg="http://www.w3.org/2000/svg"
   xmlns="http://www.w3.org/2000/svg"
   xmlns:sodipodi="http://sodipodi.sourceforge.net/DTD/sodipodi-0.dtd"
   xmlns:inkscape="http://www.inkscape.org/namespaces/inkscape"
   width="12.01826"
   height="33.349182"
   version="1.1"
   id="svg6"
   sodipodi:docname="marcato_above.svg"
   inkscape:version="0.92.4 (5da689c313, 2019-01-14)">
  <metadata
     id="metadata12">
    <rdf:RDF>
      <cc:Work
         rdf:about="">
        <dc:format>image/svg+xml</dc:format>
        <dc:type
           rdf:resource="http://purl.org/dc/dcmitype/StillImage" />
        <dc:title></dc:title>
      </cc:Work>
    </rdf:RDF>
  </metadata>
  <defs
     id="defs10" />
  <sodipodi:namedview
     pagecolor="#ffffff"
     bordercolor="#666666"
     borderopacity="1"
     objecttolerance="10"
     gridtolerance="10"
     guidetolerance="10"
     inkscape:pageopacity="0"
     inkscape:pageshadow="2"
     inkscape:window-width="1920"
     inkscape:window-height="1017"
     id="namedview8"
     showgrid="false"
     inkscape:zoom="12.509382"
     inkscape:cx="22.316878"
     inkscape:cy="11.323163"
     inkscape:window-x="-8"
     inkscape:window-y="-8"
     inkscape:window-maximized="1"
     inkscape:current-layer="svg6"
     fit-margin-top="0"
     fit-margin-left="0"
     fit-margin-right="0"
     fit-margin-bottom="0" />
  <g
     class="vf-notehead"
     pointer-events="bounding-box"
     id="g9"
     transform="matrix(1,0,0,-1,-557.42603,103.1263)" />
  <g
     id="g834"
     transform="matrix(-1,0,0,1,12.01826,13.598014)">
    <g
       id="g842"
       transform="matrix(-1,0,0,1,12.01826,0)">
      <g
         id="g1382">
        <path
           style="fill:#000000;stroke:none;stroke-width:0.30000001;stroke-dasharray:none"
           d="M 7.3574219 13.597656 C 4.0774171 13.761656 1.1554726 16.154844 0.27539062 18.720703 L 0.17382812 18.720703 L 0.17382812 19.035156 C 0.061887686 19.441439 6.2547311e-18 19.851231 0 20.253906 C 5.0123157e-17 20.65324 0.070807072 21.026405 0.17382812 21.400391 L 0.17382812 33.349609 L 3.1738281 33.349609 L 3.1738281 23.955078 C 3.5495667 24.030631 3.9421363 24.072266 4.3515625 24.072266 C 6.6260425 24.072266 9.2392838 22.892629 10.839844 20.730469 C 11.682244 19.635349 12.017578 18.483536 12.017578 17.472656 C 12.017578 15.394736 10.529153 13.738056 8.0019531 13.597656 L 7.6933594 13.597656 L 7.6660156 13.597656 L 7.3574219 13.597656 z "
           transform="translate(0,-13.598014)"
           id="path5" />
      </g>
    </g>
  </g>
  <path
     style="color:#000000;font-style:normal;font-variant:normal;font-weight:normal;font-stretch:normal;font-size:medium;line-height:normal;font-family:sans-serif;font-variant-ligatures:normal;font-variant-position:normal;font-variant-caps:normal;font-variant-numeric:normal;font-variant-alternates:normal;font-feature-settings:normal;text-indent:0;text-align:start;text-decoration:none;text-decoration-line:none;text-decoration-style:solid;text-decoration-color:#000000;letter-spacing:normal;word-spacing:normal;text-transform:none;writing-mode:lr-tb;direction:ltr;text-orientation:mixed;dominant-baseline:auto;baseline-shift:baseline;text-anchor:start;white-space:normal;shape-padding:0;clip-rule:nonzero;display:inline;overflow:visible;visibility:visible;opacity:1;isolation:auto;mix-blend-mode:normal;color-interpolation:sRGB;color-interpolation-filters:linearRGB;solid-color:#000000;solid-opacity:1;vector-effect:none;fill:#000000;fill-opacity:1;fill-rule:nonzero;stroke:none;stroke-width:1.5;stroke-linecap:butt;stroke-linejoin:miter;stroke-miterlimit:4;stroke-dasharray:none;stroke-dashoffset:0;stroke-opacity:1;color-rendering:auto;image-rendering:auto;shape-rendering:auto;text-rendering:auto;enable-background:accumulate"
     d="m 10.521891,10.489097 -1.4060671,0.52548 C 7.5406415,6.8072853 6.7808192,4.7979433 6.3187244,3.582421 L 2.8253461,11.226899 1.460701,10.60215 6.307,0 7.0310415,1.2763554 c 0,0 0.04086,0.080141 0.052633,0.1087224 0.011783,0.028583 0.029554,0.071902 0.060733,0.1513259 0.062369,0.1588535 0.1777421,0.4590629 0.3986815,1.0391527 0.4418865,1.1601801 1.3031227,3.4378244 2.978802,7.9135406 z"
     id="path836"
     inkscape:connector-curvature="0" />
</svg>
