<?xml version="1.0" encoding="UTF-8" standalone="no"?>
<svg
   xmlns:dc="http://purl.org/dc/elements/1.1/"
   xmlns:cc="http://creativecommons.org/ns#"
   xmlns:rdf="http://www.w3.org/1999/02/22-rdf-syntax-ns#"
   xmlns:svg="http://www.w3.org/2000/svg"
   xmlns="http://www.w3.org/2000/svg"
   xmlns:sodipodi="http://sodipodi.sourceforge.net/DTD/sodipodi-0.dtd"
   xmlns:inkscape="http://www.inkscape.org/namespaces/inkscape"
   width="12.01826"
   height="31.840652"
   version="1.1"
   id="svg6"
   sodipodi:docname="marcato_below.svg"
   inkscape:version="0.92.4 (5da689c313, 2019-01-14)">
  <metadata
     id="metadata12">
    <rdf:RDF>
      <cc:Work
         rdf:about="">
        <dc:format>image/svg+xml</dc:format>
        <dc:type
           rdf:resource="http://purl.org/dc/dcmitype/StillImage" />
        <dc:title></dc:title>
      </cc:Work>
    </rdf:RDF>
  </metadata>
  <defs
     id="defs10" />
  <sodipodi:namedview
     pagecolor="#ffffff"
     bordercolor="#666666"
     borderopacity="1"
     objecttolerance="10"
     gridtolerance="10"
     guidetolerance="10"
     inkscape:pageopacity="0"
     inkscape:pageshadow="2"
     inkscape:window-width="1920"
     inkscape:window-height="1017"
     id="namedview8"
     showgrid="false"
     inkscape:zoom="12.509382"
     inkscape:cx="22.316878"
     inkscape:cy="23.412648"
     inkscape:window-x="-8"
     inkscape:window-y="-8"
     inkscape:window-maximized="1"
     inkscape:current-layer="svg6"
     fit-margin-top="0"
     fit-margin-left="0"
     fit-margin-right="0"
     fit-margin-bottom="0" />
  <g
     class="vf-notehead"
     pointer-events="bounding-box"
     id="g9"
     transform="matrix(1,0,0,-1,-557.42603,89.528286)" />
  <g
     id="g834"
     transform="matrix(-1,0,0,1,12.01826,0)">
    <g
       id="g842"
       transform="matrix(-1,0,0,1,12.01826,0)">
      <g
         id="g1386">
        <path
           style="fill:#000000;stroke:none;stroke-width:0.30000001;stroke-dasharray:none"
           d="M 8.84375 0 L 8.84375 9.3945312 C 8.4684843 9.3191921 8.0748647 9.2773438 7.6660156 9.2773438 C 5.3915356 9.2773438 2.7802475 10.456981 1.1796875 12.619141 C 0.3372875 13.714261 0 14.866073 0 15.876953 C 5.9211895e-16 17.954873 1.488425 19.611553 4.015625 19.751953 L 4.3242188 19.751953 L 4.3515625 19.751953 L 4.6621094 19.751953 C 7.9416076 19.587978 10.859656 17.194315 11.740234 14.628906 L 11.84375 14.628906 L 11.84375 14.3125 C 11.955657 13.906278 12.017578 13.498317 12.017578 13.095703 C 12.017578 12.695667 11.947134 12.32191 11.84375 11.947266 L 11.84375 0 L 8.84375 0 z "
           id="path5" />
      </g>
    </g>
  </g>
  <path
     style="color:#000000;font-style:normal;font-variant:normal;font-weight:normal;font-stretch:normal;font-size:medium;line-height:normal;font-family:sans-serif;font-variant-ligatures:normal;font-variant-position:normal;font-variant-caps:normal;font-variant-numeric:normal;font-variant-alternates:normal;font-feature-settings:normal;text-indent:0;text-align:start;text-decoration:none;text-decoration-line:none;text-decoration-style:solid;text-decoration-color:#000000;letter-spacing:normal;word-spacing:normal;text-transform:none;writing-mode:lr-tb;direction:ltr;text-orientation:mixed;dominant-baseline:auto;baseline-shift:baseline;text-anchor:start;white-space:normal;shape-padding:0;clip-rule:nonzero;display:inline;overflow:visible;visibility:visible;opacity:1;isolation:auto;mix-blend-mode:normal;color-interpolation:sRGB;color-interpolation-filters:linearRGB;solid-color:#000000;solid-opacity:1;vector-effect:none;fill:#000000;fill-opacity:1;fill-rule:nonzero;stroke:none;stroke-width:1.5;stroke-linecap:butt;stroke-linejoin:miter;stroke-miterlimit:4;stroke-dasharray:none;stroke-dashoffset:0;stroke-opacity:1;color-rendering:auto;image-rendering:auto;shape-rendering:auto;text-rendering:auto;enable-background:accumulate"
     d="M 9.9531624,21.210849 8.5296127,20.73476 c -1.4273906,4.259702 -2.116625,6.294337 -2.5360171,7.525246 L 2.2355569,20.742102 0.8935465,21.414095 6.1069029,31.840653 6.7859593,30.539808 c 0,0 0.038038,-0.08152 0.048806,-0.110494 0.010778,-0.02897 0.027027,-0.07288 0.055415,-0.153354 0.056787,-0.160932 0.1616127,-0.464986 0.3621727,-1.052432 0.4011277,-1.174895 1.1823506,-3.481209 2.7008094,-8.012679 z"
     id="path836"
     inkscape:connector-curvature="0" />
</svg>
