<?xml version="1.0" encoding="UTF-8" standalone="no"?>
<svg
   xmlns:dc="http://purl.org/dc/elements/1.1/"
   xmlns:cc="http://creativecommons.org/ns#"
   xmlns:rdf="http://www.w3.org/1999/02/22-rdf-syntax-ns#"
   xmlns:svg="http://www.w3.org/2000/svg"
   xmlns="http://www.w3.org/2000/svg"
   xmlns:sodipodi="http://sodipodi.sourceforge.net/DTD/sodipodi-0.dtd"
   xmlns:inkscape="http://www.inkscape.org/namespaces/inkscape"
   width="37.63176"
   height="39.641151"
   version="1.1"
   id="svg6"
   sodipodi:docname="microtone.svg"
   inkscape:version="0.92.4 (5da689c313, 2019-01-14)">
  <metadata
     id="metadata12">
    <rdf:RDF>
      <cc:Work
         rdf:about="">
        <dc:format>image/svg+xml</dc:format>
        <dc:type
           rdf:resource="http://purl.org/dc/dcmitype/StillImage" />
        <dc:title></dc:title>
      </cc:Work>
    </rdf:RDF>
  </metadata>
  <defs
     id="defs10" />
  <sodipodi:namedview
     pagecolor="#ffffff"
     bordercolor="#666666"
     borderopacity="1"
     objecttolerance="10"
     gridtolerance="10"
     guidetolerance="10"
     inkscape:pageopacity="0"
     inkscape:pageshadow="2"
     inkscape:window-width="1920"
     inkscape:window-height="1017"
     id="namedview8"
     showgrid="false"
     inkscape:zoom="6.879142"
     inkscape:cx="26.252702"
     inkscape:cy="51.28668"
     inkscape:window-x="1912"
     inkscape:window-y="-8"
     inkscape:window-maximized="1"
     inkscape:current-layer="svg6"
     fit-margin-top="5"
     fit-margin-left="5"
     fit-margin-right="5"
     fit-margin-bottom="5"
     viewbox-width="9" />
  <g
     id="g4"
     transform="matrix(-1.6638102,0,0,1.2582758,79.218451,-99.07008)">
    <path
       d="m 28,100 m 6.64848,-17.26416 c 0.08208,-0.02736 0.16416,-0.02736 0.19152,-0.02736 0.24624,0 0.49248,0.10944 0.5472,0.32832 l 0.05472,0.10944 v 11.3544 11.29968 l -0.05472,0.10944 c -0.05472,0.21888 -0.30096,0.35568 -0.51984,0.35568 -0.21888,0 -0.30096,0 -0.65664,-0.38304 l -2.07936,-1.99728 c -1.9152,-1.69632 -2.68128,-2.54448 -3.25584,-3.44736 C 28.24624,99.50752 28,98.57728 28,97.70176 c 0,-1.7784 1.14912,-3.1464 3.03696,-3.1464 0.21888,0 0.43776,0.02736 0.71136,0.05472 0.84816,0.16416 1.6416,0.5472 2.48976,1.25856 l 0.08208,0.08208 v -6.4296 c 0,-6.37488 0,-6.37488 0.02736,-6.48432 0.05472,-0.10944 0.16416,-0.2736 0.30096,-0.30096 m -2.052,13.68 c -0.1368,-0.05472 -0.30096,-0.05472 -0.43776,-0.05472 -0.60192,0 -1.12176,0.35568 -1.2312,0.84816 0,0.1368 -0.02736,0.30096 -0.02736,0.43776 0,0.35568 0.05472,0.8208 0.1368,1.2312 0.38304,1.47744 1.6416,3.58416 3.17376,5.28048 l 0.10944,0.10944 V 101.01232 97.8112 L 34.156,97.61968 c -0.4104,-0.65664 -0.9576,-1.06704 -1.55952,-1.20384 m 4.89744,-13.68 c 0.02736,-0.02736 0.10944,-0.02736 0.16416,-0.02736 0.2736,0 0.49248,0.10944 0.57456,0.32832 C 38.26,83.14624 38.26,83.14624 38.26,89.52112 v 6.4296 l 0.05472,-0.08208 c 1.03968,-0.87552 2.10672,-1.31328 3.1464,-1.31328 0.4104,0 0.8208,0.05472 1.2312,0.21888 1.2312,0.4104 1.9152,1.55952 1.9152,2.92752 0,0.71136 -0.24624,1.5048 -0.65664,2.29824 -0.57456,1.0944 -1.368,1.96992 -3.50208,3.88512 l -2.10672,1.99728 c -0.38304,0.38304 -0.43776,0.38304 -0.62928,0.38304 -0.2736,0 -0.49248,-0.1368 -0.57456,-0.35568 l -0.02736,-0.10944 V 94.50064 83.14624 l 0.02736,-0.10944 c 0.08208,-0.10944 0.19152,-0.2736 0.35568,-0.30096 m 3.22848,13.68 c -0.10944,-0.05472 -0.2736,-0.05472 -0.38304,-0.05472 -0.05472,0 -0.1368,0 -0.16416,0 -0.71136,0.10944 -1.34064,0.5472 -1.80576,1.25856 L 38.26,97.8112 v 3.20112 3.25584 l 0.08208,-0.10944 c 1.99728,-2.1888 3.31056,-4.70592 3.31056,-6.37488 v -0.05472 c 0,-0.8208 -0.24624,-1.17648 -0.93024,-1.31328"
       id="path5"
       inkscape:connector-curvature="0"
       style="fill:#000000;stroke:none;stroke-width:0.30000001;stroke-dasharray:none" />
  </g>
</svg>
