<?xml version="1.0" encoding="UTF-8" standalone="no"?>
<svg
   xmlns:dc="http://purl.org/dc/elements/1.1/"
   xmlns:cc="http://creativecommons.org/ns#"
   xmlns:rdf="http://www.w3.org/1999/02/22-rdf-syntax-ns#"
   xmlns:svg="http://www.w3.org/2000/svg"
   xmlns="http://www.w3.org/2000/svg"
   xmlns:sodipodi="http://sodipodi.sourceforge.net/DTD/sodipodi-0.dtd"
   xmlns:inkscape="http://www.inkscape.org/namespaces/inkscape"
   width="60.458309"
   height="82.308228"
   viewBox="0 0 60.458309 82.308228"
   version="1.1"
   id="svg4"
   sodipodi:docname="notehead-circlex.svg"
   inkscape:version="0.92.4 (5da689c313, 2019-01-14)">
  <metadata
     id="metadata10">
    <rdf:RDF>
      <cc:Work
         rdf:about="">
        <dc:format>image/svg+xml</dc:format>
        <dc:type
           rdf:resource="http://purl.org/dc/dcmitype/StillImage" />
        <dc:title></dc:title>
      </cc:Work>
    </rdf:RDF>
  </metadata>
  <defs
     id="defs8">
    <inkscape:path-effect
       effect="bspline"
       id="path-effect819"
       is_visible="true"
       weight="33.333333"
       steps="2"
       helper_size="0"
       apply_no_weight="true"
       apply_with_weight="true"
       only_selected="false" />
  </defs>
  <sodipodi:namedview
     pagecolor="#ffffff"
     bordercolor="#666666"
     borderopacity="1"
     objecttolerance="10"
     gridtolerance="10"
     guidetolerance="10"
     inkscape:pageopacity="0"
     inkscape:pageshadow="2"
     inkscape:window-width="1920"
     inkscape:window-height="1017"
     id="namedview6"
     showgrid="true"
     fit-margin-top="5"
     fit-margin-left="5"
     fit-margin-right="5"
     fit-margin-bottom="5"
     inkscape:zoom="10.429825"
     inkscape:cx="30.05471"
     inkscape:cy="40.530763"
     inkscape:window-x="-8"
     inkscape:window-y="-8"
     inkscape:window-maximized="1"
     inkscape:current-layer="svg4">
    <inkscape:grid
       type="xygrid"
       id="grid821"
       originx="-1.9452898"
       originy="20.03623" />
  </sodipodi:namedview>
  <path
     d="m 5.0547102,30.272 m 0,0 c 0,13.8996 11.3723998,25.272 25.1315998,25.272 13.8996,0 25.272,-11.3724 25.272,-25.272 C 55.45831,16.3724 44.08591,5 30.18631,5 16.42711,5 5.0547102,16.3724 5.0547102,30.272 m 9.6875998,-11.7936 11.5128,11.6532 -11.6532,11.934 c -2.6676,-3.3696 -3.9312,-7.5816 -3.9312,-11.7936 0,-4.4928 1.404,-8.424 4.0716,-11.7936 m 15.5844,15.5844 11.5128,11.7936 c -3.2292,2.3868 -7.3008,3.7908 -11.6532,3.7908 -4.3524,0 -8.2836,-1.404 -11.7936,-3.7908 m 16.0056,-15.7248 11.5128,-11.6532 c 2.2464,3.3696 3.6504,7.5816 3.6504,11.7936 0,4.212 -1.2636,8.2836 -3.51,11.5128 m -15.8652,-30.888 c 4.3524,0 8.2836,1.404 11.5128,3.6504 L 30.32671,26.06 18.81391,14.5472 c 3.2292,-2.2464 7.02,-3.6504 11.3724,-3.6504"
     id="path2"
     inkscape:connector-curvature="0"
     style="fill:#000000;stroke:none;stroke-width:0.30000001;stroke-dasharray:none" />
  <path
     style="color:#000000;font-style:normal;font-variant:normal;font-weight:normal;font-stretch:normal;font-size:medium;line-height:normal;font-family:sans-serif;font-variant-ligatures:normal;font-variant-position:normal;font-variant-caps:normal;font-variant-numeric:normal;font-variant-alternates:normal;font-feature-settings:normal;text-indent:0;text-align:start;text-decoration:none;text-decoration-line:none;text-decoration-style:solid;text-decoration-color:#000000;letter-spacing:normal;word-spacing:normal;text-transform:none;writing-mode:lr-tb;direction:ltr;text-orientation:mixed;dominant-baseline:auto;baseline-shift:baseline;text-anchor:start;white-space:normal;shape-padding:0;clip-rule:nonzero;display:inline;overflow:visible;visibility:visible;opacity:1;isolation:auto;mix-blend-mode:normal;color-interpolation:sRGB;color-interpolation-filters:linearRGB;solid-color:#000000;solid-opacity:1;vector-effect:none;fill:#000000;fill-opacity:1;fill-rule:nonzero;stroke:none;stroke-width:2.09239674px;stroke-linecap:butt;stroke-linejoin:miter;stroke-miterlimit:4;stroke-dasharray:none;stroke-dashoffset:0;stroke-opacity:1;color-rendering:auto;image-rendering:auto;shape-rendering:auto;text-rendering:auto;enable-background:accumulate"
     d="M 5.3658384,27.300523 C 5.2480853,43.968639 5.1236904,60.637665 4.9957144,77.307641 l 5.1290136,-0.07141 c 0.127976,-16.670005 0.25237,-33.338973 0.370124,-50.007118 z"
     id="path817"
     inkscape:connector-curvature="0" />
</svg>
