<?xml version="1.0" encoding="UTF-8"?>
<svg width="64" height="64" viewBox="0 0 64 64">
<path stroke-width="0.3" fill="black" stroke="none" stroke-dasharray="none" d="M7 32M7.5616 32.9828L31.2892 56.8508C31.7104 57.272,31.8508 57.272,32.272 57.272C32.4124 57.272,32.833600000000004 57.272,33.2548 56.8508L57.1228 32.8424C57.4036 32.5616,57.544 32.1404,57.544 31.8596C57.544 31.4384,57.4036 31.0172,57.1228 30.7364L33.5356 7.1492C33.2548 6.868400000000001,32.833600000000004 6.7280000000000015,32.272 6.7280000000000015C31.8508 6.7280000000000015,31.2892 6.868400000000001,31.008399999999998 7.1492L7.4212 30.7364C7 31.1576,7 31.4384,7 31.8596C7 32.1404,7.1404 32.5616,7.5616 32.9828"></path>
</svg>
