<?xml version="1.0" encoding="UTF-8"?>
<svg width="64" height="64" viewBox="0 0 64 64">
<path stroke-width="0.3" fill="black" stroke="none" stroke-dasharray="none" d="M7 32M7 32C7 45.8996,18.3724 57.272,32.1316 57.272C46.0312 57.272,57.4036 45.8996,57.4036 32C57.4036 18.1004,46.0312 6.7280000000000015,32.1316 6.7280000000000015C18.3724 6.7280000000000015,7 18.1004,7 32M16.6876 20.206400000000002L28.2004 31.8596L16.5472 43.7936C13.8796 40.424,12.616 36.212,12.616 32C12.616 27.5072,14.02 23.576,16.6876 20.206400000000002M32.272 35.7908L43.7848 47.5844C40.5556 49.971199999999996,36.483999999999995 51.3752,32.1316 51.3752C27.7792 51.3752,23.848 49.971199999999996,20.338 47.5844M36.343599999999995 31.8596L47.8564 20.206400000000002C50.1028 23.576,51.5068 27.788,51.5068 32C51.5068 36.212,50.2432 40.2836,47.9968 43.5128M32.1316 12.6248C36.483999999999995 12.6248,40.4152 14.0288,43.6444 16.275199999999998L32.272 27.788L20.7592 16.275199999999998C23.9884 14.0288,27.7792 12.6248,32.1316 12.6248"></path>
</svg>
