<?xml version="1.0" encoding="UTF-8" standalone="no"?>
<svg
   xmlns:osb="http://www.openswatchbook.org/uri/2009/osb"
   xmlns:dc="http://purl.org/dc/elements/1.1/"
   xmlns:cc="http://creativecommons.org/ns#"
   xmlns:rdf="http://www.w3.org/1999/02/22-rdf-syntax-ns#"
   xmlns:svg="http://www.w3.org/2000/svg"
   xmlns="http://www.w3.org/2000/svg"
   xmlns:sodipodi="http://sodipodi.sourceforge.net/DTD/sodipodi-0.dtd"
   xmlns:inkscape="http://www.inkscape.org/namespaces/inkscape"
   width="12.01826"
   height="30.28586"
   version="1.1"
   id="svg6"
   sodipodi:docname="pitz_above.svg"
   inkscape:version="0.92.4 (5da689c313, 2019-01-14)">
  <metadata
     id="metadata12">
    <rdf:RDF>
      <cc:Work
         rdf:about="">
        <dc:format>image/svg+xml</dc:format>
        <dc:type
           rdf:resource="http://purl.org/dc/dcmitype/StillImage" />
        <dc:title></dc:title>
      </cc:Work>
    </rdf:RDF>
  </metadata>
  <defs
     id="defs10">
    <linearGradient
       id="linearGradient4551"
       osb:paint="solid">
      <stop
         style="stop-color:#000000;stop-opacity:1;"
         offset="0"
         id="stop4549" />
    </linearGradient>
  </defs>
  <sodipodi:namedview
     pagecolor="#ffffff"
     bordercolor="#666666"
     borderopacity="1"
     objecttolerance="10"
     gridtolerance="10"
     guidetolerance="10"
     inkscape:pageopacity="0"
     inkscape:pageshadow="2"
     inkscape:window-width="1920"
     inkscape:window-height="1017"
     id="namedview8"
     showgrid="false"
     inkscape:zoom="12.509382"
     inkscape:cx="-6.941162"
     inkscape:cy="11.323164"
     inkscape:window-x="-8"
     inkscape:window-y="-8"
     inkscape:window-maximized="1"
     inkscape:current-layer="svg6"
     fit-margin-top="0"
     fit-margin-left="0"
     fit-margin-right="0"
     fit-margin-bottom="0" />
  <g
     id="g833">
    <g
       transform="matrix(1,0,0,-1,-557.42603,100.06298)"
       id="g9"
       pointer-events="bounding-box"
       class="vf-notehead" />
    <g
       transform="matrix(1,0,0,-1,0,30.285859)"
       id="g834">
      <g
         transform="matrix(-1,0,0,1,12.01826,0)"
         id="g842">
        <path
           id="path5"
           transform="rotate(180,6.00913,15.142929)"
           d="M 7.3574219 10.535156 C 4.0779237 10.699131 1.1579222 13.090841 0.27734375 15.65625 L 0.17382812 15.65625 L 0.17382812 15.972656 C 0.061920778 16.378878 0 16.786839 0 17.189453 C 0 17.588787 0.070807072 17.963905 0.17382812 18.337891 L 0.17382812 30.285156 L 3.1738281 30.285156 L 3.1738281 20.890625 C 3.5496424 20.966212 3.942044 21.007812 4.3515625 21.007812 C 6.6260425 21.007812 9.2392838 19.830129 10.839844 17.667969 C 11.682244 16.572849 12.017578 15.421036 12.017578 14.410156 C 12.017578 12.332236 10.529153 10.675556 8.0019531 10.535156 L 7.6933594 10.535156 L 7.6660156 10.535156 L 7.3574219 10.535156 z "
           style="fill:#000000;stroke:none;stroke-width:0.30000001;stroke-dasharray:none" />
      </g>
    </g>
    <g
       transform="translate(-0.07994,-19.76257)"
       id="g4567">
      <g
         id="g4561"
         transform="translate(-0.07994,-0.31976)">
        <path
           id="path4547"
           transform="translate(0.15988,20.08233)"
           d="M 6.3359375 0 L 5.3359375 0.015625 L 5.3535156 1.2519531 C 3.0829509 1.6179014 1.3281251 3.5662665 1.328125 5.9238281 C 1.3281251 8.5406941 3.4843605 10.669922 6.1152344 10.669922 C 8.7461084 10.669922 10.902344 8.5406941 10.902344 5.9238281 C 10.902344 3.3880654 8.8727796 1.325693 6.3535156 1.1992188 L 6.3359375 0 z M 6.375 2.7011719 C 8.0774074 2.8331447 9.4023437 4.213377 9.4023438 5.9238281 C 9.4023438 7.7219271 7.9434746 9.1699219 6.1152344 9.1699219 C 4.2869943 9.1699219 2.828125 7.7219271 2.828125 5.9238281 C 2.828125 4.3773356 3.9098371 3.0941161 5.375 2.7636719 L 5.4160156 5.6113281 L 6.4160156 5.5957031 L 6.375 2.7011719 z "
           style="color:#000000;font-style:normal;font-variant:normal;font-weight:normal;font-stretch:normal;font-size:medium;line-height:normal;font-family:sans-serif;font-variant-ligatures:normal;font-variant-position:normal;font-variant-caps:normal;font-variant-numeric:normal;font-variant-alternates:normal;font-feature-settings:normal;text-indent:0;text-align:start;text-decoration:none;text-decoration-line:none;text-decoration-style:solid;text-decoration-color:#000000;letter-spacing:normal;word-spacing:normal;text-transform:none;writing-mode:lr-tb;direction:ltr;text-orientation:mixed;dominant-baseline:auto;baseline-shift:baseline;text-anchor:start;white-space:normal;shape-padding:0;clip-rule:nonzero;display:inline;overflow:visible;visibility:visible;opacity:1;isolation:auto;mix-blend-mode:normal;color-interpolation:sRGB;color-interpolation-filters:linearRGB;solid-color:#000000;solid-opacity:1;vector-effect:none;fill-opacity:1;fill-rule:evenodd;stroke:none;stroke-width:1.5;stroke-linecap:butt;stroke-linejoin:miter;stroke-miterlimit:4;stroke-dasharray:none;stroke-dashoffset:0;stroke-opacity:1;color-rendering:auto;image-rendering:auto;shape-rendering:auto;text-rendering:auto;enable-background:accumulate" />
        <path
           style="color:#000000;font-style:normal;font-variant:normal;font-weight:normal;font-stretch:normal;font-size:medium;line-height:normal;font-family:sans-serif;font-variant-ligatures:normal;font-variant-position:normal;font-variant-caps:normal;font-variant-numeric:normal;font-variant-alternates:normal;font-feature-settings:normal;text-indent:0;text-align:start;text-decoration:none;text-decoration-line:none;text-decoration-style:solid;text-decoration-color:#000000;letter-spacing:normal;word-spacing:normal;text-transform:none;writing-mode:lr-tb;direction:ltr;text-orientation:mixed;dominant-baseline:auto;baseline-shift:baseline;text-anchor:start;white-space:normal;shape-padding:0;clip-rule:nonzero;display:inline;overflow:visible;visibility:visible;opacity:1;isolation:auto;mix-blend-mode:normal;color-interpolation:sRGB;color-interpolation-filters:linearRGB;solid-color:#000000;solid-opacity:1;vector-effect:none;fill-opacity:1;fill-rule:evenodd;stroke:none;stroke-width:2.85377002;stroke-linecap:butt;stroke-linejoin:miter;stroke-miterlimit:4;stroke-dasharray:none;stroke-dashoffset:0;stroke-opacity:1;color-rendering:auto;image-rendering:auto;shape-rendering:auto;text-rendering:auto;enable-background:accumulate"
           d="m 6.2351444,20.817216 c -3.1821713,0 -5.74704,2.19859 -5.74704,4.827868 0,2.629278 2.5648687,4.827868 5.74704,4.827868 3.1821713,0 5.7470396,-2.19859 5.7470396,-4.827868 0,-2.629278 -2.5648683,-4.827868 -5.7470396,-4.827868 z m 0,2.58797 c 1.4261099,0 2.5984645,0.965165 2.5984647,2.239898 0,1.274731 -1.1723548,2.242554 -2.5984647,2.242554 -1.4261099,0 -2.9957994,-0.967823 -2.9957994,-2.242554 0,-1.274733 1.5696895,-2.239898 2.9957994,-2.239898 z"
           id="path4555"
           inkscape:connector-curvature="0"
           sodipodi:nodetypes="ssssssssss" />
      </g>
    </g>
  </g>
</svg>
