<?xml version="1.0" encoding="UTF-8" standalone="no"?>
<svg
   xmlns:dc="http://purl.org/dc/elements/1.1/"
   xmlns:cc="http://creativecommons.org/ns#"
   xmlns:rdf="http://www.w3.org/1999/02/22-rdf-syntax-ns#"
   xmlns:svg="http://www.w3.org/2000/svg"
   xmlns="http://www.w3.org/2000/svg"
   xmlns:sodipodi="http://sodipodi.sourceforge.net/DTD/sodipodi-0.dtd"
   xmlns:inkscape="http://www.inkscape.org/namespaces/inkscape"
   width="115.41251"
   height="81.406631"
   version="1.1"
   id="svg6"
   sodipodi:docname="quint.svg"
   inkscape:version="0.92.4 (5da689c313, 2019-01-14)">
  <metadata
     id="metadata12">
    <rdf:RDF>
      <cc:Work
         rdf:about="">
        <dc:format>image/svg+xml</dc:format>
        <dc:type
           rdf:resource="http://purl.org/dc/dcmitype/StillImage" />
        <dc:title></dc:title>
      </cc:Work>
    </rdf:RDF>
  </metadata>
  <defs
     id="defs10" />
  <sodipodi:namedview
     pagecolor="#ffffff"
     bordercolor="#666666"
     borderopacity="1"
     objecttolerance="10"
     gridtolerance="10"
     guidetolerance="10"
     inkscape:pageopacity="0"
     inkscape:pageshadow="2"
     inkscape:window-width="1920"
     inkscape:window-height="1017"
     id="namedview8"
     showgrid="false"
     inkscape:zoom="7.1535022"
     inkscape:cx="76.53894"
     inkscape:cy="28.584801"
     inkscape:window-x="1912"
     inkscape:window-y="-8"
     inkscape:window-maximized="1"
     inkscape:current-layer="g127"
     fit-margin-top="0"
     fit-margin-left="0"
     fit-margin-right="0"
     fit-margin-bottom="0" />
  <g
     class="auto1016"
     id="g127"
     transform="translate(-783.77169,-76.099822)">
    <g
       class="vf-stavenote"
       id="vf-auto51822"
       transform="matrix(1.1147712,0,0,1.3821119,-89.954446,-29.078646)">
      <g
         class="vf-note"
         pointer-events="bounding-box"
         id="g62">
        <g
           class="vf-notehead"
           pointer-events="bounding-box"
           id="g60">
          <path
             d="m 791.57777,100 m 7.35696,-5.22288 c 0.11232,0 0.2808,0 0.30888,0 0,0 0.0281,0 0.0281,0 0,0 0.16848,0 0.30888,0 2.5272,0.1404 4.01544,1.79712 4.01544,3.87504 0,1.01088 -0.33696,2.16216 -1.17936,3.25728 -1.60056,2.16216 -4.212,3.34152 -6.48648,3.34152 -1.76904,0 -3.28536,-0.702 -4.01544,-2.13408 -0.22464,-0.5616 -0.33696,-1.09512 -0.33696,-1.6848 0,-3.06072 3.42576,-6.4584 7.35696,-6.65496"
             id="path58"
             inkscape:connector-curvature="0"
             style="fill:#000000;stroke:none;stroke-width:0.30000001;stroke-dasharray:none" />
        </g>
      </g>
      <g
         class="vf-modifiers"
         id="g64" />
    </g>
    <g
       class="vf-stavenote"
       id="vf-auto51829"
       transform="matrix(1.1147712,0,0,1.3821119,-89.954446,-29.078646)">
      <g
         class="vf-note"
         pointer-events="bounding-box"
         id="g71">
        <g
           class="vf-notehead"
           pointer-events="bounding-box"
           id="g69">
          <path
             d="m 811.63076,100 m 7.35696,-5.22288 c 0.11232,0 0.2808,0 0.30888,0 0,0 0.0281,0 0.0281,0 0,0 0.16848,0 0.30888,0 2.5272,0.1404 4.01544,1.79712 4.01544,3.87504 0,1.01088 -0.33696,2.16216 -1.17936,3.25728 -1.60056,2.16216 -4.212,3.34152 -6.48648,3.34152 -1.76904,0 -3.28536,-0.702 -4.01544,-2.13408 -0.22464,-0.5616 -0.33696,-1.09512 -0.33696,-1.6848 0,-3.06072 3.42576,-6.4584 7.35696,-6.65496"
             id="path67"
             inkscape:connector-curvature="0"
             style="fill:#000000;stroke:none;stroke-width:0.30000001;stroke-dasharray:none" />
        </g>
      </g>
      <g
         class="vf-modifiers"
         id="g73" />
    </g>
    <g
       class="vf-stavenote"
       id="vf-auto51836"
       transform="matrix(1.1147712,0,0,1.3821119,-89.954446,-29.078646)">
      <g
         class="vf-note"
         pointer-events="bounding-box"
         id="g80">
        <g
           class="vf-notehead"
           pointer-events="bounding-box"
           id="g78">
          <path
             d="m 831.68375,100 m 7.35696,-5.22288 c 0.11232,0 0.2808,0 0.30888,0 0,0 0.0281,0 0.0281,0 0,0 0.16848,0 0.30888,0 2.5272,0.1404 4.01544,1.79712 4.01544,3.87504 0,1.01088 -0.33696,2.16216 -1.17936,3.25728 -1.60056,2.16216 -4.212,3.34152 -6.48648,3.34152 -1.76904,0 -3.28536,-0.702 -4.01544,-2.13408 -0.22464,-0.5616 -0.33696,-1.09512 -0.33696,-1.6848 0,-3.06072 3.42576,-6.4584 7.35696,-6.65496"
             id="path76"
             inkscape:connector-curvature="0"
             style="fill:#000000;stroke:none;stroke-width:0.30000001;stroke-dasharray:none" />
        </g>
      </g>
      <g
         class="vf-modifiers"
         id="g82" />
    </g>
    <g
       class="vf-stavenote"
       id="vf-auto51843"
       transform="matrix(1.1147712,0,0,1.3821119,-89.954446,-29.078646)">
      <g
         class="vf-note"
         pointer-events="bounding-box"
         id="g89">
        <g
           class="vf-notehead"
           pointer-events="bounding-box"
           id="g87">
          <path
             d="m 851.73674,100 m 7.35696,-5.22288 c 0.11232,0 0.2808,0 0.30888,0 0,0 0.0281,0 0.0281,0 0,0 0.16848,0 0.30888,0 2.5272,0.1404 4.01544,1.79712 4.01544,3.87504 0,1.01088 -0.33696,2.16216 -1.17936,3.25728 -1.60056,2.16216 -4.212,3.34152 -6.48648,3.34152 -1.76904,0 -3.28536,-0.702 -4.01544,-2.13408 -0.22464,-0.5616 -0.33696,-1.09512 -0.33696,-1.6848 0,-3.06072 3.42576,-6.4584 7.35696,-6.65496"
             id="path85"
             inkscape:connector-curvature="0"
             style="fill:#000000;stroke:none;stroke-width:0.30000001;stroke-dasharray:none" />
        </g>
      </g>
      <g
         class="vf-modifiers"
         id="g91" />
    </g>
    <g
       class="vf-stavenote"
       id="vf-auto51850"
       transform="matrix(1.1147712,0,0,1.3821119,-89.954446,-29.078646)">
      <g
         class="vf-note"
         pointer-events="bounding-box"
         id="g98">
        <g
           class="vf-notehead"
           pointer-events="bounding-box"
           id="g96">
          <path
             d="m 871.78972,100 m 7.35696,-5.22288 c 0.11232,0 0.2808,0 0.30888,0 0,0 0.0281,0 0.0281,0 0,0 0.16848,0 0.30888,0 2.5272,0.1404 4.01544,1.79712 4.01544,3.87504 0,1.01088 -0.33696,2.16216 -1.17936,3.25728 -1.60056,2.16216 -4.212,3.34152 -6.48648,3.34152 -1.76904,0 -3.28536,-0.702 -4.01544,-2.13408 -0.22464,-0.5616 -0.33696,-1.09512 -0.33696,-1.6848 0,-3.06072 3.42576,-6.4584 7.35696,-6.65496"
             id="path94"
             inkscape:connector-curvature="0"
             style="fill:#000000;stroke:none;stroke-width:0.30000001;stroke-dasharray:none" />
        </g>
      </g>
      <g
         class="vf-modifiers"
         id="g100" />
    </g>
    <path
       style="color:#000000;font-style:normal;font-variant:normal;font-weight:normal;font-stretch:normal;font-size:medium;line-height:normal;font-family:sans-serif;font-variant-ligatures:normal;font-variant-position:normal;font-variant-caps:normal;font-variant-numeric:normal;font-variant-alternates:normal;font-feature-settings:normal;text-indent:0;text-align:start;text-decoration:none;text-decoration-line:none;text-decoration-style:solid;text-decoration-color:#000000;letter-spacing:normal;word-spacing:normal;text-transform:none;writing-mode:lr-tb;direction:ltr;text-orientation:mixed;dominant-baseline:auto;baseline-shift:baseline;text-anchor:start;white-space:normal;shape-padding:0;clip-rule:nonzero;display:inline;overflow:visible;visibility:visible;opacity:1;isolation:auto;mix-blend-mode:normal;color-interpolation:sRGB;color-interpolation-filters:linearRGB;solid-color:#000000;solid-opacity:1;vector-effect:none;fill:#000000;fill-opacity:1;fill-rule:nonzero;stroke:none;stroke-width:1.86189735;stroke-linecap:butt;stroke-linejoin:miter;stroke-miterlimit:4;stroke-dasharray:none;stroke-dashoffset:0;stroke-opacity:1;color-rendering:auto;image-rendering:auto;shape-rendering:auto;text-rendering:auto;enable-background:accumulate"
       d="m 792.41768,109.13283 v 47.33681 h 1.78495 v -47.33681 z"
       id="path103"
       inkscape:connector-curvature="0" />
    <path
       style="color:#000000;font-style:normal;font-variant:normal;font-weight:normal;font-stretch:normal;font-size:medium;line-height:normal;font-family:sans-serif;font-variant-ligatures:normal;font-variant-position:normal;font-variant-caps:normal;font-variant-numeric:normal;font-variant-alternates:normal;font-feature-settings:normal;text-indent:0;text-align:start;text-decoration:none;text-decoration-line:none;text-decoration-style:solid;text-decoration-color:#000000;letter-spacing:normal;word-spacing:normal;text-transform:none;writing-mode:lr-tb;direction:ltr;text-orientation:mixed;dominant-baseline:auto;baseline-shift:baseline;text-anchor:start;white-space:normal;shape-padding:0;clip-rule:nonzero;display:inline;overflow:visible;visibility:visible;opacity:1;isolation:auto;mix-blend-mode:normal;color-interpolation:sRGB;color-interpolation-filters:linearRGB;solid-color:#000000;solid-opacity:1;vector-effect:none;fill:#000000;fill-opacity:1;fill-rule:nonzero;stroke:none;stroke-width:1.86189735;stroke-linecap:butt;stroke-linejoin:miter;stroke-miterlimit:4;stroke-dasharray:none;stroke-dashoffset:0;stroke-opacity:1;color-rendering:auto;image-rendering:auto;shape-rendering:auto;text-rendering:auto;enable-background:accumulate"
       d="m 814.77224,109.13283 v 47.33681 h 1.78497 v -47.33681 z"
       id="path105"
       inkscape:connector-curvature="0" />
    <path
       style="color:#000000;font-style:normal;font-variant:normal;font-weight:normal;font-stretch:normal;font-size:medium;line-height:normal;font-family:sans-serif;font-variant-ligatures:normal;font-variant-position:normal;font-variant-caps:normal;font-variant-numeric:normal;font-variant-alternates:normal;font-feature-settings:normal;text-indent:0;text-align:start;text-decoration:none;text-decoration-line:none;text-decoration-style:solid;text-decoration-color:#000000;letter-spacing:normal;word-spacing:normal;text-transform:none;writing-mode:lr-tb;direction:ltr;text-orientation:mixed;dominant-baseline:auto;baseline-shift:baseline;text-anchor:start;white-space:normal;shape-padding:0;clip-rule:nonzero;display:inline;overflow:visible;visibility:visible;opacity:1;isolation:auto;mix-blend-mode:normal;color-interpolation:sRGB;color-interpolation-filters:linearRGB;solid-color:#000000;solid-opacity:1;vector-effect:none;fill:#000000;fill-opacity:1;fill-rule:nonzero;stroke:none;stroke-width:1.86189735;stroke-linecap:butt;stroke-linejoin:miter;stroke-miterlimit:4;stroke-dasharray:none;stroke-dashoffset:0;stroke-opacity:1;color-rendering:auto;image-rendering:auto;shape-rendering:auto;text-rendering:auto;enable-background:accumulate"
       d="m 837.12682,109.13283 v 47.33681 h 1.78496 v -47.33681 z"
       id="path107"
       inkscape:connector-curvature="0" />
    <path
       style="color:#000000;font-style:normal;font-variant:normal;font-weight:normal;font-stretch:normal;font-size:medium;line-height:normal;font-family:sans-serif;font-variant-ligatures:normal;font-variant-position:normal;font-variant-caps:normal;font-variant-numeric:normal;font-variant-alternates:normal;font-feature-settings:normal;text-indent:0;text-align:start;text-decoration:none;text-decoration-line:none;text-decoration-style:solid;text-decoration-color:#000000;letter-spacing:normal;word-spacing:normal;text-transform:none;writing-mode:lr-tb;direction:ltr;text-orientation:mixed;dominant-baseline:auto;baseline-shift:baseline;text-anchor:start;white-space:normal;shape-padding:0;clip-rule:nonzero;display:inline;overflow:visible;visibility:visible;opacity:1;isolation:auto;mix-blend-mode:normal;color-interpolation:sRGB;color-interpolation-filters:linearRGB;solid-color:#000000;solid-opacity:1;vector-effect:none;fill:#000000;fill-opacity:1;fill-rule:nonzero;stroke:none;stroke-width:1.86189735;stroke-linecap:butt;stroke-linejoin:miter;stroke-miterlimit:4;stroke-dasharray:none;stroke-dashoffset:0;stroke-opacity:1;color-rendering:auto;image-rendering:auto;shape-rendering:auto;text-rendering:auto;enable-background:accumulate"
       d="m 859.48139,109.13283 v 47.33681 h 1.78496 v -47.33681 z"
       id="path109"
       inkscape:connector-curvature="0" />
    <path
       style="color:#000000;font-style:normal;font-variant:normal;font-weight:normal;font-stretch:normal;font-size:medium;line-height:normal;font-family:sans-serif;font-variant-ligatures:normal;font-variant-position:normal;font-variant-caps:normal;font-variant-numeric:normal;font-variant-alternates:normal;font-feature-settings:normal;text-indent:0;text-align:start;text-decoration:none;text-decoration-line:none;text-decoration-style:solid;text-decoration-color:#000000;letter-spacing:normal;word-spacing:normal;text-transform:none;writing-mode:lr-tb;direction:ltr;text-orientation:mixed;dominant-baseline:auto;baseline-shift:baseline;text-anchor:start;white-space:normal;shape-padding:0;clip-rule:nonzero;display:inline;overflow:visible;visibility:visible;opacity:1;isolation:auto;mix-blend-mode:normal;color-interpolation:sRGB;color-interpolation-filters:linearRGB;solid-color:#000000;solid-opacity:1;vector-effect:none;fill:#000000;fill-opacity:1;fill-rule:nonzero;stroke:none;stroke-width:1.86189735;stroke-linecap:butt;stroke-linejoin:miter;stroke-miterlimit:4;stroke-dasharray:none;stroke-dashoffset:0;stroke-opacity:1;color-rendering:auto;image-rendering:auto;shape-rendering:auto;text-rendering:auto;enable-background:accumulate"
       d="m 881.83441,109.13283 v 47.33681 h 1.78651 v -47.33681 z"
       id="path111"
       inkscape:connector-curvature="0" />
    <path
       d="m 792.47368,157.50645 v -6.91055 h 90.53275 v 6.91055 z"
       id="path113"
       inkscape:connector-curvature="0"
       style="fill:#000000;stroke:none;stroke-width:0.37237948;stroke-dasharray:none" />
    <path
       d="m 792.47368,147.14062 v -6.91056 h 90.53275 v 6.91056 z"
       id="path115"
       inkscape:connector-curvature="0"
       style="fill:#000000;stroke:none;stroke-width:0.37237948;stroke-dasharray:none" />
    <g
       id="g940"
       transform="matrix(1.1147712,0,0,1.3821119,-92.91533,-5.1208866)">
      <rect
         id="rect117"
         height="1"
         width="41.992374"
         y="65"
         x="786.57776"
         style="fill:#000000;stroke:#000000;stroke-width:0.30000001;stroke-dasharray:none" />
      <rect
         id="rect119"
         height="1"
         width="41.992374"
         y="65"
         x="846.81561"
         style="fill:#000000;stroke:#000000;stroke-width:0.30000001;stroke-dasharray:none" />
      <rect
         id="rect121"
         height="10"
         width="1"
         y="65"
         x="786.57776"
         style="fill:#000000;stroke:#000000;stroke-width:0.30000001;stroke-dasharray:none" />
      <rect
         id="rect123"
         height="10"
         width="1"
         y="65"
         x="888.80798"
         style="fill:#000000;stroke:#000000;stroke-width:0.30000001;stroke-dasharray:none" />
      <path
         id="path125"
         d="m 833.57015,72.333333 m 0.94752,-12.84192 c 0.0403,-0.02016 0.0605,-0.02016 0.12096,-0.02016 0.0403,0 0.16128,0.02016 0.32256,0.08064 0.9072,0.3024 1.85472,0.48384 2.84256,0.48384 0.98784,0 2.03616,-0.18144 3.08448,-0.48384 0.18144,-0.06048 0.3024,-0.08064 0.38304,-0.08064 0.0806,0 0.14112,0.02016 0.2016,0.08064 0.0806,0.08064 0.1008,0.14112 0.1008,0.22176 0,0.06048 -0.0202,0.14112 -0.0806,0.26208 -0.504,1.16928 -1.1088,1.8144 -1.9152,2.1168 -0.42336,0.14112 -1.04832,0.22176 -1.73376,0.22176 -0.98784,0 -2.13696,-0.16128 -2.96352,-0.46368 -0.0605,0 -0.0806,0 -0.0806,0 0,0 0,0 0,0 0,0 -0.2016,2.1168 -0.2016,2.19744 0,0 0,0 0,0 0,0 0,0 0,0 0.0403,0 0.0806,-0.02016 0.2016,-0.08064 0.38304,-0.18144 0.84672,-0.36288 1.29024,-0.44352 0.4032,-0.12096 0.82656,-0.14112 1.2096,-0.14112 2.52,0 4.51584,1.77408 4.51584,3.97152 0,0.34272 -0.0605,0.7056 -0.16128,1.06848 -0.52416,1.73376 -2.29824,2.98368 -4.11264,2.98368 -0.28224,0 -0.52416,-0.02016 -0.76608,-0.08064 -0.94752,-0.18144 -1.97568,-0.78624 -2.74176,-1.53216 -0.34272,-0.34272 -0.46368,-0.72576 -0.46368,-1.14912 0,-0.8064 0.62496,-1.6128 1.53216,-1.6128 0.1008,0 0.22176,0.02016 0.32256,0.02016 0.8064,0.16128 1.2096,0.86688 1.2096,1.53216 0,0.62496 -0.36288,1.22976 -1.04832,1.43136 -0.0403,0 -0.1008,0.02016 -0.1008,0.02016 0,0 0,0 0,0 0,0.04032 0.48384,0.2016 0.68544,0.26208 0.14112,0.02016 0.24192,0.02016 0.38304,0.02016 1.16928,0 2.27808,-1.22976 2.33856,-2.78208 0.0202,-0.1008 0.0202,-0.18144 0.0202,-0.26208 0,-1.29024 -0.44352,-2.52 -1.1088,-3.024 -0.18144,-0.16128 -0.32256,-0.2016 -0.62496,-0.2016 -0.0202,0 -0.0605,0 -0.1008,0 -0.88704,0 -1.73376,0.28224 -2.43936,0.78624 -0.28224,0.2016 -0.3024,0.2016 -0.38304,0.2016 -0.2016,0 -0.34272,-0.12096 -0.34272,-0.3024 0,-0.2016 0.42336,-5.06016 0.44352,-5.12064 0.0202,-0.06048 0.0806,-0.14112 0.16128,-0.18144 m 3.16512,12.86208 h 0.0202 -0.0605 0.0403 m 0,-13.58784 h 0.0202 -0.0605 0.0403"
         inkscape:connector-curvature="0"
         style="fill:#000000;stroke:none;stroke-width:0.30000001;stroke-dasharray:none" />
    </g>
  </g>
</svg>
