<?xml version="1.0" encoding="UTF-8" standalone="no"?>
<svg
   xmlns:dc="http://purl.org/dc/elements/1.1/"
   xmlns:cc="http://creativecommons.org/ns#"
   xmlns:rdf="http://www.w3.org/1999/02/22-rdf-syntax-ns#"
   xmlns:svg="http://www.w3.org/2000/svg"
   xmlns="http://www.w3.org/2000/svg"
   xmlns:sodipodi="http://sodipodi.sourceforge.net/DTD/sodipodi-0.dtd"
   xmlns:inkscape="http://www.inkscape.org/namespaces/inkscape"
   width="59.502083"
   height="62.288418"
   version="1.1"
   id="svg6"
   sodipodi:docname="segno.svg"
   inkscape:version="0.92.4 (5da689c313, 2019-01-14)">
  <metadata
     id="metadata12">
    <rdf:RDF>
      <cc:Work
         rdf:about="">
        <dc:format>image/svg+xml</dc:format>
        <dc:type
           rdf:resource="http://purl.org/dc/dcmitype/StillImage" />
        <dc:title></dc:title>
      </cc:Work>
    </rdf:RDF>
  </metadata>
  <defs
     id="defs10" />
  <sodipodi:namedview
     pagecolor="#ffffff"
     bordercolor="#666666"
     borderopacity="1"
     objecttolerance="10"
     gridtolerance="10"
     guidetolerance="10"
     inkscape:pageopacity="0"
     inkscape:pageshadow="2"
     inkscape:window-width="1920"
     inkscape:window-height="1017"
     id="namedview8"
     showgrid="false"
     inkscape:zoom="6.8070492"
     inkscape:cx="5.8787302"
     inkscape:cy="34.08228"
     inkscape:window-x="-8"
     inkscape:window-y="-8"
     inkscape:window-maximized="1"
     inkscape:current-layer="svg6"
     fit-margin-left="2"
     fit-margin-right="2"
     fit-margin-top="0"
     fit-margin-bottom="0" />
  <g
     transform="matrix(3.0782775,0,0,2.3494548,-154.9035,-1942.4299)"
     id="g4">
    <path
       d="m 60,840 m -3.63888,-13.21488 c 0.16416,-0.0274 0.30096,-0.0274 0.43776,-0.0274 1.80576,0 3.44736,1.20384 4.04928,3.03696 0.08208,0.21888 0.10944,0.46512 0.10944,0.684 0,0.9576 -0.684,1.72368 -1.6416,1.72368 -0.8208,0 -1.39536,-0.46512 -1.69632,-1.25856 -0.35568,-1.2312 -1.25856,-1.94256 -2.1888,-1.94256 -0.21888,0 -0.43776,0.0274 -0.65664,0.10944 -0.65664,0.2736 -0.98496,0.79344 -0.98496,1.55952 0,0.19152 0,0.38304 0.05472,0.57456 0.43776,2.4624 2.736,5.11632 5.80032,6.73056 0.24624,0.10944 0.49248,0.21888 0.51984,0.24624 l 0.08208,0.0547 0.02736,-0.0547 c 0.05472,-0.0821 0.8208,-1.28592 2.92752,-4.54176 l 1.96992,-3.0096 1.45008,-2.27088 c 0.5472,-0.87552 0.60192,-0.93024 0.71136,-0.98496 0.1368,-0.0821 0.24624,-0.10944 0.4104,-0.10944 0.35568,0 0.684,0.30096 0.684,0.71136 v 0.0274 c 0,0.19152 0,0.24624 -0.57456,1.12176 l -5.25312,8.15328 -0.98496,1.5048 -0.02736,0.0547 0.19152,0.10944 c 2.35296,1.2312 4.15872,3.11904 5.14368,5.28048 0.51984,1.17648 0.76608,2.40768 0.76608,3.52944 0,2.62656 -1.368,4.87008 -3.63888,5.36256 -0.30096,0.0821 -0.60192,0.10944 -0.90288,0.10944 -1.75104,0 -3.39264,-1.17648 -4.02192,-2.98224 -0.08208,-0.2736 -0.10944,-0.49248 -0.10944,-0.73872 0,-0.93024 0.65664,-1.69632 1.66896,-1.69632 0.79344,0 1.34064,0.4104 1.6416,1.25856 0.38304,1.20384 1.31328,1.9152 2.21616,1.9152 0.21888,0 0.43776,-0.0274 0.65664,-0.10944 0.684,-0.24624 0.9576,-0.79344 0.9576,-1.55952 0,-0.19152 0,-0.38304 -0.02736,-0.5472 -0.43776,-2.48976 -2.70864,-5.14368 -5.80032,-6.73056 -0.2736,-0.10944 -0.49248,-0.21888 -0.5472,-0.2736 l -0.05472,-0.0274 -0.05472,0.0274 c -0.02736,0.0547 -0.8208,1.28592 -2.90016,4.5144 l -1.96992,3.03696 -1.45008,2.29824 c -0.57456,0.87552 -0.60192,0.87552 -0.71136,0.98496 -0.1368,0.0547 -0.2736,0.10944 -0.4104,0.10944 -0.38304,0 -0.71136,-0.30096 -0.71136,-0.71136 v -0.0547 c 0,-0.21888 0.05472,-0.21888 0.60192,-1.0944 l 5.25312,-8.18064 1.01232,-1.5048 v -0.0274 l -0.19152,-0.1368 c -3.61152,-1.94256 -5.8824,-5.36256 -5.8824,-8.80992 v 0 c 0,-2.95488 1.66896,-5.1984 4.04928,-5.44464 m 10.58832,8.37216 c 0.10944,0 0.21888,-0.0547 0.32832,-0.0547 0.57456,0 1.12176,0.32832 1.45008,0.8208 0.19152,0.24624 0.2736,0.60192 0.2736,0.93024 0,0.35568 -0.08208,0.684 -0.2736,0.98496 -0.32832,0.49248 -0.87552,0.76608 -1.39536,0.76608 -0.49248,0 -0.93024,-0.19152 -1.28592,-0.57456 -0.30096,-0.32832 -0.43776,-0.73872 -0.43776,-1.17648 0,-0.73872 0.49248,-1.5048 1.34064,-1.69632 m -14.6376,6.32016 c 0.10944,-0.0547 0.21888,-0.0547 0.32832,-0.0547 0.43776,0 0.93024,0.19152 1.25856,0.57456 0.30096,0.30096 0.46512,0.76608 0.46512,1.17648 0,0.35568 -0.08208,0.684 -0.2736,0.9576 -0.32832,0.51984 -0.90288,0.76608 -1.45008,0.76608 -0.43776,0 -0.90288,-0.16416 -1.2312,-0.5472 -0.30096,-0.32832 -0.43776,-0.76608 -0.43776,-1.17648 0,-0.76608 0.46512,-1.5048 1.34064,-1.69632"
       id="path5"
       inkscape:connector-curvature="0"
       style="fill:#000000;stroke:none;stroke-width:0.30000001;stroke-dasharray:none" />
  </g>
</svg>
