<?xml version="1.0" encoding="UTF-8" standalone="no"?>
<svg
   xmlns:dc="http://purl.org/dc/elements/1.1/"
   xmlns:cc="http://creativecommons.org/ns#"
   xmlns:rdf="http://www.w3.org/1999/02/22-rdf-syntax-ns#"
   xmlns:svg="http://www.w3.org/2000/svg"
   xmlns="http://www.w3.org/2000/svg"
   xmlns:sodipodi="http://sodipodi.sourceforge.net/DTD/sodipodi-0.dtd"
   xmlns:inkscape="http://www.inkscape.org/namespaces/inkscape"
   width="15.28054"
   height="38.345039"
   version="1.1"
   id="svg6"
   sodipodi:docname="sharp25.svg"
   inkscape:version="0.92.4 (5da689c313, 2019-01-14)">
  <metadata
     id="metadata12">
    <rdf:RDF>
      <cc:Work
         rdf:about="">
        <dc:format>image/svg+xml</dc:format>
        <dc:type
           rdf:resource="http://purl.org/dc/dcmitype/StillImage" />
        <dc:title></dc:title>
      </cc:Work>
    </rdf:RDF>
  </metadata>
  <defs
     id="defs10" />
  <sodipodi:namedview
     pagecolor="#ffffff"
     bordercolor="#666666"
     borderopacity="1"
     objecttolerance="10"
     gridtolerance="10"
     guidetolerance="10"
     inkscape:pageopacity="0"
     inkscape:pageshadow="2"
     inkscape:window-width="1920"
     inkscape:window-height="1017"
     id="namedview8"
     showgrid="false"
     inkscape:zoom="29.917135"
     inkscape:cx="7.64024"
     inkscape:cy="27.1947"
     inkscape:window-x="1912"
     inkscape:window-y="-8"
     inkscape:window-maximized="1"
     inkscape:current-layer="svg6"
     fit-margin-top="5"
     fit-margin-left="5"
     fit-margin-right="5"
     fit-margin-bottom="5"
     viewbox-width="9" />
  <g
     id="g7"
     transform="translate(-175,-700.85486)">
    <path
       d="m 180,720 m 2.3256,-14.06304 c 0.0821,-0.0821 0.10944,-0.0821 0.2736,-0.0821 0.21888,0 0.4104,0.10944 0.51984,0.32832 l 0.0274,0.0821 v 3.44736 c 0,1.9152 0,3.47472 0,3.47472 0.0547,0 0.32832,-0.0821 0.71136,-0.24624 l 0.71136,-0.21888 h 0.1368 c 0.24624,0.0274 0.4104,0.10944 0.49248,0.32832 l 0.0821,0.0821 v 1.34064 0.38304 c 0,1.06704 -0.0547,0.98496 -0.16416,1.12176 -0.10944,0.1368 -0.1368,0.16416 -1.0944,0.46512 l -0.87552,0.30096 v 3.0096 c 0,1.6416 0,2.95488 0,2.95488 0,0 0.32832,-0.10944 0.71136,-0.21888 0.684,-0.2736 0.71136,-0.2736 0.8208,-0.2736 v 0 c 0.2736,0 0.49248,0.16416 0.5472,0.35568 0,0.0821 0.0547,0.71136 0.0547,1.31328 0,0.684 -0.0547,1.42272 -0.0547,1.45008 -0.10944,0.2736 -0.10944,0.24624 -1.80576,0.87552 l -0.2736,0.0821 v 3.72096 3.74832 l -0.0274,0.0821 c -0.10944,0.21888 -0.32832,0.35568 -0.51984,0.35568 -0.21888,0 -0.46512,-0.1368 -0.57456,-0.35568 l -0.0274,-0.0821 v -3.52944 c 0,-3.11904 0,-3.52944 0,-3.52944 0,0 0,0 0,0 -0.0274,0 -0.2736,0.10944 -0.49248,0.19152 l -0.62928,0.21888 c -0.1368,0.0547 -0.24624,0.0821 -0.35568,0.0821 -0.16416,0 -0.30096,-0.0821 -0.4104,-0.19152 C 180,726.86736 180,726.94944 180,725.8824 c 0,-0.1368 0,-0.24624 0,-0.43776 v -1.28592 l 0.0274,-0.0821 c 0.0274,-0.10944 0.10944,-0.21888 0.19152,-0.24624 0.0274,0 0.43776,-0.19152 0.93024,-0.35568 l 0.84816,-0.30096 v -3.03696 c 0,-0.24624 0,-0.5472 0,-0.76608 0,-1.28592 0,-2.24352 0,-2.24352 0,0 -0.32832,0.10944 -0.65664,0.21888 -0.46512,0.16416 -0.71136,0.24624 -0.87552,0.24624 -0.19152,0 -0.24624,-0.0821 -0.35568,-0.19152 C 180,717.23664 180,717.31872 180,716.25168 c 0,-0.10944 0,-0.21888 0,-0.38304 v -1.31328 l 0.0274,-0.0821 c 0.10944,-0.2736 0.10944,-0.2736 1.14912,-0.60192 l 0.8208,-0.2736 v -3.63888 -3.6936 l 0.0274,-0.0821 c 0.0821,-0.10944 0.19152,-0.21888 0.30096,-0.24624"
       id="path5"
       inkscape:connector-curvature="0"
       style="fill:#000000;stroke:none;stroke-width:0.30000001;stroke-dasharray:none" />
  </g>
</svg>
