<?xml version="1.0" encoding="UTF-8" standalone="no"?>
<svg
   xmlns:dc="http://purl.org/dc/elements/1.1/"
   xmlns:cc="http://creativecommons.org/ns#"
   xmlns:rdf="http://www.w3.org/1999/02/22-rdf-syntax-ns#"
   xmlns:svg="http://www.w3.org/2000/svg"
   xmlns="http://www.w3.org/2000/svg"
   xmlns:sodipodi="http://sodipodi.sourceforge.net/DTD/sodipodi-0.dtd"
   xmlns:inkscape="http://www.inkscape.org/namespaces/inkscape"
   width="22.47616"
   height="39.712959"
   version="1.1"
   id="svg6"
   sodipodi:docname="sharp75.svg"
   inkscape:version="0.92.4 (5da689c313, 2019-01-14)">
  <metadata
     id="metadata12">
    <rdf:RDF>
      <cc:Work
         rdf:about="">
        <dc:format>image/svg+xml</dc:format>
        <dc:type
           rdf:resource="http://purl.org/dc/dcmitype/StillImage" />
        <dc:title></dc:title>
      </cc:Work>
    </rdf:RDF>
  </metadata>
  <defs
     id="defs10" />
  <sodipodi:namedview
     pagecolor="#ffffff"
     bordercolor="#666666"
     borderopacity="1"
     objecttolerance="10"
     gridtolerance="10"
     guidetolerance="10"
     inkscape:pageopacity="0"
     inkscape:pageshadow="2"
     inkscape:window-width="1920"
     inkscape:window-height="1017"
     id="namedview8"
     showgrid="false"
     inkscape:zoom="28.539735"
     inkscape:cx="11.23808"
     inkscape:cy="19.85648"
     inkscape:window-x="1912"
     inkscape:window-y="-8"
     inkscape:window-maximized="1"
     inkscape:current-layer="svg6"
     fit-margin-top="5"
     fit-margin-left="5"
     fit-margin-right="5"
     fit-margin-bottom="5"
     viewbox-width="9" />
  <g
     id="g7"
     transform="translate(-174.97264,-520.17088)">
    <path
       d="m 180,540 m 9.63072,-14.80176 c 0.0274,-0.0274 0.0821,-0.0274 0.1368,-0.0274 0.19152,0 0.4104,0.1368 0.5472,0.32832 l 0.0274,0.10944 v 3.61152 l 0.0274,3.61152 0.684,-0.10944 c 0.43776,-0.0821 0.71136,-0.10944 0.87552,-0.10944 0.19152,0 0.2736,0.0274 0.38304,0.1368 0.1368,0.16416 0.1368,0.1368 0.1368,1.2312 v 0.32832 1.28592 l -0.0274,0.1368 c -0.1368,0.24624 -0.19152,0.24624 -1.17648,0.43776 -0.49248,0.0821 -0.87552,0.16416 -0.90288,0.19152 0,0 0,0.73872 0,1.7784 0,0.38304 0,0.8208 0,1.25856 l 0.0274,2.98224 0.684,-0.10944 c 0.43776,-0.0821 0.71136,-0.10944 0.87552,-0.10944 0.19152,0 0.2736,0.0274 0.38304,0.1368 0.1368,0.16416 0.1368,0.10944 0.1368,1.2312 v 0.32832 1.28592 l -0.0274,0.10944 c -0.1368,0.2736 -0.19152,0.2736 -1.12176,0.46512 -0.4104,0.0821 -0.8208,0.16416 -0.84816,0.16416 h -0.10944 v 3.5568 0.9576 c 0,2.84544 0,2.736 -0.0821,2.8728 -0.10944,0.16416 -0.30096,0.24624 -0.49248,0.24624 -0.16416,0 -0.35568,-0.0821 -0.46512,-0.24624 -0.0821,-0.1368 -0.10944,-0.0274 -0.10944,-2.79072 v -0.93024 -3.44736 h -0.0547 c 0,0 -0.5472,0.10944 -1.17648,0.21888 l -1.20384,0.24624 v 3.58416 l -0.0274,3.61152 -0.0274,0.0821 c -0.0821,0.21888 -0.30096,0.35568 -0.5472,0.35568 -0.16416,0 -0.4104,-0.1368 -0.51984,-0.35568 l -0.0274,-0.0821 v -3.47472 -3.50208 l -1.2312,0.21888 -1.2312,0.24624 v 3.58416 3.58416 l -0.0274,0.10944 c -0.10944,0.21888 -0.32832,0.35568 -0.51984,0.35568 -0.21888,0 -0.46512,-0.1368 -0.51984,-0.35568 l -0.0821,-0.10944 v -3.50208 c 0,-1.88784 0,-3.44736 0,-3.44736 0,0 -0.32832,0.0274 -0.65664,0.10944 -0.46512,0.0821 -0.684,0.10944 -0.87552,0.10944 -0.19152,0 -0.24624,-0.0274 -0.35568,-0.1368 -0.10944,-0.19152 -0.1368,-0.10944 -0.1368,-1.14912 0,-0.1368 0.0274,-0.2736 0.0274,-0.4104 v -1.34064 l 0.0274,-0.0821 c 0.0274,-0.10944 0.1368,-0.21888 0.24624,-0.24624 0.0821,-0.0547 0.16416,-0.0821 1.06704,-0.24624 l 0.65664,-0.10944 v -3.03696 c 0,-1.6416 0,-3.0096 0,-3.0096 0,0 -0.32832,0.0547 -0.65664,0.10944 -0.46512,0.0821 -0.684,0.10944 -0.87552,0.10944 -0.19152,0 -0.24624,-0.0274 -0.35568,-0.1368 -0.10944,-0.19152 -0.1368,-0.10944 -0.1368,-1.14912 0,-0.1368 0.0274,-0.24624 0.0274,-0.4104 v -1.34064 l 0.0274,-0.0547 c 0.0274,-0.1368 0.1368,-0.24624 0.24624,-0.2736 0.0821,-0.0274 0.16416,-0.0821 1.06704,-0.21888 l 0.65664,-0.1368 v -3.66624 c 0,-0.38304 0,-0.73872 0,-0.98496 0,-3.0096 0,-2.81808 0.10944,-2.98224 0.10944,-0.16416 0.30096,-0.24624 0.49248,-0.24624 0.1368,0 0.32832,0.0821 0.43776,0.24624 0.10944,0.16416 0.10944,0 0.10944,2.8728 v 0.98496 c 0,3.25584 0,3.5568 0.0547,3.5568 0,0 2.27088,-0.4104 2.38032,-0.46512 h 0.0274 v -3.72096 -3.74832 l 0.0274,-0.0821 c 0.10944,-0.21888 0.35568,-0.32832 0.51984,-0.32832 0.24624,0 0.46512,0.10944 0.5472,0.32832 l 0.0274,0.0821 0.0274,3.63888 v 3.61152 h 0.0547 c 0.10944,-0.0274 2.38032,-0.46512 2.38032,-0.46512 0,0 0.0274,-1.31328 0.0274,-3.72096 v -3.72096 l 0.0274,-0.10944 c 0.0821,-0.1368 0.24624,-0.24624 0.38304,-0.30096 m -0.43776,14.39136 c 0,-2.38032 0,-3.03696 0,-3.03696 v 0 c 0,0 -0.57456,0.10944 -1.2312,0.24624 l -1.20384,0.21888 v 3.0096 3.03696 h 0.0547 c 0.10944,-0.0274 2.38032,-0.46512 2.38032,-0.46512 0,0 0,-1.06704 0,-3.0096 m -3.58416,3.6936 c 0,0 0,-0.73872 0,-1.7784 0,-0.38304 0,-0.84816 0,-1.25856 v -3.0096 l -1.2312,0.21888 -1.2312,0.24624 v 3.0096 c 0,0.62928 0,1.17648 0,1.55952 0,1.368 0,1.47744 0.0547,1.47744 0.0274,0 2.38032,-0.46512 2.40768,-0.46512"
       id="path5"
       inkscape:connector-curvature="0"
       style="fill:#000000;stroke:none;stroke-width:0.30000001;stroke-dasharray:none" />
  </g>
</svg>
