<?xml version="1.0" encoding="UTF-8" standalone="no"?>
<svg
   xmlns:dc="http://purl.org/dc/elements/1.1/"
   xmlns:cc="http://creativecommons.org/ns#"
   xmlns:rdf="http://www.w3.org/1999/02/22-rdf-syntax-ns#"
   xmlns:svg="http://www.w3.org/2000/svg"
   xmlns="http://www.w3.org/2000/svg"
   xmlns:sodipodi="http://sodipodi.sourceforge.net/DTD/sodipodi-0.dtd"
   xmlns:inkscape="http://www.inkscape.org/namespaces/inkscape"
   width="39.683716"
   height="79.85392"
   version="1.1"
   id="svg6"
   sodipodi:docname="sixeight.svg"
   inkscape:version="0.92.4 (5da689c313, 2019-01-14)">
  <metadata
     id="metadata12">
    <rdf:RDF>
      <cc:Work
         rdf:about="">
        <dc:format>image/svg+xml</dc:format>
        <dc:type
           rdf:resource="http://purl.org/dc/dcmitype/StillImage" />
        <dc:title></dc:title>
      </cc:Work>
    </rdf:RDF>
  </metadata>
  <defs
     id="defs10" />
  <sodipodi:namedview
     pagecolor="#ffffff"
     bordercolor="#666666"
     borderopacity="1"
     objecttolerance="10"
     gridtolerance="10"
     guidetolerance="10"
     inkscape:pageopacity="0"
     inkscape:pageshadow="2"
     inkscape:window-width="1920"
     inkscape:window-height="1017"
     id="namedview8"
     showgrid="true"
     inkscape:zoom="6.8888569"
     inkscape:cx="49.437237"
     inkscape:cy="53.967043"
     inkscape:window-x="1912"
     inkscape:window-y="-8"
     inkscape:window-maximized="1"
     inkscape:current-layer="svg6"
     showguides="false"
     fit-margin-left="5"
     fit-margin-top="5"
     fit-margin-right="5"
     fit-margin-bottom="5">
    <inkscape:grid
       type="xygrid"
       id="grid818"
       originx="-175"
       originy="110" />
  </sodipodi:namedview>
  <g
     id="g824"
     transform="matrix(2.2232261,0,0,1.8940261,-6.1161305,-4.4701305)">
    <g
       transform="translate(-774.82216,-36.58672)"
       id="g4">
      <path
         style="fill:#000000;stroke:none;stroke-width:0.30000001;stroke-dasharray:none"
         inkscape:connector-curvature="0"
         id="path5"
         d="m 780,60 m 6.9768,-17.72928 c 0.10944,0 0.30096,0 0.51984,0 0.38304,0 0.90288,0 1.0944,0.05472 1.6416,0.24624 3.39264,1.42272 3.72096,2.48976 0.0821,0.24624 0.10944,0.46512 0.10944,0.684 0,1.2312 -1.03968,2.16144 -2.16144,2.16144 -0.43776,0 -0.87552,-0.10944 -1.28592,-0.43776 -0.49248,-0.43776 -0.76608,-0.98496 -0.76608,-1.61424 0,-0.84816 0.51984,-1.72368 1.42272,-1.96992 0.0821,0 0.10944,-0.02736 0.10944,-0.02736 0,0 -0.0274,-0.05472 -0.10944,-0.08208 -0.60192,-0.2736 -1.20384,-0.38304 -1.75104,-0.38304 -0.84816,0 -1.58688,0.30096 -2.13408,0.87552 -0.57456,0.684 -0.98496,2.07936 -1.25856,4.13136 -0.0274,0.49248 -0.10944,1.42272 -0.10944,1.61424 0,0 0,0 0,0 0,0 0,0 0,0 0,0 0.10944,-0.05472 0.21888,-0.08208 0.87552,-0.35568 1.6416,-0.49248 2.4624,-0.49248 0.98496,0 1.9152,0.21888 2.95488,0.76608 1.9152,0.93024 2.98224,2.29824 2.98224,3.93984 0,0.21888 -0.0547,0.46512 -0.0821,0.71136 -0.2736,1.53216 -1.45008,2.79072 -3.36528,3.61152 -0.87552,0.38304 -1.66896,0.60192 -2.4624,0.60192 -0.79344,0 -1.61424,-0.24624 -2.51712,-0.71136 -2.3803,-1.20384 -4.0219,-3.44736 -4.45966,-6.04656 C 780.02736,51.54576 780,51.02592 780,50.45136 c 0,-1.14912 0.16416,-2.29824 0.5472,-3.22848 1.03968,-2.62656 3.6936,-4.6512 6.4296,-4.95216 m 0.38304,7.7976 c -0.10944,0 -0.21888,0 -0.32832,0 -0.57456,0 -1.01232,0.19152 -1.28592,0.49248 -0.38304,0.57456 -0.65664,1.99728 -0.65664,3.25584 0,0.2736 0,0.5472 0.0274,0.76608 0.10944,1.28592 0.4104,2.35296 0.71136,2.81808 0.21888,0.32832 0.684,0.51984 1.20384,0.51984 0.10944,0 0.24624,0 0.35568,-0.02736 0.79344,-0.10944 1.0944,-0.60192 1.39536,-2.16144 0.1368,-0.73872 0.21888,-1.368 0.21888,-1.99728 0,-0.62928 -0.0821,-1.2312 -0.21888,-1.96992 -0.2736,-1.12176 -0.62928,-1.58688 -1.42272,-1.69632 m -0.90288,9.95904 h 0.0547 -0.0821 0.0274 m 0,-18.44064 h 0.0547 -0.0821 0.0274" />
    </g>
    <g
       transform="translate(-175,-78.14608)"
       id="g10">
      <path
         style="fill:#000000;stroke:none;stroke-width:0.30000001;stroke-dasharray:none"
         inkscape:connector-curvature="0"
         id="path8"
         d="m 180,120 m 5.93712,-17.72928 c 0.21888,0 0.49248,-0.0274 0.76608,-0.0274 2.68128,0 5.0616,1.47744 5.69088,3.63888 0.0547,0.35568 0.1368,0.684 0.1368,1.03968 0,1.03968 -0.46512,2.1888 -1.25856,2.95488 0,0.0274 -0.0274,0.0274 -0.0274,0.0274 0,0.0547 0.0274,0.0547 0.10944,0.10944 1.28592,0.93024 1.99728,2.29824 1.99728,3.66624 0,0.62928 -0.1368,1.2312 -0.43776,1.80576 -1.03968,2.16144 -3.66624,3.33792 -6.26544,3.33792 -1.7784,0 -3.58416,-0.51984 -4.9248,-1.66896 C 180.5472,116.1696 180,114.91104 180,113.62512 c 0,-1.368 0.65664,-2.68128 1.99728,-3.61152 l 0.10944,-0.10944 -0.1368,-0.1368 c -0.8208,-0.87552 -1.17648,-1.83312 -1.17648,-2.79072 0,-2.21616 2.02464,-4.35024 5.14368,-4.70592 m 1.12176,1.17648 c -0.1368,0 -0.30096,-0.0274 -0.43776,-0.0274 -1.20384,0 -2.3256,0.71136 -2.3256,1.47744 0,0.10944 0.0547,0.21888 0.0821,0.30096 0.43776,1.03968 2.24352,2.43504 4.35024,3.50208 l 0.49248,0.2736 0.0274,-0.0821 c 0.38304,-0.60192 0.57456,-1.25856 0.57456,-1.9152 0,-1.66896 -1.12176,-3.25584 -2.76336,-3.52944 m -3.2832,7.63344 c -0.10944,-0.0547 -0.21888,-0.10944 -0.21888,-0.10944 0,0 0,0 0,0 -0.0821,0 -0.49248,0.46512 -0.62928,0.684 -0.43776,0.65664 -0.62928,1.34064 -0.62928,2.02464 0,2.052 1.83312,3.9672 4.35024,3.9672 0.0547,0 0.0821,-0.0274 0.16416,-0.0274 1.47744,-0.0274 2.68128,-0.90288 2.68128,-1.88784 0,-0.16416 -0.0547,-0.30096 -0.0821,-0.43776 -0.51984,-1.5048 -2.38032,-2.98224 -5.14368,-4.02192 -0.1368,-0.0821 -0.32832,-0.1368 -0.49248,-0.19152 m 2.8728,8.94672 h 0.0547 -0.0821 0.0274 m 0,-18.44064 h 0.0547 -0.0821 0.0274" />
    </g>
  </g>
</svg>
