<?xml version="1.0" encoding="UTF-8" standalone="no"?>
<svg
   xmlns:dc="http://purl.org/dc/elements/1.1/"
   xmlns:cc="http://creativecommons.org/ns#"
   xmlns:rdf="http://www.w3.org/1999/02/22-rdf-syntax-ns#"
   xmlns:svg="http://www.w3.org/2000/svg"
   xmlns="http://www.w3.org/2000/svg"
   xmlns:sodipodi="http://sodipodi.sourceforge.net/DTD/sodipodi-0.dtd"
   xmlns:inkscape="http://www.inkscape.org/namespaces/inkscape"
   width="12.01826"
   height="26.225149"
   version="1.1"
   id="svg6"
   sodipodi:docname="tenuto_below.svg"
   inkscape:version="0.92.4 (5da689c313, 2019-01-14)">
  <metadata
     id="metadata12">
    <rdf:RDF>
      <cc:Work
         rdf:about="">
        <dc:format>image/svg+xml</dc:format>
        <dc:type
           rdf:resource="http://purl.org/dc/dcmitype/StillImage" />
        <dc:title></dc:title>
      </cc:Work>
    </rdf:RDF>
  </metadata>
  <defs
     id="defs10" />
  <sodipodi:namedview
     pagecolor="#ffffff"
     bordercolor="#666666"
     borderopacity="1"
     objecttolerance="10"
     gridtolerance="10"
     guidetolerance="10"
     inkscape:pageopacity="0"
     inkscape:pageshadow="2"
     inkscape:window-width="1920"
     inkscape:window-height="1017"
     id="namedview8"
     showgrid="false"
     inkscape:zoom="12.509382"
     inkscape:cx="36.945898"
     inkscape:cy="-7.4565727"
     inkscape:window-x="-8"
     inkscape:window-y="-8"
     inkscape:window-maximized="1"
     inkscape:current-layer="svg6"
     fit-margin-top="0"
     fit-margin-left="0"
     fit-margin-right="0"
     fit-margin-bottom="0" />
  <g
     class="vf-notehead"
     pointer-events="bounding-box"
     id="g9"
     transform="matrix(1,0,0,-1,-557.42603,89.528289)">
    <path
       d="m 559.08491,73.6184 m 0.5472,-10.28736 c 0.0821,-0.02736 2.07936,-0.02736 4.02192,-0.02736 1.75104,0 3.47472,0 3.52944,0.02736 0.4104,0.1368 0.60192,0.46512 0.60192,0.79344 0,0.38304 -0.19152,0.73872 -0.60192,0.84816 C 567.12875,65 565.29563,65 563.43515,65 c -1.86048,0 -3.6936,0 -3.77568,-0.02736 -0.4104,-0.10944 -0.57456,-0.46512 -0.57456,-0.79344 0,-0.38304 0.16416,-0.71136 0.5472,-0.84816"
       id="path7"
       inkscape:connector-curvature="0"
       style="fill:#000000;stroke:none;stroke-width:0.30000001;stroke-dasharray:none" />
  </g>
  <g
     id="g834"
     transform="matrix(-1,0,0,1,12.01826,0)">
    <path
       style="fill:#000000;stroke:none;stroke-width:0.30000001;stroke-dasharray:none"
       d="M 8.84375 0 L 8.84375 9.3945312 C 8.4684843 9.3191921 8.0748647 9.2773438 7.6660156 9.2773438 C 5.3915356 9.2773438 2.7802475 10.456981 1.1796875 12.619141 C 0.3372875 13.714261 0 14.866073 0 15.876953 C 0 17.954873 1.488425 19.611553 4.015625 19.751953 L 4.3242188 19.751953 L 4.3515625 19.751953 L 4.6621094 19.751953 C 7.9416076 19.587978 10.859656 17.194315 11.740234 14.628906 L 11.84375 14.628906 L 11.84375 14.3125 C 11.955657 13.906278 12.017578 13.498317 12.017578 13.095703 C 12.017578 12.695667 11.947134 12.32191 11.84375 11.947266 L 11.84375 0 L 8.84375 0 z "
       transform="matrix(-1,0,0,1,12.01826,0)"
       id="path5" />
  </g>
</svg>
