<?xml version="1.0" encoding="UTF-8" standalone="no"?>
<svg
   xmlns:dc="http://purl.org/dc/elements/1.1/"
   xmlns:cc="http://creativecommons.org/ns#"
   xmlns:rdf="http://www.w3.org/1999/02/22-rdf-syntax-ns#"
   xmlns:svg="http://www.w3.org/2000/svg"
   xmlns="http://www.w3.org/2000/svg"
   xmlns:sodipodi="http://sodipodi.sourceforge.net/DTD/sodipodi-0.dtd"
   xmlns:inkscape="http://www.inkscape.org/namespaces/inkscape"
   width="49.41605"
   height="96.452469"
   version="1.1"
   id="svg6"
   sodipodi:docname="threefour.svg"
   inkscape:version="0.92.4 (5da689c313, 2019-01-14)">
  <metadata
     id="metadata12">
    <rdf:RDF>
      <cc:Work
         rdf:about="">
        <dc:format>image/svg+xml</dc:format>
        <dc:type
           rdf:resource="http://purl.org/dc/dcmitype/StillImage" />
        <dc:title></dc:title>
      </cc:Work>
    </rdf:RDF>
  </metadata>
  <defs
     id="defs10" />
  <sodipodi:namedview
     pagecolor="#ffffff"
     bordercolor="#666666"
     borderopacity="1"
     objecttolerance="10"
     gridtolerance="10"
     guidetolerance="10"
     inkscape:pageopacity="0"
     inkscape:pageshadow="2"
     inkscape:window-width="1920"
     inkscape:window-height="1017"
     id="namedview8"
     showgrid="true"
     inkscape:zoom="3.6513196"
     inkscape:cx="14.816309"
     inkscape:cy="69.789745"
     inkscape:window-x="1912"
     inkscape:window-y="-8"
     inkscape:window-maximized="1"
     inkscape:current-layer="svg6"
     fit-margin-left="5"
     fit-margin-top="5"
     fit-margin-right="5"
     fit-margin-bottom="5">
    <inkscape:grid
       type="xygrid"
       id="grid817"
       originx="-684.5883"
       originy="-36.087441" />
  </sodipodi:namedview>
  <g
     transform="matrix(3.0782775,0,0,2.3494548,-1285.3497,-92.706119)"
     id="g3">
    <path
       d="m 420,60 m 4.76064,-17.72928 c 0.0547,0 0.24624,0 0.46512,0 0.35568,0 0.79344,0 0.93024,0 2.51712,0.2736 4.48704,1.6416 4.84272,3.42 0.0547,0.16416 0.0547,0.35568 0.0547,0.5472 0,0.21888 0,0.4104 -0.0547,0.51984 -0.35568,1.28592 -1.86048,2.4624 -3.77568,3.03696 -0.1368,0.05472 -0.19152,0.05472 -0.19152,0.08208 0,0 0,0 0,0 0.0274,0 0.10944,0.02736 0.19152,0.02736 2.5992,0.9576 3.9672,2.79072 3.9672,4.56912 0,1.368 -0.76608,2.68128 -2.48976,3.5568 -1.01232,0.5472 -2.13408,0.79344 -3.22848,0.79344 -1.80576,0 -3.58416,-0.684 -4.84272,-1.9152 C 420.16416,56.47056 420,55.92336 420,55.37616 c 0,-1.12176 0.79344,-2.1888 2.10672,-2.1888 v 0 c 1.31328,0 2.052,1.01232 2.052,2.052 0,0.79344 -0.4104,1.58688 -1.34064,1.96992 0,0 0,0 0,0 0,0.02736 0.79344,0.19152 1.20384,0.21888 0.0547,0 0.10944,0 0.16416,0 1.80576,0 3.06432,-1.28592 3.06432,-3.06432 0,-0.19152 0,-0.35568 -0.0274,-0.5472 -0.30096,-1.99728 -1.6416,-3.47472 -3.20112,-3.52944 -0.38304,-0.02736 -0.57456,-0.19152 -0.57456,-0.43776 0,-0.32832 0.16416,-0.46512 0.57456,-0.46512 1.34064,-0.08208 2.48976,-0.98496 2.92752,-2.35296 0.10944,-0.2736 0.1368,-0.5472 0.1368,-0.76608 0,-1.14912 -0.84816,-2.1888 -2.10672,-2.4624 -0.19152,-0.08208 -0.43776,-0.08208 -0.71136,-0.08208 -0.38304,0 -0.73872,0.02736 -1.12176,0.08208 l -0.10944,0.02736 0.10944,0.08208 c 0.71136,0.38304 1.01232,1.06704 1.01232,1.75104 0,0.90288 -0.60192,1.80576 -1.6416,2.052 -0.1368,0.02736 -0.30096,0.02736 -0.43776,0.02736 -1.20384,0 -2.10672,-1.0944 -2.10672,-2.24352 0,-0.49248 0.16416,-0.98496 0.57456,-1.39536 0.9576,-1.03968 2.40768,-1.6416 4.21344,-1.83312 m 0.8208,17.75664 h 0.0274 -0.0821 0.0547 m 0,-18.44064 h 0.0274 -0.0821 0.0547"
       id="path5"
       inkscape:connector-curvature="0"
       style="fill:#000000;stroke:none;stroke-width:0.30000001;stroke-dasharray:none" />
  </g>
  <g
     transform="matrix(3.0782775,0,0,2.3494548,-1657.2699,-49.579099)"
     id="g4">
    <path
       d="m 540,60 m 4.76064,-17.42832 c 0.0274,-0.02736 0.4104,-0.02736 1.58688,-0.02736 0.35568,0 0.73872,0 1.2312,0 h 2.76336 l 0.0821,0.08208 c 0.1368,0.08208 0.21888,0.21888 0.21888,0.32832 0,0.16416 -0.0821,0.2736 -0.19152,0.38304 -0.0274,0.08208 -0.2736,0.30096 -0.43776,0.5472 l -1.45008,1.66896 -1.86048,2.10672 -0.98496,1.12176 -1.47744,1.69632 -1.94256,2.21616 c -0.32832,0.4104 -0.684,0.73872 -0.684,0.73872 0,0 0,0 0,0 0,0.05472 0.24624,0.05472 2.51712,0.05472 h 2.48976 v -1.7784 c 0,-1.80576 0,-1.83312 0.0274,-1.86048 0.0547,-0.08208 0.30096,-0.38304 1.25856,-1.5048 l 0.38304,-0.4104 0.38304,-0.4104 0.57456,-0.73872 0.60192,-0.62928 0.30096,-0.38304 c 0.10944,-0.16416 0.2736,-0.19152 0.4104,-0.19152 0.16416,0 0.30096,0.08208 0.38304,0.21888 0.0274,0.08208 0.0274,0.1368 0.0274,2.16144 0,0.46512 0,1.03968 0,1.72368 v 3.80304 h 0.684 c 0.62928,0 0.65664,0 0.73872,0.02736 0.21888,0.08208 0.32832,0.30096 0.32832,0.5472 0,0.1368 -0.0274,0.30096 -0.1368,0.4104 -0.16416,0.1368 -0.19152,0.1368 -0.93024,0.1368 h -0.684 v 0.46512 c 0.0274,1.39536 0.30096,1.94256 1.368,2.51712 0.38304,0.19152 0.46512,0.24624 0.46512,0.51984 0,0.19152 -0.0547,0.2736 -0.19152,0.38304 l -0.0821,0.02736 h -3.74832 -3.72096 l -0.0821,-0.02736 c -0.16416,-0.10944 -0.19152,-0.19152 -0.19152,-0.38304 0,-0.2736 0.0274,-0.32832 0.43776,-0.51984 1.06704,-0.57456 1.34064,-1.12176 1.34064,-2.51712 V 54.61008 H 543.42 c -0.57456,0.05472 -1.03968,0.05472 -1.42272,0.05472 -1.72368,0 -1.75104,-0.05472 -1.7784,-0.05472 C 540.05472,54.55536 540,54.3912 540,54.19968 c 0,0 0,0 0,0 0,-0.19152 0,-0.19152 0.5472,-0.8208 2.29824,-2.79072 3.91248,-6.84 3.91248,-10.06848 0,-0.49248 0.0821,-0.65664 0.30096,-0.73872 m 1.6416,17.45568 h 0.0274 -0.0821 0.0547 m 0,-18.44064 h 0.0274 -0.0821 0.0547"
       id="path8"
       inkscape:connector-curvature="0"
       style="fill:#000000;stroke:none;stroke-width:0.30000001;stroke-dasharray:none" />
  </g>
</svg>
