<?xml version="1.0" encoding="UTF-8" standalone="no"?>
<svg
   xmlns:dc="http://purl.org/dc/elements/1.1/"
   xmlns:cc="http://creativecommons.org/ns#"
   xmlns:rdf="http://www.w3.org/1999/02/22-rdf-syntax-ns#"
   xmlns:svg="http://www.w3.org/2000/svg"
   xmlns="http://www.w3.org/2000/svg"
   xmlns:sodipodi="http://sodipodi.sourceforge.net/DTD/sodipodi-0.dtd"
   xmlns:inkscape="http://www.inkscape.org/namespaces/inkscape"
   width="28.550079"
   height="24.25456"
   version="1.1"
   id="svg6"
   sodipodi:docname="trill.svg"
   inkscape:version="0.92.4 (5da689c313, 2019-01-14)">
  <metadata
     id="metadata12">
    <rdf:RDF>
      <cc:Work
         rdf:about="">
        <dc:format>image/svg+xml</dc:format>
        <dc:type
           rdf:resource="http://purl.org/dc/dcmitype/StillImage" />
        <dc:title></dc:title>
      </cc:Work>
    </rdf:RDF>
  </metadata>
  <defs
     id="defs10" />
  <sodipodi:namedview
     pagecolor="#ffffff"
     bordercolor="#666666"
     borderopacity="1"
     objecttolerance="10"
     gridtolerance="10"
     guidetolerance="10"
     inkscape:pageopacity="0"
     inkscape:pageshadow="2"
     inkscape:window-width="1920"
     inkscape:window-height="1017"
     id="namedview8"
     showgrid="false"
     inkscape:zoom="21.032798"
     inkscape:cx="14.27504"
     inkscape:cy="12.12728"
     inkscape:window-x="1912"
     inkscape:window-y="-8"
     inkscape:window-maximized="1"
     inkscape:current-layer="svg6"
     fit-margin-top="5"
     fit-margin-left="5"
     fit-margin-right="5"
     fit-margin-bottom="5" />
  <g
     id="vf-auto2727"
     transform="translate(-249.81407,-23.945441)">
    <path
       d="m 264.11647,43.200001 m -0.87552,-14.2272 c 0.0274,0 0.0274,-0.02736 0.0821,-0.02736 0.0547,0 0.1368,0.02736 0.16416,0.05472 0.0547,0.05472 0.0821,0.08208 0.0821,0.16416 0,0.02736 0,0.10944 -0.0274,0.19152 -0.0547,0.10944 -0.16416,0.49248 -0.2736,0.87552 l -0.60192,1.96992 -0.35568,1.368 -0.0547,0.08208 h 0.30096 c 0.16416,0 0.46512,-0.05472 0.684,-0.05472 1.39536,-0.02736 2.90016,-0.21888 4.2408,-0.51984 0.10944,0 0.2736,-0.02736 0.38304,-0.02736 0.4104,0 0.73872,0.1368 0.90288,0.4104 0,0.02736 0,0.02736 0.0274,0.02736 0.0821,0 0.32832,-0.08208 1.2312,-0.30096 1.42272,-0.30096 1.368,-0.30096 1.75104,-0.32832 0.0821,0 0.10944,0 0.19152,0 0.5472,0 0.9576,0.24624 1.2312,0.79344 0.10944,0.21888 0.16416,0.51984 0.16416,0.8208 0,0.24624 -0.0547,0.46512 -0.16416,0.49248 -0.0821,0.05472 -2.35296,0.57456 -2.4624,0.57456 0,0 0,0 0,0 -0.16416,0 -0.19152,-0.08208 -0.19152,-0.21888 0,-0.05472 0,-0.08208 0,-0.10944 0.0274,-0.1368 0.0274,-0.19152 0.0274,-0.2736 0,-0.38304 -0.16416,-0.76608 -0.43776,-0.9576 l -0.10944,-0.08208 -0.16416,0.1368 c -0.57456,0.35568 -1.03968,0.93024 -1.39536,1.61424 -0.19152,0.30096 -0.0821,0.05472 -1.12176,3.47472 -0.93024,3.09168 -0.90288,3.09168 -1.01232,3.1464 -0.0821,0.02736 -2.3256,0.57456 -2.43504,0.57456 0,0 0,0 0,0 -0.10944,-0.05472 -0.16416,-0.05472 -0.16416,-0.19152 0,-0.10944 0.0547,-0.30096 0.16416,-0.65664 0.0821,-0.30096 0.16416,-0.57456 0.16416,-0.60192 0,0 0,0 0,0 v 0 c 0,0 -0.51984,0.30096 -1.12176,0.684 -1.5048,0.90288 -1.5048,0.90288 -1.94256,1.01232 -0.24624,0.10944 -0.5472,0.10944 -0.8208,0.10944 -1.45008,0 -2.68128,-1.17648 -2.68128,-2.70864 0,-0.08208 0,-0.16416 0,-0.2736 0.0547,-0.35568 0,-0.19152 0.8208,-3.0096 0.4104,-1.39536 0.73872,-2.54448 0.73872,-2.54448 v 0 c 0,0 -0.0274,0 -0.10944,0 -0.30096,0 -1.03968,0 -1.9152,0 -0.87552,0 -1.39536,0.05472 -1.69632,0.05472 -0.24624,0 -0.35568,-0.05472 -0.35568,-0.05472 -0.10944,-0.02736 -0.16416,-0.10944 -0.16416,-0.19152 0,-0.08208 0.0547,-0.1368 0.10944,-0.19152 0.0547,0 0.60192,-0.1368 1.2312,-0.30096 l 1.20384,-0.2736 1.01232,-0.02736 c 0.5472,0 1.03968,0 1.03968,0 0,0 0.0274,-0.19152 0.10944,-0.4104 0.46512,-1.66896 0.62928,-2.13408 0.62928,-2.16144 0.0274,-0.05472 0.1368,-0.10944 0.32832,-0.2736 l 1.53216,-1.01232 c 0.65664,-0.46512 1.2312,-0.84816 1.2312,-0.84816 m 2.43504,5.08896 c -0.0547,-0.02736 -0.0821,-0.02736 -0.10944,-0.02736 -0.0821,0 -0.10944,0 -0.24624,0.02736 -0.98496,0.21888 -1.96992,0.38304 -3.11904,0.49248 -0.21888,0 -0.21888,0 -0.21888,0.19152 -0.0547,0.10944 -0.2736,0.9576 -0.8208,2.92752 -0.76608,2.4624 -0.90288,2.98224 -0.90288,3.31056 0,0.05472 0,0.10944 0.0274,0.19152 0.0821,0.4104 0.35568,0.684 0.62928,0.684 0.0821,0 0.19152,-0.05472 0.2736,-0.08208 0.0274,-0.05472 3.31056,-2.02464 3.36528,-2.052 0,0 0.71136,-2.40768 0.71136,-2.4624 0,-0.1368 0.0547,-0.32832 0.19152,-0.65664 0.10944,-0.2736 0.65664,-2.07936 0.65664,-2.16144 0,-0.19152 -0.21888,-0.35568 -0.43776,-0.38304"
       id="path5"
       inkscape:connector-curvature="0"
       style="fill:#000000;stroke:none;stroke-width:0.30000001;stroke-dasharray:none" />
  </g>
</svg>
