<?xml version="1.0" encoding="UTF-8" standalone="no"?>
<svg
   xmlns:dc="http://purl.org/dc/elements/1.1/"
   xmlns:cc="http://creativecommons.org/ns#"
   xmlns:rdf="http://www.w3.org/1999/02/22-rdf-syntax-ns#"
   xmlns:svg="http://www.w3.org/2000/svg"
   xmlns="http://www.w3.org/2000/svg"
   xmlns:sodipodi="http://sodipodi.sourceforge.net/DTD/sodipodi-0.dtd"
   xmlns:inkscape="http://www.inkscape.org/namespaces/inkscape"
   width="128.12939"
   height="119.56976"
   version="1.1"
   id="svg6"
   sodipodi:docname="triplet.svg"
   inkscape:version="0.92.4 (5da689c313, 2019-01-14)">
  <metadata
     id="metadata12">
    <rdf:RDF>
      <cc:Work
         rdf:about="">
        <dc:format>image/svg+xml</dc:format>
        <dc:type
           rdf:resource="http://purl.org/dc/dcmitype/StillImage" />
        <dc:title></dc:title>
      </cc:Work>
    </rdf:RDF>
  </metadata>
  <defs
     id="defs10" />
  <sodipodi:namedview
     pagecolor="#ffffff"
     bordercolor="#666666"
     borderopacity="1"
     objecttolerance="10"
     gridtolerance="10"
     guidetolerance="10"
     inkscape:pageopacity="0"
     inkscape:pageshadow="2"
     inkscape:window-width="1920"
     inkscape:window-height="1017"
     id="namedview8"
     showgrid="false"
     inkscape:zoom="7.1535022"
     inkscape:cx="92.983541"
     inkscape:cy="47.97422"
     inkscape:window-x="1912"
     inkscape:window-y="-8"
     inkscape:window-maximized="1"
     inkscape:current-layer="g103"
     fit-margin-top="0"
     fit-margin-left="0"
     fit-margin-right="0"
     fit-margin-bottom="0" />
  <g
     class="auto1016"
     id="g103"
     transform="translate(-697.51829,-74.422325)">
    <g
       class="vf-stavenote"
       id="vf-auto49884"
       transform="matrix(1.7275141,0,0,1.9738255,-507.45438,-72.474347)">
      <g
         class="vf-note"
         pointer-events="bounding-box"
         id="g23"
         transform="translate(-0.24276213)">
        <g
           class="vf-notehead"
           pointer-events="bounding-box"
           id="g21">
          <path
             d="m 707.00183,100 m 7.35696,-5.22288 c 0.11232,0 0.2808,0 0.30888,0 0,0 0.0281,0 0.0281,0 0,0 0.16848,0 0.30888,0 2.5272,0.1404 4.01544,1.79712 4.01544,3.87504 0,1.01088 -0.33696,2.16216 -1.17936,3.25728 -1.60056,2.16216 -4.212,3.34152 -6.48648,3.34152 -1.76904,0 -3.28536,-0.702 -4.01544,-2.13408 -0.22464,-0.5616 -0.33696,-1.09512 -0.33696,-1.6848 0,-3.06072 3.42576,-6.4584 7.35696,-6.65496"
             id="path19"
             inkscape:connector-curvature="0"
             style="fill:#000000;stroke:none;stroke-width:0.30000001;stroke-dasharray:none" />
        </g>
      </g>
      <g
         class="vf-modifiers"
         id="g25" />
    </g>
    <g
       class="vf-stavenote"
       id="vf-auto49891"
       transform="matrix(1.7275141,0,0,1.9738255,-507.45438,-72.474347)">
      <g
         class="vf-note"
         pointer-events="bounding-box"
         id="g32">
        <g
           class="vf-notehead"
           pointer-events="bounding-box"
           id="g30">
          <path
             d="m 732.42762,100 m 7.35696,-5.22288 c 0.11232,0 0.2808,0 0.30888,0 0,0 0.0281,0 0.0281,0 0,0 0.16848,0 0.30888,0 2.5272,0.1404 4.01544,1.79712 4.01544,3.87504 0,1.01088 -0.33696,2.16216 -1.17936,3.25728 -1.60056,2.16216 -4.212,3.34152 -6.48648,3.34152 -1.76904,0 -3.28536,-0.702 -4.01544,-2.13408 -0.22464,-0.5616 -0.33696,-1.09512 -0.33696,-1.6848 0,-3.06072 3.42576,-6.4584 7.35696,-6.65496"
             id="path28"
             inkscape:connector-curvature="0"
             style="fill:#000000;stroke:none;stroke-width:0.30000001;stroke-dasharray:none" />
        </g>
      </g>
      <g
         class="vf-modifiers"
         id="g34" />
    </g>
    <g
       class="vf-stavenote"
       id="vf-auto49898"
       transform="matrix(1.7275141,0,0,1.9738255,-507.87376,-72.334555)">
      <g
         class="vf-note"
         pointer-events="bounding-box"
         id="g41">
        <g
           class="vf-notehead"
           pointer-events="bounding-box"
           id="g39">
          <path
             d="m 757.8534,100 m 7.35696,-5.22288 c 0.11232,0 0.2808,0 0.30888,0 0,0 0.0281,0 0.0281,0 0,0 0.16848,0 0.30888,0 2.5272,0.1404 4.01544,1.79712 4.01544,3.87504 0,1.01088 -0.33696,2.16216 -1.17936,3.25728 -1.60056,2.16216 -4.212,3.34152 -6.48648,3.34152 -1.76904,0 -3.28536,-0.702 -4.01544,-2.13408 -0.22464,-0.5616 -0.33696,-1.09512 -0.33696,-1.6848 0,-3.06072 3.42576,-6.4584 7.35696,-6.65496"
             id="path37"
             inkscape:connector-curvature="0"
             style="fill:#000000;stroke:none;stroke-width:0.30000001;stroke-dasharray:none" />
        </g>
      </g>
      <g
         class="vf-modifiers"
         id="g43" />
    </g>
    <path
       style="color:#000000;font-style:normal;font-variant:normal;font-weight:normal;font-stretch:normal;font-size:medium;line-height:normal;font-family:sans-serif;font-variant-ligatures:normal;font-variant-position:normal;font-variant-caps:normal;font-variant-numeric:normal;font-variant-alternates:normal;font-feature-settings:normal;text-indent:0;text-align:start;text-decoration:none;text-decoration-line:none;text-decoration-style:solid;text-decoration-color:#000000;letter-spacing:normal;word-spacing:normal;text-transform:none;writing-mode:lr-tb;direction:ltr;text-orientation:mixed;dominant-baseline:auto;baseline-shift:baseline;text-anchor:start;white-space:normal;shape-padding:0;clip-rule:nonzero;display:inline;overflow:visible;visibility:visible;opacity:1;isolation:auto;mix-blend-mode:normal;color-interpolation:sRGB;color-interpolation-filters:linearRGB;solid-color:#000000;solid-opacity:1;vector-effect:none;fill:#000000;fill-opacity:1;fill-rule:nonzero;stroke:none;stroke-width:4;stroke-linecap:butt;stroke-linejoin:miter;stroke-miterlimit:4;stroke-dasharray:none;stroke-dashoffset:0;stroke-opacity:1;color-rendering:auto;image-rendering:auto;shape-rendering:auto;text-rendering:auto;enable-background:accumulate"
       d="m 714.03516,125.4668 v 67.60351 h 4 V 125.4668 Z"
       id="path85"
       inkscape:connector-curvature="0" />
    <path
       style="color:#000000;font-style:normal;font-variant:normal;font-weight:normal;font-stretch:normal;font-size:medium;line-height:normal;font-family:sans-serif;font-variant-ligatures:normal;font-variant-position:normal;font-variant-caps:normal;font-variant-numeric:normal;font-variant-alternates:normal;font-feature-settings:normal;text-indent:0;text-align:start;text-decoration:none;text-decoration-line:none;text-decoration-style:solid;text-decoration-color:#000000;letter-spacing:normal;word-spacing:normal;text-transform:none;writing-mode:lr-tb;direction:ltr;text-orientation:mixed;dominant-baseline:auto;baseline-shift:baseline;text-anchor:start;white-space:normal;shape-padding:0;clip-rule:nonzero;display:inline;overflow:visible;visibility:visible;opacity:1;isolation:auto;mix-blend-mode:normal;color-interpolation:sRGB;color-interpolation-filters:linearRGB;solid-color:#000000;solid-opacity:1;vector-effect:none;fill:#000000;fill-opacity:1;fill-rule:nonzero;stroke:none;stroke-width:4;stroke-linecap:butt;stroke-linejoin:miter;stroke-miterlimit:4;stroke-dasharray:none;stroke-dashoffset:0;stroke-opacity:1;color-rendering:auto;image-rendering:auto;shape-rendering:auto;text-rendering:auto;enable-background:accumulate"
       d="m 757.95898,125.60742 v 67.60352 h 4 v -67.60352 z"
       id="path87"
       inkscape:connector-curvature="0" />
    <path
       style="color:#000000;font-style:normal;font-variant:normal;font-weight:normal;font-stretch:normal;font-size:medium;line-height:normal;font-family:sans-serif;font-variant-ligatures:normal;font-variant-position:normal;font-variant-caps:normal;font-variant-numeric:normal;font-variant-alternates:normal;font-feature-settings:normal;text-indent:0;text-align:start;text-decoration:none;text-decoration-line:none;text-decoration-style:solid;text-decoration-color:#000000;letter-spacing:normal;word-spacing:normal;text-transform:none;writing-mode:lr-tb;direction:ltr;text-orientation:mixed;dominant-baseline:auto;baseline-shift:baseline;text-anchor:start;white-space:normal;shape-padding:0;clip-rule:nonzero;display:inline;overflow:visible;visibility:visible;opacity:1;isolation:auto;mix-blend-mode:normal;color-interpolation:sRGB;color-interpolation-filters:linearRGB;solid-color:#000000;solid-opacity:1;vector-effect:none;fill:#000000;fill-opacity:1;fill-rule:nonzero;stroke:none;stroke-width:4;stroke-linecap:butt;stroke-linejoin:miter;stroke-miterlimit:4;stroke-dasharray:none;stroke-dashoffset:0;stroke-opacity:1;color-rendering:auto;image-rendering:auto;shape-rendering:auto;text-rendering:auto;enable-background:accumulate"
       d="m 801.47461,126.38867 v 67.60352 h 4 v -67.60352 z"
       id="path89"
       inkscape:connector-curvature="0" />
    <path
       d="m 713.90124,193.99209 v -9.86914 h 89.57431 v 9.86914 z"
       id="path91"
       inkscape:connector-curvature="0"
       style="fill:#000000;stroke:none;stroke-width:0.55397028;stroke-dasharray:none" />
    <g
       id="g916"
       transform="matrix(1.7275141,0,0,1.9738255,-514.94064,-41.570819)">
      <rect
         id="rect93"
         height="1"
         width="27.302107"
         y="65"
         x="702.00183"
         style="fill:#000000;stroke:#000000;stroke-width:0.30000001;stroke-dasharray:none" />
      <rect
         id="rect95"
         height="1"
         width="27.302107"
         y="65"
         x="747.56952"
         style="fill:#000000;stroke:#000000;stroke-width:0.30000001;stroke-dasharray:none" />
      <rect
         id="rect97"
         height="10"
         width="1"
         y="65"
         x="702.00183"
         style="fill:#000000;stroke:#000000;stroke-width:0.30000001;stroke-dasharray:none" />
      <rect
         id="rect99"
         height="10"
         width="1"
         y="65"
         x="774.87164"
         style="fill:#000000;stroke:#000000;stroke-width:0.30000001;stroke-dasharray:none" />
      <path
         id="path101"
         d="m 734.30394,72.333333 m 3.50784,-13.06368 c 0.0403,0 0.18144,0 0.34272,0 0.26208,0 0.58464,0 0.68544,0 1.85472,0.2016 3.30624,1.2096 3.56832,2.52 0.0403,0.12096 0.0403,0.26208 0.0403,0.4032 0,0.16128 0,0.3024 -0.0403,0.38304 -0.26208,0.94752 -1.37088,1.8144 -2.78208,2.23776 -0.1008,0.04032 -0.14112,0.04032 -0.14112,0.06048 0,0 0,0 0,0 0.0202,0 0.0806,0.02016 0.14112,0.02016 1.9152,0.7056 2.9232,2.05632 2.9232,3.36672 0,1.008 -0.56448,1.97568 -1.83456,2.6208 -0.74592,0.4032 -1.57248,0.58464 -2.37888,0.58464 -1.33056,0 -2.64096,-0.504 -3.56832,-1.4112 -0.34272,-0.32256 -0.46368,-0.72576 -0.46368,-1.12896 0,-0.82656 0.58464,-1.6128 1.55232,-1.6128 v 0 c 0.96768,0 1.512,0.74592 1.512,1.512 0,0.58464 -0.3024,1.16928 -0.98784,1.45152 0,0 0,0 0,0 0,0.02016 0.58464,0.14112 0.88704,0.16128 0.0403,0 0.0806,0 0.12096,0 1.33056,0 2.25792,-0.94752 2.25792,-2.25792 0,-0.14112 0,-0.26208 -0.0202,-0.4032 -0.22176,-1.47168 -1.2096,-2.56032 -2.35872,-2.60064 -0.28224,-0.02016 -0.42336,-0.14112 -0.42336,-0.32256 0,-0.24192 0.12096,-0.34272 0.42336,-0.34272 0.98784,-0.06048 1.83456,-0.72576 2.15712,-1.73376 0.0806,-0.2016 0.1008,-0.4032 0.1008,-0.56448 0,-0.84672 -0.62496,-1.6128 -1.55232,-1.8144 -0.14112,-0.06048 -0.32256,-0.06048 -0.52416,-0.06048 -0.28224,0 -0.54432,0.02016 -0.82656,0.06048 l -0.0806,0.02016 0.0806,0.06048 c 0.52416,0.28224 0.74592,0.78624 0.74592,1.29024 0,0.66528 -0.44352,1.33056 -1.2096,1.512 -0.1008,0.02016 -0.22176,0.02016 -0.32256,0.02016 -0.88704,0 -1.55232,-0.8064 -1.55232,-1.65312 0,-0.36288 0.12096,-0.72576 0.42336,-1.02816 0.7056,-0.76608 1.77408,-1.2096 3.10464,-1.35072 m 0.6048,13.08384 h 0.0202 -0.0605 0.0403 m 0,-13.58784 h 0.0202 -0.0605 0.0403"
         inkscape:connector-curvature="0"
         style="fill:#000000;stroke:none;stroke-width:0.30000001;stroke-dasharray:none" />
    </g>
  </g>
</svg>
