<?xml version="1.0" encoding="UTF-8" standalone="no"?>
<!-- Created with Inkscape (http://www.inkscape.org/) -->

<svg
   xmlns:dc="http://purl.org/dc/elements/1.1/"
   xmlns:cc="http://creativecommons.org/ns#"
   xmlns:rdf="http://www.w3.org/1999/02/22-rdf-syntax-ns#"
   xmlns:svg="http://www.w3.org/2000/svg"
   xmlns="http://www.w3.org/2000/svg"
   xmlns:sodipodi="http://sodipodi.sourceforge.net/DTD/sodipodi-0.dtd"
   xmlns:inkscape="http://www.inkscape.org/namespaces/inkscape"
   width="27.442205"
   height="26.381483"
   viewBox="0 0 7.2607497 6.9801008"
   version="1.1"
   id="svg8"
   inkscape:version="0.92.4 (5da689c313, 2019-01-14)"
   sodipodi:docname="V2.svg">
  <defs
     id="defs2" />
  <sodipodi:namedview
     id="base"
     pagecolor="#ffffff"
     bordercolor="#666666"
     borderopacity="1.0"
     inkscape:pageopacity="0.0"
     inkscape:pageshadow="2"
     inkscape:zoom="9.8420483"
     inkscape:cx="76.885443"
     inkscape:cy="21.130805"
     inkscape:document-units="mm"
     inkscape:current-layer="layer1"
     showgrid="true"
     fit-margin-top="5"
     fit-margin-left="5"
     fit-margin-right="5"
     fit-margin-bottom="5"
     units="px"
     inkscape:window-width="1920"
     inkscape:window-height="1017"
     inkscape:window-x="1912"
     inkscape:window-y="-8"
     inkscape:window-maximized="1">
    <inkscape:grid
       type="xygrid"
       id="grid834" />
  </sodipodi:namedview>
  <metadata
     id="metadata5">
    <rdf:RDF>
      <cc:Work
         rdf:about="">
        <dc:format>image/svg+xml</dc:format>
        <dc:type
           rdf:resource="http://purl.org/dc/dcmitype/StillImage" />
        <dc:title></dc:title>
      </cc:Work>
    </rdf:RDF>
  </metadata>
  <g
     inkscape:label="Layer 1"
     inkscape:groupmode="layer"
     id="layer1"
     transform="translate(-70.153128,-89.116869)">
    <g
       aria-label="V"
       style="font-style:normal;font-variant:normal;font-weight:normal;font-stretch:normal;font-size:6.3499999px;line-height:1.25;font-family:'Times New Roman';-inkscape-font-specification:'Times New Roman, Normal';font-variant-ligatures:normal;font-variant-caps:normal;font-variant-numeric:normal;font-feature-settings:normal;text-align:start;letter-spacing:0px;word-spacing:0px;writing-mode:lr-tb;text-anchor:start;fill:#000000;fill-opacity:1;stroke:none;stroke-width:0.26458332"
       id="text821">
      <path
         d="m 75.928487,90.439786 v 0.114722 q -0.223243,0.04031 -0.337964,0.142626 -0.164331,0.151929 -0.291455,0.465088 l -1.466577,3.578076 h -0.114722 l -1.575098,-3.624584 q -0.120923,-0.279053 -0.170532,-0.341065 -0.07752,-0.09612 -0.192236,-0.148828 -0.111621,-0.05581 -0.303858,-0.07131 v -0.114722 h 1.717725 v 0.114722 q -0.291455,0.02791 -0.378272,0.09922 -0.08682,0.07131 -0.08682,0.182935 0,0.155029 0.142627,0.483691 l 1.069702,2.464966 0.992187,-2.43396 q 0.145728,-0.359668 0.145728,-0.499194 0,-0.08992 -0.08992,-0.170532 -0.08992,-0.08372 -0.303857,-0.117823 -0.0155,-0.0031 -0.05271,-0.0093 v -0.114722 z"
         style="font-style:normal;font-variant:normal;font-weight:normal;font-stretch:normal;font-size:6.3499999px;font-family:'Times New Roman';-inkscape-font-specification:'Times New Roman, Normal';font-variant-ligatures:normal;font-variant-caps:normal;font-variant-numeric:normal;font-feature-settings:normal;text-align:start;writing-mode:lr-tb;text-anchor:start;stroke-width:0.26458332"
         id="path823"
         inkscape:connector-curvature="0" />
    </g>
    <g
       aria-label="2"
       transform="matrix(1.041906,0,0,0.95977949,-0.32259545,-0.05376591)"
       style="font-style:normal;font-weight:normal;font-size:3.29031634px;line-height:1.25;font-family:sans-serif;letter-spacing:0px;word-spacing:0px;fill:#000000;fill-opacity:1;stroke:none;stroke-width:0.0822579"
       id="text829">
      <path
         d="m 73.722979,98.751541 h -1.619453 v -0.335779 q 0.168693,-0.144594 0.337386,-0.289188 0.1703,-0.144594 0.316501,-0.287582 0.308467,-0.298827 0.422535,-0.473946 0.114069,-0.176726 0.114069,-0.380765 0,-0.186365 -0.123708,-0.290794 -0.122102,-0.106036 -0.342206,-0.106036 -0.146201,0 -0.3165,0.05141 -0.1703,0.05141 -0.332566,0.157447 h -0.01607 v -0.337386 q 0.114068,-0.05623 0.303647,-0.102822 0.191185,-0.04659 0.369518,-0.04659 0.367911,0 0.576769,0.178333 0.208858,0.176726 0.208858,0.480373 0,0.136561 -0.03535,0.25545 -0.03374,0.117282 -0.101216,0.223317 -0.06266,0.09961 -0.147807,0.196005 -0.08354,0.0964 -0.204038,0.213678 -0.171906,0.168693 -0.355059,0.327746 -0.183152,0.157447 -0.342205,0.292402 h 1.286886 z"
         style="stroke-width:0.0822579"
         id="path831"
         inkscape:connector-curvature="0" />
    </g>
  </g>
</svg>
