<?xml version="1.0" encoding="UTF-8" standalone="no"?>
<!-- Created with Inkscape (http://www.inkscape.org/) -->

<svg
   xmlns:dc="http://purl.org/dc/elements/1.1/"
   xmlns:cc="http://creativecommons.org/ns#"
   xmlns:rdf="http://www.w3.org/1999/02/22-rdf-syntax-ns#"
   xmlns:svg="http://www.w3.org/2000/svg"
   xmlns="http://www.w3.org/2000/svg"
   xmlns:sodipodi="http://sodipodi.sourceforge.net/DTD/sodipodi-0.dtd"
   xmlns:inkscape="http://www.inkscape.org/namespaces/inkscape"
   width="19.616571"
   height="16.338501"
   viewBox="0 0 5.1902175 4.3228951"
   version="1.1"
   id="svg8"
   inkscape:version="0.92.4 (5da689c313, 2019-01-14)"
   sodipodi:docname="Vo.svg">
  <defs
     id="defs2" />
  <sodipodi:namedview
     id="base"
     pagecolor="#ffffff"
     bordercolor="#666666"
     borderopacity="1.0"
     inkscape:pageopacity="0.0"
     inkscape:pageshadow="2"
     inkscape:zoom="52.172075"
     inkscape:cx="14.748413"
     inkscape:cy="6.0412139"
     inkscape:document-units="mm"
     inkscape:current-layer="layer1"
     showgrid="false"
     fit-margin-top="0"
     fit-margin-left="0"
     fit-margin-right="0"
     fit-margin-bottom="0"
     units="px"
     inkscape:window-width="1920"
     inkscape:window-height="1017"
     inkscape:window-x="1912"
     inkscape:window-y="-8"
     inkscape:window-maximized="1" />
  <metadata
     id="metadata5">
    <rdf:RDF>
      <cc:Work
         rdf:about="">
        <dc:format>image/svg+xml</dc:format>
        <dc:type
           rdf:resource="http://purl.org/dc/dcmitype/StillImage" />
        <dc:title></dc:title>
      </cc:Work>
    </rdf:RDF>
  </metadata>
  <g
     inkscape:label="Layer 1"
     inkscape:groupmode="layer"
     id="layer1"
     transform="translate(-71.476045,-90.439786)">
    <g
       aria-label="V"
       style="font-style:normal;font-variant:normal;font-weight:normal;font-stretch:normal;font-size:6.3499999px;line-height:1.25;font-family:'Times New Roman';-inkscape-font-specification:'Times New Roman, Normal';font-variant-ligatures:normal;font-variant-caps:normal;font-variant-numeric:normal;font-feature-settings:normal;text-align:start;letter-spacing:0px;word-spacing:0px;writing-mode:lr-tb;text-anchor:start;fill:#000000;fill-opacity:1;stroke:none;stroke-width:0.26458332"
       id="text821">
      <path
         d="m 75.928487,90.439786 v 0.114722 q -0.223243,0.04031 -0.337964,0.142626 -0.164331,0.151929 -0.291455,0.465088 l -1.466577,3.578076 h -0.114722 l -1.575098,-3.624584 q -0.120923,-0.279053 -0.170532,-0.341065 -0.07752,-0.09612 -0.192236,-0.148828 -0.111621,-0.05581 -0.303858,-0.07131 v -0.114722 h 1.717725 v 0.114722 q -0.291455,0.02791 -0.378272,0.09922 -0.08682,0.07131 -0.08682,0.182935 0,0.155029 0.142627,0.483691 l 1.069702,2.464966 0.992187,-2.43396 q 0.145728,-0.359668 0.145728,-0.499194 0,-0.08992 -0.08992,-0.170532 -0.08992,-0.08372 -0.303857,-0.117823 -0.0155,-0.0031 -0.05271,-0.0093 v -0.114722 z"
         style="font-style:normal;font-variant:normal;font-weight:normal;font-stretch:normal;font-size:6.3499999px;font-family:'Times New Roman';-inkscape-font-specification:'Times New Roman, Normal';font-variant-ligatures:normal;font-variant-caps:normal;font-variant-numeric:normal;font-feature-settings:normal;text-align:start;writing-mode:lr-tb;text-anchor:start;stroke-width:0.26458332"
         id="path823"
         inkscape:connector-curvature="0" />
    </g>
    <g
       aria-label="o"
       style="font-style:normal;font-variant:normal;font-weight:normal;font-stretch:normal;font-size:4.23333311px;line-height:1.25;font-family:'Times New Roman';-inkscape-font-specification:'Times New Roman, Normal';font-variant-ligatures:normal;font-variant-caps:normal;font-variant-numeric:normal;font-feature-settings:normal;text-align:start;letter-spacing:0px;word-spacing:0px;writing-mode:lr-tb;text-anchor:start;fill:#000000;fill-opacity:1;stroke:none;stroke-width:0.26458332"
       id="text828">
      <path
         d="m 75.754691,92.755569 q 0.429948,0 0.690397,0.326595 0.221175,0.279052 0.221175,0.640787 0,0.254248 -0.121956,0.514698 -0.121957,0.260449 -0.33693,0.39274 -0.212907,0.132292 -0.475424,0.132292 -0.42788,0 -0.680061,-0.341064 -0.212907,-0.287321 -0.212907,-0.644922 0,-0.260449 0.128157,-0.516765 0.130225,-0.258382 0.341065,-0.380338 0.210839,-0.124023 0.446484,-0.124023 z m -0.06408,0.134358 q -0.109554,0 -0.221175,0.06615 -0.109554,0.06408 -0.177767,0.227376 -0.06821,0.163298 -0.06821,0.419613 0,0.413411 0.163298,0.713135 0.165364,0.299723 0.434082,0.299723 0.200504,0 0.330729,-0.165365 0.130225,-0.165364 0.130225,-0.56844 0,-0.504362 -0.217041,-0.79375 -0.146761,-0.198438 -0.374138,-0.198438 z"
         style="font-style:normal;font-variant:normal;font-weight:normal;font-stretch:normal;font-size:4.23333311px;font-family:'Times New Roman';-inkscape-font-specification:'Times New Roman, Normal';font-variant-ligatures:normal;font-variant-caps:normal;font-variant-numeric:normal;font-feature-settings:normal;text-align:start;writing-mode:lr-tb;text-anchor:start;stroke-width:0.26458332"
         id="path830"
         inkscape:connector-curvature="0" />
    </g>
  </g>
</svg>
