<?xml version="1.0" encoding="UTF-8" standalone="no"?>
<svg
   xmlns:dc="http://purl.org/dc/elements/1.1/"
   xmlns:cc="http://creativecommons.org/ns#"
   xmlns:rdf="http://www.w3.org/1999/02/22-rdf-syntax-ns#"
   xmlns:svg="http://www.w3.org/2000/svg"
   xmlns="http://www.w3.org/2000/svg"
   xmlns:sodipodi="http://sodipodi.sourceforge.net/DTD/sodipodi-0.dtd"
   xmlns:inkscape="http://www.inkscape.org/namespaces/inkscape"
   width="42.000011"
   height="42.000011"
   version="1.1"
   id="svg6"
   sodipodi:docname="zoomplus.svg"
   inkscape:version="0.92.4 (5da689c313, 2019-01-14)">
  <metadata
     id="metadata12">
    <rdf:RDF>
      <cc:Work
         rdf:about="">
        <dc:format>image/svg+xml</dc:format>
        <dc:type
           rdf:resource="http://purl.org/dc/dcmitype/StillImage" />
        <dc:title></dc:title>
      </cc:Work>
    </rdf:RDF>
  </metadata>
  <defs
     id="defs10" />
  <sodipodi:namedview
     pagecolor="#ffffff"
     bordercolor="#666666"
     borderopacity="1"
     objecttolerance="10"
     gridtolerance="10"
     guidetolerance="10"
     inkscape:pageopacity="0"
     inkscape:pageshadow="2"
     inkscape:window-width="1920"
     inkscape:window-height="1017"
     id="namedview8"
     showgrid="false"
     inkscape:zoom="4.9166667"
     inkscape:cx="-45.813557"
     inkscape:cy="13.000006"
     inkscape:window-x="-8"
     inkscape:window-y="-8"
     inkscape:window-maximized="1"
     inkscape:current-layer="svg6"
     fit-margin-top="5"
     fit-margin-left="5"
     fit-margin-right="5"
     fit-margin-bottom="5" />
  <g
     transform="matrix(0.02209709,-0.02209709,0.02209709,0.02209709,-1.6274145,21.000006)"
     id="g9">
    <path
       d="M 512,0 C 229.23,0 0,229.23 0,512 c 0,282.77 229.23,512 512,512 282.77,0 512,-229.23 512,-512 C 1024,229.23 794.77,0 512,0 Z m 0,928 C 282.25,928 96,741.75 96,512 96,282.25 282.25,96 512,96 741.75,96 928,282.25 928,512 928,741.75 741.75,928 512,928 Z"
       id="path5"
       inkscape:connector-curvature="0" />
    <path
       d="M 672,256 512,416 352,256 256,352 416,512 256,672 352,768 512,608 672,768 768,672 608,512 768,352 Z"
       id="path7"
       inkscape:connector-curvature="0" />
  </g>
</svg>
