<svg width="84" height="108" >
<g transform="translate(-20 -150) scale(2.0 2.0) scale(1.0 1.0)" >
<path stroke-width="0.3" fill="black" stroke="none" stroke-dasharray="none" d="M15 100M15 100L15 79.7536L17.3328 79.7536L19.7232 79.7536L19.7232 100L19.7232 120.304L17.3328 120.304L15 120.304L15 100M21.48 100L21.48 79.7536L22.0848 79.7536L22.7184 79.7536L22.7184 89.4592L22.7184 99.136L22.891199999999998 98.9632C23.1792 98.7328,23.6976 98.1856,24.0432 97.7248C25.281599999999997 96.0544,26.2896 93.8656,26.894399999999997 91.3024C27.0672 90.6688,27.1248 90.5824,27.4416 90.5824C27.7584 90.5824,27.8736 90.7264,27.9312 91.1872C28.1616 94.384,30.2352 96.688,32.5968 96.688C32.971199999999996 96.688,33.374399999999994 96.6304,33.7488 96.4864C35.304 95.968,35.8512 94.5856,35.9664 90.89920000000001C35.9664 90.1504,35.9952 89.4592,35.9952 88.8256C35.9952 84.6496,35.4768 82.6624,34.324799999999996 81.712C33.691199999999995 81.2224,32.7408 80.9344,31.7328 80.9344C30.695999999999998 80.9344,29.688 81.1936,28.7376 81.6544L28.68 81.712L28.7376 81.74080000000001C29.0544 81.7984,29.256 81.8272,29.4864 81.94239999999999C30.3216 82.37440000000001,30.695999999999998 83.1808,30.695999999999998 83.9872C30.695999999999998 84.9088,30.1488 85.8592,29.1408 86.176C28.852800000000002 86.2912,28.6224 86.3488,28.392 86.3488C27.0096 86.3488,25.9152 85.1392,25.9152 83.7856C25.9152 83.41120000000001,26.0016 83.0656,26.2032 82.6624C26.7792 81.5392,28.7952 80.3872,30.5808 80.0992C30.984 80.0704,31.3584 80.0128,31.761599999999998 80.0128C35.563199999999995 80.0128,39.0192 82.7776,39.912 86.6944C40.0848 87.328,40.142399999999995 88.0192,40.142399999999995 88.71039999999999C40.142399999999995 89.4304,40.0848 90.1792,39.912 90.8704C39.1632 94.4128,36.5424 97.0912,33.4032 97.5808C33.144 97.6096,32.855999999999995 97.6096,32.6256 97.6096C31.6176 97.6096,30.638399999999997 97.2928,29.7168 96.6592C29.6592 96.5728,29.5728 96.544,29.5152 96.544C29.5152 96.544,29.5152 96.544,29.5152 96.544C29.5152 96.544,29.0544 97.3216,28.507199999999997 98.3008L27.4416 100.0288L28.507199999999997 101.7568C29.0544 102.7072,29.5152 103.5136,29.5152 103.5136C29.5152 103.5136,29.5152 103.5136,29.5152 103.5136C29.5728 103.5136,29.6592 103.456,29.7168 103.3696C30.638399999999997 102.736,31.6176 102.4192,32.6256 102.4192C33.144 102.4192,33.6336 102.5056,34.152 102.6208C37.2048 103.5136,39.480000000000004 106.2208,40.0272 109.7344C40.1136 110.25280000000001,40.142399999999995 110.7712,40.142399999999995 111.28960000000001C40.142399999999995 113.5072,39.3936 115.5232,37.9824 117.136C36.3408 119.0656,34.007999999999996 120.01599999999999,31.7328 120.01599999999999C29.8896 120.01599999999999,28.0752 119.3248,26.6928 118.0288C26.2032 117.4816,25.9728 116.848,25.9728 116.2144C25.9728 114.9472,26.894399999999997 113.7376,28.392 113.7376C29.8032 113.7376,30.695999999999998 114.9472,30.695999999999998 116.0992C30.695999999999998 116.90559999999999,30.3216 117.6544,29.4864 118.0864C29.256 118.2016,29.0544 118.25919999999999,28.7376 118.288L28.68 118.3456L28.7376 118.3744C29.688 118.864,30.695999999999998 119.09440000000001,31.7328 119.09440000000001C32.7408 119.09440000000001,33.691199999999995 118.8064,34.324799999999996 118.3456C35.4768 117.3664,35.9952 115.3792,35.9952 111.2608C35.9952 110.5696,35.9664 109.9072,35.9664 109.1296C35.7936 104.9824,35.1024 103.5712,32.9424 103.3696C32.827200000000005 103.3408,32.712 103.3408,32.5968 103.3408C30.206400000000002 103.3408,28.1616 105.7024,27.9312 108.8704C27.8736 109.3024,27.7584 109.4464,27.4416 109.4464C27.1248 109.4464,27.0672 109.3888,26.894399999999997 108.7264C26.2896 106.19200000000001,25.281599999999997 103.9744,24.0432 102.304C23.6976 101.872,23.1792 101.296,22.891199999999998 101.0656L22.7184 100.8928L22.7184 110.5696L22.7184 120.304L22.0848 120.304L21.48 120.304L21.48 100"></path>
<path stroke-width="1" fill="black" stroke="none" stroke-dasharray="none" d="M10 80L55 80 55 81 10 81"></path>
<path stroke-width="1" fill="black" stroke="none" stroke-dasharray="none" d="M10 90L55 90 55 91 10 91"></path>
<path stroke-width="1" fill="black" stroke="none" stroke-dasharray="none" d="M10 100L55 100 55 101 10 101"></path>
<path stroke-width="1" fill="black" stroke="none" stroke-dasharray="none" d="M10 110L55 110 55 111 10 111"></path>
<path stroke-width="1" fill="black" stroke="none" stroke-dasharray="none" d="M10 120L55 120 55 121 10 121"></path>
</g>
</svg>