<?xml version="1.0" encoding="UTF-8" standalone="no"?>
<!-- Created with Inkscape (http://www.inkscape.org/) -->

<svg
   xmlns:dc="http://purl.org/dc/elements/1.1/"
   xmlns:cc="http://creativecommons.org/ns#"
   xmlns:rdf="http://www.w3.org/1999/02/22-rdf-syntax-ns#"
   xmlns:svg="http://www.w3.org/2000/svg"
   xmlns="http://www.w3.org/2000/svg"
   xmlns:sodipodi="http://sodipodi.sourceforge.net/DTD/sodipodi-0.dtd"
   xmlns:inkscape="http://www.inkscape.org/namespaces/inkscape"
   width="71.056496"
   height="54.445351"
   viewBox="0 0 18.800364 14.405333"
   version="1.1"
   id="svg8"
   inkscape:version="0.92.4 (5da689c313, 2019-01-14)"
   sodipodi:docname="chordSymbol.svg">
  <defs
     id="defs2" />
  <sodipodi:namedview
     id="base"
     pagecolor="#ffffff"
     bordercolor="#666666"
     borderopacity="1.0"
     inkscape:pageopacity="0.0"
     inkscape:pageshadow="2"
     inkscape:zoom="9.5578103"
     inkscape:cx="26.914587"
     inkscape:cy="23.835465"
     inkscape:document-units="px"
     inkscape:current-layer="layer1"
     showgrid="true"
     units="px"
     inkscape:window-width="1920"
     inkscape:window-height="1017"
     inkscape:window-x="1912"
     inkscape:window-y="-8"
     inkscape:window-maximized="1"
     fit-margin-left="5"
     fit-margin-top="5"
     fit-margin-bottom="5"
     fit-margin-right="5">
    <inkscape:grid
       type="xygrid"
       id="grid815"
       originx="-12.939778"
       originy="-43.920836" />
  </sodipodi:namedview>
  <metadata
     id="metadata5">
    <rdf:RDF>
      <cc:Work
         rdf:about="">
        <dc:format>image/svg+xml</dc:format>
        <dc:type
           rdf:resource="http://purl.org/dc/dcmitype/StillImage" />
        <dc:title></dc:title>
      </cc:Work>
    </rdf:RDF>
  </metadata>
  <g
     inkscape:label="Layer 1"
     inkscape:groupmode="layer"
     id="layer1"
     transform="translate(-12.939778,-238.67381)">
    <g
       aria-label="F7"
       style="font-style:normal;font-weight:normal;font-size:10.58333302px;line-height:1.25;font-family:sans-serif;letter-spacing:0px;word-spacing:0px;fill:#000000;fill-opacity:1;stroke:none;stroke-width:0.26458332"
       id="text819"
       transform="matrix(0.73220354,0,0,0.96561479,3.8194992,8.4012071)">
      <path
         id="path838"
         style="stroke-width:0.26458332"
         d="m 19.177123,245.2357 h -3.891235 v 2.17041 h 3.343465 v 0.9095 h -3.343465 v 3.7052 h -1.023193 v -7.69462 h 4.914428 z"
         inkscape:connector-curvature="0" />
      <path
         style="stroke-width:0.02645833;stroke-miterlimit:4;stroke-dasharray:none"
         d="m 25.36796,245.47858 -3.482992,6.54223 h -1.105875 l 3.7052,-6.79028 h -4.382161 v -0.90434 h 5.265828 z"
         id="path840"
         inkscape:connector-curvature="0" />
    </g>
    <g
       id="g830"
       transform="matrix(0.88839844,0,0,0.94068692,1.0352987,14.120792)">
      <path
         style="fill:#000000;stroke:none;stroke-width:0.02645833;stroke-miterlimit:4;stroke-dasharray:none"
         inkscape:connector-curvature="0"
         id="path10"
         d="m 26.206937,244.42715 m 0.173988,1.58745 c 0.02398,0 0.06,-0.0159 0.101993,-0.0582 0.113995,-0.0794 0.239987,-0.16404 0.365978,-0.24341 0.755955,-0.47624 1.163933,-1.12708 1.163933,-1.95785 0,-0.10583 0,-0.20637 -0.01799,-0.3122 -0.042,-0.3704 -0.281982,-0.58736 -0.64796,-0.58736 -0.078,0 -0.161991,0.0159 -0.257984,0.0424 -0.119991,0.0264 -0.239986,0.0794 -0.365978,0.127 l -0.006,0.005 v -0.19579 c 0,-0.29103 0.01799,-0.57677 0.03602,-0.8678 0,-0.16933 0.01799,-0.32807 0.01799,-0.4974 0,-0.15874 -0.01799,-0.32807 -0.05999,-0.48682 -0.01799,-0.0529 -0.01799,-0.15345 -0.107994,-0.15345 h -0.006 c -0.09599,0.0106 -0.167991,0.0794 -0.167991,0.1852 -0.006,0.21166 -0.02998,0.4339 -0.02399,0.64556 v 0.23812 c 0,0.44977 -0.02399,0.89955 -0.042,1.34933 -0.02399,0.64557 -0.14999,1.28055 -0.14999,1.92611 0,0.25399 0.01799,0.51857 0.09599,0.77255 0.01799,0.0424 0.03602,0.0688 0.072,0.0688 m 0.233986,-1.03184 c 0.01799,-0.19578 0.02398,-0.40215 0.04799,-0.6191 0.01799,-0.16404 0.02998,-0.33337 0.02998,-0.5027 l 0.02998,-0.0106 c 0.167991,-0.0635 0.329979,-0.13757 0.509971,-0.13757 0.05999,0 0.131988,0.0159 0.197986,0.037 0.14399,0.0424 0.209988,0.10583 0.203987,0.1905 0,0.0423 -0.012,0.0899 -0.04799,0.15345 -0.221988,0.38628 -0.587962,0.64556 -0.971942,0.88897" />
      <g
         id="text828"
         style="font-style:normal;font-weight:normal;font-size:6.47888851px;line-height:1.25;font-family:sans-serif;letter-spacing:0px;word-spacing:0px;fill:#000000;fill-opacity:1;stroke:none;stroke-width:0.16197221"
         transform="matrix(0.93612632,0,0,1.0682319,-2.3279791,0.03910844)"
         aria-label="9">
        <path
           inkscape:connector-curvature="0"
           id="path846"
           style="stroke-width:0.02645833;stroke-miterlimit:4;stroke-dasharray:none"
           d="m 36.169824,227.64153 q 0,0.61689 -0.142358,1.11989 -0.139195,0.503 -0.423912,0.85731 -0.28788,0.36064 -0.721282,0.55678 -0.433402,0.19614 -1.018654,0.19614 -0.164503,0 -0.310024,-0.019 -0.145522,-0.0158 -0.259409,-0.0538 v -0.60423 h 0.03164 q 0.09174,0.0474 0.259409,0.0917 0.167666,0.0411 0.373295,0.0411 0.699138,0 1.094578,-0.41758 0.398603,-0.42075 0.461874,-1.15785 -0.294208,0.17716 -0.553616,0.25308 -0.259409,0.0759 -0.56627,0.0759 -0.291044,0 -0.528308,-0.057 -0.2341,-0.0569 -0.471364,-0.22144 -0.27839,-0.19298 -0.420749,-0.49035 -0.139194,-0.29737 -0.139194,-0.71179 0,-0.72128 0.474528,-1.17367 0.474527,-0.45238 1.157848,-0.45238 0.34166,0 0.632704,0.10756 0.291044,0.1044 0.509326,0.31635 0.2689,0.26257 0.414422,0.677 0.145521,0.41125 0.145521,1.0661 z m -0.639031,-0.13603 q 0,-0.49035 -0.101232,-0.78772 -0.101233,-0.29737 -0.27839,-0.46187 -0.148685,-0.14236 -0.319515,-0.20247 -0.170831,-0.0633 -0.370132,-0.0633 -0.455547,0 -0.721283,0.28472 -0.262572,0.28472 -0.262572,0.80037 0,0.30054 0.08542,0.49035 0.08541,0.18981 0.28788,0.33217 0.142359,0.0981 0.313189,0.13286 0.17083,0.0316 0.379622,0.0316 0.246755,0 0.499836,-0.0664 0.253082,-0.0664 0.474528,-0.19298 0.0032,-0.0664 0.0063,-0.1297 0.0063,-0.0664 0.0063,-0.16767 z" />
      </g>
      <g
         id="text832"
         style="font-style:normal;font-weight:normal;font-size:6.5731864px;line-height:1.25;font-family:sans-serif;letter-spacing:0px;word-spacing:0px;fill:#000000;fill-opacity:1;stroke:none;stroke-width:0.16432966"
         transform="matrix(0.92237045,0,0,1.0841631,-1.753316,-0.00186983)"
         aria-label="(">
        <path
           inkscape:connector-curvature="0"
           d="m 30.460465,227.82144 h -0.73499 q -0.568093,-0.65154 -0.88263,-1.42184 -0.314538,-0.77029 -0.314538,-1.73637 0,-0.96608 0.314538,-1.73637 0.314537,-0.7703 0.88263,-1.42184 h 0.73499 v 0.0321 q -0.259975,0.2343 -0.497483,0.54242 -0.234298,0.30491 -0.4365,0.71252 -0.192574,0.39478 -0.314538,0.8698 -0.118754,0.47501 -0.118754,1.00138 0,0.54883 0.115545,1.00459 0.118754,0.45576 0.317747,0.86658 0.192573,0.39478 0.43971,0.71253 0.247136,0.32095 0.494273,0.54241 z"
           style="stroke-width:0.16432966"
           id="path843" />
      </g>
      <g
         id="text836"
         style="font-style:normal;font-weight:normal;font-size:7.35954905px;line-height:1.25;font-family:sans-serif;letter-spacing:0px;word-spacing:0px;fill:#000000;fill-opacity:1;stroke:none;stroke-width:0.18398872"
         transform="scale(1.0285575,0.97223536)"
         aria-label=")">
        <path
           inkscape:connector-curvature="0"
           id="path849"
           d="m 32.15466,250.51122 q 0,1.08165 -0.301466,1.9441 -0.301467,0.86245 -0.845953,1.59194 h -0.704448 v -0.0359 q 0.236867,-0.24795 0.473734,-0.60731 0.239943,-0.35576 0.421438,-0.79776 0.190724,-0.45997 0.301466,-0.97025 0.11382,-0.51028 0.11382,-1.12478 0,-0.58934 -0.11382,-1.12118 -0.113818,-0.53184 -0.301466,-0.97385 -0.1938,-0.45637 -0.421438,-0.79776 -0.224562,-0.34498 -0.473734,-0.60731 v -0.0359 h 0.704448 q 0.544486,0.72949 0.845953,1.59193 0.301466,0.86245 0.301466,1.9441 z"
           style="stroke-width:0.02447984;stroke-miterlimit:4;stroke-dasharray:none" />
      </g>
    </g>
  </g>
</svg>
