<?xml version="1.0" encoding="UTF-8" standalone="no"?>
<!-- Created with Inkscape (http://www.inkscape.org/) -->

<svg
   xmlns:dc="http://purl.org/dc/elements/1.1/"
   xmlns:cc="http://creativecommons.org/ns#"
   xmlns:rdf="http://www.w3.org/1999/02/22-rdf-syntax-ns#"
   xmlns:svg="http://www.w3.org/2000/svg"
   xmlns="http://www.w3.org/2000/svg"
   xmlns:sodipodi="http://sodipodi.sourceforge.net/DTD/sodipodi-0.dtd"
   xmlns:inkscape="http://www.inkscape.org/namespaces/inkscape"
   width="54.913189"
   height="38"
   viewBox="0 0 14.529115 10.054166"
   version="1.1"
   id="svg8"
   inkscape:version="0.92.4 (5da689c313, 2019-01-14)"
   sodipodi:docname="ending.svg">
  <defs
     id="defs2" />
  <sodipodi:namedview
     id="base"
     pagecolor="#ffffff"
     bordercolor="#666666"
     borderopacity="1.0"
     inkscape:pageopacity="0.0"
     inkscape:pageshadow="2"
     inkscape:zoom="9.9937758"
     inkscape:cx="11.3973"
     inkscape:cy="19"
     inkscape:document-units="mm"
     inkscape:current-layer="g827"
     showgrid="true"
     inkscape:window-width="1920"
     inkscape:window-height="1017"
     inkscape:window-x="-8"
     inkscape:window-y="-8"
     inkscape:window-maximized="1"
     fit-margin-top="4"
     fit-margin-left="0"
     fit-margin-right="5"
     fit-margin-bottom="4"
     units="px">
    <inkscape:grid
       type="xygrid"
       id="grid817"
       originx="-8.7312503"
       originy="-71.702061" />
  </sodipodi:namedview>
  <metadata
     id="metadata5">
    <rdf:RDF>
      <cc:Work
         rdf:about="">
        <dc:format>image/svg+xml</dc:format>
        <dc:type
           rdf:resource="http://purl.org/dc/dcmitype/StillImage" />
        <dc:title></dc:title>
      </cc:Work>
    </rdf:RDF>
  </metadata>
  <g
     inkscape:label="Layer 1"
     inkscape:groupmode="layer"
     id="layer1"
     transform="translate(-8.731252,-215.24376)">
    <g
       id="g827"
       transform="translate(-80.01362,79.872327)">
      <path
         style="color:#000000;font-style:normal;font-variant:normal;font-weight:normal;font-stretch:normal;font-size:medium;line-height:normal;font-family:sans-serif;font-variant-ligatures:normal;font-variant-position:normal;font-variant-caps:normal;font-variant-numeric:normal;font-variant-alternates:normal;font-feature-settings:normal;text-indent:0;text-align:start;text-decoration:none;text-decoration-line:none;text-decoration-style:solid;text-decoration-color:#000000;letter-spacing:normal;word-spacing:normal;text-transform:none;writing-mode:lr-tb;direction:ltr;text-orientation:mixed;dominant-baseline:auto;baseline-shift:baseline;text-anchor:start;white-space:normal;shape-padding:0;clip-rule:nonzero;display:inline;overflow:visible;visibility:visible;opacity:1;isolation:auto;mix-blend-mode:normal;color-interpolation:sRGB;color-interpolation-filters:linearRGB;solid-color:#000000;solid-opacity:1;vector-effect:none;fill:#000000;fill-opacity:1;fill-rule:nonzero;stroke:none;stroke-width:0.34706017px;stroke-linecap:butt;stroke-linejoin:miter;stroke-miterlimit:4;stroke-dasharray:none;stroke-dashoffset:0;stroke-opacity:1;color-rendering:auto;image-rendering:auto;shape-rendering:auto;text-rendering:auto;enable-background:accumulate"
         d="m 88.744872,136.42977 v 0.58585 h 13.120358 v -0.58585 z"
         id="path821"
         inkscape:connector-curvature="0" />
      <path
         style="color:#000000;font-style:normal;font-variant:normal;font-weight:normal;font-stretch:normal;font-size:medium;line-height:normal;font-family:sans-serif;font-variant-ligatures:normal;font-variant-position:normal;font-variant-caps:normal;font-variant-numeric:normal;font-variant-alternates:normal;font-feature-settings:normal;text-indent:0;text-align:start;text-decoration:none;text-decoration-line:none;text-decoration-style:solid;text-decoration-color:#000000;letter-spacing:normal;word-spacing:normal;text-transform:none;writing-mode:lr-tb;direction:ltr;text-orientation:mixed;dominant-baseline:auto;baseline-shift:baseline;text-anchor:start;white-space:normal;shape-padding:0;clip-rule:nonzero;display:inline;overflow:visible;visibility:visible;opacity:1;isolation:auto;mix-blend-mode:normal;color-interpolation:sRGB;color-interpolation-filters:linearRGB;solid-color:#000000;solid-opacity:1;vector-effect:none;fill:#000000;fill-opacity:1;fill-rule:nonzero;stroke:none;stroke-width:0.42915976px;stroke-linecap:butt;stroke-linejoin:miter;stroke-miterlimit:4;stroke-dasharray:none;stroke-dashoffset:0;stroke-opacity:1;color-rendering:auto;image-rendering:auto;shape-rendering:auto;text-rendering:auto;enable-background:accumulate"
         d="m 101.18029,136.42977 v 7.14372 h 0.77078 v -7.14372 z"
         id="path823"
         inkscape:connector-curvature="0" />
      <path
         d="m 90.320825,140.88383 m 0.602641,-3.06114 0.01435,-0.005 h 0.330017 0.325235 l 0.01435,0.0144 c 0.01435,0.005 0.01913,0.0145 0.02392,0.0192 l 0.01435,0.0192 v 1.11489 c 0,0.79292 0,1.12451 0.0096,1.14853 0.0096,0.15858 0.07652,0.24028 0.23914,0.32678 0.0574,0.0337 0.0717,0.0433 0.0717,0.0913 0,0.0337 -0.005,0.048 -0.0335,0.0673 l -0.0191,0.005 h -0.650466 -0.650469 l -0.01435,-0.005 c -0.02392,-0.0192 -0.03826,-0.0336 -0.03826,-0.0673 0,-0.048 0.01435,-0.0576 0.07174,-0.0913 0.03348,-0.0145 0.04305,-0.0241 0.07174,-0.0433 0.110006,-0.0769 0.153051,-0.15378 0.176966,-0.28352 0,-0.0241 0,-0.31717 0,-0.90826 v -0.87941 l -0.08131,0.12014 -0.296538,0.46614 c -0.06696,0.10572 -0.07174,0.11052 -0.114788,0.11052 -0.04305,0 -0.07174,-0.0337 -0.07174,-0.0721 0,-0.0241 0.0096,-0.0529 0.02392,-0.0817 0.0048,-0.005 0.0287,-0.0529 0.05739,-0.10572 l 0.26784,-0.49017 0.13392,-0.27391 c 0.09087,-0.1682 0.09087,-0.1682 0.100441,-0.17301 0.0048,-0.01 0.01913,-0.0144 0.02392,-0.024 m 0.215229,3.06594 h 0.0048 -0.0096 0.0048 m 0,-3.23894 h 0.0048 -0.0096 0.0048"
         id="path8"
         inkscape:connector-curvature="0"
         style="fill:#000000;stroke:none;stroke-width:0.05256796;stroke-dasharray:none" />
      <path
         d="m 95.184501,140.85424 m 0.811209,-3.15633 c 0.01649,0 0.04527,0 0.07824,0 0.06589,0 0.152362,0 0.172947,0.01 0.308845,0.0439 0.555911,0.22895 0.662973,0.4871 0.03702,0.0877 0.05354,0.1802 0.05354,0.27762 0,0.23869 -0.111186,0.51146 -0.312959,0.71602 -0.140005,0.14125 -0.280011,0.22893 -0.498253,0.31175 -0.284128,0.10717 -0.527081,0.29712 -0.683557,0.52605 0,0 0,0.004 0,0.004 0,0 0,0 0,0 0,0 0.01239,-0.004 0.0206,-0.0195 0.156479,-0.15101 0.366488,-0.23868 0.555904,-0.23868 0.156476,0 0.267658,0.0342 0.415903,0.13152 0.09059,0.0536 0.17295,0.0779 0.251184,0.0779 0.03296,0 0.06586,0 0.102948,-0.01 0.05354,-0.0146 0.111177,-0.0633 0.131775,-0.10236 0.01231,-0.0342 0.03296,-0.0487 0.05767,-0.0487 0.03296,0 0.06586,0.0292 0.06586,0.073 0,0.0342 -0.03702,0.15586 -0.06998,0.23866 -0.131776,0.31174 -0.362376,0.50659 -0.584741,0.50659 -0.01649,0 -0.02883,0 -0.04527,-0.004 -0.05765,0 -0.08235,-0.0195 -0.156477,-0.0779 -0.156471,-0.12179 -0.354129,-0.1851 -0.527075,-0.1851 -0.07412,0 -0.140009,0.01 -0.201775,0.0391 -0.08236,0.0341 -0.160596,0.0926 -0.185302,0.13636 -0.01239,0.0342 -0.03294,0.0439 -0.05765,0.0439 -0.0206,0 -0.04117,-0.01 -0.05354,-0.0391 l -0.0082,-0.0146 v -0.0681 c 0,-0.0585 0.0041,-0.0779 0.0041,-0.0974 0.0041,-0.0146 0.0082,-0.0439 0.0082,-0.0681 0.07412,-0.40914 0.325306,-0.77446 0.667083,-0.95469 0.280012,-0.15586 0.465316,-0.4335 0.498259,-0.78422 0.0082,-0.0292 0.0082,-0.0535 0.0082,-0.0828 0,-0.31175 -0.197658,-0.52604 -0.477668,-0.52604 -0.0206,0 -0.04533,0 -0.06589,0 -0.04117,0.004 -0.05354,0.004 -0.05354,0.0146 0,0 0,0.004 0.01239,0.0146 0.09471,0.0633 0.140008,0.18508 0.140008,0.30199 0,0.151 -0.06588,0.29225 -0.193542,0.35071 -0.04116,0.0146 -0.08235,0.0195 -0.115298,0.0195 -0.172944,0 -0.31707,-0.17535 -0.31707,-0.38479 0,-0.0391 0,-0.0778 0.0082,-0.12179 0.06177,-0.22405 0.354134,-0.40916 0.691795,-0.45298 m 0.127649,3.16119 h 0.0082 -0.01239 0.0041 m 0,-3.28296 h 0.0082 -0.01239 0.0041"
         id="path9"
         inkscape:connector-curvature="0"
         style="fill:#000000;stroke:none;stroke-width:0.04910683;stroke-dasharray:none" />
    </g>
  </g>
</svg>
