<?xml version="1.0" encoding="UTF-8" standalone="no"?>
<svg
   xmlns:dc="http://purl.org/dc/elements/1.1/"
   xmlns:cc="http://creativecommons.org/ns#"
   xmlns:rdf="http://www.w3.org/1999/02/22-rdf-syntax-ns#"
   xmlns:svg="http://www.w3.org/2000/svg"
   xmlns="http://www.w3.org/2000/svg"
   xmlns:sodipodi="http://sodipodi.sourceforge.net/DTD/sodipodi-0.dtd"
   xmlns:inkscape="http://www.inkscape.org/namespaces/inkscape"
   width="1024"
   height="1024"
   version="1.1"
   id="svg6"
   sodipodi:docname="flag.svg"
   inkscape:version="0.92.4 (5da689c313, 2019-01-14)">
  <metadata
     id="metadata12">
    <rdf:RDF>
      <cc:Work
         rdf:about="">
        <dc:format>image/svg+xml</dc:format>
        <dc:type
           rdf:resource="http://purl.org/dc/dcmitype/StillImage" />
        <dc:title />
      </cc:Work>
    </rdf:RDF>
  </metadata>
  <defs
     id="defs10" />
  <sodipodi:namedview
     pagecolor="#ffffff"
     bordercolor="#666666"
     borderopacity="1"
     objecttolerance="10"
     gridtolerance="10"
     guidetolerance="10"
     inkscape:pageopacity="0"
     inkscape:pageshadow="2"
     inkscape:window-width="1920"
     inkscape:window-height="1017"
     id="namedview8"
     showgrid="true"
     inkscape:zoom="0.35810811"
     inkscape:cx="-678.95404"
     inkscape:cy="646.9113"
     inkscape:window-x="1912"
     inkscape:window-y="-8"
     inkscape:window-maximized="1"
     inkscape:current-layer="svg6">
    <inkscape:grid
       type="xygrid"
       id="grid828" />
  </sodipodi:namedview>
  <g
     id="g840"
     transform="matrix(1.5185095,0,0,0.97151535,-258.29941,37.76301)">
    <path
       style="fill:#000000;stroke:none;stroke-width:0.12145996;stroke-miterlimit:4;stroke-dasharray:none"
       d="M 305.61523 51.638672 L 305.61523 64 L 305.61523 1001.5273 L 379.58594 1001.5273 L 379.58594 278.08203 C 463.82344 301.3251 530.04137 333.9856 569.2832 358.51367 C 647.73788 407.17506 685.69922 471.58045 685.69922 538.84766 C 685.69922 614.70218 637.61556 694.1347 541.44531 759.9707 C 528.79224 767.8424 527.52539 769.27437 527.52539 775.71484 C 527.52539 784.30215 537.64921 790.74219 552.83398 790.74219 C 565.48795 790.74219 566.7534 790.74186 585.73438 776.42969 C 695.82399 701.29078 750.23438 610.40971 750.23438 523.10547 C 750.23438 430.79195 688.22994 341.33914 565.48633 276.21875 C 483.57925 232.56068 418.49093 178.20832 379.58594 123.76953 L 379.58594 51.638672 L 305.61523 51.638672 z M 352.45703 76.361328 L 354.86328 76.361328 L 354.86328 81.806641 C 354.02584 79.988378 353.2287 78.173119 352.45703 76.361328 z M 330.33789 266.10742 C 338.65806 267.85879 346.82526 269.72777 354.86328 271.67969 L 354.86328 976.80469 L 330.33789 976.80469 L 330.33789 266.10742 z "
       transform="matrix(0.6585405,0,0,1.0293198,170.10062,-38.870214)"
       id="path5" />
    <path
       style="color:#000000;font-style:normal;font-variant:normal;font-weight:normal;font-stretch:normal;font-size:medium;line-height:normal;font-family:sans-serif;font-variant-ligatures:normal;font-variant-position:normal;font-variant-caps:normal;font-variant-numeric:normal;font-variant-alternates:normal;font-feature-settings:normal;text-indent:0;text-align:start;text-decoration:none;text-decoration-line:none;text-decoration-style:solid;text-decoration-color:#000000;letter-spacing:normal;word-spacing:normal;text-transform:none;writing-mode:lr-tb;direction:ltr;text-orientation:mixed;dominant-baseline:auto;baseline-shift:baseline;text-anchor:start;white-space:normal;shape-padding:0;clip-rule:nonzero;display:inline;overflow:visible;visibility:visible;opacity:1;isolation:auto;mix-blend-mode:normal;color-interpolation:sRGB;color-interpolation-filters:linearRGB;solid-color:#000000;solid-opacity:1;vector-effect:none;fill:#000000;fill-opacity:1;fill-rule:nonzero;stroke:none;stroke-width:41.20581436;stroke-linecap:butt;stroke-linejoin:miter;stroke-miterlimit:4;stroke-dasharray:none;stroke-dashoffset:0;stroke-opacity:1;color-rendering:auto;image-rendering:auto;shape-rendering:auto;text-rendering:auto;enable-background:accumulate"
       d="M 378.72828,83.980428 V 973.98048 h 44.51473 V 83.980428 Z"
       id="path9"
       inkscape:connector-curvature="0" />
  </g>
</svg>
