<?xml version="1.0" encoding="UTF-8" standalone="no"?>
<svg
   xmlns:dc="http://purl.org/dc/elements/1.1/"
   xmlns:cc="http://creativecommons.org/ns#"
   xmlns:rdf="http://www.w3.org/1999/02/22-rdf-syntax-ns#"
   xmlns:svg="http://www.w3.org/2000/svg"
   xmlns="http://www.w3.org/2000/svg"
   xmlns:sodipodi="http://sodipodi.sourceforge.net/DTD/sodipodi-0.dtd"
   xmlns:inkscape="http://www.inkscape.org/namespaces/inkscape"
   width="25.5952"
   height="33.611679"
   version="1.1"
   id="svg6"
   sodipodi:docname="flat125ar.svg"
   inkscape:version="0.92.4 (5da689c313, 2019-01-14)">
  <metadata
     id="metadata12">
    <rdf:RDF>
      <cc:Work
         rdf:about="">
        <dc:format>image/svg+xml</dc:format>
        <dc:type
           rdf:resource="http://purl.org/dc/dcmitype/StillImage" />
        <dc:title></dc:title>
      </cc:Work>
    </rdf:RDF>
  </metadata>
  <defs
     id="defs10" />
  <sodipodi:namedview
     pagecolor="#ffffff"
     bordercolor="#666666"
     borderopacity="1"
     objecttolerance="10"
     gridtolerance="10"
     guidetolerance="10"
     inkscape:pageopacity="0"
     inkscape:pageshadow="2"
     inkscape:window-width="1920"
     inkscape:window-height="1017"
     id="namedview8"
     showgrid="false"
     inkscape:zoom="35.914429"
     inkscape:cx="12.7976"
     inkscape:cy="16.80584"
     inkscape:window-x="1912"
     inkscape:window-y="-8"
     inkscape:window-maximized="1"
     inkscape:current-layer="svg6"
     fit-margin-top="5"
     fit-margin-left="5"
     fit-margin-right="5"
     fit-margin-bottom="5"
     viewbox-width="9" />
  <g
     id="g7"
     transform="translate(-54.42544,-1117.6538)">
    <path
       d="m 60,1140 m 7.74288,-17.3189 c 0.08208,-0.027 0.16416,-0.027 0.21888,-0.027 0.24624,0 0.46512,0.1368 0.5472,0.3556 0.05472,0.082 0.05472,0.1095 0.05472,3.1738 0,1.6963 0,3.0643 0,3.0643 0,0 0.8208,-0.383 1.7784,-0.8755 l 1.7784,-0.9029 h 0.1368 c 0.02736,0 0.02736,0 0.02736,0 0.35568,0 0.60192,0.2736 0.60192,0.5746 0,0.082 -0.02736,0.1368 -0.05472,0.2189 -0.08208,0.2188 0,0.1641 -2.24352,1.2859 l -2.02464,1.0397 v 2.6539 2.6539 l 0.05472,-0.055 c 1.03968,-0.8755 2.16144,-1.3407 3.22848,-1.3407 0.4104,0 0.84816,0.082 1.25856,0.2189 1.2312,0.4378 1.9152,1.5869 1.9152,2.9275 0,0.7388 -0.21888,1.5596 -0.62928,2.3256 -0.60192,1.0944 -1.39536,1.97 -3.58416,3.9399 -1.20384,1.067 -1.47744,1.3133 -2.16144,1.9425 -0.38304,0.3831 -0.43776,0.4104 -0.65664,0.4104 -0.24624,0 -0.46512,-0.1368 -0.5472,-0.3556 -0.02736,-0.1095 -0.02736,-0.1095 -0.02736,-7.4146 0,-4.0493 -0.02736,-7.3325 -0.02736,-7.3325 0,0 -0.79344,0.4104 -1.7784,0.8755 l -1.7784,0.9029 h -0.1368 c 0,0 -0.02736,0 -0.02736,0 -0.35568,0 -0.60192,-0.2462 -0.60192,-0.5745 0,-0.055 0.02736,-0.1368 0.05472,-0.2189 0.08208,-0.2189 0,-0.1642 2.24352,-1.2859 l 2.052,-1.0124 v -3.3926 c 0,-3.3379 0,-3.3653 0.02736,-3.4474 0.05472,-0.1368 0.19152,-0.2736 0.30096,-0.3283 m 3.31056,13.68 c -0.10944,-0.027 -0.24624,-0.027 -0.35568,-0.027 -0.08208,0 -0.1368,0 -0.19152,0 -0.71136,0.1094 -1.34064,0.5472 -1.80576,1.2585 l -0.1368,0.1915 v 3.2285 3.2559 l 0.08208,-0.1095 c 2.052,-2.2161 3.36528,-4.7606 3.36528,-6.4296 v -0.027 c 0,-0.8482 -0.24624,-1.2039 -0.9576,-1.3407 m -11.27232,-13.68 v 0 c 0.05472,-0.027 0.1368,-0.027 0.21888,-0.027 0.21888,0 0.46512,0.1368 0.5472,0.3556 0.02736,0.082 0.02736,0.1095 0.02736,6.4844 v 6.4022 l 0.08208,-0.055 c 1.03968,-0.8755 2.13408,-1.3407 3.20112,-1.3407 0.43776,0 0.84816,0.082 1.25856,0.2189 1.2312,0.4378 1.9152,1.5869 1.9152,2.9275 0,0.7388 -0.19152,1.5596 -0.62928,2.3256 -0.60192,1.0944 -1.39536,1.97 -3.58416,3.9399 -1.17648,1.067 -1.47744,1.3133 -2.16144,1.9425 -0.38304,0.3831 -0.43776,0.4104 -0.65664,0.4104 -0.24624,0 -0.46512,-0.1368 -0.5472,-0.3556 l -0.02736,-0.1095 v -11.3544 -11.3544 l 0.02736,-0.082 c 0.05472,-0.1368 0.19152,-0.2736 0.32832,-0.3283 m 3.31056,13.68 v 0 c -0.10944,-0.027 -0.2736,-0.027 -0.38304,-0.027 -0.05472,0 -0.1368,0 -0.16416,0 -0.73872,0.1094 -1.368,0.5472 -1.83312,1.2585 l -0.1368,0.1915 v 3.2285 3.2559 l 0.10944,-0.1095 c 2.02464,-2.2161 3.36528,-4.7606 3.36528,-6.4296 v -0.027 c 0,-0.8482 -0.2736,-1.2039 -0.9576,-1.3407"
       id="path5"
       inkscape:connector-curvature="0"
       style="fill:#000000;stroke:none;stroke-width:0.30000001;stroke-dasharray:none" />
  </g>
</svg>
