<?xml version="1.0" encoding="UTF-8" standalone="no"?>
<svg
   xmlns:dc="http://purl.org/dc/elements/1.1/"
   xmlns:cc="http://creativecommons.org/ns#"
   xmlns:rdf="http://www.w3.org/1999/02/22-rdf-syntax-ns#"
   xmlns:svg="http://www.w3.org/2000/svg"
   xmlns="http://www.w3.org/2000/svg"
   xmlns:sodipodi="http://sodipodi.sourceforge.net/DTD/sodipodi-0.dtd"
   xmlns:inkscape="http://www.inkscape.org/namespaces/inkscape"
   width="21.977558"
   height="18.440639"
   version="1.1"
   id="svg6"
   sodipodi:docname="glyph8va.svg"
   inkscape:version="0.92.4 (5da689c313, 2019-01-14)">
  <metadata
     id="metadata12">
    <rdf:RDF>
      <cc:Work
         rdf:about="">
        <dc:format>image/svg+xml</dc:format>
        <dc:type
           rdf:resource="http://purl.org/dc/dcmitype/StillImage" />
        <dc:title></dc:title>
      </cc:Work>
    </rdf:RDF>
  </metadata>
  <defs
     id="defs10" />
  <sodipodi:namedview
     pagecolor="#ffffff"
     bordercolor="#666666"
     borderopacity="1"
     objecttolerance="10"
     gridtolerance="10"
     guidetolerance="10"
     inkscape:pageopacity="0"
     inkscape:pageshadow="2"
     inkscape:window-width="1920"
     inkscape:window-height="1017"
     id="namedview8"
     showgrid="false"
     inkscape:zoom="6.879142"
     inkscape:cx="62.703761"
     inkscape:cy="-27.089674"
     inkscape:window-x="1912"
     inkscape:window-y="-8"
     inkscape:window-maximized="1"
     inkscape:current-layer="svg6"
     fit-margin-top="0"
     fit-margin-left="0"
     fit-margin-right="0"
     fit-margin-bottom="0"
     viewbox-width="9" />
  <g
     id="g4"
     transform="translate(-180,-101.58662)">
    <path
       d="m 180,120 m 5.93712,-17.72928 c 0.21888,0 0.49248,-0.0274 0.76608,-0.0274 2.68128,0 5.0616,1.47744 5.69088,3.63888 0.0547,0.35568 0.1368,0.684 0.1368,1.03968 0,1.03968 -0.46512,2.1888 -1.25856,2.95488 0,0.0274 -0.0274,0.0274 -0.0274,0.0274 0,0.0547 0.0274,0.0547 0.10944,0.10944 1.28592,0.93024 1.99728,2.29824 1.99728,3.66624 0,0.62928 -0.1368,1.2312 -0.43776,1.80576 -1.03968,2.16144 -3.66624,3.33792 -6.26544,3.33792 -1.7784,0 -3.58416,-0.51984 -4.9248,-1.66896 C 180.5472,116.1696 180,114.91104 180,113.62512 c 0,-1.368 0.65664,-2.68128 1.99728,-3.61152 l 0.10944,-0.10944 -0.1368,-0.1368 c -0.8208,-0.87552 -1.17648,-1.83312 -1.17648,-2.79072 0,-2.21616 2.02464,-4.35024 5.14368,-4.70592 m 1.12176,1.17648 c -0.1368,0 -0.30096,-0.0274 -0.43776,-0.0274 -1.20384,0 -2.3256,0.71136 -2.3256,1.47744 0,0.10944 0.0547,0.21888 0.0821,0.30096 0.43776,1.03968 2.24352,2.43504 4.35024,3.50208 l 0.49248,0.2736 0.0274,-0.0821 c 0.38304,-0.60192 0.57456,-1.25856 0.57456,-1.9152 0,-1.66896 -1.12176,-3.25584 -2.76336,-3.52944 m -3.2832,7.63344 c -0.10944,-0.0547 -0.21888,-0.10944 -0.21888,-0.10944 0,0 0,0 0,0 -0.0821,0 -0.49248,0.46512 -0.62928,0.684 -0.43776,0.65664 -0.62928,1.34064 -0.62928,2.02464 0,2.052 1.83312,3.9672 4.35024,3.9672 0.0547,0 0.0821,-0.0274 0.16416,-0.0274 1.47744,-0.0274 2.68128,-0.90288 2.68128,-1.88784 0,-0.16416 -0.0547,-0.30096 -0.0821,-0.43776 -0.51984,-1.5048 -2.38032,-2.98224 -5.14368,-4.02192 -0.1368,-0.0821 -0.32832,-0.1368 -0.49248,-0.19152 m 2.8728,8.94672 h 0.0547 -0.0821 0.0274 m 0,-18.44064 h 0.0547 -0.0821 0.0274"
       id="path5"
       inkscape:connector-curvature="0"
       style="fill:#000000;stroke:none;stroke-width:0.30000001;stroke-dasharray:none" />
  </g>
  <g
     aria-label="va"
     transform="scale(0.95111552,1.051397)"
     style="font-style:normal;font-variant:normal;font-weight:normal;font-stretch:normal;font-size:12.98213291px;line-height:1.25;font-family:Gabriola;-inkscape-font-specification:'Gabriola, Normal';font-variant-ligatures:normal;font-variant-caps:normal;font-variant-numeric:normal;font-feature-settings:normal;text-align:start;letter-spacing:0px;word-spacing:0px;writing-mode:lr-tb;text-anchor:start;fill:#000000;fill-opacity:1;stroke:none;stroke-width:0.32455298"
     id="text816">
    <path
       d="m 15.668402,15.54078 q -0.0412,-0.304269 -0.09825,-0.637063 -0.05705,-0.335963 -0.12361,-0.675096 -0.06339,-0.342302 -0.136287,-0.675096 -0.06973,-0.332794 -0.142626,-0.633893 -0.06973,-0.3011 -0.136287,-0.554657 -0.06656,-0.253557 -0.123609,-0.437386 -0.06022,-0.186999 -0.114101,-0.304269 -0.05388,-0.12044 -0.1141,-0.186999 -0.05705,-0.06973 -0.126779,-0.09508 -0.06973,-0.02535 -0.158473,-0.02535 -0.101423,0 -0.218693,0.02219 -0.114101,0.02219 -0.275744,0.06022 l -0.04754,-0.228202 q 0.190168,-0.06973 0.370828,-0.126778 0.183829,-0.06022 0.339132,-0.101423 0.155304,-0.0412 0.275744,-0.06339 0.12044,-0.02219 0.190168,-0.02219 0.08558,0 0.155304,0.0317 0.0729,0.02853 0.139456,0.101423 0.06656,0.0729 0.126779,0.199676 0.06022,0.123609 0.12044,0.313777 0.0412,0.126779 0.09508,0.329625 0.05705,0.199676 0.11727,0.456403 0.06022,0.256727 0.123609,0.557826 0.06656,0.29793 0.126779,0.618046 0.06022,0.320116 0.110931,0.65291 0.05388,0.329624 0.09191,0.64974 0.158474,-0.231371 0.316947,-0.478589 0.161643,-0.247218 0.307438,-0.500776 0.148965,-0.253557 0.275744,-0.510284 0.126778,-0.259896 0.221862,-0.513453 0.09508,-0.253558 0.148965,-0.497606 0.05388,-0.244049 0.05388,-0.472251 0,-0.285252 -0.101423,-0.53564 -0.09825,-0.250387 -0.339132,-0.440555 l 0.03486,-0.07607 q 0.05705,-0.0063 0.110931,-0.0095 0.05388,-0.0032 0.104592,-0.0032 0.424709,0 0.640232,0.199676 0.215524,0.199676 0.215524,0.554656 0,0.269405 -0.114101,0.614877 -0.1141,0.342302 -0.301099,0.719469 -0.186998,0.377166 -0.424708,0.77018 -0.23771,0.389844 -0.484929,0.754333 -0.247218,0.364488 -0.481758,0.684604 -0.234541,0.316947 -0.415201,0.548318 z"
       style="font-style:normal;font-variant:normal;font-weight:normal;font-stretch:normal;font-size:12.98213291px;font-family:Gabriola;-inkscape-font-specification:'Gabriola, Normal';font-variant-ligatures:normal;font-variant-caps:normal;font-variant-numeric:normal;font-feature-settings:normal;text-align:start;writing-mode:lr-tb;text-anchor:start;stroke-width:0.32455298"
       id="path1374" />
    <path
       d="m 21.25934,12.171638 q 0,-0.250388 -0.08241,-0.434217 -0.08241,-0.183829 -0.215523,-0.3011 -0.133118,-0.11727 -0.3011,-0.17432 -0.167981,-0.05705 -0.335963,-0.05705 -0.225032,0 -0.380336,0.04754 -0.155304,0.04754 -0.253557,0.129949 -0.09508,0.08241 -0.139457,0.196506 -0.0412,0.110932 -0.0412,0.24088 0,0.152134 0.05388,0.307438 0.05705,0.152134 0.164812,0.29793 l -0.01268,0.03486 q -0.180659,0.08875 -0.364488,0.08875 -0.107762,0 -0.202846,-0.0317 -0.09192,-0.03486 -0.161643,-0.09825 -0.06656,-0.06339 -0.107762,-0.155304 -0.03803,-0.09191 -0.03803,-0.206015 0,-0.186999 0.08874,-0.351811 0.09191,-0.164812 0.240879,-0.301099 0.148965,-0.136287 0.345472,-0.244049 0.196507,-0.107762 0.405692,-0.18066 0.209184,-0.07607 0.418369,-0.1141 0.212354,-0.0412 0.393014,-0.0412 0.332794,0 0.567334,0.08875 0.23771,0.08874 0.383506,0.259896 0.148965,0.167981 0.215523,0.408861 0.06973,0.240879 0.06973,0.545148 0,0.209185 -0.01902,0.459573 -0.01585,0.250387 -0.03803,0.526131 -0.02219,0.272574 -0.0412,0.564165 -0.01585,0.291591 -0.01585,0.580012 0,0.456403 0.167982,0.687774 0.171151,0.228202 0.446894,0.228202 0.244049,0 0.545149,-0.18066 l 0.09191,0.136287 q -0.212354,0.212355 -0.462742,0.323286 -0.250388,0.110931 -0.526131,0.110931 -0.206016,0 -0.380336,-0.06973 -0.174321,-0.06973 -0.3011,-0.206015 -0.126778,-0.139457 -0.196506,-0.348642 -0.06973,-0.209184 -0.06973,-0.484928 0,-0.08241 0.0032,-0.164812 0.0063,-0.08241 0.02219,-0.174321 h -0.01902 q -0.136287,0.272574 -0.316946,0.538809 -0.17749,0.263066 -0.393014,0.472251 -0.212354,0.206015 -0.456403,0.332794 -0.24088,0.129948 -0.507115,0.129948 -0.218693,0 -0.399353,-0.07607 -0.180659,-0.07607 -0.310607,-0.209185 -0.126779,-0.133118 -0.199677,-0.313777 -0.06973,-0.183829 -0.06973,-0.399353 0,-0.278913 0.101423,-0.507114 0.104592,-0.228202 0.285252,-0.408862 0.183829,-0.180659 0.437386,-0.310607 0.253558,-0.133118 0.551487,-0.218693 0.29793,-0.08875 0.630724,-0.129948 0.332794,-0.04437 0.678266,-0.04437 0.02219,-0.199676 0.03486,-0.386675 0.01585,-0.186998 0.01585,-0.41203 z m -1.946052,2.177423 q 0,0.123609 0.02536,0.23771 0.02853,0.110931 0.08558,0.196507 0.06022,0.08558 0.148964,0.136287 0.09192,0.04754 0.218694,0.04754 0.142626,0 0.29476,-0.06656 0.152134,-0.06656 0.29793,-0.183829 0.148965,-0.11727 0.282082,-0.278913 0.136287,-0.164812 0.244049,-0.35815 0.107762,-0.193337 0.17749,-0.405692 0.0729,-0.215523 0.09508,-0.440555 -0.23454,0.0063 -0.465911,0.03169 -0.231371,0.02219 -0.440556,0.0729 -0.206015,0.05071 -0.383506,0.133118 -0.17749,0.08241 -0.307438,0.206015 -0.126778,0.12044 -0.199676,0.288421 -0.0729,0.164813 -0.0729,0.383506 z"
       style="font-style:normal;font-variant:normal;font-weight:normal;font-stretch:normal;font-size:12.98213291px;font-family:Gabriola;-inkscape-font-specification:'Gabriola, Normal';font-variant-ligatures:normal;font-variant-caps:normal;font-variant-numeric:normal;font-feature-settings:normal;text-align:start;writing-mode:lr-tb;text-anchor:start;stroke-width:0.32455298"
       id="path1376" />
  </g>
</svg>
