<?xml version="1.0" encoding="UTF-8" standalone="no"?>
<!-- Created with Inkscape (http://www.inkscape.org/) -->

<svg
   xmlns:dc="http://purl.org/dc/elements/1.1/"
   xmlns:cc="http://creativecommons.org/ns#"
   xmlns:rdf="http://www.w3.org/1999/02/22-rdf-syntax-ns#"
   xmlns:svg="http://www.w3.org/2000/svg"
   xmlns="http://www.w3.org/2000/svg"
   xmlns:sodipodi="http://sodipodi.sourceforge.net/DTD/sodipodi-0.dtd"
   xmlns:inkscape="http://www.inkscape.org/namespaces/inkscape"
   width="500mm"
   height="500mm"
   viewBox="0 0 500 500"
   version="1.1"
   id="svg1390"
   inkscape:version="0.92.4 (5da689c313, 2019-01-14)"
   sodipodi:docname="logo_ink.svg"
   inkscape:export-filename="C:\Users\anewman\Documents\GitHub\cloned\src\styles\images\logo_ink.png"
   inkscape:export-xdpi="96"
   inkscape:export-ydpi="96">
  <defs
     id="defs1384" />
  <sodipodi:namedview
     id="base"
     pagecolor="#ffffff"
     bordercolor="#666666"
     borderopacity="1.0"
     inkscape:pageopacity="0.0"
     inkscape:pageshadow="2"
     inkscape:zoom="1"
     inkscape:cx="516.1283"
     inkscape:cy="1479.467"
     inkscape:document-units="mm"
     inkscape:current-layer="layer1"
     showgrid="false"
     inkscape:window-width="1920"
     inkscape:window-height="1017"
     inkscape:window-x="1912"
     inkscape:window-y="-8"
     inkscape:window-maximized="1" />
  <metadata
     id="metadata1387">
    <rdf:RDF>
      <cc:Work
         rdf:about="">
        <dc:format>image/svg+xml</dc:format>
        <dc:type
           rdf:resource="http://purl.org/dc/dcmitype/StillImage" />
        <dc:title />
      </cc:Work>
    </rdf:RDF>
  </metadata>
  <g
     inkscape:label="Layer 1"
     inkscape:groupmode="layer"
     id="layer1"
     transform="translate(0,203)">
    <path
       style="fill:none;stroke:#000000;stroke-width:5;stroke-linecap:butt;stroke-linejoin:miter;stroke-miterlimit:4;stroke-dasharray:none;stroke-opacity:1"
       d="m 68.527083,-119.98333 c 6.085416,-15.08125 15.610416,-21.16667 21.695833,-25.92917 6.085416,-4.7625 21.151714,-14.01403 30.162504,-11.64166 9.88311,2.60204 25.39999,11.90625 28.31041,18.25624 2.64583,6.08542 14.81666,9.52501 23.01875,7.67292 6.87917,-0.52916 23.28334,-13.75833 26.19375,-15.34583 2.91042,-1.5875 26.9875,-17.4625 30.95625,-18.78542 3.96875,-1.32291 15.08125,0.52917 16.13958,2.64584 1.05834,2.11666 0.79375,10.31875 0.79375,10.31875 0,0 -2.40838,0.25412 -4.23333,5.02708 -3.43958,8.99583 -7.77842,8.15794 -12.7,14.81667 -4.73101,6.40089 -32.01458,31.22083 -32.01458,31.22083 0,0 -12.7,8.731248 -16.40417,14.552081 -3.70416,5.820834 -19.05,33.072917 -19.31458,36.777083 -0.26459,3.704167 -6.35,38.89375 -6.35,42.333333 0,3.4395833 -59.266668,-10.31875 -59.266668,-10.31875 L 45.772916,-6.7416664 c 0,0 3.066918,-21.6171536 3.704166,-26.1937496 2.910417,-20.902083 6.614584,-37.835417 6.614584,-40.745833 0,-2.910417 8.73125,-37.835421 9.260417,-39.158331 0.529166,-1.32292 3.175,-7.14375 3.175,-7.14375 z"
       id="path1940"
       inkscape:connector-curvature="0"
       sodipodi:nodetypes="cssccccccsscccsccsscc" />
    <path
       style="fill:#000000;fill-opacity:1;fill-rule:nonzero;stroke-width:1.31204724;stroke-miterlimit:4;stroke-dasharray:none"
       id="path1942"
       d="m 133.15225,-133.7698 c -1.41162,-9.3e-4 -2.83837,0.0815 -4.21468,0.37478 -1.17001,0.17069 -2.29655,0.43091 -3.38537,0.84757 -0.75874,0.22199 -1.529,0.40369 -2.26278,0.69459 -0.13954,0.0685 -0.27757,0.13936 -0.4186,0.20524 -2.4986,1.16698 5.55622,-2.99547 3.21432,-1.66628 -0.14121,0.0801 -0.27803,0.16669 -0.42219,0.24244 -1.59482,0.83792 -3.19626,1.66557 -4.7944,2.49836 7.52194,-4.12458 3.59132,-1.90637 1.96523,-0.79496 -0.64719,0.42165 -1.29906,0.83275 -1.93201,1.27163 -0.56054,0.31115 -0.98812,0.70487 -1.35292,1.19324 -0.38276,0.44793 -0.68613,0.92462 -0.86273,1.46694 -0.0865,0.56234 -0.23184,1.11295 -0.35706,1.66884 -0.13489,0.76996 -0.14431,1.55183 -0.15513,2.3295 -0.005,0.71282 -6.9e-4,1.42566 0.001,2.13848 0.0231,0.63423 0.29367,1.22486 0.46507,1.8329 0.25037,0.54448 0.37303,1.12192 0.60131,1.67247 0.25384,0.67654 0.59521,1.32389 0.99984,1.93794 0,0 -4.4367,2.30828 -4.4367,2.30828 v 0 c -0.40554,-0.63982 -0.77215,-1.3021 -1.03658,-1.99957 -0.25824,-0.56401 -0.38047,-1.16014 -0.63849,-1.72527 -0.16844,-0.64637 -0.45964,-1.26389 -0.5209,-1.93083 3.5e-4,-0.71702 0.001,-1.43405 0.0105,-2.15103 0.0118,-0.79473 0.0104,-1.592 0.10269,-2.38325 0.0819,-0.57518 0.30791,-1.11748 0.3387,-1.69958 0.13238,-0.60054 0.36811,-1.136 0.77637,-1.63065 0.41039,-0.4664 0.66326,-1.0508 1.30598,-1.31439 0.6333,-0.4519 1.26894,-0.88798 1.94323,-1.2891 2.18295,-1.41207 4.11798,-2.86548 6.75053,-3.79122 -1.31011,0.68534 -2.61686,1.37587 -3.93031,2.05598 -0.27141,0.14054 0.5174,-0.31839 0.78783,-0.46045 1.84576,-0.96971 3.64527,-2.054 5.6102,-2.82952 0.75191,-0.24725 1.52328,-0.44056 2.27038,-0.699 1.0998,-0.37101 2.25725,-0.54294 3.4035,-0.75798 1.42443,-0.228 2.87394,-0.30233 4.31922,-0.32809 0,0 -4.14517,2.71199 -4.14517,2.71199 z"
       inkscape:connector-curvature="0" />
    <ellipse
       style="fill:#000000;fill-opacity:1;fill-rule:nonzero;stroke-width:1.32291663;stroke-miterlimit:4;stroke-dasharray:none"
       id="path1952"
       cx="238.65416"
       cy="-164.8302"
       rx="5.5562501"
       ry="4.8947916" />
    <path
       style="fill:none;stroke:#000000;stroke-width:9;stroke-linecap:butt;stroke-linejoin:miter;stroke-miterlimit:4;stroke-dasharray:none;stroke-opacity:1"
       d="m 68.59717,-91.588554 c 11.675229,25.028544 3.603712,10.222845 8.523674,18.413961 4.322956,7.197176 15.071367,23.356106 17.95167,25.832462 2.880303,2.476356 15.389506,15.144254 20.574056,14.593953 5.18455,-0.550301 17.04735,-7.556276 17.62341,-16.911399 0.57607,-9.355122 -9.68246,-25.472772 -11.69867,-30.425485 -2.01622,-4.952712 -11.80925,-20.361148 -14.40152,-26.414468 -2.59227,-6.05332 -5.47258,-13.48238 -5.47258,-15.95873 0,-2.47636 -0.28803,-2.47636 -0.28803,-2.47636"
       id="path1954"
       inkscape:connector-curvature="0"
       sodipodi:nodetypes="csssccssc" />
    <path
       style="fill:none;stroke:#000000;stroke-width:0.26458332px;stroke-linecap:butt;stroke-linejoin:miter;stroke-opacity:1"
       d="m 233.89166,-140.35625 -8.99583,0.26459 c 0,0 -9.81724,2.27841 -8.99583,9.26041 1.05833,8.99584 1.05833,8.99584 1.05833,8.99584 l 8.20208,-7.40834 z"
       id="path1956"
       inkscape:connector-curvature="0"
       sodipodi:nodetypes="ccsccc" />
    <path
       style="fill:#000000;fill-opacity:1;stroke:none;stroke-width:0.26458332"
       d="m 217.02126,-123.58617 c -0.5358,-3.54839 -0.96722,-8.40646 -0.81086,-9.13089 0.51417,-2.38228 2.32223,-4.31752 5.50206,-5.88908 1.82321,-0.90108 2.34472,-1.02997 5.00749,-1.2376 1.63478,-0.12747 3.76591,-0.19772 4.73584,-0.15611 l 2.43587,-0.3564 -2.96718,6.28306 c 0,0 -3.40019,4.38265 -4.40935,5.16345 -7.90637,6.11732 -8.70308,7.37409 -8.94236,7.37409 -0.0754,0 -0.46911,-1.50481 -0.55151,-2.05052 z"
       id="path1958"
       inkscape:connector-curvature="0"
       sodipodi:nodetypes="cssssccssc" />
  </g>
</svg>
