<?xml version="1.0" encoding="UTF-8" standalone="no"?>
<svg
   xmlns:dc="http://purl.org/dc/elements/1.1/"
   xmlns:cc="http://creativecommons.org/ns#"
   xmlns:rdf="http://www.w3.org/1999/02/22-rdf-syntax-ns#"
   xmlns:svg="http://www.w3.org/2000/svg"
   xmlns="http://www.w3.org/2000/svg"
   xmlns:sodipodi="http://sodipodi.sourceforge.net/DTD/sodipodi-0.dtd"
   xmlns:inkscape="http://www.inkscape.org/namespaces/inkscape"
   width="580"
   height="400"
   version="1.1"
   id="svg17"
   sodipodi:docname="logo.svg"
   inkscape:version="0.92.4 (5da689c313, 2019-01-14)"
   inkscape:export-filename="C:\Users\anewman\Downloads\logo.png"
   inkscape:export-xdpi="96"
   inkscape:export-ydpi="96">
  <metadata
     id="metadata23">
    <rdf:RDF>
      <cc:Work
         rdf:about="">
        <dc:format>image/svg+xml</dc:format>
        <dc:type
           rdf:resource="http://purl.org/dc/dcmitype/StillImage" />
      </cc:Work>
    </rdf:RDF>
  </metadata>
  <defs
     id="defs21" />
  <sodipodi:namedview
     pagecolor="#ffffff"
     bordercolor="#666666"
     borderopacity="1"
     objecttolerance="10"
     gridtolerance="10"
     guidetolerance="10"
     inkscape:pageopacity="0"
     inkscape:pageshadow="2"
     inkscape:window-width="1920"
     inkscape:window-height="1017"
     id="namedview19"
     showgrid="false"
     inkscape:zoom="1.384954"
     inkscape:cx="290"
     inkscape:cy="200"
     inkscape:window-x="-8"
     inkscape:window-y="-8"
     inkscape:window-maximized="1"
     inkscape:current-layer="svg17" />
  <!-- Created with Method Draw - http://github.com/duopixel/Method-Draw/ -->
  <g
     id="g5">
    <title
       id="title2">background</title>
    <rect
       fill="#fff"
       id="canvas_background"
       height="402"
       width="582"
       y="-1"
       x="-1" />
  </g>
  <g
     id="g15">
    <title
       id="title7">Layer 1</title>
    <path
       id="svg_3"
       d="m61.5,258.4375c-2,-46 7,-117 68,-151c61,-34 113,-54 140,-42c27,12 51,72 66,73c15,1 139,-71 151,-56c12,15 2,53 0,59c-2,6 -123,99 -126,103c-3,4 -80,125 -80.5,124.5625c0.5,0.4375 -79.5,-30.5625 -80,-31c0.5,0.4375 -97.5,29.4375 -98,29c0.5,0.4375 -38.5,-62.5625 -40.5,-108.5625z"
       fill-opacity="null"
       stroke-opacity="null"
       stroke-width="4.5"
       stroke="#000"
       fill="#fff"
       style="stroke-width:6;stroke-miterlimit:4;stroke-dasharray:none" />
    <path
       id="svg_4"
       d="m 462.94896,155.98667 c -22.11231,-1.34436 -48.12679,18.821 -48.77715,18.23284 0.65036,0.58816 -0.65036,23.44222 -1.30072,22.85406 0.65036,0.58816 72.19019,-39.74254 50.07787,-41.0869 z"
       stroke-opacity="null"
       inkscape:connector-curvature="0"
       style="fill:#000000;stroke:#000000;stroke-width:1.98354077" />
    <ellipse
       ry="12.056028"
       rx="13.944211"
       id="svg_5"
       cy="83.825684"
       cx="474.22363"
       stroke-opacity="null"
       style="fill:#000000;stroke:#000000;stroke-width:2.16430807" />
    <path
       id="svg_6"
       d="m 284.85031,117.4066 c -23.40977,2.80067 -42.74827,29.87378 -42.74827,29.87378"
       fill-opacity="null"
       stroke-opacity="null"
       style="opacity:1;fill:#000000;stroke:#000000;stroke-width:1.46216369"
       inkscape:connector-curvature="0" />
    <path
       id="svg_8"
       d="m-65.5,36.4375"
       opacity="0.5"
       fill-opacity="null"
       stroke-opacity="null"
       stroke-width="1.5"
       stroke="#000"
       fill="#fff" />
    <path
       id="svg_9"
       d="m89.5,194.4375c12,28 114,109 116,109c2,0 24,14 45,-1c21,-15 28,-32 24,-44c-4,-12 -81,-142 -81,-142"
       opacity="0.5"
       fill-opacity="null"
       stroke-opacity="null"
       stroke-width="7.5"
       stroke="#000"
       fill="#fff"
       style="opacity:1" />
  </g>
</svg>
