<svg width="580" height="400" xmlns="http://www.w3.org/2000/svg"><title>background</title><path fill="#fff" d="M-1-1h582v402H-1z"/><g><title>Layer 1</title><path fill="#fff" stroke="#000" stroke-width="9" stroke-opacity="null" fill-opacity="null" d="M63.5 258.438c-2-46 7-117 68-151s113-54 140-42 51 72 66 73 139-71 151-56 2 53 0 59-123 99-126 103-80 125-80.5 124.562c.5.438-79.5-30.563-80-31 .5.438-97.5 29.438-98 29 .5.438-38.5-62.563-40.5-108.563z"/><path fill="#000" stroke="#000" stroke-width="1.5" stroke-opacity="null" d="M465.5 159.438c-17-1-37 14-37.5 13.562.5.438-.5 17.438-1 17 .5.438 55.5-29.563 38.5-30.563z"/><ellipse fill="#000" stroke="#000" stroke-width="1.5" stroke-opacity="null" cx="480" cy="80.938" rx="8.5" ry="9.5"/><path fill="#000" stroke="#000" stroke-width="5" stroke-opacity="null" fill-opacity="null" opacity=".5" d="M280.5 118.438c-23 3-42 32-42 32"/><path fill="#fff" stroke="#000" stroke-width="10" stroke-opacity="null" fill-opacity="null" opacity=".5" d="M90.5 195.438c12 28 114 109 116 109s24 14 45-1 28-32 24-44-81-142-81-142"/></g></svg>