<svg width="94" height="58" >
<g transform="translate(-1000 -280) scale(2.0 2.0) scale(1.0 1.0)" >
<path stroke-width="0.3" fill="black" stroke="none" stroke-dasharray="none" d="M506 160M511.00688 149.71264C511.0616 149.71264,511.11632 149.71264,511.17104 149.71264C511.38992 149.71264,511.69088 149.71264,511.80032 149.76736C512.40224 149.90416,512.92208 150.2872,513.2504 150.77968C513.33248 150.94384,513.46928 151.2448,513.49664 151.32688C513.49664 151.32688,513.49664 151.35424,513.49664 151.35424C513.55136 151.35424,513.55136 151.27215999999999,513.6608 151.16272C513.87968 150.77968,514.18064 150.47872,514.50896 150.20512C514.6184 150.1504,514.70048 150.0136,514.72784 149.98624C514.91936 149.79472,515.3024 149.71264,515.74016 149.71264C515.95904 149.71264,516.23264 149.76736,516.45152 149.84944C516.944 149.98624,517.40912 150.36928,517.71008 150.77968C517.79216 150.94384,517.92896 151.2448,517.92896 151.32688C517.92896 151.32688,517.92896 151.35424,517.98368 151.35424C517.98368 151.35424,518.01104 151.27215999999999,518.09312 151.16272C518.3393599999999 150.77968,518.64032 150.47872,518.996 150.20512C519.05072 150.1504,519.16016 150.0136,519.21488 149.98624C519.35168 149.79472,519.76208 149.71264,520.17248 149.71264C520.44608 149.71264,520.66496 149.71264,520.88384 149.79472C521.84144 150.1504,522.52544 151.08064,522.52544 152.2024C522.52544 152.53072,522.44336 152.94112,522.33392 153.18736C522.30656 153.24208,520.88384 158.0848,520.85648 158.27632C520.85648 158.33104,520.80176 158.4952,520.80176 158.52256C520.7744 158.60464,520.7744 158.71408,520.7744 158.79616C520.7744 159.09712,520.9112 159.37072,521.10272 159.37072C521.10272 159.37072,521.10272 159.37072,521.10272 159.37072C522.03296 159.20656,523.15472 158.03008,523.70192 156.55264C523.81136 156.27904,523.86608 156.22432,524.00288 156.22432C524.0576 156.22432,524.0576 156.22432,524.0576 156.22432C524.22176 156.25168,524.30384 156.27904,524.30384 156.47056C524.30384 156.66208,524.1944 157.01776,523.89344 157.59232C523.26416 158.82352,522.47072 159.75376,521.37632 160.32832L521.02064 160.51984C520.7744 160.65664,520.5008 160.73872,520.25456 160.73872C519.4064 160.73872,518.53088 160.10944,518.22992 159.1792C518.1752 158.96032,518.12048 158.68672,518.12048 158.41312C518.12048 158.03008,518.20256 157.70176,518.312 157.45552C518.39408 157.34608,519.78944 152.55808,519.78944 152.39392C519.84416 152.25712,519.84416 152.14768,519.87152 152.12032C519.87152 152.01088,519.92624 151.9288,519.92624 151.84672C519.92624 151.51839999999999,519.73472 151.2448,519.43376 151.08064C519.4064 151.05328,519.35168 151.05328,519.32432 151.05328C519.24224 151.05328,519.21488 151.08064,519.10544 151.13536C518.64032 151.35424,518.12048 152.12032,518.06576 152.6128C518.06576 152.7496,517.92896 153.05056,517.9016 153.18736C517.87424 153.21472,517.46384 154.6648,516.88928 156.52528C516.36944 158.33104,515.90432 159.8632,515.90432 159.89056C515.82224 160.02736,515.90432 160.02736,514.97408 160.02736C514.83728 160.02736,514.72784 160.02736,514.59104 160.02736C514.4816 160.02736,514.37216 160.02736,514.26272 160.02736C513.27776 160.02736,513.35984 160.02736,513.27776 159.89056C513.2504 159.8632,513.2504 159.8632,513.2504 159.83584C513.2504 159.64432,513.44192 159.06976,514.29008 156.06016C514.892 154.09024,515.38448 152.44864,515.38448 152.39392C515.38448 152.31184,515.41184 152.2024,515.41184 152.12032C515.4392 152.03824,515.4392 151.9288,515.4392 151.84672C515.4392 151.51839999999999,515.3024 151.2448,515.0288 151.08064C514.97408 151.05328,514.892 151.05328,514.83728 151.05328C514.80992 151.05328,514.78256 151.08064,514.67312 151.13536C514.208 151.35424,513.68816 152.12032,513.63344 152.6128C513.63344 152.7496,513.49664 153.05056,513.46928 153.18736C513.44192 153.21472,512.9768 154.6648,512.45696 156.52528C511.90976 158.33104,511.472 159.8632,511.472 159.89056C511.38992 160.02736,511.41728 160.02736,510.48704 160.02736C510.40496 160.02736,510.26816 160.02736,510.13136 160.02736C510.02192 160.02736,509.88512 160.02736,509.8304 160.02736C508.84544 160.02736,508.90016 160.02736,508.81808 159.89056C508.81808 159.8632,508.81808 159.8632,508.81808 159.83584C508.81808 159.64432,508.95488 159.06976,509.85776 156.06016C510.40496 154.09024,510.89744 152.44864,510.95216 152.39392C510.95216 152.31184,510.95216 152.2024,510.97952 152.12032C510.97952 152.03824,511.00688 151.9288,511.00688 151.84672C511.00688 151.51839999999999,510.87008 151.2448,510.59648 151.13536C510.54176 151.08064,510.45968 151.05328,510.3776 151.05328C510.26816 151.05328,510.13136 151.13536,509.85776 151.2448C509.06432 151.6552,508.3256 152.55808,507.88784 153.7072C507.7784 154.06288,507.69632 154.1176,507.55952 154.1176C507.55952 154.1176,507.5048 154.1176,507.5048 154.1176C507.34064 154.1176,507.25856 154.06288,507.25856 153.87136C507.25856 153.67984,507.368 153.37888,507.61424 152.8864C508.21616 151.62784,509.06432 150.67024,510.13136 150.06832C510.2408 150.0136,510.3776 149.95888,510.40496 149.90416C510.54176 149.84944,510.76064 149.76736,511.00688 149.71264"></path>
<path stroke-width="0.3" fill="black" stroke="none" stroke-dasharray="none" d="M523 160M535.5856 144.29536C535.61296 144.29536,535.64032 144.29536,535.69504 144.29536C535.8592 144.29536,536.16016 144.29536,536.35168 144.29536C536.43376 144.29536,536.62528 144.29536,536.68 144.32272C537.85648 144.4048,539.08768 145.28032,539.25184 146.23792C539.30656 146.37472,539.33392 146.48416,539.33392 146.64832C539.33392 147.71536,538.43104 148.59088,537.44608 148.59088C537.19984 148.59088,536.9536 148.53616,536.73472 148.42672C536.05072 148.12576,535.7224 147.46912,535.7224 146.83984C535.7224 146.34736,535.91392 145.88224,536.35168 145.55392C536.4064 145.4992,536.4064 145.4992,536.4064 145.4992C536.4064 145.4992,536.4064 145.4992,536.4064 145.4992C536.35168 145.4992,535.996 145.69072,535.80448 145.85488C534.46384 146.7304,533.31472 148.5088,532.54864 150.6976C532.52128 150.86176,532.49392 150.9712,532.49392 150.9712C532.49392 151.02592,532.93168 151.02592,533.47888 151.02592C534.57328 151.02592,534.60064 151.02592,534.71008 151.08064C534.98368 151.2448,535.09312 151.46368,535.09312 151.73728C535.09312 151.95616,534.98368 152.2024,534.7648 152.31184C534.60064 152.42128,534.65536 152.44864,533.5336 152.44864L533.31472 152.44864L532.08352 152.44864L532.0288 152.64016C531.29008 156.55264,529.84 160.24624,527.87008 163.20112C526.52944 165.30784,524.88784 166.48432,523.02736 166.81264C522.83584 166.86736,522.64432 166.86736,522.4528 166.86736C521.2216 166.86736,520.264 166.21072,519.88096 165.11632C519.79888 164.84271999999999,519.77152 164.54176,519.77152 164.26816C519.77152 163.17376,520.51024 162.29824,521.60464 162.29824C521.74144 162.29824,521.93296 162.35296,522.15184 162.38032C523 162.5992,523.43776 163.39264,523.43776 164.15872C523.43776 164.73328,523.21888 165.30784,522.67168 165.6088C522.61696 165.63616,522.56224 165.69088,522.56224 165.69088C522.56224 165.69088,522.61696 165.69088,522.61696 165.69088C522.61696 165.69088,522.67168 165.69088,522.75376 165.63616C523.62928 165.38992,524.47744 164.54176,525.02464 163.39264C525.68128 162.16144,526.42 159.39808,527.70592 153.87136C527.87008 153.10528,528.00688 152.50336,528.0616 152.44864C528.0616 152.44864,528.0616 152.44864,528.0616 152.44864C528.0616 152.44864,527.95216 152.44864,526.85776 152.44864C525.62656 152.44864,525.62656 152.44864,525.48976 152.3392C525.27088 152.2024,525.10672 151.95616,525.10672 151.73728C525.10672 151.46368,525.27088 151.2448,525.48976 151.08064C525.5992 151.02592,525.62656 151.02592,527.04928 151.02592L528.41728 150.9712L528.52672 150.67024C529.81264 147.05872,532.60336 144.51424,535.5856 144.29536"></path>
</g>
</svg>
