<?xml version="1.0" encoding="UTF-8" standalone="no"?>
<svg
   xmlns:dc="http://purl.org/dc/elements/1.1/"
   xmlns:cc="http://creativecommons.org/ns#"
   xmlns:rdf="http://www.w3.org/1999/02/22-rdf-syntax-ns#"
   xmlns:svg="http://www.w3.org/2000/svg"
   xmlns="http://www.w3.org/2000/svg"
   xmlns:sodipodi="http://sodipodi.sourceforge.net/DTD/sodipodi-0.dtd"
   xmlns:inkscape="http://www.inkscape.org/namespaces/inkscape"
   width="31.970079"
   height="19.576"
   version="1.1"
   id="svg6"
   sodipodi:docname="mordent.svg"
   inkscape:version="0.92.4 (5da689c313, 2019-01-14)">
  <metadata
     id="metadata12">
    <rdf:RDF>
      <cc:Work
         rdf:about="">
        <dc:format>image/svg+xml</dc:format>
        <dc:type
           rdf:resource="http://purl.org/dc/dcmitype/StillImage" />
        <dc:title></dc:title>
      </cc:Work>
    </rdf:RDF>
  </metadata>
  <defs
     id="defs10" />
  <sodipodi:namedview
     pagecolor="#ffffff"
     bordercolor="#666666"
     borderopacity="1"
     objecttolerance="10"
     gridtolerance="10"
     guidetolerance="10"
     inkscape:pageopacity="0"
     inkscape:pageshadow="2"
     inkscape:window-width="1920"
     inkscape:window-height="1017"
     id="namedview8"
     showgrid="false"
     inkscape:zoom="64.405774"
     inkscape:cx="15.98504"
     inkscape:cy="9.788"
     inkscape:window-x="1912"
     inkscape:window-y="-8"
     inkscape:window-maximized="1"
     inkscape:current-layer="svg6"
     fit-margin-top="5"
     fit-margin-left="5"
     fit-margin-right="5"
     fit-margin-bottom="5" />
  <g
     id="vf-auto2745"
     transform="translate(-302.14407,-28.624001)">
    <path
       d="m 318.14279,38.384641 m -5.99184,-4.73328 c 0.0547,-0.02736 0.10944,-0.02736 0.16416,-0.02736 0.10944,0 0.21888,0.02736 0.30096,0.02736 0.0547,0.02736 0.62928,0.60192 2.40768,2.38032 1.31328,1.34064 2.35296,2.35296 2.35296,2.35296 0,0 0.8208,-1.01232 1.86048,-2.29824 1.94256,-2.43504 1.9152,-2.40768 2.10672,-2.4624 0.0274,0 0.0547,0 0.1368,0 0.0821,0 0.19152,0.02736 0.2736,0.02736 0.0547,0.02736 1.06704,1.06704 4.45968,4.43232 l 0.32832,0.32832 0.79344,-0.9576 c 0.8208,-1.03968 0.87552,-1.0944 1.03968,-1.14912 0.0274,-0.02736 0.10944,-0.02736 0.19152,-0.02736 0.30096,0 0.5472,0.24624 0.5472,0.57456 0,0.05472 0,0.1368 -0.0274,0.21888 -0.0821,0.19152 -4.6512,5.85504 -4.84272,6.0192 -0.0821,0.05472 -0.21888,0.10944 -0.35568,0.10944 -0.10944,0 -0.16416,0 -0.24624,-0.05472 -0.0821,-0.02736 -0.62928,-0.60192 -2.43504,-2.38032 -1.28592,-1.34064 -2.3256,-2.38032 -2.3256,-2.38032 0,0 -0.84816,1.03968 -1.88784,2.35296 -1.9152,2.40768 -1.88784,2.38032 -2.07936,2.40768 -0.0274,0.05472 -0.0821,0.05472 -0.1368,0.05472 -0.0821,0 -0.19152,-0.05472 -0.2736,-0.05472 -0.0821,-0.02736 -1.06704,-1.01232 -4.45968,-4.43232 l -0.32832,-0.32832 -0.79344,0.93024 c -0.8208,1.06704 -0.90288,1.14912 -1.03968,1.17648 -0.0547,0.05472 -0.10944,0.05472 -0.19152,0.05472 -0.30096,0 -0.5472,-0.2736 -0.5472,-0.57456 0,-0.08208 0,-0.16416 0.0274,-0.24624 0.0821,-0.16416 4.73328,-5.90976 4.84272,-6.04656 0.0274,0 0.10944,-0.02736 0.1368,-0.02736"
       id="path5"
       inkscape:connector-curvature="0"
       style="fill:#000000;stroke:none;stroke-width:0.30000001;stroke-dasharray:none" />
  </g>
</svg>
