<?xml version="1.0" encoding="UTF-8" standalone="no"?>
<svg
   xmlns:dc="http://purl.org/dc/elements/1.1/"
   xmlns:cc="http://creativecommons.org/ns#"
   xmlns:rdf="http://www.w3.org/1999/02/22-rdf-syntax-ns#"
   xmlns:svg="http://www.w3.org/2000/svg"
   xmlns="http://www.w3.org/2000/svg"
   xmlns:sodipodi="http://sodipodi.sourceforge.net/DTD/sodipodi-0.dtd"
   xmlns:inkscape="http://www.inkscape.org/namespaces/inkscape"
   width="48"
   height="64"
   version="1.1"
   id="svg12"
   sodipodi:docname="note.svg"
   inkscape:version="0.92.4 (5da689c313, 2019-01-14)"
   viewBox="8 9 37.714286 48.290908">
  <metadata
     id="metadata18">
    <rdf:RDF>
      <cc:Work
         rdf:about="">
        <dc:format>image/svg+xml</dc:format>
        <dc:type
           rdf:resource="http://purl.org/dc/dcmitype/StillImage" />
        <dc:title />
      </cc:Work>
    </rdf:RDF>
  </metadata>
  <defs
     id="defs16" />
  <sodipodi:namedview
     pagecolor="#ffffff"
     bordercolor="#666666"
     borderopacity="1"
     objecttolerance="10"
     gridtolerance="10"
     guidetolerance="10"
     inkscape:pageopacity="0"
     inkscape:pageshadow="2"
     inkscape:window-width="1920"
     inkscape:window-height="1017"
     id="namedview14"
     showgrid="false"
     inkscape:zoom="12.136524"
     inkscape:cx="24.118186"
     inkscape:cy="32.64899"
     inkscape:window-x="1912"
     inkscape:window-y="-8"
     inkscape:window-maximized="1"
     inkscape:current-layer="g10"
     viewbox-height="83"
     viewbox-width="55"
     viewbox-x="8"
     fit-margin-top="0"
     fit-margin-left="8"
     fit-margin-right="0"
     fit-margin-bottom="0" />
  <g
     class="vf-note"
     transform="matrix(1.6939239,0,0,1.3859433,-1183.3188,-108.64678)"
     pointer-events="bounding-box"
     id="g10">
    <g
       class="vf-notehead"
       pointer-events="bounding-box"
       id="g8">
      <path
         d="m 707.00024,115 m 7.35696,-5.22288 c 0.11232,0 0.2808,0 0.30888,0 0,0 0.0281,0 0.0281,0 0,0 0.16848,0 0.30888,0 2.5272,0.1404 4.01544,1.79712 4.01544,3.87504 0,1.01088 -0.33696,2.16216 -1.17936,3.25728 -1.60056,2.16216 -4.212,3.34152 -6.48648,3.34152 -1.76904,0 -3.28536,-0.702 -4.01544,-2.13408 -0.22464,-0.5616 -0.33696,-1.09512 -0.33696,-1.6848 0,-3.06072 3.42576,-6.4584 7.35696,-6.65496"
         id="path6"
         inkscape:connector-curvature="0"
         style="fill:#000000;stroke:none;stroke-width:0.30000001;stroke-dasharray:none" />
    </g>
    <rect
       style="opacity:1;fill:#000000;fill-opacity:1;fill-rule:nonzero;stroke:#000000;stroke-width:0.05127964;stroke-miterlimit:4;stroke-dasharray:none;stroke-opacity:1"
       id="rect819"
       width="2.7899687"
       height="27.980259"
       x="716.16919"
       y="86.676216" />
  </g>
</svg>
