<?xml version="1.0" encoding="UTF-8" standalone="no"?>
<svg
   xmlns:dc="http://purl.org/dc/elements/1.1/"
   xmlns:cc="http://creativecommons.org/ns#"
   xmlns:rdf="http://www.w3.org/1999/02/22-rdf-syntax-ns#"
   xmlns:svg="http://www.w3.org/2000/svg"
   xmlns="http://www.w3.org/2000/svg"
   xmlns:sodipodi="http://sodipodi.sourceforge.net/DTD/sodipodi-0.dtd"
   xmlns:inkscape="http://www.inkscape.org/namespaces/inkscape"
   width="39.138401"
   height="29.0152"
   version="1.1"
   id="svg6"
   sodipodi:docname="pedal.svg"
   inkscape:version="0.92.4 (5da689c313, 2019-01-14)">
  <metadata
     id="metadata12">
    <rdf:RDF>
      <cc:Work
         rdf:about="">
        <dc:format>image/svg+xml</dc:format>
        <dc:type
           rdf:resource="http://purl.org/dc/dcmitype/StillImage" />
        <dc:title></dc:title>
      </cc:Work>
    </rdf:RDF>
  </metadata>
  <defs
     id="defs10" />
  <sodipodi:namedview
     pagecolor="#ffffff"
     bordercolor="#666666"
     borderopacity="1"
     objecttolerance="10"
     gridtolerance="10"
     guidetolerance="10"
     inkscape:pageopacity="0"
     inkscape:pageshadow="2"
     inkscape:window-width="1920"
     inkscape:window-height="1017"
     id="namedview8"
     showgrid="false"
     inkscape:zoom="31.534065"
     inkscape:cx="19.5692"
     inkscape:cy="14.5076"
     inkscape:window-x="1912"
     inkscape:window-y="-8"
     inkscape:window-maximized="1"
     inkscape:current-layer="svg6"
     fit-margin-top="5"
     fit-margin-left="5"
     fit-margin-right="5"
     fit-margin-bottom="5"
     viewbox-width="9" />
  <g
     id="g7"
     transform="translate(-294.97264,-336.01216)">
    <path
       d="m 300,360 m 8.09856,-18.93312 c 0.16416,-0.0547 0.30096,-0.0547 0.49248,-0.0547 0.62928,0 1.42272,0.1368 1.96992,0.24624 2.57184,0.684 4.43232,2.8728 4.43232,5.11632 0,0.16416 0,0.30096 0,0.46512 -0.19152,1.5048 -1.34064,2.35296 -2.54448,2.35296 -0.9576,0 -1.96992,-0.60192 -2.3256,-1.83312 -0.16416,-0.4104 -0.21888,-0.71136 -0.21888,-0.93024 0,-0.35568 0.1368,-0.49248 0.4104,-0.49248 0.24624,0 0.35568,0.10944 0.43776,0.35568 0.10944,0.46512 0.5472,0.73872 1.06704,0.73872 0.35568,0 0.71136,-0.10944 1.03968,-0.35568 0.38304,-0.24624 0.57456,-0.62928 0.57456,-1.17648 0,-0.10944 0,-0.24624 -0.0274,-0.38304 -0.30096,-1.69632 -2.16144,-3.09168 -4.29552,-3.17376 l -0.2736,-0.0547 -0.21888,0.43776 c -0.8208,1.5048 -1.25856,2.4624 -1.25856,3.33792 0,0.87552 0.49248,1.58688 1.42272,2.54448 0.46512,0.49248 0.60192,0.62928 0.76608,0.98496 0.2736,0.46512 0.38304,0.90288 0.38304,1.45008 0,0.24624 -0.0274,0.5472 -0.10944,0.8208 -0.30096,1.25856 -1.12176,2.90016 -2.02464,4.21344 -0.0547,0.0821 -0.10944,0.16416 -0.10944,0.16416 0,0 0,0 0,0 0.0547,0 0.0821,0 0.16416,-0.0547 0.30096,0 0.57456,-0.0274 0.84816,-0.0274 1.45008,0 2.76336,0.51984 3.91248,1.55952 l 0.0821,0.0274 0.51984,-0.4104 c 0.30096,-0.21888 0.5472,-0.4104 0.5472,-0.46512 0,0 0.0274,0 0.0274,-0.0274 0,-0.0274 -0.0274,-0.10944 -0.0274,-0.21888 -0.0821,-0.38304 -0.0821,-0.76608 -0.0821,-1.14912 0,-1.58688 0.49248,-2.95488 1.45008,-3.99456 0.19152,-0.1368 1.06704,-0.87552 1.39536,-1.0944 0.35568,-0.2736 0.76608,-0.4104 1.2312,-0.4104 0.43776,0 0.87552,0.19152 1.28592,0.51984 0.49248,0.4104 0.76608,1.03968 0.76608,1.6416 0,0.65664 -0.2736,1.28592 -0.79344,1.75104 -0.10944,0.10944 -0.90288,0.71136 -0.9576,0.76608 -0.0547,0.0274 -2.13408,1.61424 -2.21616,1.69632 0,0 0,0 0,0 0,0.10944 0.2736,0.79344 0.46512,1.14912 0.21888,0.49248 0.35568,0.62928 0.71136,0.79344 0.2736,0.1368 0.62928,0.21888 0.9576,0.21888 0.84816,0 1.75104,-0.4104 2.48976,-1.17648 0.16416,-0.1368 0.19152,-0.21888 0.19152,-0.30096 0,-0.0274 0,-0.0821 0,-0.10944 -0.0821,-0.2736 -0.10944,-0.65664 -0.10944,-1.03968 0,-0.49248 0.0821,-1.01232 0.19152,-1.47744 0.43776,-1.94256 1.69632,-3.50208 3.72096,-4.59648 0.0547,-0.0274 0.0547,-0.0274 0.0547,-0.0821 0,-0.0274 -0.0274,-0.0547 -0.1368,-0.21888 -1.75104,-2.16144 -4.40496,-3.74832 -7.35984,-4.43232 -0.46512,-0.10944 -0.60192,-0.24624 -0.60192,-0.5472 0,-0.30096 0.19152,-0.43776 0.46512,-0.43776 0.1368,0 0.19152,0 0.30096,0.0274 5.96448,1.17648 10.72512,5.00688 11.73744,9.49392 0.10944,0.51984 0.19152,1.06704 0.19152,1.55952 0,2.65392 -1.61424,4.97952 -3.88512,5.22576 -0.16416,0.0274 -0.35568,0.0274 -0.5472,0.0274 -1.5048,0 -2.79072,-0.73872 -3.50208,-2.10672 -0.10944,-0.1368 -0.10944,-0.19152 -0.1368,-0.19152 0,0 0,0 0,0.0547 -0.98496,1.42272 -2.51712,2.24352 -3.88512,2.24352 -0.8208,0 -1.55952,-0.24624 -2.16144,-0.76608 -0.30096,-0.2736 -0.62928,-0.93024 -0.90288,-1.66896 l -0.0547,-0.19152 -0.0821,0.0547 -1.55952,1.31328 C 310.83456,360 310.83456,360 310.6704,360 c 0,0 0,0 0,0 -0.24624,0 -0.35568,-0.10944 -0.43776,-0.4104 -0.4104,-1.47744 -1.6416,-2.4624 -2.90016,-2.4624 -0.16416,0 -0.30096,0 -0.49248,0.0274 l -0.19152,0.0547 -0.24624,0.32832 c -0.90288,1.12176 -2.052,2.40768 -2.16144,2.43504 -0.0821,0.0274 -0.16416,0.0547 -0.21888,0.0547 -0.24624,0 -0.46512,-0.19152 -0.46512,-0.43776 0,-0.0821 0.0547,-0.10944 0.0547,-0.1368 0.0274,-0.0547 0.0547,-0.19152 0.10944,-0.30096 0.35568,-1.17648 1.14912,-2.13408 2.29824,-2.736 0.1368,-0.0821 0.2736,-0.1368 0.30096,-0.16416 1.34064,-1.7784 1.94256,-2.92752 1.94256,-3.85776 0,-0.57456 -0.19152,-0.84816 -1.01232,-1.55952 -0.84816,-0.76608 -1.42272,-1.83312 -1.53216,-2.92752 0,-0.10944 0,-0.24624 0,-0.35568 0,-1.28592 0.62928,-2.98224 1.9152,-5.28048 l 0.16416,-0.30096 h -0.0547 c -1.2312,0.16416 -1.99728,0.38304 -2.92752,0.87552 -1.7784,0.90288 -3.0096,2.43504 -3.25584,4.104 -0.0547,0.16416 -0.0547,0.35568 -0.0547,0.49248 0,0.60192 0.16416,1.20384 0.46512,1.368 0.16416,0.10944 0.4104,0.16416 0.57456,0.16416 0.8208,0 1.58688,-0.76608 1.61424,-1.75104 0.0274,-0.43776 0.1368,-0.57456 0.43776,-0.57456 0.35568,0 0.46512,0.1368 0.46512,0.71136 v 0.0547 c -0.0547,1.39536 -0.46512,2.48976 -1.31328,3.17376 -0.49248,0.43776 -1.06704,0.60192 -1.61424,0.60192 -0.76608,0 -1.45008,-0.35568 -1.7784,-1.03968 -0.24624,-0.5472 -0.38304,-1.14912 -0.38304,-1.80576 0,-1.69632 0.90288,-3.63888 2.4624,-5.03424 1.58688,-1.34064 3.31056,-2.052 5.66352,-2.24352 m 17.2368,9.41184 c -0.0547,-0.0821 -0.10944,-0.1368 -0.1368,-0.1368 -0.0274,0 -0.0821,0.0547 -0.19152,0.1368 -1.55952,1.14912 -2.48976,3.03696 -2.48976,4.95216 0,0.35568 0.0821,0.79344 0.1368,1.17648 0.24624,1.2312 0.93024,2.29824 1.69632,2.54448 0.0547,0 0.10944,0 0.16416,0 0.5472,0 1.20384,-0.76608 1.6416,-1.99728 0.24624,-0.684 0.38304,-1.5048 0.38304,-2.38032 0,-0.46512 -0.0274,-0.90288 -0.10944,-1.368 -0.19152,-0.98496 -0.57456,-1.96992 -1.0944,-2.92752 m -8.18064,0.60192 c -0.0821,0 -0.1368,0 -0.21888,0 -0.21888,0 -0.4104,0.0821 -0.57456,0.2736 -0.51984,0.76608 -0.8208,1.66896 -0.8208,2.76336 0,0.0547 0,0.1368 0,0.19152 0.0547,0.35568 0.0547,0.65664 0.0821,0.684 v 0 c 0,0 0.30096,-0.21888 0.62928,-0.49248 l 1.0944,-0.8208 c 0.51984,-0.43776 0.60192,-0.46512 0.71136,-0.76608 0.0547,-0.19152 0.10944,-0.35568 0.10944,-0.51984 0,-0.57456 -0.4104,-1.14912 -1.01232,-1.31328"
       id="path5"
       inkscape:connector-curvature="0"
       style="fill:#000000;stroke:none;stroke-width:0.30000001;stroke-dasharray:none" />
  </g>
</svg>
