<svg width="84" height="58" >
<g transform="translate(-1600 -290) scale(2.0 2.0) scale(1.0 1.0)" >
<path stroke-width="0.3" fill="black" stroke="none" stroke-dasharray="none" d="M805.4999694824219 160M810.5615694824219 149.52112C810.6162894824218 149.52112,810.7257294824219 149.49376,810.8625294824219 149.49376C811.7927694824218 149.49376,812.5862094824219 150.0136,813.0786894824219 150.86176C813.1881294824219 151.13536,813.3796494824219 151.62784,813.3796494824219 151.76463999999999C813.3796494824219 151.84672,813.3796494824219 151.87408,813.3796494824219 151.87408C813.4070094824219 151.87408,813.4617294824219 151.81936,813.5438094824219 151.73728C814.3372494824218 150.75232,815.5410894824219 149.95888,816.2798094824219 149.8768C816.3892494824219 149.8768,816.4713294824219 149.84944,816.5534094824219 149.84944C817.8940494824219 149.84944,819.1252494824219 151.02592,819.4535694824219 152.55808C819.5356494824218 152.83168,819.5356494824218 153.13264,819.5356494824218 153.51568C819.5356494824218 154.06288,819.4809294824219 154.74688,819.3714894824219 155.29408C818.8242894824218 158.38576,816.7722894824219 160.71136,814.4193294824219 160.93024C814.3098894824219 160.98496,814.2004494824218 160.98496,814.0910094824219 160.98496C813.6532494824219 160.98496,813.2428494824219 160.84816,812.9966094824218 160.65664L812.7503694824219 160.43776C812.2305294824218 160.02736,811.8474894824219 159.4528,811.6286094824219 158.79616C811.6286094824219 158.71408,811.6012494824218 158.65936,811.6012494824218 158.65936C811.6012494824218 158.65936,811.6012494824218 158.65936,811.6012494824218 158.65936C811.5465294824219 158.68672,809.5766094824219 165.30784,809.5766094824219 165.38992C809.5766094824219 165.38992,809.5766094824219 165.41728,809.5766094824219 165.41728C809.5766094824219 165.52672,809.7407694824219 165.6088,810.1511694824219 165.7456C810.2606094824218 165.7456,810.2879694824219 165.80032,810.6162894824218 165.8824C810.9993294824219 165.99184,811.0814094824219 166.07392,811.0814094824219 166.32016C811.0814094824219 166.5664,811.0266894824218 166.62112,810.8898894824218 166.7032L810.8078094824219 166.78528L807.5793294824218 166.78528L804.3508494824218 166.78528L804.2414094824219 166.7032C804.1046094824219 166.62112,804.0498894824219 166.5664,804.0498894824219 166.32016C804.0498894824219 166.07392,804.1593294824219 165.93712,804.5423694824219 165.8824C804.9254094824219 165.80032,804.9527694824219 165.80032,805.1442894824219 165.7456C805.2263694824219 165.71824,805.2810894824219 165.69088,805.3358094824218 165.69088C805.3358094824218 165.69088,805.4452494824219 165.63616,805.4999694824219 165.63616C805.8556494824219 165.49936,806.0745294824219 165.3352,806.1839694824218 165.14368C806.2660494824219 165.00688,809.9596494824219 152.44864,809.9596494824219 152.3392C809.9596494824219 152.25712,809.9870094824219 152.14768,810.0417294824218 152.03824C810.0690894824219 151.9288,810.0690894824219 151.81936,810.0690894824219 151.73728C810.0690894824219 151.3816,809.9049294824218 151.13536,809.7407694824219 151.13536C809.7407694824219 151.13536,809.7407694824219 151.13536,809.7407694824219 151.13536C808.9199694824218 151.19008,807.8255694824219 152.3392,807.2783694824219 153.7072C807.1689294824218 154.06288,807.0868494824218 154.1176,806.9500494824218 154.1176C806.9500494824218 154.1176,806.8953294824219 154.1176,806.8953294824219 154.1176C806.7585294824219 154.1176,806.6490894824219 154.06288,806.6490894824219 153.87136C806.6490894824219 153.67984,806.7858894824219 153.32416,807.0594894824219 152.80432C807.6066894824219 151.6552,808.3454094824219 150.77968,809.3303694824219 150.1504C809.4398094824219 150.0136,809.5766094824219 149.90416,809.6586894824219 149.8768C809.7954894824219 149.71264,810.2058894824219 149.57584,810.5615694824219 149.52112M815.7326094824218 151.62784C815.6505294824219 151.57312,815.5684494824219 151.57312,815.5137294824219 151.57312C815.0212494824219 151.57312,814.2825294824219 151.95616,813.7079694824218 152.53072C813.3796494824219 152.83168,813.3522894824218 152.91376,813.2702094824218 153.05056C813.2428494824219 153.18736,813.1881294824219 153.2968,813.1607694824219 153.37888C813.1334094824218 153.4336,812.8871694824219 154.17232,812.5314894824219 155.37616L811.9569294824219 157.31872L811.9569294824219 157.45552C812.0116494824218 157.89328,812.1484494824218 158.33104,812.3673294824218 158.68672C812.5588494824219 158.98768,812.9418894824219 159.26128,813.1334094824218 159.26128C813.1334094824218 159.26128,813.1607694824219 159.26128,813.1881294824219 159.26128C813.1881294824219 159.26128,813.3522894824218 159.1792,813.4617294824219 159.15184C814.6382094824219 158.57728,815.8420494824219 157.01776,816.3345294824219 155.3488C816.4986894824219 154.61008,816.6081294824219 153.87136,816.6081294824219 153.24208C816.6081294824219 152.91376,816.5807694824218 152.6128,816.4713294824219 152.42128C816.3618894824219 152.0656,815.9788494824219 151.70992,815.7326094824218 151.62784"></path>
<path stroke-width="0.3" fill="black" stroke="none" stroke-dasharray="none" d="M819.4999694824219 160M824.5615694824219 149.52112C824.6162894824218 149.52112,824.7257294824219 149.49376,824.8625294824219 149.49376C825.7927694824218 149.49376,826.5862094824219 150.0136,827.0786894824219 150.86176C827.1881294824219 151.13536,827.3796494824219 151.62784,827.3796494824219 151.76463999999999C827.3796494824219 151.84672,827.3796494824219 151.87408,827.3796494824219 151.87408C827.4070094824219 151.87408,827.4617294824219 151.81936,827.5438094824219 151.73728C828.3372494824218 150.75232,829.5410894824219 149.95888,830.2798094824219 149.8768C830.3892494824219 149.8768,830.4713294824219 149.84944,830.5534094824219 149.84944C831.8940494824219 149.84944,833.1252494824219 151.02592,833.4535694824219 152.55808C833.5356494824218 152.83168,833.5356494824218 153.13264,833.5356494824218 153.51568C833.5356494824218 154.06288,833.4809294824219 154.74688,833.3714894824219 155.29408C832.8242894824218 158.38576,830.7722894824219 160.71136,828.4193294824219 160.93024C828.3098894824219 160.98496,828.2004494824218 160.98496,828.0910094824219 160.98496C827.6532494824219 160.98496,827.2428494824219 160.84816,826.9966094824218 160.65664L826.7503694824219 160.43776C826.2305294824218 160.02736,825.8474894824219 159.4528,825.6286094824219 158.79616C825.6286094824219 158.71408,825.6012494824218 158.65936,825.6012494824218 158.65936C825.6012494824218 158.65936,825.6012494824218 158.65936,825.6012494824218 158.65936C825.5465294824219 158.68672,823.5766094824219 165.30784,823.5766094824219 165.38992C823.5766094824219 165.38992,823.5766094824219 165.41728,823.5766094824219 165.41728C823.5766094824219 165.52672,823.7407694824219 165.6088,824.1511694824219 165.7456C824.2606094824218 165.7456,824.2879694824219 165.80032,824.6162894824218 165.8824C824.9993294824219 165.99184,825.0814094824219 166.07392,825.0814094824219 166.32016C825.0814094824219 166.5664,825.0266894824218 166.62112,824.8898894824218 166.7032L824.8078094824219 166.78528L821.5793294824218 166.78528L818.3508494824218 166.78528L818.2414094824219 166.7032C818.1046094824219 166.62112,818.0498894824219 166.5664,818.0498894824219 166.32016C818.0498894824219 166.07392,818.1593294824219 165.93712,818.5423694824219 165.8824C818.9254094824219 165.80032,818.9527694824219 165.80032,819.1442894824219 165.7456C819.2263694824219 165.71824,819.2810894824219 165.69088,819.3358094824218 165.69088C819.3358094824218 165.69088,819.4452494824219 165.63616,819.4999694824219 165.63616C819.8556494824219 165.49936,820.0745294824219 165.3352,820.1839694824218 165.14368C820.2660494824219 165.00688,823.9596494824219 152.44864,823.9596494824219 152.3392C823.9596494824219 152.25712,823.9870094824219 152.14768,824.0417294824218 152.03824C824.0690894824219 151.9288,824.0690894824219 151.81936,824.0690894824219 151.73728C824.0690894824219 151.3816,823.9049294824218 151.13536,823.7407694824219 151.13536C823.7407694824219 151.13536,823.7407694824219 151.13536,823.7407694824219 151.13536C822.9199694824218 151.19008,821.8255694824219 152.3392,821.2783694824219 153.7072C821.1689294824218 154.06288,821.0868494824218 154.1176,820.9500494824218 154.1176C820.9500494824218 154.1176,820.8953294824219 154.1176,820.8953294824219 154.1176C820.7585294824219 154.1176,820.6490894824219 154.06288,820.6490894824219 153.87136C820.6490894824219 153.67984,820.7858894824219 153.32416,821.0594894824219 152.80432C821.6066894824219 151.6552,822.3454094824219 150.77968,823.3303694824219 150.1504C823.4398094824219 150.0136,823.5766094824219 149.90416,823.6586894824219 149.8768C823.7954894824219 149.71264,824.2058894824219 149.57584,824.5615694824219 149.52112M829.7326094824218 151.62784C829.6505294824219 151.57312,829.5684494824219 151.57312,829.5137294824219 151.57312C829.0212494824219 151.57312,828.2825294824219 151.95616,827.7079694824218 152.53072C827.3796494824219 152.83168,827.3522894824218 152.91376,827.2702094824218 153.05056C827.2428494824219 153.18736,827.1881294824219 153.2968,827.1607694824219 153.37888C827.1334094824218 153.4336,826.8871694824219 154.17232,826.5314894824219 155.37616L825.9569294824219 157.31872L825.9569294824219 157.45552C826.0116494824218 157.89328,826.1484494824218 158.33104,826.3673294824218 158.68672C826.5588494824219 158.98768,826.9418894824219 159.26128,827.1334094824218 159.26128C827.1334094824218 159.26128,827.1607694824219 159.26128,827.1881294824219 159.26128C827.1881294824219 159.26128,827.3522894824218 159.1792,827.4617294824219 159.15184C828.6382094824219 158.57728,829.8420494824219 157.01776,830.3345294824219 155.3488C830.4986894824219 154.61008,830.6081294824219 153.87136,830.6081294824219 153.24208C830.6081294824219 152.91376,830.5807694824218 152.6128,830.4713294824219 152.42128C830.3618894824219 152.0656,829.9788494824219 151.70992,829.7326094824218 151.62784"></path>
</g>
</svg>