<?xml version="1.0" encoding="UTF-8" standalone="no"?>
<svg
   xmlns:dc="http://purl.org/dc/elements/1.1/"
   xmlns:cc="http://creativecommons.org/ns#"
   xmlns:rdf="http://www.w3.org/1999/02/22-rdf-syntax-ns#"
   xmlns:svg="http://www.w3.org/2000/svg"
   xmlns="http://www.w3.org/2000/svg"
   xmlns:sodipodi="http://sodipodi.sourceforge.net/DTD/sodipodi-0.dtd"
   xmlns:inkscape="http://www.inkscape.org/namespaces/inkscape"
   width="44"
   height="48"
   version="1.1"
   id="svg6"
   sodipodi:docname="accent.svg"
   inkscape:version="0.92.4 (5da689c313, 2019-01-14)">
  <metadata
     id="metadata12">
    <rdf:RDF>
      <cc:Work
         rdf:about="">
        <dc:format>image/svg+xml</dc:format>
        <dc:type
           rdf:resource="http://purl.org/dc/dcmitype/StillImage" />
      </cc:Work>
    </rdf:RDF>
  </metadata>
  <defs
     id="defs10" />
  <sodipodi:namedview
     pagecolor="#ffffff"
     bordercolor="#666666"
     borderopacity="1"
     objecttolerance="10"
     gridtolerance="10"
     guidetolerance="10"
     inkscape:pageopacity="0"
     inkscape:pageshadow="2"
     inkscape:window-width="1920"
     inkscape:window-height="1017"
     id="namedview8"
     showgrid="false"
     inkscape:zoom="4.9166667"
     inkscape:cx="22"
     inkscape:cy="24"
     inkscape:window-x="-8"
     inkscape:window-y="-8"
     inkscape:window-maximized="1"
     inkscape:current-layer="svg6" />
 <g class="auto1044">
	<path stroke-width="1" fill="none" stroke="#999999" stroke-dasharray="none" d="M263.6667175292969 53.19999694824219L466.6667175292969 53.19999694824219"/>
	<path stroke-width="1" fill="none" stroke="#999999" stroke-dasharray="none" d="M263.6667175292969 63.19999694824219L466.6667175292969 63.19999694824219"/>
	<path stroke-width="1" fill="none" stroke="#999999" stroke-dasharray="none" d="M263.6667175292969 73.19999694824219L466.6667175292969 73.19999694824219"/>
	<path stroke-width="1" fill="none" stroke="#999999" stroke-dasharray="none" d="M263.6667175292969 83.19999694824219L466.6667175292969 83.19999694824219"/>
	<path stroke-width="1" fill="none" stroke="#999999" stroke-dasharray="none" d="M263.6667175292969 93.19999694824219L466.6667175292969 93.19999694824219"/>
	<rect stroke-width="0.3" fill="black" stroke="black" stroke-dasharray="none" x="263.6667175292969" y="52.69999694824219" width="1" height="41"/>
	<rect stroke-width="0.3" fill="black" stroke="black" stroke-dasharray="none" x="461.6667175292969" y="52.69999694824219" width="1" height="41"/>
	<rect stroke-width="0.3" fill="black" stroke="black" stroke-dasharray="none" x="464.6667175292969" y="52.69999694824219" width="3" height="41"/>
	<path stroke-width="0.3" fill="black" stroke="none" stroke-dasharray="none" d="M460.6667175292969 68.69999694824219 A2 2 0 0 0 456.6667175292969 68.69999694824219M456.6667175292969 68.69999694824219 A2 2 0 0 0 460.6667175292969 68.69999694824219"/>
	<path stroke-width="0.3" fill="black" stroke="none" stroke-dasharray="none" d="M460.6667175292969 78.69999694824219 A2 2 0 0 0 456.6667175292969 78.69999694824219M456.6667175292969 78.69999694824219 A2 2 0 0 0 460.6667175292969 78.69999694824219"/>
	<g class="vf-stavenote" id="vf-auto3926">
		<g class="vf-note" pointer-events="bounding-box">
			<g class="vf-stem" pointer-events="bounding-box">
				<path stroke-width="1.5" fill="none" stroke="black" stroke-dasharray="none" d="M281.4167175292969 73.19999694824219L281.4167175292969 108.19999694824219"/>
			</g>
			<g class="vf-notehead" pointer-events="bounding-box">
				<path stroke-width="0.3" fill="black" stroke="none" stroke-dasharray="none" d="M280.6667175292969 73.19999694824219M288.0236775292969 67.97711694824218C288.1359975292969 67.97711694824218,288.3044775292969 67.97711694824218,288.3325575292969 67.97711694824218C288.3325575292969 67.97711694824218,288.36063752929687 67.97711694824218,288.36063752929687 67.97711694824218C288.36063752929687 67.97711694824218,288.52911752929685 67.97711694824218,288.66951752929685 67.97711694824218C291.19671752929685 68.11751694824218,292.68495752929687 69.77423694824219,292.68495752929687 71.85215694824218C292.68495752929687 72.86303694824218,292.3479975292969 74.01431694824218,291.5055975292969 75.10943694824219C289.90503752929686 77.27159694824219,287.2935975292969 78.4509569482422,285.01911752929686 78.4509569482422C283.2500775292969 78.4509569482422,281.7337575292969 77.74895694824218,281.00367752929685 76.31687694824218C280.7790375292969 75.75527694824218,280.6667175292969 75.22175694824219,280.6667175292969 74.63207694824219C280.6667175292969 71.57135694824218,284.0924775292969 68.17367694824219,288.0236775292969 67.97711694824218"/>
			</g>
		</g>
		<g class="vf-modifiers"/>
	</g>
	<g class="vf-stavenote" id="vf-auto3932">
		<g class="vf-note" pointer-events="bounding-box">
			<g class="vf-stem" pointer-events="bounding-box">
				<path stroke-width="1.5" fill="none" stroke="black" stroke-dasharray="none" d="M329.6667175292969 73.19999694824219L329.6667175292969 108.19999694824219"/>
			</g>
			<g class="vf-notehead" pointer-events="bounding-box">
				<path stroke-width="0.3" fill="black" stroke="none" stroke-dasharray="none" d="M328.9167175292969 73.19999694824219M336.2736775292969 67.97711694824218C336.3859975292969 67.97711694824218,336.5544775292969 67.97711694824218,336.5825575292969 67.97711694824218C336.5825575292969 67.97711694824218,336.61063752929687 67.97711694824218,336.61063752929687 67.97711694824218C336.61063752929687 67.97711694824218,336.77911752929685 67.97711694824218,336.91951752929685 67.97711694824218C339.44671752929685 68.11751694824218,340.93495752929687 69.77423694824219,340.93495752929687 71.85215694824218C340.93495752929687 72.86303694824218,340.5979975292969 74.01431694824218,339.7555975292969 75.10943694824219C338.15503752929686 77.27159694824219,335.5435975292969 78.4509569482422,333.26911752929686 78.4509569482422C331.5000775292969 78.4509569482422,329.9837575292969 77.74895694824218,329.25367752929685 76.31687694824218C329.0290375292969 75.75527694824218,328.9167175292969 75.22175694824219,328.9167175292969 74.63207694824219C328.9167175292969 71.57135694824218,332.3424775292969 68.17367694824219,336.2736775292969 67.97711694824218"/>
			</g>
		</g>
		<g class="vf-modifiers"/>
	</g>
	<g class="vf-stavenote" id="vf-auto3938">
		<g class="vf-note" pointer-events="bounding-box">
			<g class="vf-stem" pointer-events="bounding-box">
				<path stroke-width="1.5" fill="none" stroke="black" stroke-dasharray="none" d="M377.9167175292969 73.19999694824219L377.9167175292969 108.19999694824219"/>
			</g>
			<g class="vf-notehead" pointer-events="bounding-box">
				<path stroke-width="0.3" fill="black" stroke="none" stroke-dasharray="none" d="M377.1667175292969 73.19999694824219M384.5236775292969 67.97711694824218C384.6359975292969 67.97711694824218,384.8044775292969 67.97711694824218,384.8325575292969 67.97711694824218C384.8325575292969 67.97711694824218,384.86063752929687 67.97711694824218,384.86063752929687 67.97711694824218C384.86063752929687 67.97711694824218,385.02911752929685 67.97711694824218,385.16951752929685 67.97711694824218C387.69671752929685 68.11751694824218,389.18495752929687 69.77423694824219,389.18495752929687 71.85215694824218C389.18495752929687 72.86303694824218,388.8479975292969 74.01431694824218,388.0055975292969 75.10943694824219C386.40503752929686 77.27159694824219,383.7935975292969 78.4509569482422,381.51911752929686 78.4509569482422C379.7500775292969 78.4509569482422,378.2337575292969 77.74895694824218,377.50367752929685 76.31687694824218C377.2790375292969 75.75527694824218,377.1667175292969 75.22175694824219,377.1667175292969 74.63207694824219C377.1667175292969 71.57135694824218,380.5924775292969 68.17367694824219,384.5236775292969 67.97711694824218"/>
			</g>
		</g>
		<g class="vf-modifiers"/>
	</g>
	<g class="vf-stavenote" id="vf-auto3944">
		<g class="vf-note" pointer-events="bounding-box">
			<g class="vf-stem" pointer-events="bounding-box">
				<path stroke-width="1.5" fill="none" stroke="black" stroke-dasharray="none" d="M426.1667175292969 73.19999694824219L426.1667175292969 108.19999694824219"/>
			</g>
			<g class="vf-notehead" pointer-events="bounding-box">
				<path stroke-width="0.3" fill="black" stroke="none" stroke-dasharray="none" d="M425.4167175292969 73.19999694824219M432.7736775292969 67.97711694824218C432.8859975292969 67.97711694824218,433.0544775292969 67.97711694824218,433.0825575292969 67.97711694824218C433.0825575292969 67.97711694824218,433.11063752929687 67.97711694824218,433.11063752929687 67.97711694824218C433.11063752929687 67.97711694824218,433.27911752929685 67.97711694824218,433.41951752929685 67.97711694824218C435.94671752929685 68.11751694824218,437.43495752929687 69.77423694824219,437.43495752929687 71.85215694824218C437.43495752929687 72.86303694824218,437.0979975292969 74.01431694824218,436.2555975292969 75.10943694824219C434.65503752929686 77.27159694824219,432.0435975292969 78.4509569482422,429.76911752929686 78.4509569482422C428.0000775292969 78.4509569482422,426.4837575292969 77.74895694824218,425.75367752929685 76.31687694824218C425.5290375292969 75.75527694824218,425.4167175292969 75.22175694824219,425.4167175292969 74.63207694824219C425.4167175292969 71.57135694824218,428.8424775292969 68.17367694824219,432.7736775292969 67.97711694824218"/>
			</g>
		</g>
		<g class="vf-modifiers"/>
	</g>
</g>
</svg>
