<?xml version="1.0" encoding="UTF-8" standalone="no"?>
<svg
   xmlns:dc="http://purl.org/dc/elements/1.1/"
   xmlns:cc="http://creativecommons.org/ns#"
   xmlns:rdf="http://www.w3.org/1999/02/22-rdf-syntax-ns#"
   xmlns:svg="http://www.w3.org/2000/svg"
   xmlns="http://www.w3.org/2000/svg"
   xmlns:sodipodi="http://sodipodi.sourceforge.net/DTD/sodipodi-0.dtd"
   xmlns:inkscape="http://www.inkscape.org/namespaces/inkscape"
   width="119.22968"
   height="58.463673"
   version="1.1"
   id="svg6"
   sodipodi:docname="septuplet.svg"
   inkscape:version="0.92.4 (5da689c313, 2019-01-14)">
  <metadata
     id="metadata12">
    <rdf:RDF>
      <cc:Work
         rdf:about="">
        <dc:format>image/svg+xml</dc:format>
        <dc:type
           rdf:resource="http://purl.org/dc/dcmitype/StillImage" />
        <dc:title></dc:title>
      </cc:Work>
    </rdf:RDF>
  </metadata>
  <defs
     id="defs10" />
  <sodipodi:namedview
     pagecolor="#ffffff"
     bordercolor="#666666"
     borderopacity="1"
     objecttolerance="10"
     gridtolerance="10"
     guidetolerance="10"
     inkscape:pageopacity="0"
     inkscape:pageshadow="2"
     inkscape:window-width="1920"
     inkscape:window-height="1017"
     id="namedview8"
     showgrid="false"
     inkscape:zoom="6.865244"
     inkscape:cx="95.944234"
     inkscape:cy="36.514902"
     inkscape:window-x="1912"
     inkscape:window-y="-8"
     inkscape:window-maximized="1"
     inkscape:current-layer="g962"
     fit-margin-top="0"
     fit-margin-left="0"
     fit-margin-right="0"
     fit-margin-bottom="0" />
  <g
     class="auto1016"
     id="g149"
     transform="translate(-698.78369,-74.934057)">
    <g
       class="vf-stavenote"
       id="vf-auto53452"
       transform="matrix(0.8721522,0,0,0.97332473,89.337269,1.9988833)">
      <g
         class="vf-note"
         pointer-events="bounding-box"
         id="g23">
        <g
           class="vf-notehead"
           pointer-events="bounding-box"
           id="g21">
          <path
             d="m 707.00183,100 m 7.35696,-5.22288 c 0.11232,0 0.2808,0 0.30888,0 0,0 0.0281,0 0.0281,0 0,0 0.16848,0 0.30888,0 2.5272,0.1404 4.01544,1.79712 4.01544,3.87504 0,1.01088 -0.33696,2.16216 -1.17936,3.25728 -1.60056,2.16216 -4.212,3.34152 -6.48648,3.34152 -1.76904,0 -3.28536,-0.702 -4.01544,-2.13408 -0.22464,-0.5616 -0.33696,-1.09512 -0.33696,-1.6848 0,-3.06072 3.42576,-6.4584 7.35696,-6.65496"
             id="path19"
             inkscape:connector-curvature="0"
             style="fill:#000000;stroke:none;stroke-width:0.30000001;stroke-dasharray:none" />
        </g>
      </g>
      <g
         class="vf-modifiers"
         id="g25" />
    </g>
    <g
       class="vf-stavenote"
       id="vf-auto53459"
       transform="matrix(0.8721522,0,0,0.97332473,89.337269,1.9988833)">
      <g
         class="vf-note"
         pointer-events="bounding-box"
         id="g32">
        <g
           class="vf-notehead"
           pointer-events="bounding-box"
           id="g30">
          <path
             d="m 725.8972,100 m 7.35696,-5.22288 c 0.11232,0 0.2808,0 0.30888,0 0,0 0.0281,0 0.0281,0 0,0 0.16848,0 0.30888,0 2.5272,0.1404 4.01544,1.79712 4.01544,3.87504 0,1.01088 -0.33696,2.16216 -1.17936,3.25728 -1.60056,2.16216 -4.212,3.34152 -6.48648,3.34152 -1.76904,0 -3.28536,-0.702 -4.01544,-2.13408 -0.22464,-0.5616 -0.33696,-1.09512 -0.33696,-1.6848 0,-3.06072 3.42576,-6.4584 7.35696,-6.65496"
             id="path28"
             inkscape:connector-curvature="0"
             style="fill:#000000;stroke:none;stroke-width:0.30000001;stroke-dasharray:none" />
        </g>
      </g>
      <g
         class="vf-modifiers"
         id="g34" />
    </g>
    <g
       class="vf-stavenote"
       id="vf-auto53466"
       transform="matrix(0.8721522,0,0,0.97332473,89.337269,1.9988833)">
      <g
         class="vf-note"
         pointer-events="bounding-box"
         id="g41">
        <g
           class="vf-notehead"
           pointer-events="bounding-box"
           id="g39">
          <path
             d="m 744.79258,100 m 7.35696,-5.22288 c 0.11232,0 0.2808,0 0.30888,0 0,0 0.0281,0 0.0281,0 0,0 0.16848,0 0.30888,0 2.5272,0.1404 4.01544,1.79712 4.01544,3.87504 0,1.01088 -0.33696,2.16216 -1.17936,3.25728 -1.60056,2.16216 -4.212,3.34152 -6.48648,3.34152 -1.76904,0 -3.28536,-0.702 -4.01544,-2.13408 -0.22464,-0.5616 -0.33696,-1.09512 -0.33696,-1.6848 0,-3.06072 3.42576,-6.4584 7.35696,-6.65496"
             id="path37"
             inkscape:connector-curvature="0"
             style="fill:#000000;stroke:none;stroke-width:0.30000001;stroke-dasharray:none" />
        </g>
      </g>
      <g
         class="vf-modifiers"
         id="g43" />
    </g>
    <g
       class="vf-stavenote"
       id="vf-auto53473"
       transform="matrix(0.8721522,0,0,0.97332473,89.337269,1.9988833)">
      <g
         class="vf-note"
         pointer-events="bounding-box"
         id="g50">
        <g
           class="vf-notehead"
           pointer-events="bounding-box"
           id="g48">
          <path
             d="m 763.68795,100 m 7.35696,-5.22288 c 0.11232,0 0.2808,0 0.30888,0 0,0 0.0281,0 0.0281,0 0,0 0.16848,0 0.30888,0 2.5272,0.1404 4.01544,1.79712 4.01544,3.87504 0,1.01088 -0.33696,2.16216 -1.17936,3.25728 -1.60056,2.16216 -4.212,3.34152 -6.48648,3.34152 -1.76904,0 -3.28536,-0.702 -4.01544,-2.13408 -0.22464,-0.5616 -0.33696,-1.09512 -0.33696,-1.6848 0,-3.06072 3.42576,-6.4584 7.35696,-6.65496"
             id="path46"
             inkscape:connector-curvature="0"
             style="fill:#000000;stroke:none;stroke-width:0.30000001;stroke-dasharray:none" />
        </g>
      </g>
      <g
         class="vf-modifiers"
         id="g52" />
    </g>
    <g
       class="vf-stavenote"
       id="vf-auto53480"
       transform="matrix(0.8721522,0,0,0.97332473,89.337269,1.9988833)">
      <g
         class="vf-note"
         pointer-events="bounding-box"
         id="g59">
        <g
           class="vf-notehead"
           pointer-events="bounding-box"
           id="g57">
          <path
             d="m 782.58332,100 m 7.35696,-5.22288 c 0.11232,0 0.2808,0 0.30888,0 0,0 0.0281,0 0.0281,0 0,0 0.16848,0 0.30888,0 2.5272,0.1404 4.01544,1.79712 4.01544,3.87504 0,1.01088 -0.33696,2.16216 -1.17936,3.25728 -1.60056,2.16216 -4.212,3.34152 -6.48648,3.34152 -1.76904,0 -3.28536,-0.702 -4.01544,-2.13408 -0.22464,-0.5616 -0.33696,-1.09512 -0.33696,-1.6848 0,-3.06072 3.42576,-6.4584 7.35696,-6.65496"
             id="path55"
             inkscape:connector-curvature="0"
             style="fill:#000000;stroke:none;stroke-width:0.30000001;stroke-dasharray:none" />
        </g>
      </g>
      <g
         class="vf-modifiers"
         id="g61" />
    </g>
    <g
       class="vf-stavenote"
       id="vf-auto53487"
       transform="matrix(0.8721522,0,0,0.97332473,89.337269,1.9988833)">
      <g
         class="vf-note"
         pointer-events="bounding-box"
         id="g68">
        <g
           class="vf-notehead"
           pointer-events="bounding-box"
           id="g66">
          <path
             d="m 801.4787,100 m 7.35696,-5.22288 c 0.11232,0 0.2808,0 0.30888,0 0,0 0.0281,0 0.0281,0 0,0 0.16848,0 0.30888,0 2.5272,0.1404 4.01544,1.79712 4.01544,3.87504 0,1.01088 -0.33696,2.16216 -1.17936,3.25728 -1.60056,2.16216 -4.212,3.34152 -6.48648,3.34152 -1.76904,0 -3.28536,-0.702 -4.01544,-2.13408 -0.22464,-0.5616 -0.33696,-1.09512 -0.33696,-1.6848 0,-3.06072 3.42576,-6.4584 7.35696,-6.65496"
             id="path64"
             inkscape:connector-curvature="0"
             style="fill:#000000;stroke:none;stroke-width:0.30000001;stroke-dasharray:none" />
        </g>
      </g>
      <g
         class="vf-modifiers"
         id="g70" />
    </g>
    <g
       class="vf-stavenote"
       id="vf-auto53494"
       transform="matrix(0.8721522,0,0,0.97332473,89.337269,1.9988833)">
      <g
         class="vf-note"
         pointer-events="bounding-box"
         id="g77">
        <g
           class="vf-notehead"
           pointer-events="bounding-box"
           id="g75">
          <path
             d="m 820.37407,100 m 7.35696,-5.22288 c 0.11232,0 0.2808,0 0.30888,0 0,0 0.0281,0 0.0281,0 0,0 0.16848,0 0.30888,0 2.5272,0.1404 4.01544,1.79712 4.01544,3.87504 0,1.01088 -0.33696,2.16216 -1.17936,3.25728 -1.60056,2.16216 -4.212,3.34152 -6.48648,3.34152 -1.76904,0 -3.28536,-0.702 -4.01544,-2.13408 -0.22464,-0.5616 -0.33696,-1.09512 -0.33696,-1.6848 0,-3.06072 3.42576,-6.4584 7.35696,-6.65496"
             id="path73"
             inkscape:connector-curvature="0"
             style="fill:#000000;stroke:none;stroke-width:0.30000001;stroke-dasharray:none" />
        </g>
      </g>
      <g
         class="vf-modifiers"
         id="g79" />
    </g>
    <path
       style="color:#000000;font-style:normal;font-variant:normal;font-weight:normal;font-stretch:normal;font-size:medium;line-height:normal;font-family:sans-serif;font-variant-ligatures:normal;font-variant-position:normal;font-variant-caps:normal;font-variant-numeric:normal;font-variant-alternates:normal;font-feature-settings:normal;text-indent:0;text-align:start;text-decoration:none;text-decoration-line:none;text-decoration-style:solid;text-decoration-color:#000000;letter-spacing:normal;word-spacing:normal;text-transform:none;writing-mode:lr-tb;direction:ltr;text-orientation:mixed;dominant-baseline:auto;baseline-shift:baseline;text-anchor:start;white-space:normal;shape-padding:0;clip-rule:nonzero;display:inline;overflow:visible;visibility:visible;opacity:1;isolation:auto;mix-blend-mode:normal;color-interpolation:sRGB;color-interpolation-filters:linearRGB;solid-color:#000000;solid-opacity:1;vector-effect:none;fill:#000000;fill-opacity:1;fill-rule:nonzero;stroke:none;stroke-width:1.3820262;stroke-linecap:butt;stroke-linejoin:miter;stroke-miterlimit:4;stroke-dasharray:none;stroke-dashoffset:0;stroke-opacity:1;color-rendering:auto;image-rendering:auto;shape-rendering:auto;text-rendering:auto;enable-background:accumulate"
       d="m 705.95057,99.331361 v 33.336369 h 1.30822 V 99.331361 Z"
       id="path121"
       inkscape:connector-curvature="0" />
    <path
       style="color:#000000;font-style:normal;font-variant:normal;font-weight:normal;font-stretch:normal;font-size:medium;line-height:normal;font-family:sans-serif;font-variant-ligatures:normal;font-variant-position:normal;font-variant-caps:normal;font-variant-numeric:normal;font-variant-alternates:normal;font-feature-settings:normal;text-indent:0;text-align:start;text-decoration:none;text-decoration-line:none;text-decoration-style:solid;text-decoration-color:#000000;letter-spacing:normal;word-spacing:normal;text-transform:none;writing-mode:lr-tb;direction:ltr;text-orientation:mixed;dominant-baseline:auto;baseline-shift:baseline;text-anchor:start;white-space:normal;shape-padding:0;clip-rule:nonzero;display:inline;overflow:visible;visibility:visible;opacity:1;isolation:auto;mix-blend-mode:normal;color-interpolation:sRGB;color-interpolation-filters:linearRGB;solid-color:#000000;solid-opacity:1;vector-effect:none;fill:#000000;fill-opacity:1;fill-rule:nonzero;stroke:none;stroke-width:1.3820262;stroke-linecap:butt;stroke-linejoin:miter;stroke-miterlimit:4;stroke-dasharray:none;stroke-dashoffset:0;stroke-opacity:1;color-rendering:auto;image-rendering:auto;shape-rendering:auto;text-rendering:auto;enable-background:accumulate"
       d="m 722.42947,99.331361 v 33.336369 h 1.30823 V 99.331361 Z"
       id="path123"
       inkscape:connector-curvature="0" />
    <path
       style="color:#000000;font-style:normal;font-variant:normal;font-weight:normal;font-stretch:normal;font-size:medium;line-height:normal;font-family:sans-serif;font-variant-ligatures:normal;font-variant-position:normal;font-variant-caps:normal;font-variant-numeric:normal;font-variant-alternates:normal;font-feature-settings:normal;text-indent:0;text-align:start;text-decoration:none;text-decoration-line:none;text-decoration-style:solid;text-decoration-color:#000000;letter-spacing:normal;word-spacing:normal;text-transform:none;writing-mode:lr-tb;direction:ltr;text-orientation:mixed;dominant-baseline:auto;baseline-shift:baseline;text-anchor:start;white-space:normal;shape-padding:0;clip-rule:nonzero;display:inline;overflow:visible;visibility:visible;opacity:1;isolation:auto;mix-blend-mode:normal;color-interpolation:sRGB;color-interpolation-filters:linearRGB;solid-color:#000000;solid-opacity:1;vector-effect:none;fill:#000000;fill-opacity:1;fill-rule:nonzero;stroke:none;stroke-width:1.3820262;stroke-linecap:butt;stroke-linejoin:miter;stroke-miterlimit:4;stroke-dasharray:none;stroke-dashoffset:0;stroke-opacity:1;color-rendering:auto;image-rendering:auto;shape-rendering:auto;text-rendering:auto;enable-background:accumulate"
       d="m 738.91008,99.331361 v 33.336369 h 1.30823 V 99.331361 Z"
       id="path125"
       inkscape:connector-curvature="0" />
    <path
       style="color:#000000;font-style:normal;font-variant:normal;font-weight:normal;font-stretch:normal;font-size:medium;line-height:normal;font-family:sans-serif;font-variant-ligatures:normal;font-variant-position:normal;font-variant-caps:normal;font-variant-numeric:normal;font-variant-alternates:normal;font-feature-settings:normal;text-indent:0;text-align:start;text-decoration:none;text-decoration-line:none;text-decoration-style:solid;text-decoration-color:#000000;letter-spacing:normal;word-spacing:normal;text-transform:none;writing-mode:lr-tb;direction:ltr;text-orientation:mixed;dominant-baseline:auto;baseline-shift:baseline;text-anchor:start;white-space:normal;shape-padding:0;clip-rule:nonzero;display:inline;overflow:visible;visibility:visible;opacity:1;isolation:auto;mix-blend-mode:normal;color-interpolation:sRGB;color-interpolation-filters:linearRGB;solid-color:#000000;solid-opacity:1;vector-effect:none;fill:#000000;fill-opacity:1;fill-rule:nonzero;stroke:none;stroke-width:1.3820262;stroke-linecap:butt;stroke-linejoin:miter;stroke-miterlimit:4;stroke-dasharray:none;stroke-dashoffset:0;stroke-opacity:1;color-rendering:auto;image-rendering:auto;shape-rendering:auto;text-rendering:auto;enable-background:accumulate"
       d="m 755.38899,99.331361 v 33.336369 h 1.30823 V 99.331361 Z"
       id="path127"
       inkscape:connector-curvature="0" />
    <path
       style="color:#000000;font-style:normal;font-variant:normal;font-weight:normal;font-stretch:normal;font-size:medium;line-height:normal;font-family:sans-serif;font-variant-ligatures:normal;font-variant-position:normal;font-variant-caps:normal;font-variant-numeric:normal;font-variant-alternates:normal;font-feature-settings:normal;text-indent:0;text-align:start;text-decoration:none;text-decoration-line:none;text-decoration-style:solid;text-decoration-color:#000000;letter-spacing:normal;word-spacing:normal;text-transform:none;writing-mode:lr-tb;direction:ltr;text-orientation:mixed;dominant-baseline:auto;baseline-shift:baseline;text-anchor:start;white-space:normal;shape-padding:0;clip-rule:nonzero;display:inline;overflow:visible;visibility:visible;opacity:1;isolation:auto;mix-blend-mode:normal;color-interpolation:sRGB;color-interpolation-filters:linearRGB;solid-color:#000000;solid-opacity:1;vector-effect:none;fill:#000000;fill-opacity:1;fill-rule:nonzero;stroke:none;stroke-width:1.3820262;stroke-linecap:butt;stroke-linejoin:miter;stroke-miterlimit:4;stroke-dasharray:none;stroke-dashoffset:0;stroke-opacity:1;color-rendering:auto;image-rendering:auto;shape-rendering:auto;text-rendering:auto;enable-background:accumulate"
       d="m 771.8696,99.331361 v 33.336369 h 1.30822 V 99.331361 Z"
       id="path129"
       inkscape:connector-curvature="0" />
    <path
       style="color:#000000;font-style:normal;font-variant:normal;font-weight:normal;font-stretch:normal;font-size:medium;line-height:normal;font-family:sans-serif;font-variant-ligatures:normal;font-variant-position:normal;font-variant-caps:normal;font-variant-numeric:normal;font-variant-alternates:normal;font-feature-settings:normal;text-indent:0;text-align:start;text-decoration:none;text-decoration-line:none;text-decoration-style:solid;text-decoration-color:#000000;letter-spacing:normal;word-spacing:normal;text-transform:none;writing-mode:lr-tb;direction:ltr;text-orientation:mixed;dominant-baseline:auto;baseline-shift:baseline;text-anchor:start;white-space:normal;shape-padding:0;clip-rule:nonzero;display:inline;overflow:visible;visibility:visible;opacity:1;isolation:auto;mix-blend-mode:normal;color-interpolation:sRGB;color-interpolation-filters:linearRGB;solid-color:#000000;solid-opacity:1;vector-effect:none;fill:#000000;fill-opacity:1;fill-rule:nonzero;stroke:none;stroke-width:1.3820262;stroke-linecap:butt;stroke-linejoin:miter;stroke-miterlimit:4;stroke-dasharray:none;stroke-dashoffset:0;stroke-opacity:1;color-rendering:auto;image-rendering:auto;shape-rendering:auto;text-rendering:auto;enable-background:accumulate"
       d="m 788.34851,99.331361 v 33.336369 h 1.30822 V 99.331361 Z"
       id="path131"
       inkscape:connector-curvature="0" />
    <path
       style="color:#000000;font-style:normal;font-variant:normal;font-weight:normal;font-stretch:normal;font-size:medium;line-height:normal;font-family:sans-serif;font-variant-ligatures:normal;font-variant-position:normal;font-variant-caps:normal;font-variant-numeric:normal;font-variant-alternates:normal;font-feature-settings:normal;text-indent:0;text-align:start;text-decoration:none;text-decoration-line:none;text-decoration-style:solid;text-decoration-color:#000000;letter-spacing:normal;word-spacing:normal;text-transform:none;writing-mode:lr-tb;direction:ltr;text-orientation:mixed;dominant-baseline:auto;baseline-shift:baseline;text-anchor:start;white-space:normal;shape-padding:0;clip-rule:nonzero;display:inline;overflow:visible;visibility:visible;opacity:1;isolation:auto;mix-blend-mode:normal;color-interpolation:sRGB;color-interpolation-filters:linearRGB;solid-color:#000000;solid-opacity:1;vector-effect:none;fill:#000000;fill-opacity:1;fill-rule:nonzero;stroke:none;stroke-width:1.3820262;stroke-linecap:butt;stroke-linejoin:miter;stroke-miterlimit:4;stroke-dasharray:none;stroke-dashoffset:0;stroke-opacity:1;color-rendering:auto;image-rendering:auto;shape-rendering:auto;text-rendering:auto;enable-background:accumulate"
       d="m 804.82912,99.331361 v 33.336369 h 1.30822 V 99.331361 Z"
       id="path133"
       inkscape:connector-curvature="0" />
    <path
       d="m 705.95045,133.39773 v -4.86663 h 99.75001 v 4.86663 z"
       id="path135"
       inkscape:connector-curvature="0"
       style="fill:#000000;stroke:none;stroke-width:0.27640527;stroke-dasharray:none" />
    <path
       d="m 705.95045,126.09779 v -4.86662 h 99.75001 v 4.86662 z"
       id="path137"
       inkscape:connector-curvature="0"
       style="fill:#000000;stroke:none;stroke-width:0.27640527;stroke-dasharray:none" />
    <g
       id="g962"
       transform="translate(-3.0588862,16.168398)">
      <rect
         id="rect139"
         height="0.97332478"
         width="50.794037"
         y="64.833694"
         x="701.98077"
         style="fill:#000000;stroke:#000000;stroke-width:0.27640527;stroke-dasharray:none" />
      <rect
         id="rect141"
         height="0.97332478"
         width="50.794037"
         y="64.833694"
         x="769.26782"
         style="fill:#000000;stroke:#000000;stroke-width:0.27640527;stroke-dasharray:none" />
      <rect
         id="rect143"
         height="9.7332478"
         width="0.87215221"
         y="64.833694"
         x="701.98077"
         style="fill:#000000;stroke:#000000;stroke-width:0.27640527;stroke-dasharray:none" />
      <rect
         id="rect145"
         height="9.7332478"
         width="0.87215221"
         y="64.833694"
         x="820.06189"
         style="fill:#000000;stroke:#000000;stroke-width:0.27640527;stroke-dasharray:none" />
      <path
         id="path147"
         d="m 757.13556,71.971412 m 2.58464,-12.715203 c 0.1055,-0.01962 0.22858,-0.01962 0.33408,-0.01962 0.89671,0 1.88134,0.372823 2.58464,1.000734 0.17582,0.196222 0.26374,0.215845 0.47473,0.215845 h 0.0176 c 0.45715,0 0.86155,-0.274712 1.24836,-0.804512 0.0703,-0.137355 0.15825,-0.196222 0.26375,-0.196222 0.0703,0 0.14066,0.01962 0.21099,0.117733 0.0352,0.03924 0.0527,0.07849 0.0527,0.1766 0,0.137356 -0.0527,0.392445 -0.21099,1.0596 -0.38681,1.510912 -0.93187,3.119934 -1.37144,3.924446 -0.47473,0.883 -0.68572,1.393178 -0.91429,2.158445 -0.29891,1.059601 -0.47473,2.335045 -0.47473,3.43389 0,0.372822 -0.0176,0.490556 -0.14066,0.569044 l -0.0703,0.01962 h -1.4066 -1.44178 l -0.0528,-0.01962 c -0.0176,-0.01963 -0.0703,-0.07849 -0.0879,-0.117733 l -0.0352,-0.03924 v -0.27471 c 0,-1.098845 0.38682,-2.452779 1.01979,-3.649735 0.5099,-0.981111 1.14287,-1.805245 2.00442,-2.707867 0.94946,-0.941867 1.54727,-1.726756 2.05716,-2.747112 l 0.0703,-0.137356 -0.12308,0.07849 c -0.73846,0.627911 -1.58243,0.961489 -2.37365,0.961489 -0.73846,0 -1.40661,-0.274711 -1.95167,-0.784889 -0.36922,-0.333578 -0.59781,-0.490556 -0.79121,-0.490556 -0.0528,0 -0.1055,0 -0.14066,0.01962 -0.29891,0.07849 -0.58022,0.569045 -0.79122,1.412801 -0.0703,0.274711 -0.12308,0.333578 -0.2989,0.333578 -0.10549,0 -0.17583,-0.01963 -0.22858,-0.137356 l -0.0176,-0.05887 v -1.432423 -1.452045 l 0.0176,-0.05887 c 0.0528,-0.09811 0.14067,-0.156977 0.26374,-0.156977 0.0176,0 0.0703,0.01962 0.12308,0.05887 0.22857,0.1766 0.28132,0.1766 0.45715,0.1766 0.17582,0 0.54506,-0.07849 0.82638,-0.235466 0.0528,0 0.1055,-0.01962 0.14066,-0.01962 0.0528,-0.03924 0.14066,-0.05887 0.22857,-0.09811 0.14066,-0.01962 0.35166,-0.07849 0.52748,-0.07849 m 1.28354,12.734825 h 0.0176 -0.0352 0.0176 m 0,-13.225381 h 0.0176 -0.0352 0.0176"
         inkscape:connector-curvature="0"
         style="fill:#000000;stroke:none;stroke-width:0.27640527;stroke-dasharray:none" />
    </g>
  </g>
</svg>
