<svg width="84" height="68" >
<g transform="translate(-600 -280) scale(2.0 2.0) scale(1.0 1.0)" >
<path stroke-width="0.3" fill="black" stroke="none" stroke-dasharray="none" d="M305.0000305175781 160M311.73059051757815 149.79472C311.8126705175781 149.79472,311.86739051757814 149.79472,311.9494705175781 149.79472C313.2901105175781 149.79472,314.84963051757813 150.39664,315.1779505175781 151.13536C315.31475051757815 151.32688,315.34211051757813 151.54576,315.34211051757813 151.73728C315.34211051757813 152.39392,314.9043505175781 153.0232,314.2477105175781 153.13264C314.1382705175781 153.18736,314.08355051757815 153.18736,313.97411051757814 153.18736C313.2901105175781 153.18736,312.74291051757814 152.6128,312.74291051757814 151.95616C312.74291051757814 151.76463999999999,312.7702705175781 151.57312,312.87971051757813 151.3816C312.9070705175781 151.32688,312.9070705175781 151.27215999999999,312.9070705175781 151.27215999999999C312.9070705175781 151.27215999999999,312.9070705175781 151.27215999999999,312.9070705175781 151.27215999999999C312.9070705175781 151.2448,312.85235051757815 151.2448,312.74291051757814 151.2448C312.63347051757813 151.19008,312.49667051757814 151.19008,312.38723051757813 151.19008C311.62115051757814 151.19008,310.88243051757814 151.57312,310.63619051757814 152.12032C310.63619051757814 152.14768,310.63619051757814 152.2024,310.63619051757814 152.25712C310.63619051757814 152.69488,311.2928305175781 153.48832,312.0315505175781 153.89872C312.4419505175781 154.17232,312.5787505175781 154.2544,312.7702705175781 154.36384C313.97411051757814 155.26672,314.60339051757813 156.4432,314.60339051757813 157.5376C314.60339051757813 157.97536,314.5213105175781 158.38576,314.3024305175781 158.71408C313.59107051757815 160.05472,312.22307051757815 160.8208,310.6088305175781 160.8208C310.41731051757813 160.8208,310.1984305175781 160.8208,309.9795505175781 160.79344C309.02195051757815 160.65664,307.81811051757813 160.1368,307.29827051757815 159.5896C307.0246705175781 159.34336,306.91523051757815 159.01504,306.91523051757815 158.68672C306.91523051757815 158.0848,307.32563051757813 157.42816,307.9549105175781 157.29136C308.06435051757813 157.23664,308.2011505175781 157.20928,308.31059051757813 157.20928C309.02195051757815 157.20928,309.5691505175781 157.8112,309.5691505175781 158.46784C309.5691505175781 158.68672,309.4870705175781 158.9056,309.3502705175781 159.15184L309.26819051757815 159.28864L309.29555051757814 159.28864C309.5691505175781 159.39808,309.8701105175781 159.4528,310.1984305175781 159.4528C310.49939051757815 159.4528,310.8003505175781 159.39808,311.01923051757814 159.28864C311.64851051757813 159.06976,312.0589105175781 158.60464,312.0589105175781 158.2216C312.0589105175781 158.19424,312.0589105175781 158.11216,312.0315505175781 158.0848C311.8126705175781 157.42816,311.40227051757813 157.01776,310.5814705175781 156.55264C309.04931051757814 155.67712,308.1190705175781 154.28176,308.1190705175781 152.94112C308.1190705175781 152.53072,308.2285105175781 152.12032,308.42003051757814 151.73728C309.02195051757815 150.64288,310.28051051757814 149.8768,311.73059051757815 149.79472"></path>
<path stroke-width="0.3" fill="black" stroke="none" stroke-dasharray="none" d="M315.0000305175781 160M327.5856305175781 144.29536C327.6129905175781 144.29536,327.6403505175781 144.29536,327.69507051757813 144.29536C327.8592305175781 144.29536,328.16019051757814 144.29536,328.3517105175781 144.29536C328.43379051757813 144.29536,328.6253105175781 144.29536,328.68003051757813 144.32272C329.8565105175781 144.4048,331.0877105175781 145.28032,331.25187051757814 146.23792C331.3065905175781 146.37472,331.3339505175781 146.48416,331.3339505175781 146.64832C331.3339505175781 147.71536,330.4310705175781 148.59088,329.4461105175781 148.59088C329.1998705175781 148.59088,328.9536305175781 148.53616,328.7347505175781 148.42672C328.05075051757814 148.12576,327.7224305175781 147.46912,327.7224305175781 146.83984C327.7224305175781 146.34736,327.91395051757814 145.88224,328.3517105175781 145.55392C328.40643051757814 145.4992,328.40643051757814 145.4992,328.40643051757814 145.4992C328.40643051757814 145.4992,328.40643051757814 145.4992,328.40643051757814 145.4992C328.3517105175781 145.4992,327.9960305175781 145.69072,327.80451051757814 145.85488C326.46387051757813 146.7304,325.31475051757815 148.5088,324.5486705175781 150.6976C324.5213105175781 150.86176,324.4939505175781 150.9712,324.4939505175781 150.9712C324.4939505175781 151.02592,324.93171051757815 151.02592,325.47891051757813 151.02592C326.57331051757814 151.02592,326.6006705175781 151.02592,326.71011051757813 151.08064C326.9837105175781 151.2448,327.0931505175781 151.46368,327.0931505175781 151.73728C327.0931505175781 151.95616,326.9837105175781 152.2024,326.7648305175781 152.31184C326.6006705175781 152.42128,326.6553905175781 152.44864,325.5336305175781 152.44864L325.31475051757815 152.44864L324.08355051757815 152.44864L324.0288305175781 152.64016C323.2901105175781 156.55264,321.8400305175781 160.24624,319.8701105175781 163.20112C318.52947051757815 165.30784,316.8878705175781 166.48432,315.0273905175781 166.81264C314.83587051757814 166.86736,314.6443505175781 166.86736,314.45283051757815 166.86736C313.22163051757815 166.86736,312.26403051757814 166.21072,311.88099051757814 165.11632C311.7989105175781 164.84271999999999,311.77155051757813 164.54176,311.77155051757813 164.26816C311.77155051757813 163.17376,312.51027051757814 162.29824,313.60467051757814 162.29824C313.74147051757814 162.29824,313.9329905175781 162.35296,314.1518705175781 162.38032C315.0000305175781 162.5992,315.43779051757815 163.39264,315.43779051757815 164.15872C315.43779051757815 164.73328,315.21891051757814 165.30784,314.6717105175781 165.6088C314.61699051757813 165.63616,314.5622705175781 165.69088,314.5622705175781 165.69088C314.5622705175781 165.69088,314.61699051757813 165.69088,314.61699051757813 165.69088C314.61699051757813 165.69088,314.6717105175781 165.69088,314.7537905175781 165.63616C315.6293105175781 165.38992,316.4774705175781 164.54176,317.0246705175781 163.39264C317.68131051757814 162.16144,318.42003051757814 159.39808,319.7059505175781 153.87136C319.8701105175781 153.10528,320.00691051757815 152.50336,320.0616305175781 152.44864C320.0616305175781 152.44864,320.0616305175781 152.44864,320.0616305175781 152.44864C320.0616305175781 152.44864,319.9521905175781 152.44864,318.8577905175781 152.44864C317.6265905175781 152.44864,317.6265905175781 152.44864,317.4897905175781 152.3392C317.2709105175781 152.2024,317.1067505175781 151.95616,317.1067505175781 151.73728C317.1067505175781 151.46368,317.2709105175781 151.2448,317.4897905175781 151.08064C317.5992305175781 151.02592,317.6265905175781 151.02592,319.04931051757814 151.02592L320.41731051757813 150.9712L320.52675051757814 150.67024C321.8126705175781 147.05872,324.60339051757813 144.51424,327.5856305175781 144.29536"></path>
<path stroke-width="0.3" fill="black" stroke="none" stroke-dasharray="none" d="M327.0000305175781 160M330.1464305175781 150.5608C330.2011505175781 150.5608,331.54179051757814 150.50608,333.0465905175781 150.50608C335.37219051757813 150.50608,338.19027051757814 150.5608,338.2449905175781 150.5608C338.3817905175781 150.64288,338.4912305175781 150.8344,338.4912305175781 150.9712C338.4912305175781 151.08064,338.46387051757813 151.21744,338.3544305175781 151.27215999999999C337.8619505175781 151.70992,331.89747051757814 156.77152,331.8701105175781 156.77152C331.8701105175781 156.77152,331.8701105175781 156.79888,331.8701105175781 156.79888C331.8701105175781 156.79888,331.8701105175781 156.79888,331.9521905175781 156.79888C331.9795505175781 156.79888,332.0616305175781 156.79888,332.17107051757813 156.79888C332.1984305175781 156.79888,332.2257905175781 156.79888,332.28051051757814 156.79888C332.88243051757814 156.79888,333.3475505175781 156.96304,333.75795051757814 157.31872C334.2777905175781 157.72912,334.6608305175781 157.92064,335.09859051757815 157.948C335.1806705175781 157.948,335.20803051757815 157.948,335.2627505175781 157.948C335.5089905175781 157.948,335.61843051757813 157.83856,335.8099505175781 157.51024C335.8099505175781 157.51024,335.8099505175781 157.51024,335.8099505175781 157.51024C335.8099505175781 157.51024,335.8099505175781 157.51024,335.8099505175781 157.51024C335.8099505175781 157.51024,335.7825905175781 157.51024,335.72787051757814 157.51024C335.7005105175781 157.5376,335.61843051757813 157.5376,335.5637105175781 157.5376C335.20803051757815 157.5376,334.87971051757813 157.34608,334.74291051757814 157.07248C334.63347051757813 156.88096,334.5787505175781 156.68944,334.5787505175781 156.55264C334.5787505175781 155.92336,335.0712305175781 155.43088,335.72787051757814 155.43088C335.72787051757814 155.43088,335.72787051757814 155.43088,335.72787051757814 155.43088C336.4939505175781 155.43088,336.9043505175781 155.97808,336.9043505175781 156.77152C336.9043505175781 157.04512,336.82227051757815 157.37344,336.71283051757814 157.75648C336.5486705175781 158.2216,336.3024305175781 158.4952,335.5089905175781 159.09712C334.7702705175781 159.67168,333.9221105175781 159.97264,333.12867051757814 159.97264C332.8277105175781 159.97264,332.5814705175781 159.94528,332.3078705175781 159.8632C332.00691051757815 159.78112,331.8701105175781 159.69904,331.5965105175781 159.50752C331.1313905175781 159.1792,330.55683051757813 159.01504,330.0096305175781 159.01504C329.40771051757815 159.01504,328.8605105175781 159.20656,328.55955051757815 159.5896C328.4774705175781 159.67168,328.3953905175781 159.69904,328.2859505175781 159.69904C328.09443051757813 159.69904,327.93027051757815 159.64432,327.84819051757813 159.4528C327.84819051757813 159.39808,327.7934705175781 159.316,327.7934705175781 159.28864C327.7934705175781 159.01504,328.06707051757814 158.7688,328.8605105175781 158.19424C328.9973105175781 158.05744,334.6881905175781 153.21472,334.7976305175781 153.16C334.7976305175781 153.16,334.7976305175781 153.16,334.7976305175781 153.16C334.7976305175781 153.10528,334.14099051757813 153.10528,333.3201905175781 153.10528C332.1984305175781 153.10528,330.8577905175781 153.16,330.7483505175781 153.16C330.3379505175781 153.21472,330.0096305175781 153.40624,329.54451051757815 153.78928C329.40771051757815 153.92608,329.2709105175781 153.9808,329.1341105175781 153.9808C329.0246705175781 153.9808,328.91523051757815 153.92608,328.80579051757815 153.78928C328.7784305175781 153.73456,328.7237105175781 153.67984,328.7237105175781 153.59776C328.7237105175781 153.40624,328.8878705175781 153.10528,329.32563051757813 152.03824C329.9549105175781 150.64288,329.9549105175781 150.58816,330.1464305175781 150.5608"></path>
</g>
</svg>